%TF.GenerationSoftware,KiCad,Pcbnew,5.1.9-73d0e3b20d~88~ubuntu20.10.1*%
%TF.CreationDate,2021-04-24T17:05:30-07:00*%
%TF.ProjectId,macropad-v2_0_1,6d616372-6f70-4616-942d-76325f305f31,rev?*%
%TF.SameCoordinates,Original*%
%TF.FileFunction,Legend,Bot*%
%TF.FilePolarity,Positive*%
%FSLAX46Y46*%
G04 Gerber Fmt 4.6, Leading zero omitted, Abs format (unit mm)*
G04 Created by KiCad (PCBNEW 5.1.9-73d0e3b20d~88~ubuntu20.10.1) date 2021-04-24 17:05:30*
%MOMM*%
%LPD*%
G01*
G04 APERTURE LIST*
%ADD10C,0.300000*%
%ADD11C,0.010000*%
%ADD12C,0.120000*%
%ADD13C,0.127000*%
%ADD14C,0.200000*%
%ADD15C,0.150000*%
G04 APERTURE END LIST*
D10*
X65821428Y-64000000D02*
X67321428Y-64000000D01*
X66250000Y-63500000D01*
X67321428Y-63000000D01*
X65821428Y-63000000D01*
X65821428Y-61642857D02*
X66607142Y-61642857D01*
X66750000Y-61714285D01*
X66821428Y-61857142D01*
X66821428Y-62142857D01*
X66750000Y-62285714D01*
X65892857Y-61642857D02*
X65821428Y-61785714D01*
X65821428Y-62142857D01*
X65892857Y-62285714D01*
X66035714Y-62357142D01*
X66178571Y-62357142D01*
X66321428Y-62285714D01*
X66392857Y-62142857D01*
X66392857Y-61785714D01*
X66464285Y-61642857D01*
X65892857Y-60285714D02*
X65821428Y-60428571D01*
X65821428Y-60714285D01*
X65892857Y-60857142D01*
X65964285Y-60928571D01*
X66107142Y-61000000D01*
X66535714Y-61000000D01*
X66678571Y-60928571D01*
X66750000Y-60857142D01*
X66821428Y-60714285D01*
X66821428Y-60428571D01*
X66750000Y-60285714D01*
X65821428Y-59642857D02*
X66821428Y-59642857D01*
X66535714Y-59642857D02*
X66678571Y-59571428D01*
X66750000Y-59500000D01*
X66821428Y-59357142D01*
X66821428Y-59214285D01*
X65821428Y-58500000D02*
X65892857Y-58642857D01*
X65964285Y-58714285D01*
X66107142Y-58785714D01*
X66535714Y-58785714D01*
X66678571Y-58714285D01*
X66750000Y-58642857D01*
X66821428Y-58500000D01*
X66821428Y-58285714D01*
X66750000Y-58142857D01*
X66678571Y-58071428D01*
X66535714Y-58000000D01*
X66107142Y-58000000D01*
X65964285Y-58071428D01*
X65892857Y-58142857D01*
X65821428Y-58285714D01*
X65821428Y-58500000D01*
X66821428Y-57357142D02*
X65321428Y-57357142D01*
X66750000Y-57357142D02*
X66821428Y-57214285D01*
X66821428Y-56928571D01*
X66750000Y-56785714D01*
X66678571Y-56714285D01*
X66535714Y-56642857D01*
X66107142Y-56642857D01*
X65964285Y-56714285D01*
X65892857Y-56785714D01*
X65821428Y-56928571D01*
X65821428Y-57214285D01*
X65892857Y-57357142D01*
X65821428Y-55357142D02*
X66607142Y-55357142D01*
X66750000Y-55428571D01*
X66821428Y-55571428D01*
X66821428Y-55857142D01*
X66750000Y-56000000D01*
X65892857Y-55357142D02*
X65821428Y-55500000D01*
X65821428Y-55857142D01*
X65892857Y-56000000D01*
X66035714Y-56071428D01*
X66178571Y-56071428D01*
X66321428Y-56000000D01*
X66392857Y-55857142D01*
X66392857Y-55500000D01*
X66464285Y-55357142D01*
X65821428Y-54000000D02*
X67321428Y-54000000D01*
X65892857Y-54000000D02*
X65821428Y-54142857D01*
X65821428Y-54428571D01*
X65892857Y-54571428D01*
X65964285Y-54642857D01*
X66107142Y-54714285D01*
X66535714Y-54714285D01*
X66678571Y-54642857D01*
X66750000Y-54571428D01*
X66821428Y-54428571D01*
X66821428Y-54142857D01*
X66750000Y-54000000D01*
D11*
%TO.C,Ref\u002A\u002A*%
G36*
X7691359Y-21694080D02*
G01*
X7622890Y-21874507D01*
X7559320Y-22042788D01*
X7502190Y-22194788D01*
X7453041Y-22326372D01*
X7413413Y-22433402D01*
X7384849Y-22511744D01*
X7368890Y-22557262D01*
X7366000Y-22567205D01*
X7385194Y-22576649D01*
X7434930Y-22583047D01*
X7488503Y-22584833D01*
X7611006Y-22584833D01*
X7772188Y-22140333D01*
X8483830Y-22140333D01*
X8546616Y-22314958D01*
X8577032Y-22400300D01*
X8603252Y-22475211D01*
X8620891Y-22527122D01*
X8624127Y-22537208D01*
X8637133Y-22564078D01*
X8662321Y-22578433D01*
X8710846Y-22584060D01*
X8764427Y-22584833D01*
X8830983Y-22582135D01*
X8876511Y-22575129D01*
X8890000Y-22567205D01*
X8882703Y-22544307D01*
X8861837Y-22486000D01*
X8828945Y-22396418D01*
X8785568Y-22279699D01*
X8733246Y-22139977D01*
X8673521Y-21981389D01*
X8643558Y-21902208D01*
X8397631Y-21902208D01*
X8392089Y-21913431D01*
X8362210Y-21921196D01*
X8303076Y-21925986D01*
X8209772Y-21928282D01*
X8128000Y-21928667D01*
X8009713Y-21927738D01*
X7928809Y-21924632D01*
X7880372Y-21918866D01*
X7859485Y-21909957D01*
X7858370Y-21902208D01*
X7868557Y-21874344D01*
X7890472Y-21813726D01*
X7921559Y-21727448D01*
X7959261Y-21622607D01*
X7991872Y-21531792D01*
X8032833Y-21419597D01*
X8069531Y-21322724D01*
X8099417Y-21247616D01*
X8119940Y-21200719D01*
X8128000Y-21187833D01*
X8138923Y-21206733D01*
X8161303Y-21259138D01*
X8192592Y-21338602D01*
X8230238Y-21438682D01*
X8264128Y-21531792D01*
X8305234Y-21646244D01*
X8341735Y-21747710D01*
X8371075Y-21829094D01*
X8390697Y-21883302D01*
X8397631Y-21902208D01*
X8643558Y-21902208D01*
X8607934Y-21808070D01*
X8564641Y-21694080D01*
X8239282Y-20838583D01*
X8016718Y-20838583D01*
X7691359Y-21694080D01*
G37*
X7691359Y-21694080D02*
X7622890Y-21874507D01*
X7559320Y-22042788D01*
X7502190Y-22194788D01*
X7453041Y-22326372D01*
X7413413Y-22433402D01*
X7384849Y-22511744D01*
X7368890Y-22557262D01*
X7366000Y-22567205D01*
X7385194Y-22576649D01*
X7434930Y-22583047D01*
X7488503Y-22584833D01*
X7611006Y-22584833D01*
X7772188Y-22140333D01*
X8483830Y-22140333D01*
X8546616Y-22314958D01*
X8577032Y-22400300D01*
X8603252Y-22475211D01*
X8620891Y-22527122D01*
X8624127Y-22537208D01*
X8637133Y-22564078D01*
X8662321Y-22578433D01*
X8710846Y-22584060D01*
X8764427Y-22584833D01*
X8830983Y-22582135D01*
X8876511Y-22575129D01*
X8890000Y-22567205D01*
X8882703Y-22544307D01*
X8861837Y-22486000D01*
X8828945Y-22396418D01*
X8785568Y-22279699D01*
X8733246Y-22139977D01*
X8673521Y-21981389D01*
X8643558Y-21902208D01*
X8397631Y-21902208D01*
X8392089Y-21913431D01*
X8362210Y-21921196D01*
X8303076Y-21925986D01*
X8209772Y-21928282D01*
X8128000Y-21928667D01*
X8009713Y-21927738D01*
X7928809Y-21924632D01*
X7880372Y-21918866D01*
X7859485Y-21909957D01*
X7858370Y-21902208D01*
X7868557Y-21874344D01*
X7890472Y-21813726D01*
X7921559Y-21727448D01*
X7959261Y-21622607D01*
X7991872Y-21531792D01*
X8032833Y-21419597D01*
X8069531Y-21322724D01*
X8099417Y-21247616D01*
X8119940Y-21200719D01*
X8128000Y-21187833D01*
X8138923Y-21206733D01*
X8161303Y-21259138D01*
X8192592Y-21338602D01*
X8230238Y-21438682D01*
X8264128Y-21531792D01*
X8305234Y-21646244D01*
X8341735Y-21747710D01*
X8371075Y-21829094D01*
X8390697Y-21883302D01*
X8397631Y-21902208D01*
X8643558Y-21902208D01*
X8607934Y-21808070D01*
X8564641Y-21694080D01*
X8239282Y-20838583D01*
X8016718Y-20838583D01*
X7691359Y-21694080D01*
G36*
X5731697Y-21500042D02*
G01*
X5729962Y-21689561D01*
X5728234Y-21841451D01*
X5726169Y-21960413D01*
X5723426Y-22051150D01*
X5719663Y-22118362D01*
X5714539Y-22166753D01*
X5707712Y-22201024D01*
X5698840Y-22225877D01*
X5687581Y-22246015D01*
X5676290Y-22262361D01*
X5610445Y-22334143D01*
X5530312Y-22378798D01*
X5426522Y-22400320D01*
X5344583Y-22403799D01*
X5221036Y-22394825D01*
X5127058Y-22365239D01*
X5053282Y-22311049D01*
X5012877Y-22262361D01*
X4999399Y-22242578D01*
X4988589Y-22221946D01*
X4980104Y-22195765D01*
X4973604Y-22159332D01*
X4968747Y-22107945D01*
X4965190Y-22036902D01*
X4962592Y-21941501D01*
X4960612Y-21817040D01*
X4958907Y-21658817D01*
X4957470Y-21500042D01*
X4951357Y-20806833D01*
X4699000Y-20806833D01*
X4699000Y-21479015D01*
X4699644Y-21650025D01*
X4701471Y-21808967D01*
X4704326Y-21950245D01*
X4708054Y-22068264D01*
X4712499Y-22157429D01*
X4717506Y-22212145D01*
X4719679Y-22223297D01*
X4768898Y-22332595D01*
X4846779Y-22435091D01*
X4933472Y-22509322D01*
X5062960Y-22572911D01*
X5214685Y-22611635D01*
X5375340Y-22623629D01*
X5531619Y-22607024D01*
X5567880Y-22598338D01*
X5715234Y-22539474D01*
X5832962Y-22450694D01*
X5920255Y-22332727D01*
X5958002Y-22247343D01*
X5967325Y-22213730D01*
X5974742Y-22168423D01*
X5980448Y-22106778D01*
X5984636Y-22024154D01*
X5987502Y-21915908D01*
X5989241Y-21777398D01*
X5990049Y-21603982D01*
X5990167Y-21481505D01*
X5990167Y-20806833D01*
X5737810Y-20806833D01*
X5731697Y-21500042D01*
G37*
X5731697Y-21500042D02*
X5729962Y-21689561D01*
X5728234Y-21841451D01*
X5726169Y-21960413D01*
X5723426Y-22051150D01*
X5719663Y-22118362D01*
X5714539Y-22166753D01*
X5707712Y-22201024D01*
X5698840Y-22225877D01*
X5687581Y-22246015D01*
X5676290Y-22262361D01*
X5610445Y-22334143D01*
X5530312Y-22378798D01*
X5426522Y-22400320D01*
X5344583Y-22403799D01*
X5221036Y-22394825D01*
X5127058Y-22365239D01*
X5053282Y-22311049D01*
X5012877Y-22262361D01*
X4999399Y-22242578D01*
X4988589Y-22221946D01*
X4980104Y-22195765D01*
X4973604Y-22159332D01*
X4968747Y-22107945D01*
X4965190Y-22036902D01*
X4962592Y-21941501D01*
X4960612Y-21817040D01*
X4958907Y-21658817D01*
X4957470Y-21500042D01*
X4951357Y-20806833D01*
X4699000Y-20806833D01*
X4699000Y-21479015D01*
X4699644Y-21650025D01*
X4701471Y-21808967D01*
X4704326Y-21950245D01*
X4708054Y-22068264D01*
X4712499Y-22157429D01*
X4717506Y-22212145D01*
X4719679Y-22223297D01*
X4768898Y-22332595D01*
X4846779Y-22435091D01*
X4933472Y-22509322D01*
X5062960Y-22572911D01*
X5214685Y-22611635D01*
X5375340Y-22623629D01*
X5531619Y-22607024D01*
X5567880Y-22598338D01*
X5715234Y-22539474D01*
X5832962Y-22450694D01*
X5920255Y-22332727D01*
X5958002Y-22247343D01*
X5967325Y-22213730D01*
X5974742Y-22168423D01*
X5980448Y-22106778D01*
X5984636Y-22024154D01*
X5987502Y-21915908D01*
X5989241Y-21777398D01*
X5990049Y-21603982D01*
X5990167Y-21481505D01*
X5990167Y-20806833D01*
X5737810Y-20806833D01*
X5731697Y-21500042D01*
G36*
X10575309Y-20827419D02*
G01*
X10448065Y-20856274D01*
X10339981Y-20908826D01*
X10247366Y-20982542D01*
X10188622Y-21052262D01*
X10135515Y-21139517D01*
X10095559Y-21229500D01*
X10076265Y-21307407D01*
X10075540Y-21321181D01*
X10077372Y-21354718D01*
X10090026Y-21371692D01*
X10123787Y-21376706D01*
X10188936Y-21374359D01*
X10193812Y-21374098D01*
X10261659Y-21369077D01*
X10300039Y-21358169D01*
X10321777Y-21333639D01*
X10339699Y-21287757D01*
X10340396Y-21285724D01*
X10398596Y-21177755D01*
X10486946Y-21093435D01*
X10597244Y-21038484D01*
X10721292Y-21018619D01*
X10723373Y-21018618D01*
X10857563Y-21038516D01*
X10974502Y-21096064D01*
X11070661Y-21188866D01*
X11135747Y-21298804D01*
X11156015Y-21348283D01*
X11169973Y-21396531D01*
X11178792Y-21453014D01*
X11183638Y-21527201D01*
X11185680Y-21628559D01*
X11186045Y-21706417D01*
X11185605Y-21828140D01*
X11183010Y-21916965D01*
X11177112Y-21982314D01*
X11166766Y-22033609D01*
X11150828Y-22080272D01*
X11136561Y-22113389D01*
X11078898Y-22211492D01*
X11003261Y-22298860D01*
X10919569Y-22366112D01*
X10837745Y-22403867D01*
X10826766Y-22406310D01*
X10725367Y-22415851D01*
X10612959Y-22411598D01*
X10504681Y-22395367D01*
X10415671Y-22368973D01*
X10384263Y-22353244D01*
X10308167Y-22306214D01*
X10308167Y-21928667D01*
X10731500Y-21928667D01*
X10731500Y-21717000D01*
X10075333Y-21717000D01*
X10075333Y-22388560D01*
X10133542Y-22447509D01*
X10231286Y-22524364D01*
X10352097Y-22577891D01*
X10501370Y-22609917D01*
X10646720Y-22621348D01*
X10751893Y-22623779D01*
X10827698Y-22621579D01*
X10886996Y-22613069D01*
X10942650Y-22596572D01*
X10994347Y-22576010D01*
X11142601Y-22493149D01*
X11261279Y-22381789D01*
X11350671Y-22241310D01*
X11411066Y-22071093D01*
X11442755Y-21870516D01*
X11446025Y-21638961D01*
X11444690Y-21612059D01*
X11422102Y-21407646D01*
X11377755Y-21237280D01*
X11309809Y-21097654D01*
X11216425Y-20985463D01*
X11095761Y-20897399D01*
X11027833Y-20862826D01*
X10965357Y-20839951D01*
X10893577Y-20826303D01*
X10799729Y-20819993D01*
X10731500Y-20818955D01*
X10575309Y-20827419D01*
G37*
X10575309Y-20827419D02*
X10448065Y-20856274D01*
X10339981Y-20908826D01*
X10247366Y-20982542D01*
X10188622Y-21052262D01*
X10135515Y-21139517D01*
X10095559Y-21229500D01*
X10076265Y-21307407D01*
X10075540Y-21321181D01*
X10077372Y-21354718D01*
X10090026Y-21371692D01*
X10123787Y-21376706D01*
X10188936Y-21374359D01*
X10193812Y-21374098D01*
X10261659Y-21369077D01*
X10300039Y-21358169D01*
X10321777Y-21333639D01*
X10339699Y-21287757D01*
X10340396Y-21285724D01*
X10398596Y-21177755D01*
X10486946Y-21093435D01*
X10597244Y-21038484D01*
X10721292Y-21018619D01*
X10723373Y-21018618D01*
X10857563Y-21038516D01*
X10974502Y-21096064D01*
X11070661Y-21188866D01*
X11135747Y-21298804D01*
X11156015Y-21348283D01*
X11169973Y-21396531D01*
X11178792Y-21453014D01*
X11183638Y-21527201D01*
X11185680Y-21628559D01*
X11186045Y-21706417D01*
X11185605Y-21828140D01*
X11183010Y-21916965D01*
X11177112Y-21982314D01*
X11166766Y-22033609D01*
X11150828Y-22080272D01*
X11136561Y-22113389D01*
X11078898Y-22211492D01*
X11003261Y-22298860D01*
X10919569Y-22366112D01*
X10837745Y-22403867D01*
X10826766Y-22406310D01*
X10725367Y-22415851D01*
X10612959Y-22411598D01*
X10504681Y-22395367D01*
X10415671Y-22368973D01*
X10384263Y-22353244D01*
X10308167Y-22306214D01*
X10308167Y-21928667D01*
X10731500Y-21928667D01*
X10731500Y-21717000D01*
X10075333Y-21717000D01*
X10075333Y-22388560D01*
X10133542Y-22447509D01*
X10231286Y-22524364D01*
X10352097Y-22577891D01*
X10501370Y-22609917D01*
X10646720Y-22621348D01*
X10751893Y-22623779D01*
X10827698Y-22621579D01*
X10886996Y-22613069D01*
X10942650Y-22596572D01*
X10994347Y-22576010D01*
X11142601Y-22493149D01*
X11261279Y-22381789D01*
X11350671Y-22241310D01*
X11411066Y-22071093D01*
X11442755Y-21870516D01*
X11446025Y-21638961D01*
X11444690Y-21612059D01*
X11422102Y-21407646D01*
X11377755Y-21237280D01*
X11309809Y-21097654D01*
X11216425Y-20985463D01*
X11095761Y-20897399D01*
X11027833Y-20862826D01*
X10965357Y-20839951D01*
X10893577Y-20826303D01*
X10799729Y-20819993D01*
X10731500Y-20818955D01*
X10575309Y-20827419D01*
G36*
X7429500Y-23643167D02*
G01*
X8001000Y-23643167D01*
X8001000Y-25209500D01*
X8255000Y-25209500D01*
X8255000Y-23643167D01*
X8826500Y-23643167D01*
X8826500Y-23431500D01*
X7429500Y-23431500D01*
X7429500Y-23643167D01*
G37*
X7429500Y-23643167D02*
X8001000Y-23643167D01*
X8001000Y-25209500D01*
X8255000Y-25209500D01*
X8255000Y-23643167D01*
X8826500Y-23643167D01*
X8826500Y-23431500D01*
X7429500Y-23431500D01*
X7429500Y-23643167D01*
G36*
X10207326Y-23435744D02*
G01*
X10085917Y-23442083D01*
X10085917Y-25220083D01*
X10335324Y-25220083D01*
X10760954Y-24562997D01*
X11186583Y-23905910D01*
X11192172Y-24568288D01*
X11197761Y-25230667D01*
X11451167Y-25230667D01*
X11451167Y-23431500D01*
X11203244Y-23431500D01*
X10771581Y-24099685D01*
X10339917Y-24767869D01*
X10334326Y-24098637D01*
X10328736Y-23429405D01*
X10207326Y-23435744D01*
G37*
X10207326Y-23435744D02*
X10085917Y-23442083D01*
X10085917Y-25220083D01*
X10335324Y-25220083D01*
X10760954Y-24562997D01*
X11186583Y-23905910D01*
X11192172Y-24568288D01*
X11197761Y-25230667D01*
X11451167Y-25230667D01*
X11451167Y-23431500D01*
X11203244Y-23431500D01*
X10771581Y-24099685D01*
X10339917Y-24767869D01*
X10334326Y-24098637D01*
X10328736Y-23429405D01*
X10207326Y-23435744D01*
G36*
X4762500Y-23643167D02*
G01*
X5651500Y-23643167D01*
X5651500Y-24235833D01*
X4889500Y-24235833D01*
X4889500Y-24447500D01*
X5651500Y-24447500D01*
X5651500Y-25251833D01*
X5927117Y-25251833D01*
X5916083Y-23420917D01*
X5339292Y-23415285D01*
X4762500Y-23409653D01*
X4762500Y-23643167D01*
G37*
X4762500Y-23643167D02*
X5651500Y-23643167D01*
X5651500Y-24235833D01*
X4889500Y-24235833D01*
X4889500Y-24447500D01*
X5651500Y-24447500D01*
X5651500Y-25251833D01*
X5927117Y-25251833D01*
X5916083Y-23420917D01*
X5339292Y-23415285D01*
X4762500Y-23409653D01*
X4762500Y-23643167D01*
G36*
X10334626Y-26907192D02*
G01*
X10265768Y-27085895D01*
X10201303Y-27253232D01*
X10142896Y-27404874D01*
X10092214Y-27536495D01*
X10050923Y-27643768D01*
X10020690Y-27722364D01*
X10003180Y-27767957D01*
X9999712Y-27777038D01*
X9995803Y-27797657D01*
X10009583Y-27808265D01*
X10049414Y-27811118D01*
X10117265Y-27808788D01*
X10249222Y-27802417D01*
X10407500Y-27379083D01*
X10765913Y-27373312D01*
X11124325Y-27367540D01*
X11285855Y-27813000D01*
X11410844Y-27813000D01*
X11477228Y-27810553D01*
X11522554Y-27804202D01*
X11535833Y-27797084D01*
X11528470Y-27774569D01*
X11507422Y-27716700D01*
X11474251Y-27627618D01*
X11430519Y-27511461D01*
X11377788Y-27372368D01*
X11317620Y-27214479D01*
X11295556Y-27156833D01*
X11047935Y-27156833D01*
X10773301Y-27156833D01*
X10671047Y-27155667D01*
X10586066Y-27152477D01*
X10526223Y-27147724D01*
X10499386Y-27141872D01*
X10498667Y-27140703D01*
X10505640Y-27116590D01*
X10525023Y-27059336D01*
X10554513Y-26975491D01*
X10591806Y-26871609D01*
X10633172Y-26758127D01*
X10767676Y-26391681D01*
X10842892Y-26599632D01*
X10883959Y-26712646D01*
X10928798Y-26835205D01*
X10969824Y-26946611D01*
X10983022Y-26982208D01*
X11047935Y-27156833D01*
X11295556Y-27156833D01*
X11251576Y-27041932D01*
X11210338Y-26934542D01*
X10884843Y-26087917D01*
X10769991Y-26081692D01*
X10655138Y-26075468D01*
X10334626Y-26907192D01*
G37*
X10334626Y-26907192D02*
X10265768Y-27085895D01*
X10201303Y-27253232D01*
X10142896Y-27404874D01*
X10092214Y-27536495D01*
X10050923Y-27643768D01*
X10020690Y-27722364D01*
X10003180Y-27767957D01*
X9999712Y-27777038D01*
X9995803Y-27797657D01*
X10009583Y-27808265D01*
X10049414Y-27811118D01*
X10117265Y-27808788D01*
X10249222Y-27802417D01*
X10407500Y-27379083D01*
X10765913Y-27373312D01*
X11124325Y-27367540D01*
X11285855Y-27813000D01*
X11410844Y-27813000D01*
X11477228Y-27810553D01*
X11522554Y-27804202D01*
X11535833Y-27797084D01*
X11528470Y-27774569D01*
X11507422Y-27716700D01*
X11474251Y-27627618D01*
X11430519Y-27511461D01*
X11377788Y-27372368D01*
X11317620Y-27214479D01*
X11295556Y-27156833D01*
X11047935Y-27156833D01*
X10773301Y-27156833D01*
X10671047Y-27155667D01*
X10586066Y-27152477D01*
X10526223Y-27147724D01*
X10499386Y-27141872D01*
X10498667Y-27140703D01*
X10505640Y-27116590D01*
X10525023Y-27059336D01*
X10554513Y-26975491D01*
X10591806Y-26871609D01*
X10633172Y-26758127D01*
X10767676Y-26391681D01*
X10842892Y-26599632D01*
X10883959Y-26712646D01*
X10928798Y-26835205D01*
X10969824Y-26946611D01*
X10983022Y-26982208D01*
X11047935Y-27156833D01*
X11295556Y-27156833D01*
X11251576Y-27041932D01*
X11210338Y-26934542D01*
X10884843Y-26087917D01*
X10769991Y-26081692D01*
X10655138Y-26075468D01*
X10334626Y-26907192D01*
G36*
X4762500Y-26246667D02*
G01*
X5651500Y-26246667D01*
X5651500Y-26797000D01*
X4868333Y-26797000D01*
X4868333Y-27008667D01*
X5651500Y-27008667D01*
X5651500Y-27643667D01*
X4741333Y-27643667D01*
X4741333Y-27855333D01*
X5926667Y-27855333D01*
X5926667Y-26035000D01*
X4762500Y-26035000D01*
X4762500Y-26246667D01*
G37*
X4762500Y-26246667D02*
X5651500Y-26246667D01*
X5651500Y-26797000D01*
X4868333Y-26797000D01*
X4868333Y-27008667D01*
X5651500Y-27008667D01*
X5651500Y-27643667D01*
X4741333Y-27643667D01*
X4741333Y-27855333D01*
X5926667Y-27855333D01*
X5926667Y-26035000D01*
X4762500Y-26035000D01*
X4762500Y-26246667D01*
G36*
X8005755Y-26040036D02*
G01*
X7875118Y-26061261D01*
X7829110Y-26075800D01*
X7691906Y-26149223D01*
X7580564Y-26253989D01*
X7499164Y-26385146D01*
X7452639Y-26533063D01*
X7434966Y-26627667D01*
X7699256Y-26627667D01*
X7712217Y-26546617D01*
X7749869Y-26430780D01*
X7819505Y-26340629D01*
X7917405Y-26279108D01*
X8039850Y-26249158D01*
X8091472Y-26246667D01*
X8230158Y-26264258D01*
X8345628Y-26317160D01*
X8438137Y-26405562D01*
X8507940Y-26529654D01*
X8522753Y-26568801D01*
X8542462Y-26653525D01*
X8555395Y-26766453D01*
X8561556Y-26895589D01*
X8560948Y-27028935D01*
X8553576Y-27154494D01*
X8539444Y-27260269D01*
X8522482Y-27324713D01*
X8454299Y-27458491D01*
X8365114Y-27556027D01*
X8255834Y-27616702D01*
X8127369Y-27639897D01*
X8062464Y-27637846D01*
X7930630Y-27610223D01*
X7829150Y-27553367D01*
X7756756Y-27466190D01*
X7712180Y-27347604D01*
X7709387Y-27334860D01*
X7692189Y-27252083D01*
X7440083Y-27252083D01*
X7447230Y-27312888D01*
X7484280Y-27460664D01*
X7555981Y-27594604D01*
X7656591Y-27705183D01*
X7706300Y-27742510D01*
X7819398Y-27797798D01*
X7956319Y-27834917D01*
X8101565Y-27851380D01*
X8239638Y-27844702D01*
X8286750Y-27835640D01*
X8438389Y-27778626D01*
X8566493Y-27687932D01*
X8669994Y-27565756D01*
X8747822Y-27414300D01*
X8798907Y-27235763D01*
X8822181Y-27032345D01*
X8816573Y-26806246D01*
X8811604Y-26755888D01*
X8774184Y-26554431D01*
X8710153Y-26385712D01*
X8619287Y-26249366D01*
X8501365Y-26145029D01*
X8406324Y-26092498D01*
X8288355Y-26056146D01*
X8149166Y-26038495D01*
X8005755Y-26040036D01*
G37*
X8005755Y-26040036D02*
X7875118Y-26061261D01*
X7829110Y-26075800D01*
X7691906Y-26149223D01*
X7580564Y-26253989D01*
X7499164Y-26385146D01*
X7452639Y-26533063D01*
X7434966Y-26627667D01*
X7699256Y-26627667D01*
X7712217Y-26546617D01*
X7749869Y-26430780D01*
X7819505Y-26340629D01*
X7917405Y-26279108D01*
X8039850Y-26249158D01*
X8091472Y-26246667D01*
X8230158Y-26264258D01*
X8345628Y-26317160D01*
X8438137Y-26405562D01*
X8507940Y-26529654D01*
X8522753Y-26568801D01*
X8542462Y-26653525D01*
X8555395Y-26766453D01*
X8561556Y-26895589D01*
X8560948Y-27028935D01*
X8553576Y-27154494D01*
X8539444Y-27260269D01*
X8522482Y-27324713D01*
X8454299Y-27458491D01*
X8365114Y-27556027D01*
X8255834Y-27616702D01*
X8127369Y-27639897D01*
X8062464Y-27637846D01*
X7930630Y-27610223D01*
X7829150Y-27553367D01*
X7756756Y-27466190D01*
X7712180Y-27347604D01*
X7709387Y-27334860D01*
X7692189Y-27252083D01*
X7440083Y-27252083D01*
X7447230Y-27312888D01*
X7484280Y-27460664D01*
X7555981Y-27594604D01*
X7656591Y-27705183D01*
X7706300Y-27742510D01*
X7819398Y-27797798D01*
X7956319Y-27834917D01*
X8101565Y-27851380D01*
X8239638Y-27844702D01*
X8286750Y-27835640D01*
X8438389Y-27778626D01*
X8566493Y-27687932D01*
X8669994Y-27565756D01*
X8747822Y-27414300D01*
X8798907Y-27235763D01*
X8822181Y-27032345D01*
X8816573Y-26806246D01*
X8811604Y-26755888D01*
X8774184Y-26554431D01*
X8710153Y-26385712D01*
X8619287Y-26249366D01*
X8501365Y-26145029D01*
X8406324Y-26092498D01*
X8288355Y-26056146D01*
X8149166Y-26038495D01*
X8005755Y-26040036D01*
D12*
%TO.C,SW9*%
X48000000Y-11625000D02*
X48000000Y-13625000D01*
X47000000Y-12625000D02*
X49000000Y-12625000D01*
D13*
X49755000Y-12625000D02*
G75*
G03*
X49755000Y-12625000I-1755000J0D01*
G01*
D14*
X46703000Y-10974000D02*
G75*
G03*
X46703000Y-10974000I-100000J0D01*
G01*
D15*
%TO.C,U1*%
X43890000Y-3760000D02*
X43890000Y-34240000D01*
X43890000Y-3760000D02*
X38810000Y-3760000D01*
X38810000Y-3760000D02*
X38810000Y-1220000D01*
X38810000Y-1220000D02*
X31190000Y-1220000D01*
X31190000Y-1220000D02*
X31190000Y-3760000D01*
X31190000Y-3760000D02*
X26110000Y-3760000D01*
X26110000Y-3760000D02*
X26110000Y-34240000D01*
X26110000Y-34240000D02*
X43890000Y-34240000D01*
D12*
%TO.C,D1*%
X13060000Y-46220000D02*
X13060000Y-43280000D01*
X13300000Y-46220000D02*
X13300000Y-43280000D01*
X13180000Y-46220000D02*
X13180000Y-43280000D01*
X17720000Y-43280000D02*
X17720000Y-43610000D01*
X12280000Y-43280000D02*
X17720000Y-43280000D01*
X12280000Y-43610000D02*
X12280000Y-43280000D01*
X17720000Y-46220000D02*
X17720000Y-45890000D01*
X12280000Y-46220000D02*
X17720000Y-46220000D01*
X12280000Y-45890000D02*
X12280000Y-46220000D01*
%TO.C,D2*%
X32280000Y-45890000D02*
X32280000Y-46220000D01*
X32280000Y-46220000D02*
X37720000Y-46220000D01*
X37720000Y-46220000D02*
X37720000Y-45890000D01*
X32280000Y-43610000D02*
X32280000Y-43280000D01*
X32280000Y-43280000D02*
X37720000Y-43280000D01*
X37720000Y-43280000D02*
X37720000Y-43610000D01*
X33180000Y-46220000D02*
X33180000Y-43280000D01*
X33300000Y-46220000D02*
X33300000Y-43280000D01*
X33060000Y-46220000D02*
X33060000Y-43280000D01*
%TO.C,D3*%
X52560000Y-46220000D02*
X52560000Y-43280000D01*
X52800000Y-46220000D02*
X52800000Y-43280000D01*
X52680000Y-46220000D02*
X52680000Y-43280000D01*
X57220000Y-43280000D02*
X57220000Y-43610000D01*
X51780000Y-43280000D02*
X57220000Y-43280000D01*
X51780000Y-43610000D02*
X51780000Y-43280000D01*
X57220000Y-46220000D02*
X57220000Y-45890000D01*
X51780000Y-46220000D02*
X57220000Y-46220000D01*
X51780000Y-45890000D02*
X51780000Y-46220000D01*
%TO.C,D4*%
X12280000Y-65390000D02*
X12280000Y-65720000D01*
X12280000Y-65720000D02*
X17720000Y-65720000D01*
X17720000Y-65720000D02*
X17720000Y-65390000D01*
X12280000Y-63110000D02*
X12280000Y-62780000D01*
X12280000Y-62780000D02*
X17720000Y-62780000D01*
X17720000Y-62780000D02*
X17720000Y-63110000D01*
X13180000Y-65720000D02*
X13180000Y-62780000D01*
X13300000Y-65720000D02*
X13300000Y-62780000D01*
X13060000Y-65720000D02*
X13060000Y-62780000D01*
%TO.C,D5*%
X32280000Y-65390000D02*
X32280000Y-65720000D01*
X32280000Y-65720000D02*
X37720000Y-65720000D01*
X37720000Y-65720000D02*
X37720000Y-65390000D01*
X32280000Y-63110000D02*
X32280000Y-62780000D01*
X32280000Y-62780000D02*
X37720000Y-62780000D01*
X37720000Y-62780000D02*
X37720000Y-63110000D01*
X33180000Y-65720000D02*
X33180000Y-62780000D01*
X33300000Y-65720000D02*
X33300000Y-62780000D01*
X33060000Y-65720000D02*
X33060000Y-62780000D01*
%TO.C,D6*%
X52560000Y-65720000D02*
X52560000Y-62780000D01*
X52800000Y-65720000D02*
X52800000Y-62780000D01*
X52680000Y-65720000D02*
X52680000Y-62780000D01*
X57220000Y-62780000D02*
X57220000Y-63110000D01*
X51780000Y-62780000D02*
X57220000Y-62780000D01*
X51780000Y-63110000D02*
X51780000Y-62780000D01*
X57220000Y-65720000D02*
X57220000Y-65390000D01*
X51780000Y-65720000D02*
X57220000Y-65720000D01*
X51780000Y-65390000D02*
X51780000Y-65720000D01*
%TO.C,D7*%
X24140000Y-15345000D02*
X24470000Y-15345000D01*
X24470000Y-15345000D02*
X24470000Y-9905000D01*
X24470000Y-9905000D02*
X24140000Y-9905000D01*
X21860000Y-15345000D02*
X21530000Y-15345000D01*
X21530000Y-15345000D02*
X21530000Y-9905000D01*
X21530000Y-9905000D02*
X21860000Y-9905000D01*
X24470000Y-14445000D02*
X21530000Y-14445000D01*
X24470000Y-14325000D02*
X21530000Y-14325000D01*
X24470000Y-14565000D02*
X21530000Y-14565000D01*
%TO.C,D8*%
X20470000Y-14565000D02*
X17530000Y-14565000D01*
X20470000Y-14325000D02*
X17530000Y-14325000D01*
X20470000Y-14445000D02*
X17530000Y-14445000D01*
X17530000Y-9905000D02*
X17860000Y-9905000D01*
X17530000Y-15345000D02*
X17530000Y-9905000D01*
X17860000Y-15345000D02*
X17530000Y-15345000D01*
X20470000Y-9905000D02*
X20140000Y-9905000D01*
X20470000Y-15345000D02*
X20470000Y-9905000D01*
X20140000Y-15345000D02*
X20470000Y-15345000D01*
%TO.C,SW1*%
X19600000Y-41900000D02*
X14500000Y-41900000D01*
X15700000Y-37700000D02*
X10600000Y-37700000D01*
X17700000Y-35700000D02*
G75*
G02*
X15700000Y-37700000I-2000000J0D01*
G01*
X21600000Y-39900000D02*
G75*
G02*
X19600000Y-41900000I-2000000J0D01*
G01*
%TO.C,SW2*%
X35200000Y-37700000D02*
X30100000Y-37700000D01*
X39100000Y-41900000D02*
X34000000Y-41900000D01*
X41100000Y-39900000D02*
G75*
G02*
X39100000Y-41900000I-2000000J0D01*
G01*
X37200000Y-35700000D02*
G75*
G02*
X35200000Y-37700000I-2000000J0D01*
G01*
%TO.C,SW3*%
X54700000Y-37700000D02*
X49600000Y-37700000D01*
X58600000Y-41900000D02*
X53500000Y-41900000D01*
X60600000Y-39900000D02*
G75*
G02*
X58600000Y-41900000I-2000000J0D01*
G01*
X56700000Y-35700000D02*
G75*
G02*
X54700000Y-37700000I-2000000J0D01*
G01*
%TO.C,SW4*%
X19600000Y-61400000D02*
X14500000Y-61400000D01*
X15700000Y-57200000D02*
X10600000Y-57200000D01*
X17700000Y-55200000D02*
G75*
G02*
X15700000Y-57200000I-2000000J0D01*
G01*
X21600000Y-59400000D02*
G75*
G02*
X19600000Y-61400000I-2000000J0D01*
G01*
%TO.C,SW5*%
X35200000Y-57200000D02*
X30100000Y-57200000D01*
X39100000Y-61400000D02*
X34000000Y-61400000D01*
X41100000Y-59400000D02*
G75*
G02*
X39100000Y-61400000I-2000000J0D01*
G01*
X37200000Y-55200000D02*
G75*
G02*
X35200000Y-57200000I-2000000J0D01*
G01*
%TO.C,SW6*%
X58600000Y-61400000D02*
X53500000Y-61400000D01*
X54700000Y-57200000D02*
X49600000Y-57200000D01*
X56700000Y-55200000D02*
G75*
G02*
X54700000Y-57200000I-2000000J0D01*
G01*
X60600000Y-59400000D02*
G75*
G02*
X58600000Y-61400000I-2000000J0D01*
G01*
%TD*%
M02*
