%TF.GenerationSoftware,KiCad,Pcbnew,5.1.9-73d0e3b20d~88~ubuntu20.10.1*%
%TF.CreationDate,2021-04-24T17:05:30-07:00*%
%TF.ProjectId,macropad-v2_0_1,6d616372-6f70-4616-942d-76325f305f31,rev?*%
%TF.SameCoordinates,Original*%
%TF.FileFunction,Copper,L1,Top*%
%TF.FilePolarity,Positive*%
%FSLAX46Y46*%
G04 Gerber Fmt 4.6, Leading zero omitted, Abs format (unit mm)*
G04 Created by KiCad (PCBNEW 5.1.9-73d0e3b20d~88~ubuntu20.10.1) date 2021-04-24 17:05:30*
%MOMM*%
%LPD*%
G01*
G04 APERTURE LIST*
%TA.AperFunction,NonConductor*%
%ADD10C,0.300000*%
%TD*%
%TA.AperFunction,ComponentPad*%
%ADD11C,1.498000*%
%TD*%
%TA.AperFunction,ComponentPad*%
%ADD12R,1.498000X1.498000*%
%TD*%
%TA.AperFunction,ComponentPad*%
%ADD13R,1.600000X1.600000*%
%TD*%
%TA.AperFunction,ComponentPad*%
%ADD14C,1.600000*%
%TD*%
%TA.AperFunction,ComponentPad*%
%ADD15R,2.300000X2.700000*%
%TD*%
%TA.AperFunction,ComponentPad*%
%ADD16C,2.000000*%
%TD*%
%TA.AperFunction,ComponentPad*%
%ADD17O,1.800000X1.800000*%
%TD*%
%TA.AperFunction,ComponentPad*%
%ADD18R,1.800000X1.800000*%
%TD*%
%TA.AperFunction,ComponentPad*%
%ADD19O,1.700000X1.700000*%
%TD*%
%TA.AperFunction,ComponentPad*%
%ADD20R,1.700000X1.700000*%
%TD*%
%TA.AperFunction,Conductor*%
%ADD21C,0.250000*%
%TD*%
%TA.AperFunction,Conductor*%
%ADD22C,0.254000*%
%TD*%
%TA.AperFunction,Conductor*%
%ADD23C,0.100000*%
%TD*%
G04 APERTURE END LIST*
D10*
X3178571Y-52214285D02*
X4178571Y-51857142D01*
X3178571Y-51500000D01*
X2821428Y-51000000D02*
X2750000Y-50928571D01*
X2678571Y-50785714D01*
X2678571Y-50428571D01*
X2750000Y-50285714D01*
X2821428Y-50214285D01*
X2964285Y-50142857D01*
X3107142Y-50142857D01*
X3321428Y-50214285D01*
X4178571Y-51071428D01*
X4178571Y-50142857D01*
X4035714Y-49500000D02*
X4107142Y-49428571D01*
X4178571Y-49500000D01*
X4107142Y-49571428D01*
X4035714Y-49500000D01*
X4178571Y-49500000D01*
X2678571Y-48500000D02*
X2678571Y-48357142D01*
X2750000Y-48214285D01*
X2821428Y-48142857D01*
X2964285Y-48071428D01*
X3250000Y-48000000D01*
X3607142Y-48000000D01*
X3892857Y-48071428D01*
X4035714Y-48142857D01*
X4107142Y-48214285D01*
X4178571Y-48357142D01*
X4178571Y-48500000D01*
X4107142Y-48642857D01*
X4035714Y-48714285D01*
X3892857Y-48785714D01*
X3607142Y-48857142D01*
X3250000Y-48857142D01*
X2964285Y-48785714D01*
X2821428Y-48714285D01*
X2750000Y-48642857D01*
X2678571Y-48500000D01*
X4035714Y-47357142D02*
X4107142Y-47285714D01*
X4178571Y-47357142D01*
X4107142Y-47428571D01*
X4035714Y-47357142D01*
X4178571Y-47357142D01*
X4178571Y-45857142D02*
X4178571Y-46714285D01*
X4178571Y-46285714D02*
X2678571Y-46285714D01*
X2892857Y-46428571D01*
X3035714Y-46571428D01*
X3107142Y-46714285D01*
D11*
%TO.P,SW9,2*%
%TO.N,Net-(SW9-Pad1)*%
X45750000Y-15875000D03*
%TO.P,SW9,4*%
%TO.N,GND*%
X50250000Y-15875000D03*
D12*
%TO.P,SW9,1*%
%TO.N,Net-(SW9-Pad1)*%
X45750000Y-9375000D03*
D11*
%TO.P,SW9,3*%
%TO.N,GND*%
X50250000Y-9375000D03*
%TD*%
%TO.P,SW8,2*%
%TO.N,Col_2*%
X3500000Y-9375000D03*
%TO.P,SW8,4*%
%TO.N,Net-(D8-Pad2)*%
X8000000Y-9375000D03*
D12*
%TO.P,SW8,1*%
%TO.N,Col_2*%
X3500000Y-15875000D03*
D11*
%TO.P,SW8,3*%
%TO.N,Net-(D8-Pad2)*%
X8000000Y-15875000D03*
%TD*%
D13*
%TO.P,U1,1*%
%TO.N,Net-(U1-Pad1)*%
X42620000Y-5030000D03*
D14*
%TO.P,U1,2*%
%TO.N,Net-(U1-Pad2)*%
X42620000Y-7570000D03*
%TO.P,U1,3*%
%TO.N,GND*%
X42620000Y-10110000D03*
%TO.P,U1,4*%
X42620000Y-12650000D03*
%TO.P,U1,5*%
%TO.N,Net-(J1-Pad1)*%
X42620000Y-15190000D03*
%TO.P,U1,6*%
%TO.N,Net-(J1-Pad2)*%
X42620000Y-17730000D03*
%TO.P,U1,7*%
%TO.N,Net-(U1-Pad7)*%
X42620000Y-20270000D03*
%TO.P,U1,8*%
%TO.N,Encoder_A*%
X42620000Y-22810000D03*
%TO.P,U1,9*%
%TO.N,Encoder_B*%
X42620000Y-25350000D03*
%TO.P,U1,10*%
%TO.N,Net-(U1-Pad10)*%
X42620000Y-27890000D03*
%TO.P,U1,11*%
%TO.N,Row_0*%
X42620000Y-30430000D03*
%TO.P,U1,12*%
%TO.N,Row_1*%
X42620000Y-32970000D03*
%TO.P,U1,13*%
%TO.N,Col_1*%
X27380000Y-32970000D03*
%TO.P,U1,14*%
%TO.N,Col_0*%
X27380000Y-30430000D03*
%TO.P,U1,15*%
%TO.N,Col_2*%
X27380000Y-27890000D03*
%TO.P,U1,16*%
%TO.N,Row_Extra*%
X27380000Y-25350000D03*
%TO.P,U1,17*%
%TO.N,Net-(U1-Pad17)*%
X27380000Y-22810000D03*
%TO.P,U1,18*%
%TO.N,Net-(U1-Pad18)*%
X27380000Y-20270000D03*
%TO.P,U1,19*%
%TO.N,Net-(U1-Pad19)*%
X27380000Y-17730000D03*
%TO.P,U1,20*%
%TO.N,Net-(U1-Pad20)*%
X27380000Y-15190000D03*
%TO.P,U1,21*%
%TO.N,VCC*%
X27380000Y-12650000D03*
%TO.P,U1,22*%
%TO.N,Net-(SW9-Pad1)*%
X27380000Y-10110000D03*
%TO.P,U1,23*%
%TO.N,GND*%
X27380000Y-7570000D03*
%TO.P,U1,24*%
%TO.N,Net-(U1-Pad24)*%
X27380000Y-5030000D03*
%TD*%
D15*
%TO.P,SW7,MP*%
%TO.N,N/C*%
X66200000Y-12625000D03*
X56800000Y-12625000D03*
D16*
%TO.P,SW7,A*%
%TO.N,Encoder_A*%
X59000000Y-20125000D03*
%TO.P,SW7,C*%
%TO.N,GND*%
X61500000Y-20125000D03*
%TO.P,SW7,B*%
%TO.N,Encoder_B*%
X64000000Y-20125000D03*
%TO.P,SW7,S1*%
%TO.N,Encoder_S1*%
X59000000Y-5625000D03*
%TO.P,SW7,S2*%
%TO.N,Col_1*%
X64000000Y-5625000D03*
%TD*%
D17*
%TO.P,D1,2*%
%TO.N,Net-(D1-Pad2)*%
X18810000Y-44750000D03*
D18*
%TO.P,D1,1*%
%TO.N,Row_0*%
X11190000Y-44750000D03*
%TD*%
%TO.P,D2,1*%
%TO.N,Row_0*%
X31190000Y-44750000D03*
D17*
%TO.P,D2,2*%
%TO.N,Net-(D2-Pad2)*%
X38810000Y-44750000D03*
%TD*%
%TO.P,D3,2*%
%TO.N,Net-(D3-Pad2)*%
X58310000Y-44750000D03*
D18*
%TO.P,D3,1*%
%TO.N,Row_0*%
X50690000Y-44750000D03*
%TD*%
%TO.P,D4,1*%
%TO.N,Row_1*%
X11190000Y-64250000D03*
D17*
%TO.P,D4,2*%
%TO.N,Net-(D4-Pad2)*%
X18810000Y-64250000D03*
%TD*%
D18*
%TO.P,D5,1*%
%TO.N,Row_1*%
X31190000Y-64250000D03*
D17*
%TO.P,D5,2*%
%TO.N,Net-(D5-Pad2)*%
X38810000Y-64250000D03*
%TD*%
%TO.P,D6,2*%
%TO.N,Net-(D6-Pad2)*%
X58310000Y-64250000D03*
D18*
%TO.P,D6,1*%
%TO.N,Row_1*%
X50690000Y-64250000D03*
%TD*%
%TO.P,D7,1*%
%TO.N,Row_Extra*%
X23000000Y-16435000D03*
D17*
%TO.P,D7,2*%
%TO.N,Encoder_S1*%
X23000000Y-8815000D03*
%TD*%
%TO.P,D8,2*%
%TO.N,Net-(D8-Pad2)*%
X19000000Y-8815000D03*
D18*
%TO.P,D8,1*%
%TO.N,Row_Extra*%
X19000000Y-16435000D03*
%TD*%
D19*
%TO.P,J1,4*%
%TO.N,GND*%
X14520000Y-16435000D03*
%TO.P,J1,3*%
%TO.N,VCC*%
X14520000Y-13895000D03*
%TO.P,J1,2*%
%TO.N,Net-(J1-Pad2)*%
X14520000Y-11355000D03*
D20*
%TO.P,J1,1*%
%TO.N,Net-(J1-Pad1)*%
X14520000Y-8815000D03*
%TD*%
D21*
%TO.N,Row_0*%
X32415001Y-45975001D02*
X31190000Y-44750000D01*
X49464999Y-45975001D02*
X32415001Y-45975001D01*
X50690000Y-44750000D02*
X49464999Y-45975001D01*
X29964999Y-43524999D02*
X12415001Y-43524999D01*
X12415001Y-43524999D02*
X11190000Y-44750000D01*
X31190000Y-44750000D02*
X29964999Y-43524999D01*
%TO.N,Row_1*%
X29964999Y-65475001D02*
X31190000Y-64250000D01*
X12415001Y-65475001D02*
X29964999Y-65475001D01*
X11190000Y-64250000D02*
X12415001Y-65475001D01*
X49464999Y-65475001D02*
X50690000Y-64250000D01*
X32415001Y-65475001D02*
X49464999Y-65475001D01*
X31190000Y-64250000D02*
X32415001Y-65475001D01*
%TO.N,Row_Extra*%
X19000000Y-16435000D02*
X23000000Y-16435000D01*
X23000000Y-20970000D02*
X27380000Y-25350000D01*
X23000000Y-16435000D02*
X23000000Y-20970000D01*
%TO.N,Encoder_S1*%
X58469999Y-6155001D02*
X59000000Y-5625000D01*
X25659999Y-6155001D02*
X58469999Y-6155001D01*
X23000000Y-8815000D02*
X25659999Y-6155001D01*
%TO.N,Net-(D8-Pad2)*%
X19000000Y-8815000D02*
X17043000Y-6858000D01*
X10517000Y-6858000D02*
X8000000Y-9375000D01*
X17043000Y-6858000D02*
X10517000Y-6858000D01*
X8000000Y-9375000D02*
X8000000Y-15875000D01*
%TO.N,VCC*%
X14520000Y-13895000D02*
X19633000Y-13895000D01*
X20878000Y-12650000D02*
X27380000Y-12650000D01*
X19633000Y-13895000D02*
X20878000Y-12650000D01*
%TO.N,Net-(J1-Pad2)*%
X36245000Y-11355000D02*
X42620000Y-17730000D01*
X14520000Y-11355000D02*
X36245000Y-11355000D01*
%TO.N,Net-(J1-Pad1)*%
X36414999Y-8984999D02*
X42620000Y-15190000D01*
X25784997Y-10040001D02*
X26839999Y-8984999D01*
X15745001Y-10040001D02*
X25784997Y-10040001D01*
X26839999Y-8984999D02*
X36414999Y-8984999D01*
X14520000Y-8815000D02*
X15745001Y-10040001D01*
%TO.N,Col_1*%
X27380000Y-32970000D02*
X41300000Y-19050000D01*
X41300000Y-19050000D02*
X49022000Y-19050000D01*
X49022000Y-19050000D02*
X53594000Y-14478000D01*
X53594000Y-14478000D02*
X53594000Y-10922000D01*
X53594000Y-10922000D02*
X56388000Y-8128000D01*
X61497000Y-8128000D02*
X64000000Y-5625000D01*
X56388000Y-8128000D02*
X61497000Y-8128000D01*
%TO.N,Col_2*%
X3500000Y-9375000D02*
X3500000Y-15875000D01*
X3500000Y-15875000D02*
X5913000Y-18288000D01*
X17778000Y-18288000D02*
X27380000Y-27890000D01*
X5913000Y-18288000D02*
X17778000Y-18288000D01*
%TO.N,Net-(SW9-Pad1)*%
X45750000Y-15875000D02*
X45750000Y-9375000D01*
%TO.N,Encoder_A*%
X45305000Y-20125000D02*
X42620000Y-22810000D01*
X59000000Y-20125000D02*
X45305000Y-20125000D01*
%TO.N,Encoder_B*%
X64000000Y-20125000D02*
X62281000Y-21844000D01*
X46126000Y-21844000D02*
X42620000Y-25350000D01*
X62281000Y-21844000D02*
X46126000Y-21844000D01*
%TD*%
D22*
%TO.N,GND*%
X66648126Y-726714D02*
X67271572Y-914943D01*
X67846579Y-1220681D01*
X68351247Y-1632279D01*
X68766362Y-2134067D01*
X69076105Y-2706924D01*
X69268682Y-3329039D01*
X69340000Y-4007584D01*
X69340001Y-65967711D01*
X69273286Y-66648126D01*
X69085057Y-67271570D01*
X68779323Y-67846573D01*
X68367721Y-68351248D01*
X67865933Y-68766362D01*
X67293077Y-69076104D01*
X66670961Y-69268682D01*
X65992417Y-69340000D01*
X4032279Y-69340000D01*
X3351874Y-69273286D01*
X2728430Y-69085057D01*
X2153427Y-68779323D01*
X1648752Y-68367721D01*
X1233638Y-67865933D01*
X923896Y-67293077D01*
X731318Y-66670961D01*
X660000Y-65992417D01*
X660000Y-63350000D01*
X9651928Y-63350000D01*
X9651928Y-65150000D01*
X9664188Y-65274482D01*
X9700498Y-65394180D01*
X9759463Y-65504494D01*
X9838815Y-65601185D01*
X9935506Y-65680537D01*
X10045820Y-65739502D01*
X10165518Y-65775812D01*
X10290000Y-65788072D01*
X11653270Y-65788072D01*
X11851202Y-65986004D01*
X11875000Y-66015002D01*
X11903998Y-66038800D01*
X11990724Y-66109975D01*
X12107664Y-66172481D01*
X12122754Y-66180547D01*
X12266015Y-66224004D01*
X12377668Y-66235001D01*
X12377677Y-66235001D01*
X12415000Y-66238677D01*
X12452323Y-66235001D01*
X29927677Y-66235001D01*
X29964999Y-66238677D01*
X30002321Y-66235001D01*
X30002332Y-66235001D01*
X30113985Y-66224004D01*
X30257246Y-66180547D01*
X30389275Y-66109975D01*
X30505000Y-66015002D01*
X30528803Y-65985998D01*
X30726729Y-65788072D01*
X31653270Y-65788072D01*
X31851202Y-65986004D01*
X31875000Y-66015002D01*
X31903998Y-66038800D01*
X31990724Y-66109975D01*
X32107664Y-66172481D01*
X32122754Y-66180547D01*
X32266015Y-66224004D01*
X32377668Y-66235001D01*
X32377677Y-66235001D01*
X32415000Y-66238677D01*
X32452323Y-66235001D01*
X49427677Y-66235001D01*
X49464999Y-66238677D01*
X49502321Y-66235001D01*
X49502332Y-66235001D01*
X49613985Y-66224004D01*
X49757246Y-66180547D01*
X49889275Y-66109975D01*
X50005000Y-66015002D01*
X50028803Y-65985998D01*
X50226729Y-65788072D01*
X51590000Y-65788072D01*
X51714482Y-65775812D01*
X51834180Y-65739502D01*
X51944494Y-65680537D01*
X52041185Y-65601185D01*
X52120537Y-65504494D01*
X52179502Y-65394180D01*
X52215812Y-65274482D01*
X52228072Y-65150000D01*
X52228072Y-64098816D01*
X56775000Y-64098816D01*
X56775000Y-64401184D01*
X56833989Y-64697743D01*
X56949701Y-64977095D01*
X57117688Y-65228505D01*
X57331495Y-65442312D01*
X57582905Y-65610299D01*
X57862257Y-65726011D01*
X58158816Y-65785000D01*
X58461184Y-65785000D01*
X58757743Y-65726011D01*
X59037095Y-65610299D01*
X59288505Y-65442312D01*
X59502312Y-65228505D01*
X59670299Y-64977095D01*
X59786011Y-64697743D01*
X59845000Y-64401184D01*
X59845000Y-64098816D01*
X59786011Y-63802257D01*
X59670299Y-63522905D01*
X59502312Y-63271495D01*
X59288505Y-63057688D01*
X59037095Y-62889701D01*
X58757743Y-62773989D01*
X58461184Y-62715000D01*
X58158816Y-62715000D01*
X57862257Y-62773989D01*
X57582905Y-62889701D01*
X57331495Y-63057688D01*
X57117688Y-63271495D01*
X56949701Y-63522905D01*
X56833989Y-63802257D01*
X56775000Y-64098816D01*
X52228072Y-64098816D01*
X52228072Y-63350000D01*
X52215812Y-63225518D01*
X52179502Y-63105820D01*
X52120537Y-62995506D01*
X52041185Y-62898815D01*
X51944494Y-62819463D01*
X51834180Y-62760498D01*
X51714482Y-62724188D01*
X51590000Y-62711928D01*
X49790000Y-62711928D01*
X49665518Y-62724188D01*
X49545820Y-62760498D01*
X49435506Y-62819463D01*
X49338815Y-62898815D01*
X49259463Y-62995506D01*
X49200498Y-63105820D01*
X49164188Y-63225518D01*
X49151928Y-63350000D01*
X49151928Y-64713271D01*
X49150198Y-64715001D01*
X40278862Y-64715001D01*
X40286011Y-64697743D01*
X40345000Y-64401184D01*
X40345000Y-64098816D01*
X40286011Y-63802257D01*
X40170299Y-63522905D01*
X40002312Y-63271495D01*
X39788505Y-63057688D01*
X39537095Y-62889701D01*
X39257743Y-62773989D01*
X38961184Y-62715000D01*
X38658816Y-62715000D01*
X38362257Y-62773989D01*
X38082905Y-62889701D01*
X37831495Y-63057688D01*
X37617688Y-63271495D01*
X37449701Y-63522905D01*
X37333989Y-63802257D01*
X37275000Y-64098816D01*
X37275000Y-64401184D01*
X37333989Y-64697743D01*
X37341138Y-64715001D01*
X32729803Y-64715001D01*
X32728072Y-64713270D01*
X32728072Y-63350000D01*
X32715812Y-63225518D01*
X32679502Y-63105820D01*
X32620537Y-62995506D01*
X32541185Y-62898815D01*
X32444494Y-62819463D01*
X32334180Y-62760498D01*
X32214482Y-62724188D01*
X32090000Y-62711928D01*
X30290000Y-62711928D01*
X30165518Y-62724188D01*
X30045820Y-62760498D01*
X29935506Y-62819463D01*
X29838815Y-62898815D01*
X29759463Y-62995506D01*
X29700498Y-63105820D01*
X29664188Y-63225518D01*
X29651928Y-63350000D01*
X29651928Y-64713271D01*
X29650198Y-64715001D01*
X20278862Y-64715001D01*
X20286011Y-64697743D01*
X20345000Y-64401184D01*
X20345000Y-64098816D01*
X20286011Y-63802257D01*
X20170299Y-63522905D01*
X20002312Y-63271495D01*
X19788505Y-63057688D01*
X19537095Y-62889701D01*
X19257743Y-62773989D01*
X18961184Y-62715000D01*
X18658816Y-62715000D01*
X18362257Y-62773989D01*
X18082905Y-62889701D01*
X17831495Y-63057688D01*
X17617688Y-63271495D01*
X17449701Y-63522905D01*
X17333989Y-63802257D01*
X17275000Y-64098816D01*
X17275000Y-64401184D01*
X17333989Y-64697743D01*
X17341138Y-64715001D01*
X12729803Y-64715001D01*
X12728072Y-64713270D01*
X12728072Y-63350000D01*
X12715812Y-63225518D01*
X12679502Y-63105820D01*
X12620537Y-62995506D01*
X12541185Y-62898815D01*
X12444494Y-62819463D01*
X12334180Y-62760498D01*
X12214482Y-62724188D01*
X12090000Y-62711928D01*
X10290000Y-62711928D01*
X10165518Y-62724188D01*
X10045820Y-62760498D01*
X9935506Y-62819463D01*
X9838815Y-62898815D01*
X9759463Y-62995506D01*
X9700498Y-63105820D01*
X9664188Y-63225518D01*
X9651928Y-63350000D01*
X660000Y-63350000D01*
X660000Y-59369721D01*
X10825000Y-59369721D01*
X10825000Y-59790279D01*
X10907047Y-60202756D01*
X11067988Y-60591302D01*
X11301637Y-60940983D01*
X11599017Y-61238363D01*
X11948698Y-61472012D01*
X12337244Y-61632953D01*
X12749721Y-61715000D01*
X13170279Y-61715000D01*
X13582756Y-61632953D01*
X13971302Y-61472012D01*
X14320983Y-61238363D01*
X14618363Y-60940983D01*
X14852012Y-60591302D01*
X15012953Y-60202756D01*
X15095000Y-59790279D01*
X15095000Y-59369721D01*
X30325000Y-59369721D01*
X30325000Y-59790279D01*
X30407047Y-60202756D01*
X30567988Y-60591302D01*
X30801637Y-60940983D01*
X31099017Y-61238363D01*
X31448698Y-61472012D01*
X31837244Y-61632953D01*
X32249721Y-61715000D01*
X32670279Y-61715000D01*
X33082756Y-61632953D01*
X33471302Y-61472012D01*
X33820983Y-61238363D01*
X34118363Y-60940983D01*
X34352012Y-60591302D01*
X34512953Y-60202756D01*
X34595000Y-59790279D01*
X34595000Y-59369721D01*
X49825000Y-59369721D01*
X49825000Y-59790279D01*
X49907047Y-60202756D01*
X50067988Y-60591302D01*
X50301637Y-60940983D01*
X50599017Y-61238363D01*
X50948698Y-61472012D01*
X51337244Y-61632953D01*
X51749721Y-61715000D01*
X52170279Y-61715000D01*
X52582756Y-61632953D01*
X52971302Y-61472012D01*
X53320983Y-61238363D01*
X53618363Y-60940983D01*
X53852012Y-60591302D01*
X54012953Y-60202756D01*
X54095000Y-59790279D01*
X54095000Y-59369721D01*
X54012953Y-58957244D01*
X53852012Y-58568698D01*
X53618363Y-58219017D01*
X53320983Y-57921637D01*
X52971302Y-57687988D01*
X52582756Y-57527047D01*
X52170279Y-57445000D01*
X51749721Y-57445000D01*
X51337244Y-57527047D01*
X50948698Y-57687988D01*
X50599017Y-57921637D01*
X50301637Y-58219017D01*
X50067988Y-58568698D01*
X49907047Y-58957244D01*
X49825000Y-59369721D01*
X34595000Y-59369721D01*
X34512953Y-58957244D01*
X34352012Y-58568698D01*
X34118363Y-58219017D01*
X33820983Y-57921637D01*
X33471302Y-57687988D01*
X33082756Y-57527047D01*
X32670279Y-57445000D01*
X32249721Y-57445000D01*
X31837244Y-57527047D01*
X31448698Y-57687988D01*
X31099017Y-57921637D01*
X30801637Y-58219017D01*
X30567988Y-58568698D01*
X30407047Y-58957244D01*
X30325000Y-59369721D01*
X15095000Y-59369721D01*
X15012953Y-58957244D01*
X14852012Y-58568698D01*
X14618363Y-58219017D01*
X14320983Y-57921637D01*
X13971302Y-57687988D01*
X13582756Y-57527047D01*
X13170279Y-57445000D01*
X12749721Y-57445000D01*
X12337244Y-57527047D01*
X11948698Y-57687988D01*
X11599017Y-57921637D01*
X11301637Y-58219017D01*
X11067988Y-58568698D01*
X10907047Y-58957244D01*
X10825000Y-59369721D01*
X660000Y-59369721D01*
X660000Y-54351278D01*
X8910000Y-54351278D01*
X8910000Y-54648722D01*
X8968029Y-54940451D01*
X9081856Y-55215253D01*
X9247107Y-55462569D01*
X9457431Y-55672893D01*
X9704747Y-55838144D01*
X9979549Y-55951971D01*
X10271278Y-56010000D01*
X10568722Y-56010000D01*
X10860451Y-55951971D01*
X11135253Y-55838144D01*
X11382569Y-55672893D01*
X11592893Y-55462569D01*
X11758144Y-55215253D01*
X11871971Y-54940451D01*
X11930000Y-54648722D01*
X11930000Y-54351278D01*
X11907960Y-54240475D01*
X12865000Y-54240475D01*
X12865000Y-54759525D01*
X12966261Y-55268601D01*
X13164893Y-55748141D01*
X13453262Y-56179715D01*
X13820285Y-56546738D01*
X14251859Y-56835107D01*
X14731399Y-57033739D01*
X15240475Y-57135000D01*
X15759525Y-57135000D01*
X16268601Y-57033739D01*
X16748141Y-56835107D01*
X17179715Y-56546738D01*
X17244095Y-56482358D01*
X17175000Y-56829721D01*
X17175000Y-57250279D01*
X17257047Y-57662756D01*
X17417988Y-58051302D01*
X17651637Y-58400983D01*
X17949017Y-58698363D01*
X18298698Y-58932012D01*
X18687244Y-59092953D01*
X19099721Y-59175000D01*
X19520279Y-59175000D01*
X19932756Y-59092953D01*
X20321302Y-58932012D01*
X20670983Y-58698363D01*
X20968363Y-58400983D01*
X21202012Y-58051302D01*
X21362953Y-57662756D01*
X21445000Y-57250279D01*
X21445000Y-56829721D01*
X21362953Y-56417244D01*
X21202012Y-56028698D01*
X21122501Y-55909701D01*
X21295253Y-55838144D01*
X21542569Y-55672893D01*
X21752893Y-55462569D01*
X21918144Y-55215253D01*
X22031971Y-54940451D01*
X22090000Y-54648722D01*
X22090000Y-54351278D01*
X28410000Y-54351278D01*
X28410000Y-54648722D01*
X28468029Y-54940451D01*
X28581856Y-55215253D01*
X28747107Y-55462569D01*
X28957431Y-55672893D01*
X29204747Y-55838144D01*
X29479549Y-55951971D01*
X29771278Y-56010000D01*
X30068722Y-56010000D01*
X30360451Y-55951971D01*
X30635253Y-55838144D01*
X30882569Y-55672893D01*
X31092893Y-55462569D01*
X31258144Y-55215253D01*
X31371971Y-54940451D01*
X31430000Y-54648722D01*
X31430000Y-54351278D01*
X31407960Y-54240475D01*
X32365000Y-54240475D01*
X32365000Y-54759525D01*
X32466261Y-55268601D01*
X32664893Y-55748141D01*
X32953262Y-56179715D01*
X33320285Y-56546738D01*
X33751859Y-56835107D01*
X34231399Y-57033739D01*
X34740475Y-57135000D01*
X35259525Y-57135000D01*
X35768601Y-57033739D01*
X36248141Y-56835107D01*
X36679715Y-56546738D01*
X36744095Y-56482358D01*
X36675000Y-56829721D01*
X36675000Y-57250279D01*
X36757047Y-57662756D01*
X36917988Y-58051302D01*
X37151637Y-58400983D01*
X37449017Y-58698363D01*
X37798698Y-58932012D01*
X38187244Y-59092953D01*
X38599721Y-59175000D01*
X39020279Y-59175000D01*
X39432756Y-59092953D01*
X39821302Y-58932012D01*
X40170983Y-58698363D01*
X40468363Y-58400983D01*
X40702012Y-58051302D01*
X40862953Y-57662756D01*
X40945000Y-57250279D01*
X40945000Y-56829721D01*
X40862953Y-56417244D01*
X40702012Y-56028698D01*
X40622501Y-55909701D01*
X40795253Y-55838144D01*
X41042569Y-55672893D01*
X41252893Y-55462569D01*
X41418144Y-55215253D01*
X41531971Y-54940451D01*
X41590000Y-54648722D01*
X41590000Y-54351278D01*
X47910000Y-54351278D01*
X47910000Y-54648722D01*
X47968029Y-54940451D01*
X48081856Y-55215253D01*
X48247107Y-55462569D01*
X48457431Y-55672893D01*
X48704747Y-55838144D01*
X48979549Y-55951971D01*
X49271278Y-56010000D01*
X49568722Y-56010000D01*
X49860451Y-55951971D01*
X50135253Y-55838144D01*
X50382569Y-55672893D01*
X50592893Y-55462569D01*
X50758144Y-55215253D01*
X50871971Y-54940451D01*
X50930000Y-54648722D01*
X50930000Y-54351278D01*
X50907960Y-54240475D01*
X51865000Y-54240475D01*
X51865000Y-54759525D01*
X51966261Y-55268601D01*
X52164893Y-55748141D01*
X52453262Y-56179715D01*
X52820285Y-56546738D01*
X53251859Y-56835107D01*
X53731399Y-57033739D01*
X54240475Y-57135000D01*
X54759525Y-57135000D01*
X55268601Y-57033739D01*
X55748141Y-56835107D01*
X56179715Y-56546738D01*
X56244095Y-56482358D01*
X56175000Y-56829721D01*
X56175000Y-57250279D01*
X56257047Y-57662756D01*
X56417988Y-58051302D01*
X56651637Y-58400983D01*
X56949017Y-58698363D01*
X57298698Y-58932012D01*
X57687244Y-59092953D01*
X58099721Y-59175000D01*
X58520279Y-59175000D01*
X58932756Y-59092953D01*
X59321302Y-58932012D01*
X59670983Y-58698363D01*
X59968363Y-58400983D01*
X60202012Y-58051302D01*
X60362953Y-57662756D01*
X60445000Y-57250279D01*
X60445000Y-56829721D01*
X60362953Y-56417244D01*
X60202012Y-56028698D01*
X60122501Y-55909701D01*
X60295253Y-55838144D01*
X60542569Y-55672893D01*
X60752893Y-55462569D01*
X60918144Y-55215253D01*
X61031971Y-54940451D01*
X61090000Y-54648722D01*
X61090000Y-54351278D01*
X61031971Y-54059549D01*
X60918144Y-53784747D01*
X60752893Y-53537431D01*
X60542569Y-53327107D01*
X60295253Y-53161856D01*
X60020451Y-53048029D01*
X59728722Y-52990000D01*
X59431278Y-52990000D01*
X59139549Y-53048029D01*
X58864747Y-53161856D01*
X58617431Y-53327107D01*
X58407107Y-53537431D01*
X58241856Y-53784747D01*
X58128029Y-54059549D01*
X58070000Y-54351278D01*
X58070000Y-54648722D01*
X58120977Y-54905000D01*
X58099721Y-54905000D01*
X57687244Y-54987047D01*
X57298698Y-55147988D01*
X57001422Y-55346621D01*
X57033739Y-55268601D01*
X57135000Y-54759525D01*
X57135000Y-54240475D01*
X57033739Y-53731399D01*
X56835107Y-53251859D01*
X56546738Y-52820285D01*
X56179715Y-52453262D01*
X55748141Y-52164893D01*
X55268601Y-51966261D01*
X54759525Y-51865000D01*
X54240475Y-51865000D01*
X53731399Y-51966261D01*
X53251859Y-52164893D01*
X52820285Y-52453262D01*
X52453262Y-52820285D01*
X52164893Y-53251859D01*
X51966261Y-53731399D01*
X51865000Y-54240475D01*
X50907960Y-54240475D01*
X50871971Y-54059549D01*
X50758144Y-53784747D01*
X50592893Y-53537431D01*
X50382569Y-53327107D01*
X50135253Y-53161856D01*
X49860451Y-53048029D01*
X49568722Y-52990000D01*
X49271278Y-52990000D01*
X48979549Y-53048029D01*
X48704747Y-53161856D01*
X48457431Y-53327107D01*
X48247107Y-53537431D01*
X48081856Y-53784747D01*
X47968029Y-54059549D01*
X47910000Y-54351278D01*
X41590000Y-54351278D01*
X41531971Y-54059549D01*
X41418144Y-53784747D01*
X41252893Y-53537431D01*
X41042569Y-53327107D01*
X40795253Y-53161856D01*
X40520451Y-53048029D01*
X40228722Y-52990000D01*
X39931278Y-52990000D01*
X39639549Y-53048029D01*
X39364747Y-53161856D01*
X39117431Y-53327107D01*
X38907107Y-53537431D01*
X38741856Y-53784747D01*
X38628029Y-54059549D01*
X38570000Y-54351278D01*
X38570000Y-54648722D01*
X38620977Y-54905000D01*
X38599721Y-54905000D01*
X38187244Y-54987047D01*
X37798698Y-55147988D01*
X37501422Y-55346621D01*
X37533739Y-55268601D01*
X37635000Y-54759525D01*
X37635000Y-54240475D01*
X37533739Y-53731399D01*
X37335107Y-53251859D01*
X37046738Y-52820285D01*
X36679715Y-52453262D01*
X36248141Y-52164893D01*
X35768601Y-51966261D01*
X35259525Y-51865000D01*
X34740475Y-51865000D01*
X34231399Y-51966261D01*
X33751859Y-52164893D01*
X33320285Y-52453262D01*
X32953262Y-52820285D01*
X32664893Y-53251859D01*
X32466261Y-53731399D01*
X32365000Y-54240475D01*
X31407960Y-54240475D01*
X31371971Y-54059549D01*
X31258144Y-53784747D01*
X31092893Y-53537431D01*
X30882569Y-53327107D01*
X30635253Y-53161856D01*
X30360451Y-53048029D01*
X30068722Y-52990000D01*
X29771278Y-52990000D01*
X29479549Y-53048029D01*
X29204747Y-53161856D01*
X28957431Y-53327107D01*
X28747107Y-53537431D01*
X28581856Y-53784747D01*
X28468029Y-54059549D01*
X28410000Y-54351278D01*
X22090000Y-54351278D01*
X22031971Y-54059549D01*
X21918144Y-53784747D01*
X21752893Y-53537431D01*
X21542569Y-53327107D01*
X21295253Y-53161856D01*
X21020451Y-53048029D01*
X20728722Y-52990000D01*
X20431278Y-52990000D01*
X20139549Y-53048029D01*
X19864747Y-53161856D01*
X19617431Y-53327107D01*
X19407107Y-53537431D01*
X19241856Y-53784747D01*
X19128029Y-54059549D01*
X19070000Y-54351278D01*
X19070000Y-54648722D01*
X19120977Y-54905000D01*
X19099721Y-54905000D01*
X18687244Y-54987047D01*
X18298698Y-55147988D01*
X18001422Y-55346621D01*
X18033739Y-55268601D01*
X18135000Y-54759525D01*
X18135000Y-54240475D01*
X18033739Y-53731399D01*
X17835107Y-53251859D01*
X17546738Y-52820285D01*
X17179715Y-52453262D01*
X16748141Y-52164893D01*
X16268601Y-51966261D01*
X15759525Y-51865000D01*
X15240475Y-51865000D01*
X14731399Y-51966261D01*
X14251859Y-52164893D01*
X13820285Y-52453262D01*
X13453262Y-52820285D01*
X13164893Y-53251859D01*
X12966261Y-53731399D01*
X12865000Y-54240475D01*
X11907960Y-54240475D01*
X11871971Y-54059549D01*
X11758144Y-53784747D01*
X11592893Y-53537431D01*
X11382569Y-53327107D01*
X11135253Y-53161856D01*
X10860451Y-53048029D01*
X10568722Y-52990000D01*
X10271278Y-52990000D01*
X9979549Y-53048029D01*
X9704747Y-53161856D01*
X9457431Y-53327107D01*
X9247107Y-53537431D01*
X9081856Y-53784747D01*
X8968029Y-54059549D01*
X8910000Y-54351278D01*
X660000Y-54351278D01*
X660000Y-44786428D01*
X1710000Y-44786428D01*
X1710000Y-53213571D01*
X5530000Y-53213571D01*
X5530000Y-44786428D01*
X1710000Y-44786428D01*
X660000Y-44786428D01*
X660000Y-43850000D01*
X9651928Y-43850000D01*
X9651928Y-45650000D01*
X9664188Y-45774482D01*
X9700498Y-45894180D01*
X9759463Y-46004494D01*
X9838815Y-46101185D01*
X9935506Y-46180537D01*
X10045820Y-46239502D01*
X10165518Y-46275812D01*
X10290000Y-46288072D01*
X12090000Y-46288072D01*
X12214482Y-46275812D01*
X12334180Y-46239502D01*
X12444494Y-46180537D01*
X12541185Y-46101185D01*
X12620537Y-46004494D01*
X12679502Y-45894180D01*
X12715812Y-45774482D01*
X12728072Y-45650000D01*
X12728072Y-44286730D01*
X12729803Y-44284999D01*
X17341138Y-44284999D01*
X17333989Y-44302257D01*
X17275000Y-44598816D01*
X17275000Y-44901184D01*
X17333989Y-45197743D01*
X17449701Y-45477095D01*
X17617688Y-45728505D01*
X17831495Y-45942312D01*
X18082905Y-46110299D01*
X18362257Y-46226011D01*
X18658816Y-46285000D01*
X18961184Y-46285000D01*
X19257743Y-46226011D01*
X19537095Y-46110299D01*
X19788505Y-45942312D01*
X20002312Y-45728505D01*
X20170299Y-45477095D01*
X20286011Y-45197743D01*
X20345000Y-44901184D01*
X20345000Y-44598816D01*
X20286011Y-44302257D01*
X20278862Y-44284999D01*
X29650198Y-44284999D01*
X29651928Y-44286729D01*
X29651928Y-45650000D01*
X29664188Y-45774482D01*
X29700498Y-45894180D01*
X29759463Y-46004494D01*
X29838815Y-46101185D01*
X29935506Y-46180537D01*
X30045820Y-46239502D01*
X30165518Y-46275812D01*
X30290000Y-46288072D01*
X31653270Y-46288072D01*
X31851202Y-46486004D01*
X31875000Y-46515002D01*
X31903998Y-46538800D01*
X31990724Y-46609975D01*
X32122754Y-46680547D01*
X32266015Y-46724004D01*
X32377668Y-46735001D01*
X32377677Y-46735001D01*
X32415000Y-46738677D01*
X32452323Y-46735001D01*
X49427677Y-46735001D01*
X49464999Y-46738677D01*
X49502321Y-46735001D01*
X49502332Y-46735001D01*
X49613985Y-46724004D01*
X49757246Y-46680547D01*
X49889275Y-46609975D01*
X50005000Y-46515002D01*
X50028803Y-46485998D01*
X50226729Y-46288072D01*
X51590000Y-46288072D01*
X51714482Y-46275812D01*
X51834180Y-46239502D01*
X51944494Y-46180537D01*
X52041185Y-46101185D01*
X52120537Y-46004494D01*
X52179502Y-45894180D01*
X52215812Y-45774482D01*
X52228072Y-45650000D01*
X52228072Y-44598816D01*
X56775000Y-44598816D01*
X56775000Y-44901184D01*
X56833989Y-45197743D01*
X56949701Y-45477095D01*
X57117688Y-45728505D01*
X57331495Y-45942312D01*
X57582905Y-46110299D01*
X57862257Y-46226011D01*
X58158816Y-46285000D01*
X58461184Y-46285000D01*
X58757743Y-46226011D01*
X59037095Y-46110299D01*
X59288505Y-45942312D01*
X59502312Y-45728505D01*
X59670299Y-45477095D01*
X59786011Y-45197743D01*
X59845000Y-44901184D01*
X59845000Y-44598816D01*
X59786011Y-44302257D01*
X59670299Y-44022905D01*
X59502312Y-43771495D01*
X59288505Y-43557688D01*
X59037095Y-43389701D01*
X58757743Y-43273989D01*
X58461184Y-43215000D01*
X58158816Y-43215000D01*
X57862257Y-43273989D01*
X57582905Y-43389701D01*
X57331495Y-43557688D01*
X57117688Y-43771495D01*
X56949701Y-44022905D01*
X56833989Y-44302257D01*
X56775000Y-44598816D01*
X52228072Y-44598816D01*
X52228072Y-43850000D01*
X52215812Y-43725518D01*
X52179502Y-43605820D01*
X52120537Y-43495506D01*
X52041185Y-43398815D01*
X51944494Y-43319463D01*
X51834180Y-43260498D01*
X51714482Y-43224188D01*
X51590000Y-43211928D01*
X49790000Y-43211928D01*
X49665518Y-43224188D01*
X49545820Y-43260498D01*
X49435506Y-43319463D01*
X49338815Y-43398815D01*
X49259463Y-43495506D01*
X49200498Y-43605820D01*
X49164188Y-43725518D01*
X49151928Y-43850000D01*
X49151928Y-45213271D01*
X49150198Y-45215001D01*
X40278862Y-45215001D01*
X40286011Y-45197743D01*
X40345000Y-44901184D01*
X40345000Y-44598816D01*
X40286011Y-44302257D01*
X40170299Y-44022905D01*
X40002312Y-43771495D01*
X39788505Y-43557688D01*
X39537095Y-43389701D01*
X39257743Y-43273989D01*
X38961184Y-43215000D01*
X38658816Y-43215000D01*
X38362257Y-43273989D01*
X38082905Y-43389701D01*
X37831495Y-43557688D01*
X37617688Y-43771495D01*
X37449701Y-44022905D01*
X37333989Y-44302257D01*
X37275000Y-44598816D01*
X37275000Y-44901184D01*
X37333989Y-45197743D01*
X37341138Y-45215001D01*
X32729803Y-45215001D01*
X32728072Y-45213270D01*
X32728072Y-43850000D01*
X32715812Y-43725518D01*
X32679502Y-43605820D01*
X32620537Y-43495506D01*
X32541185Y-43398815D01*
X32444494Y-43319463D01*
X32334180Y-43260498D01*
X32214482Y-43224188D01*
X32090000Y-43211928D01*
X30726729Y-43211928D01*
X30528803Y-43014002D01*
X30505000Y-42984998D01*
X30389275Y-42890025D01*
X30257246Y-42819453D01*
X30113985Y-42775996D01*
X30002332Y-42764999D01*
X30002321Y-42764999D01*
X29964999Y-42761323D01*
X29927677Y-42764999D01*
X12452323Y-42764999D01*
X12415000Y-42761323D01*
X12377677Y-42764999D01*
X12377668Y-42764999D01*
X12266015Y-42775996D01*
X12122754Y-42819453D01*
X11990724Y-42890025D01*
X11907084Y-42958667D01*
X11875000Y-42984998D01*
X11851202Y-43013996D01*
X11653270Y-43211928D01*
X10290000Y-43211928D01*
X10165518Y-43224188D01*
X10045820Y-43260498D01*
X9935506Y-43319463D01*
X9838815Y-43398815D01*
X9759463Y-43495506D01*
X9700498Y-43605820D01*
X9664188Y-43725518D01*
X9651928Y-43850000D01*
X660000Y-43850000D01*
X660000Y-39869721D01*
X10825000Y-39869721D01*
X10825000Y-40290279D01*
X10907047Y-40702756D01*
X11067988Y-41091302D01*
X11301637Y-41440983D01*
X11599017Y-41738363D01*
X11948698Y-41972012D01*
X12337244Y-42132953D01*
X12749721Y-42215000D01*
X13170279Y-42215000D01*
X13582756Y-42132953D01*
X13971302Y-41972012D01*
X14320983Y-41738363D01*
X14618363Y-41440983D01*
X14852012Y-41091302D01*
X15012953Y-40702756D01*
X15095000Y-40290279D01*
X15095000Y-39869721D01*
X30325000Y-39869721D01*
X30325000Y-40290279D01*
X30407047Y-40702756D01*
X30567988Y-41091302D01*
X30801637Y-41440983D01*
X31099017Y-41738363D01*
X31448698Y-41972012D01*
X31837244Y-42132953D01*
X32249721Y-42215000D01*
X32670279Y-42215000D01*
X33082756Y-42132953D01*
X33471302Y-41972012D01*
X33820983Y-41738363D01*
X34118363Y-41440983D01*
X34352012Y-41091302D01*
X34512953Y-40702756D01*
X34595000Y-40290279D01*
X34595000Y-39869721D01*
X49825000Y-39869721D01*
X49825000Y-40290279D01*
X49907047Y-40702756D01*
X50067988Y-41091302D01*
X50301637Y-41440983D01*
X50599017Y-41738363D01*
X50948698Y-41972012D01*
X51337244Y-42132953D01*
X51749721Y-42215000D01*
X52170279Y-42215000D01*
X52582756Y-42132953D01*
X52971302Y-41972012D01*
X53320983Y-41738363D01*
X53618363Y-41440983D01*
X53852012Y-41091302D01*
X54012953Y-40702756D01*
X54095000Y-40290279D01*
X54095000Y-39869721D01*
X54012953Y-39457244D01*
X53852012Y-39068698D01*
X53618363Y-38719017D01*
X53320983Y-38421637D01*
X52971302Y-38187988D01*
X52582756Y-38027047D01*
X52170279Y-37945000D01*
X51749721Y-37945000D01*
X51337244Y-38027047D01*
X50948698Y-38187988D01*
X50599017Y-38421637D01*
X50301637Y-38719017D01*
X50067988Y-39068698D01*
X49907047Y-39457244D01*
X49825000Y-39869721D01*
X34595000Y-39869721D01*
X34512953Y-39457244D01*
X34352012Y-39068698D01*
X34118363Y-38719017D01*
X33820983Y-38421637D01*
X33471302Y-38187988D01*
X33082756Y-38027047D01*
X32670279Y-37945000D01*
X32249721Y-37945000D01*
X31837244Y-38027047D01*
X31448698Y-38187988D01*
X31099017Y-38421637D01*
X30801637Y-38719017D01*
X30567988Y-39068698D01*
X30407047Y-39457244D01*
X30325000Y-39869721D01*
X15095000Y-39869721D01*
X15012953Y-39457244D01*
X14852012Y-39068698D01*
X14618363Y-38719017D01*
X14320983Y-38421637D01*
X13971302Y-38187988D01*
X13582756Y-38027047D01*
X13170279Y-37945000D01*
X12749721Y-37945000D01*
X12337244Y-38027047D01*
X11948698Y-38187988D01*
X11599017Y-38421637D01*
X11301637Y-38719017D01*
X11067988Y-39068698D01*
X10907047Y-39457244D01*
X10825000Y-39869721D01*
X660000Y-39869721D01*
X660000Y-34851278D01*
X8910000Y-34851278D01*
X8910000Y-35148722D01*
X8968029Y-35440451D01*
X9081856Y-35715253D01*
X9247107Y-35962569D01*
X9457431Y-36172893D01*
X9704747Y-36338144D01*
X9979549Y-36451971D01*
X10271278Y-36510000D01*
X10568722Y-36510000D01*
X10860451Y-36451971D01*
X11135253Y-36338144D01*
X11382569Y-36172893D01*
X11592893Y-35962569D01*
X11758144Y-35715253D01*
X11871971Y-35440451D01*
X11930000Y-35148722D01*
X11930000Y-34851278D01*
X11907960Y-34740475D01*
X12865000Y-34740475D01*
X12865000Y-35259525D01*
X12966261Y-35768601D01*
X13164893Y-36248141D01*
X13453262Y-36679715D01*
X13820285Y-37046738D01*
X14251859Y-37335107D01*
X14731399Y-37533739D01*
X15240475Y-37635000D01*
X15759525Y-37635000D01*
X16268601Y-37533739D01*
X16748141Y-37335107D01*
X17179715Y-37046738D01*
X17244095Y-36982358D01*
X17175000Y-37329721D01*
X17175000Y-37750279D01*
X17257047Y-38162756D01*
X17417988Y-38551302D01*
X17651637Y-38900983D01*
X17949017Y-39198363D01*
X18298698Y-39432012D01*
X18687244Y-39592953D01*
X19099721Y-39675000D01*
X19520279Y-39675000D01*
X19932756Y-39592953D01*
X20321302Y-39432012D01*
X20670983Y-39198363D01*
X20968363Y-38900983D01*
X21202012Y-38551302D01*
X21362953Y-38162756D01*
X21445000Y-37750279D01*
X21445000Y-37329721D01*
X21362953Y-36917244D01*
X21202012Y-36528698D01*
X21122501Y-36409701D01*
X21295253Y-36338144D01*
X21542569Y-36172893D01*
X21752893Y-35962569D01*
X21918144Y-35715253D01*
X22031971Y-35440451D01*
X22090000Y-35148722D01*
X22090000Y-34851278D01*
X28410000Y-34851278D01*
X28410000Y-35148722D01*
X28468029Y-35440451D01*
X28581856Y-35715253D01*
X28747107Y-35962569D01*
X28957431Y-36172893D01*
X29204747Y-36338144D01*
X29479549Y-36451971D01*
X29771278Y-36510000D01*
X30068722Y-36510000D01*
X30360451Y-36451971D01*
X30635253Y-36338144D01*
X30882569Y-36172893D01*
X31092893Y-35962569D01*
X31258144Y-35715253D01*
X31371971Y-35440451D01*
X31430000Y-35148722D01*
X31430000Y-34851278D01*
X31407960Y-34740475D01*
X32365000Y-34740475D01*
X32365000Y-35259525D01*
X32466261Y-35768601D01*
X32664893Y-36248141D01*
X32953262Y-36679715D01*
X33320285Y-37046738D01*
X33751859Y-37335107D01*
X34231399Y-37533739D01*
X34740475Y-37635000D01*
X35259525Y-37635000D01*
X35768601Y-37533739D01*
X36248141Y-37335107D01*
X36679715Y-37046738D01*
X36744095Y-36982358D01*
X36675000Y-37329721D01*
X36675000Y-37750279D01*
X36757047Y-38162756D01*
X36917988Y-38551302D01*
X37151637Y-38900983D01*
X37449017Y-39198363D01*
X37798698Y-39432012D01*
X38187244Y-39592953D01*
X38599721Y-39675000D01*
X39020279Y-39675000D01*
X39432756Y-39592953D01*
X39821302Y-39432012D01*
X40170983Y-39198363D01*
X40468363Y-38900983D01*
X40702012Y-38551302D01*
X40862953Y-38162756D01*
X40945000Y-37750279D01*
X40945000Y-37329721D01*
X40862953Y-36917244D01*
X40702012Y-36528698D01*
X40622501Y-36409701D01*
X40795253Y-36338144D01*
X41042569Y-36172893D01*
X41252893Y-35962569D01*
X41418144Y-35715253D01*
X41531971Y-35440451D01*
X41590000Y-35148722D01*
X41590000Y-34851278D01*
X47910000Y-34851278D01*
X47910000Y-35148722D01*
X47968029Y-35440451D01*
X48081856Y-35715253D01*
X48247107Y-35962569D01*
X48457431Y-36172893D01*
X48704747Y-36338144D01*
X48979549Y-36451971D01*
X49271278Y-36510000D01*
X49568722Y-36510000D01*
X49860451Y-36451971D01*
X50135253Y-36338144D01*
X50382569Y-36172893D01*
X50592893Y-35962569D01*
X50758144Y-35715253D01*
X50871971Y-35440451D01*
X50930000Y-35148722D01*
X50930000Y-34851278D01*
X50907960Y-34740475D01*
X51865000Y-34740475D01*
X51865000Y-35259525D01*
X51966261Y-35768601D01*
X52164893Y-36248141D01*
X52453262Y-36679715D01*
X52820285Y-37046738D01*
X53251859Y-37335107D01*
X53731399Y-37533739D01*
X54240475Y-37635000D01*
X54759525Y-37635000D01*
X55268601Y-37533739D01*
X55748141Y-37335107D01*
X56179715Y-37046738D01*
X56244095Y-36982358D01*
X56175000Y-37329721D01*
X56175000Y-37750279D01*
X56257047Y-38162756D01*
X56417988Y-38551302D01*
X56651637Y-38900983D01*
X56949017Y-39198363D01*
X57298698Y-39432012D01*
X57687244Y-39592953D01*
X58099721Y-39675000D01*
X58520279Y-39675000D01*
X58932756Y-39592953D01*
X59321302Y-39432012D01*
X59670983Y-39198363D01*
X59968363Y-38900983D01*
X60202012Y-38551302D01*
X60362953Y-38162756D01*
X60445000Y-37750279D01*
X60445000Y-37329721D01*
X60362953Y-36917244D01*
X60202012Y-36528698D01*
X60122501Y-36409701D01*
X60295253Y-36338144D01*
X60542569Y-36172893D01*
X60752893Y-35962569D01*
X60918144Y-35715253D01*
X61031971Y-35440451D01*
X61090000Y-35148722D01*
X61090000Y-34851278D01*
X61031971Y-34559549D01*
X60918144Y-34284747D01*
X60752893Y-34037431D01*
X60542569Y-33827107D01*
X60295253Y-33661856D01*
X60020451Y-33548029D01*
X59728722Y-33490000D01*
X59431278Y-33490000D01*
X59139549Y-33548029D01*
X58864747Y-33661856D01*
X58617431Y-33827107D01*
X58407107Y-34037431D01*
X58241856Y-34284747D01*
X58128029Y-34559549D01*
X58070000Y-34851278D01*
X58070000Y-35148722D01*
X58120977Y-35405000D01*
X58099721Y-35405000D01*
X57687244Y-35487047D01*
X57298698Y-35647988D01*
X57001422Y-35846621D01*
X57033739Y-35768601D01*
X57135000Y-35259525D01*
X57135000Y-34740475D01*
X57033739Y-34231399D01*
X56835107Y-33751859D01*
X56546738Y-33320285D01*
X56179715Y-32953262D01*
X55748141Y-32664893D01*
X55268601Y-32466261D01*
X54759525Y-32365000D01*
X54240475Y-32365000D01*
X53731399Y-32466261D01*
X53251859Y-32664893D01*
X52820285Y-32953262D01*
X52453262Y-33320285D01*
X52164893Y-33751859D01*
X51966261Y-34231399D01*
X51865000Y-34740475D01*
X50907960Y-34740475D01*
X50871971Y-34559549D01*
X50758144Y-34284747D01*
X50592893Y-34037431D01*
X50382569Y-33827107D01*
X50135253Y-33661856D01*
X49860451Y-33548029D01*
X49568722Y-33490000D01*
X49271278Y-33490000D01*
X48979549Y-33548029D01*
X48704747Y-33661856D01*
X48457431Y-33827107D01*
X48247107Y-34037431D01*
X48081856Y-34284747D01*
X47968029Y-34559549D01*
X47910000Y-34851278D01*
X41590000Y-34851278D01*
X41531971Y-34559549D01*
X41418144Y-34284747D01*
X41252893Y-34037431D01*
X41042569Y-33827107D01*
X40795253Y-33661856D01*
X40520451Y-33548029D01*
X40228722Y-33490000D01*
X39931278Y-33490000D01*
X39639549Y-33548029D01*
X39364747Y-33661856D01*
X39117431Y-33827107D01*
X38907107Y-34037431D01*
X38741856Y-34284747D01*
X38628029Y-34559549D01*
X38570000Y-34851278D01*
X38570000Y-35148722D01*
X38620977Y-35405000D01*
X38599721Y-35405000D01*
X38187244Y-35487047D01*
X37798698Y-35647988D01*
X37501422Y-35846621D01*
X37533739Y-35768601D01*
X37635000Y-35259525D01*
X37635000Y-34740475D01*
X37533739Y-34231399D01*
X37335107Y-33751859D01*
X37046738Y-33320285D01*
X36679715Y-32953262D01*
X36248141Y-32664893D01*
X35768601Y-32466261D01*
X35259525Y-32365000D01*
X34740475Y-32365000D01*
X34231399Y-32466261D01*
X33751859Y-32664893D01*
X33320285Y-32953262D01*
X32953262Y-33320285D01*
X32664893Y-33751859D01*
X32466261Y-34231399D01*
X32365000Y-34740475D01*
X31407960Y-34740475D01*
X31371971Y-34559549D01*
X31258144Y-34284747D01*
X31092893Y-34037431D01*
X30882569Y-33827107D01*
X30635253Y-33661856D01*
X30360451Y-33548029D01*
X30068722Y-33490000D01*
X29771278Y-33490000D01*
X29479549Y-33548029D01*
X29204747Y-33661856D01*
X28957431Y-33827107D01*
X28747107Y-34037431D01*
X28581856Y-34284747D01*
X28468029Y-34559549D01*
X28410000Y-34851278D01*
X22090000Y-34851278D01*
X22031971Y-34559549D01*
X21918144Y-34284747D01*
X21752893Y-34037431D01*
X21542569Y-33827107D01*
X21295253Y-33661856D01*
X21020451Y-33548029D01*
X20728722Y-33490000D01*
X20431278Y-33490000D01*
X20139549Y-33548029D01*
X19864747Y-33661856D01*
X19617431Y-33827107D01*
X19407107Y-34037431D01*
X19241856Y-34284747D01*
X19128029Y-34559549D01*
X19070000Y-34851278D01*
X19070000Y-35148722D01*
X19120977Y-35405000D01*
X19099721Y-35405000D01*
X18687244Y-35487047D01*
X18298698Y-35647988D01*
X18001422Y-35846621D01*
X18033739Y-35768601D01*
X18135000Y-35259525D01*
X18135000Y-34740475D01*
X18033739Y-34231399D01*
X17835107Y-33751859D01*
X17546738Y-33320285D01*
X17179715Y-32953262D01*
X16748141Y-32664893D01*
X16268601Y-32466261D01*
X15759525Y-32365000D01*
X15240475Y-32365000D01*
X14731399Y-32466261D01*
X14251859Y-32664893D01*
X13820285Y-32953262D01*
X13453262Y-33320285D01*
X13164893Y-33751859D01*
X12966261Y-34231399D01*
X12865000Y-34740475D01*
X11907960Y-34740475D01*
X11871971Y-34559549D01*
X11758144Y-34284747D01*
X11592893Y-34037431D01*
X11382569Y-33827107D01*
X11135253Y-33661856D01*
X10860451Y-33548029D01*
X10568722Y-33490000D01*
X10271278Y-33490000D01*
X9979549Y-33548029D01*
X9704747Y-33661856D01*
X9457431Y-33827107D01*
X9247107Y-34037431D01*
X9081856Y-34284747D01*
X8968029Y-34559549D01*
X8910000Y-34851278D01*
X660000Y-34851278D01*
X660000Y-15126000D01*
X2112928Y-15126000D01*
X2112928Y-16624000D01*
X2125188Y-16748482D01*
X2161498Y-16868180D01*
X2220463Y-16978494D01*
X2299815Y-17075185D01*
X2396506Y-17154537D01*
X2506820Y-17213502D01*
X2626518Y-17249812D01*
X2751000Y-17262072D01*
X3812271Y-17262072D01*
X5349200Y-18799002D01*
X5372999Y-18828001D01*
X5488724Y-18922974D01*
X5620753Y-18993546D01*
X5764014Y-19037003D01*
X5875667Y-19048000D01*
X5875676Y-19048000D01*
X5912999Y-19051676D01*
X5950322Y-19048000D01*
X17463199Y-19048000D01*
X25981312Y-27566114D01*
X25945000Y-27748665D01*
X25945000Y-28031335D01*
X26000147Y-28308574D01*
X26108320Y-28569727D01*
X26265363Y-28804759D01*
X26465241Y-29004637D01*
X26697759Y-29160000D01*
X26465241Y-29315363D01*
X26265363Y-29515241D01*
X26108320Y-29750273D01*
X26000147Y-30011426D01*
X25945000Y-30288665D01*
X25945000Y-30571335D01*
X26000147Y-30848574D01*
X26108320Y-31109727D01*
X26265363Y-31344759D01*
X26465241Y-31544637D01*
X26697759Y-31700000D01*
X26465241Y-31855363D01*
X26265363Y-32055241D01*
X26108320Y-32290273D01*
X26000147Y-32551426D01*
X25945000Y-32828665D01*
X25945000Y-33111335D01*
X26000147Y-33388574D01*
X26108320Y-33649727D01*
X26265363Y-33884759D01*
X26465241Y-34084637D01*
X26700273Y-34241680D01*
X26961426Y-34349853D01*
X27238665Y-34405000D01*
X27521335Y-34405000D01*
X27798574Y-34349853D01*
X28059727Y-34241680D01*
X28294759Y-34084637D01*
X28494637Y-33884759D01*
X28651680Y-33649727D01*
X28759853Y-33388574D01*
X28815000Y-33111335D01*
X28815000Y-32828665D01*
X28778688Y-32646113D01*
X41185000Y-20239802D01*
X41185000Y-20411335D01*
X41240147Y-20688574D01*
X41348320Y-20949727D01*
X41505363Y-21184759D01*
X41705241Y-21384637D01*
X41937759Y-21540000D01*
X41705241Y-21695363D01*
X41505363Y-21895241D01*
X41348320Y-22130273D01*
X41240147Y-22391426D01*
X41185000Y-22668665D01*
X41185000Y-22951335D01*
X41240147Y-23228574D01*
X41348320Y-23489727D01*
X41505363Y-23724759D01*
X41705241Y-23924637D01*
X41937759Y-24080000D01*
X41705241Y-24235363D01*
X41505363Y-24435241D01*
X41348320Y-24670273D01*
X41240147Y-24931426D01*
X41185000Y-25208665D01*
X41185000Y-25491335D01*
X41240147Y-25768574D01*
X41348320Y-26029727D01*
X41505363Y-26264759D01*
X41705241Y-26464637D01*
X41937759Y-26620000D01*
X41705241Y-26775363D01*
X41505363Y-26975241D01*
X41348320Y-27210273D01*
X41240147Y-27471426D01*
X41185000Y-27748665D01*
X41185000Y-28031335D01*
X41240147Y-28308574D01*
X41348320Y-28569727D01*
X41505363Y-28804759D01*
X41705241Y-29004637D01*
X41937759Y-29160000D01*
X41705241Y-29315363D01*
X41505363Y-29515241D01*
X41348320Y-29750273D01*
X41240147Y-30011426D01*
X41185000Y-30288665D01*
X41185000Y-30571335D01*
X41240147Y-30848574D01*
X41348320Y-31109727D01*
X41505363Y-31344759D01*
X41705241Y-31544637D01*
X41937759Y-31700000D01*
X41705241Y-31855363D01*
X41505363Y-32055241D01*
X41348320Y-32290273D01*
X41240147Y-32551426D01*
X41185000Y-32828665D01*
X41185000Y-33111335D01*
X41240147Y-33388574D01*
X41348320Y-33649727D01*
X41505363Y-33884759D01*
X41705241Y-34084637D01*
X41940273Y-34241680D01*
X42201426Y-34349853D01*
X42478665Y-34405000D01*
X42761335Y-34405000D01*
X43038574Y-34349853D01*
X43299727Y-34241680D01*
X43534759Y-34084637D01*
X43734637Y-33884759D01*
X43891680Y-33649727D01*
X43999853Y-33388574D01*
X44055000Y-33111335D01*
X44055000Y-32828665D01*
X43999853Y-32551426D01*
X43891680Y-32290273D01*
X43734637Y-32055241D01*
X43534759Y-31855363D01*
X43302241Y-31700000D01*
X43534759Y-31544637D01*
X43734637Y-31344759D01*
X43891680Y-31109727D01*
X43999853Y-30848574D01*
X44055000Y-30571335D01*
X44055000Y-30288665D01*
X43999853Y-30011426D01*
X43891680Y-29750273D01*
X43734637Y-29515241D01*
X43534759Y-29315363D01*
X43302241Y-29160000D01*
X43534759Y-29004637D01*
X43734637Y-28804759D01*
X43891680Y-28569727D01*
X43999853Y-28308574D01*
X44055000Y-28031335D01*
X44055000Y-27748665D01*
X43999853Y-27471426D01*
X43891680Y-27210273D01*
X43734637Y-26975241D01*
X43534759Y-26775363D01*
X43302241Y-26620000D01*
X43534759Y-26464637D01*
X43734637Y-26264759D01*
X43891680Y-26029727D01*
X43999853Y-25768574D01*
X44055000Y-25491335D01*
X44055000Y-25208665D01*
X44018688Y-25026113D01*
X46440802Y-22604000D01*
X62243678Y-22604000D01*
X62281000Y-22607676D01*
X62318322Y-22604000D01*
X62318333Y-22604000D01*
X62429986Y-22593003D01*
X62573247Y-22549546D01*
X62705276Y-22478974D01*
X62821001Y-22384001D01*
X62844804Y-22354997D01*
X63508624Y-21691177D01*
X63523088Y-21697168D01*
X63838967Y-21760000D01*
X64161033Y-21760000D01*
X64476912Y-21697168D01*
X64774463Y-21573918D01*
X65042252Y-21394987D01*
X65269987Y-21167252D01*
X65448918Y-20899463D01*
X65572168Y-20601912D01*
X65635000Y-20286033D01*
X65635000Y-19963967D01*
X65572168Y-19648088D01*
X65448918Y-19350537D01*
X65269987Y-19082748D01*
X65042252Y-18855013D01*
X64774463Y-18676082D01*
X64476912Y-18552832D01*
X64161033Y-18490000D01*
X63838967Y-18490000D01*
X63523088Y-18552832D01*
X63225537Y-18676082D01*
X62957748Y-18855013D01*
X62730013Y-19082748D01*
X62665075Y-19179935D01*
X62635413Y-19169192D01*
X61679605Y-20125000D01*
X61693748Y-20139143D01*
X61514143Y-20318748D01*
X61500000Y-20304605D01*
X61485858Y-20318748D01*
X61306253Y-20139143D01*
X61320395Y-20125000D01*
X60364587Y-19169192D01*
X60334925Y-19179935D01*
X60269987Y-19082748D01*
X60176826Y-18989587D01*
X60544192Y-18989587D01*
X61500000Y-19945395D01*
X62455808Y-18989587D01*
X62360044Y-18725186D01*
X62070429Y-18584296D01*
X61758892Y-18502616D01*
X61437405Y-18483282D01*
X61118325Y-18527039D01*
X60813912Y-18632205D01*
X60639956Y-18725186D01*
X60544192Y-18989587D01*
X60176826Y-18989587D01*
X60042252Y-18855013D01*
X59774463Y-18676082D01*
X59476912Y-18552832D01*
X59161033Y-18490000D01*
X58838967Y-18490000D01*
X58523088Y-18552832D01*
X58225537Y-18676082D01*
X57957748Y-18855013D01*
X57730013Y-19082748D01*
X57551082Y-19350537D01*
X57545091Y-19365000D01*
X49781801Y-19365000D01*
X54105009Y-15041794D01*
X54134001Y-15018001D01*
X54157795Y-14989008D01*
X54157799Y-14989004D01*
X54228973Y-14902277D01*
X54228974Y-14902276D01*
X54299546Y-14770247D01*
X54343003Y-14626986D01*
X54354000Y-14515333D01*
X54354000Y-14515324D01*
X54357676Y-14478001D01*
X54354000Y-14440678D01*
X54354000Y-11275000D01*
X55011928Y-11275000D01*
X55011928Y-13975000D01*
X55024188Y-14099482D01*
X55060498Y-14219180D01*
X55119463Y-14329494D01*
X55198815Y-14426185D01*
X55295506Y-14505537D01*
X55405820Y-14564502D01*
X55525518Y-14600812D01*
X55650000Y-14613072D01*
X57950000Y-14613072D01*
X58074482Y-14600812D01*
X58194180Y-14564502D01*
X58304494Y-14505537D01*
X58401185Y-14426185D01*
X58480537Y-14329494D01*
X58539502Y-14219180D01*
X58575812Y-14099482D01*
X58588072Y-13975000D01*
X58588072Y-11275000D01*
X64411928Y-11275000D01*
X64411928Y-13975000D01*
X64424188Y-14099482D01*
X64460498Y-14219180D01*
X64519463Y-14329494D01*
X64598815Y-14426185D01*
X64695506Y-14505537D01*
X64805820Y-14564502D01*
X64925518Y-14600812D01*
X65050000Y-14613072D01*
X67350000Y-14613072D01*
X67474482Y-14600812D01*
X67594180Y-14564502D01*
X67704494Y-14505537D01*
X67801185Y-14426185D01*
X67880537Y-14329494D01*
X67939502Y-14219180D01*
X67975812Y-14099482D01*
X67988072Y-13975000D01*
X67988072Y-11275000D01*
X67975812Y-11150518D01*
X67939502Y-11030820D01*
X67880537Y-10920506D01*
X67801185Y-10823815D01*
X67704494Y-10744463D01*
X67594180Y-10685498D01*
X67474482Y-10649188D01*
X67350000Y-10636928D01*
X65050000Y-10636928D01*
X64925518Y-10649188D01*
X64805820Y-10685498D01*
X64695506Y-10744463D01*
X64598815Y-10823815D01*
X64519463Y-10920506D01*
X64460498Y-11030820D01*
X64424188Y-11150518D01*
X64411928Y-11275000D01*
X58588072Y-11275000D01*
X58575812Y-11150518D01*
X58539502Y-11030820D01*
X58480537Y-10920506D01*
X58401185Y-10823815D01*
X58304494Y-10744463D01*
X58194180Y-10685498D01*
X58074482Y-10649188D01*
X57950000Y-10636928D01*
X55650000Y-10636928D01*
X55525518Y-10649188D01*
X55405820Y-10685498D01*
X55295506Y-10744463D01*
X55198815Y-10823815D01*
X55119463Y-10920506D01*
X55060498Y-11030820D01*
X55024188Y-11150518D01*
X55011928Y-11275000D01*
X54354000Y-11275000D01*
X54354000Y-11236801D01*
X56702802Y-8888000D01*
X61459678Y-8888000D01*
X61497000Y-8891676D01*
X61534322Y-8888000D01*
X61534333Y-8888000D01*
X61645986Y-8877003D01*
X61789247Y-8833546D01*
X61921276Y-8762974D01*
X62037001Y-8668001D01*
X62060804Y-8638997D01*
X63508625Y-7191177D01*
X63523088Y-7197168D01*
X63838967Y-7260000D01*
X64161033Y-7260000D01*
X64476912Y-7197168D01*
X64774463Y-7073918D01*
X65042252Y-6894987D01*
X65269987Y-6667252D01*
X65448918Y-6399463D01*
X65572168Y-6101912D01*
X65635000Y-5786033D01*
X65635000Y-5463967D01*
X65572168Y-5148088D01*
X65448918Y-4850537D01*
X65269987Y-4582748D01*
X65042252Y-4355013D01*
X64774463Y-4176082D01*
X64476912Y-4052832D01*
X64161033Y-3990000D01*
X63838967Y-3990000D01*
X63523088Y-4052832D01*
X63225537Y-4176082D01*
X62957748Y-4355013D01*
X62730013Y-4582748D01*
X62551082Y-4850537D01*
X62427832Y-5148088D01*
X62365000Y-5463967D01*
X62365000Y-5786033D01*
X62427832Y-6101912D01*
X62433823Y-6116375D01*
X61182199Y-7368000D01*
X56425325Y-7368000D01*
X56388000Y-7364324D01*
X56350675Y-7368000D01*
X56350667Y-7368000D01*
X56239014Y-7378997D01*
X56095753Y-7422454D01*
X55963724Y-7493026D01*
X55847999Y-7587999D01*
X55824201Y-7616997D01*
X53082998Y-10358201D01*
X53054000Y-10381999D01*
X53030202Y-10410997D01*
X53030201Y-10410998D01*
X52959026Y-10497724D01*
X52888454Y-10629754D01*
X52863050Y-10713502D01*
X52844998Y-10773014D01*
X52837266Y-10851514D01*
X52830324Y-10922000D01*
X52834001Y-10959332D01*
X52834000Y-14163197D01*
X51562487Y-15434710D01*
X51505332Y-15276516D01*
X51445045Y-15163729D01*
X51206279Y-15098326D01*
X50429605Y-15875000D01*
X50443748Y-15889143D01*
X50264143Y-16068748D01*
X50250000Y-16054605D01*
X49473326Y-16831279D01*
X49538729Y-17070045D01*
X49785538Y-17185845D01*
X49806237Y-17190962D01*
X48707199Y-18290000D01*
X43941272Y-18290000D01*
X43999853Y-18148574D01*
X44055000Y-17871335D01*
X44055000Y-17588665D01*
X43999853Y-17311426D01*
X43891680Y-17050273D01*
X43734637Y-16815241D01*
X43534759Y-16615363D01*
X43302241Y-16460000D01*
X43534759Y-16304637D01*
X43734637Y-16104759D01*
X43891680Y-15869727D01*
X43999853Y-15608574D01*
X44055000Y-15331335D01*
X44055000Y-15048665D01*
X43999853Y-14771426D01*
X43891680Y-14510273D01*
X43734637Y-14275241D01*
X43534759Y-14075363D01*
X43300872Y-13919085D01*
X43361514Y-13886671D01*
X43433097Y-13642702D01*
X42620000Y-12829605D01*
X42605858Y-12843748D01*
X42426253Y-12664143D01*
X42440395Y-12650000D01*
X42799605Y-12650000D01*
X43612702Y-13463097D01*
X43856671Y-13391514D01*
X43977571Y-13136004D01*
X44046300Y-12861816D01*
X44060217Y-12579488D01*
X44018787Y-12299870D01*
X43923603Y-12033708D01*
X43856671Y-11908486D01*
X43612702Y-11836903D01*
X42799605Y-12650000D01*
X42440395Y-12650000D01*
X41627298Y-11836903D01*
X41383329Y-11908486D01*
X41262429Y-12163996D01*
X41193700Y-12438184D01*
X41181922Y-12677120D01*
X39607504Y-11102702D01*
X41806903Y-11102702D01*
X41878486Y-11346671D01*
X41944636Y-11377971D01*
X41878486Y-11413329D01*
X41806903Y-11657298D01*
X42620000Y-12470395D01*
X43433097Y-11657298D01*
X43361514Y-11413329D01*
X43295364Y-11382029D01*
X43361514Y-11346671D01*
X43433097Y-11102702D01*
X42620000Y-10289605D01*
X41806903Y-11102702D01*
X39607504Y-11102702D01*
X38685314Y-10180512D01*
X41179783Y-10180512D01*
X41221213Y-10460130D01*
X41316397Y-10726292D01*
X41383329Y-10851514D01*
X41627298Y-10923097D01*
X42440395Y-10110000D01*
X42799605Y-10110000D01*
X43612702Y-10923097D01*
X43856671Y-10851514D01*
X43977571Y-10596004D01*
X44046300Y-10321816D01*
X44060217Y-10039488D01*
X44018787Y-9759870D01*
X43923603Y-9493708D01*
X43856671Y-9368486D01*
X43612702Y-9296903D01*
X42799605Y-10110000D01*
X42440395Y-10110000D01*
X41627298Y-9296903D01*
X41383329Y-9368486D01*
X41262429Y-9623996D01*
X41193700Y-9898184D01*
X41179783Y-10180512D01*
X38685314Y-10180512D01*
X36978803Y-8474002D01*
X36955000Y-8444998D01*
X36839275Y-8350025D01*
X36707246Y-8279453D01*
X36563985Y-8235996D01*
X36452332Y-8224999D01*
X36452321Y-8224999D01*
X36414999Y-8221323D01*
X36377677Y-8224999D01*
X28657607Y-8224999D01*
X28737571Y-8056004D01*
X28806300Y-7781816D01*
X28820217Y-7499488D01*
X28778787Y-7219870D01*
X28683603Y-6953708D01*
X28662914Y-6915001D01*
X41338077Y-6915001D01*
X41240147Y-7151426D01*
X41185000Y-7428665D01*
X41185000Y-7711335D01*
X41240147Y-7988574D01*
X41348320Y-8249727D01*
X41505363Y-8484759D01*
X41705241Y-8684637D01*
X41939128Y-8840915D01*
X41878486Y-8873329D01*
X41806903Y-9117298D01*
X42620000Y-9930395D01*
X43433097Y-9117298D01*
X43361514Y-8873329D01*
X43297008Y-8842806D01*
X43299727Y-8841680D01*
X43534759Y-8684637D01*
X43593396Y-8626000D01*
X44362928Y-8626000D01*
X44362928Y-10124000D01*
X44375188Y-10248482D01*
X44411498Y-10368180D01*
X44470463Y-10478494D01*
X44549815Y-10575185D01*
X44646506Y-10654537D01*
X44756820Y-10713502D01*
X44876518Y-10749812D01*
X44990001Y-10760989D01*
X44990000Y-14718293D01*
X44867751Y-14799977D01*
X44674977Y-14992751D01*
X44523515Y-15219430D01*
X44419186Y-15471302D01*
X44366000Y-15738688D01*
X44366000Y-16011312D01*
X44419186Y-16278698D01*
X44523515Y-16530570D01*
X44674977Y-16757249D01*
X44867751Y-16950023D01*
X45094430Y-17101485D01*
X45346302Y-17205814D01*
X45613688Y-17259000D01*
X45886312Y-17259000D01*
X46153698Y-17205814D01*
X46405570Y-17101485D01*
X46632249Y-16950023D01*
X46825023Y-16757249D01*
X46976485Y-16530570D01*
X47080814Y-16278698D01*
X47134000Y-16011312D01*
X47134000Y-15947531D01*
X48861195Y-15947531D01*
X48902030Y-16217081D01*
X48994668Y-16473484D01*
X49054955Y-16586271D01*
X49293721Y-16651674D01*
X50070395Y-15875000D01*
X49293721Y-15098326D01*
X49054955Y-15163729D01*
X48939155Y-15410538D01*
X48873730Y-15675195D01*
X48861195Y-15947531D01*
X47134000Y-15947531D01*
X47134000Y-15738688D01*
X47080814Y-15471302D01*
X46976485Y-15219430D01*
X46825023Y-14992751D01*
X46750993Y-14918721D01*
X49473326Y-14918721D01*
X50250000Y-15695395D01*
X51026674Y-14918721D01*
X50961271Y-14679955D01*
X50714462Y-14564155D01*
X50449805Y-14498730D01*
X50177469Y-14486195D01*
X49907919Y-14527030D01*
X49651516Y-14619668D01*
X49538729Y-14679955D01*
X49473326Y-14918721D01*
X46750993Y-14918721D01*
X46632249Y-14799977D01*
X46510000Y-14718293D01*
X46510000Y-10760989D01*
X46623482Y-10749812D01*
X46743180Y-10713502D01*
X46853494Y-10654537D01*
X46950185Y-10575185D01*
X47029537Y-10478494D01*
X47088502Y-10368180D01*
X47099695Y-10331279D01*
X49473326Y-10331279D01*
X49538729Y-10570045D01*
X49785538Y-10685845D01*
X50050195Y-10751270D01*
X50322531Y-10763805D01*
X50592081Y-10722970D01*
X50848484Y-10630332D01*
X50961271Y-10570045D01*
X51026674Y-10331279D01*
X50250000Y-9554605D01*
X49473326Y-10331279D01*
X47099695Y-10331279D01*
X47124812Y-10248482D01*
X47137072Y-10124000D01*
X47137072Y-9447531D01*
X48861195Y-9447531D01*
X48902030Y-9717081D01*
X48994668Y-9973484D01*
X49054955Y-10086271D01*
X49293721Y-10151674D01*
X50070395Y-9375000D01*
X50429605Y-9375000D01*
X51206279Y-10151674D01*
X51445045Y-10086271D01*
X51560845Y-9839462D01*
X51626270Y-9574805D01*
X51638805Y-9302469D01*
X51597970Y-9032919D01*
X51505332Y-8776516D01*
X51445045Y-8663729D01*
X51206279Y-8598326D01*
X50429605Y-9375000D01*
X50070395Y-9375000D01*
X49293721Y-8598326D01*
X49054955Y-8663729D01*
X48939155Y-8910538D01*
X48873730Y-9175195D01*
X48861195Y-9447531D01*
X47137072Y-9447531D01*
X47137072Y-8626000D01*
X47124812Y-8501518D01*
X47099696Y-8418721D01*
X49473326Y-8418721D01*
X50250000Y-9195395D01*
X51026674Y-8418721D01*
X50961271Y-8179955D01*
X50714462Y-8064155D01*
X50449805Y-7998730D01*
X50177469Y-7986195D01*
X49907919Y-8027030D01*
X49651516Y-8119668D01*
X49538729Y-8179955D01*
X49473326Y-8418721D01*
X47099696Y-8418721D01*
X47088502Y-8381820D01*
X47029537Y-8271506D01*
X46950185Y-8174815D01*
X46853494Y-8095463D01*
X46743180Y-8036498D01*
X46623482Y-8000188D01*
X46499000Y-7987928D01*
X45001000Y-7987928D01*
X44876518Y-8000188D01*
X44756820Y-8036498D01*
X44646506Y-8095463D01*
X44549815Y-8174815D01*
X44470463Y-8271506D01*
X44411498Y-8381820D01*
X44375188Y-8501518D01*
X44362928Y-8626000D01*
X43593396Y-8626000D01*
X43734637Y-8484759D01*
X43891680Y-8249727D01*
X43999853Y-7988574D01*
X44055000Y-7711335D01*
X44055000Y-7428665D01*
X43999853Y-7151426D01*
X43901923Y-6915001D01*
X57987701Y-6915001D01*
X58225537Y-7073918D01*
X58523088Y-7197168D01*
X58838967Y-7260000D01*
X59161033Y-7260000D01*
X59476912Y-7197168D01*
X59774463Y-7073918D01*
X60042252Y-6894987D01*
X60269987Y-6667252D01*
X60448918Y-6399463D01*
X60572168Y-6101912D01*
X60635000Y-5786033D01*
X60635000Y-5463967D01*
X60572168Y-5148088D01*
X60448918Y-4850537D01*
X60269987Y-4582748D01*
X60042252Y-4355013D01*
X59774463Y-4176082D01*
X59476912Y-4052832D01*
X59161033Y-3990000D01*
X58838967Y-3990000D01*
X58523088Y-4052832D01*
X58225537Y-4176082D01*
X57957748Y-4355013D01*
X57730013Y-4582748D01*
X57551082Y-4850537D01*
X57427832Y-5148088D01*
X57378718Y-5395001D01*
X44058072Y-5395001D01*
X44058072Y-4230000D01*
X44045812Y-4105518D01*
X44009502Y-3985820D01*
X43950537Y-3875506D01*
X43871185Y-3778815D01*
X43774494Y-3699463D01*
X43664180Y-3640498D01*
X43544482Y-3604188D01*
X43420000Y-3591928D01*
X41820000Y-3591928D01*
X41695518Y-3604188D01*
X41575820Y-3640498D01*
X41465506Y-3699463D01*
X41368815Y-3778815D01*
X41289463Y-3875506D01*
X41230498Y-3985820D01*
X41194188Y-4105518D01*
X41181928Y-4230000D01*
X41181928Y-5395001D01*
X28770509Y-5395001D01*
X28815000Y-5171335D01*
X28815000Y-4888665D01*
X28759853Y-4611426D01*
X28651680Y-4350273D01*
X28494637Y-4115241D01*
X28294759Y-3915363D01*
X28059727Y-3758320D01*
X27798574Y-3650147D01*
X27521335Y-3595000D01*
X27238665Y-3595000D01*
X26961426Y-3650147D01*
X26700273Y-3758320D01*
X26465241Y-3915363D01*
X26265363Y-4115241D01*
X26108320Y-4350273D01*
X26000147Y-4611426D01*
X25945000Y-4888665D01*
X25945000Y-5171335D01*
X25989491Y-5395001D01*
X25697324Y-5395001D01*
X25659999Y-5391325D01*
X25622674Y-5395001D01*
X25622666Y-5395001D01*
X25511013Y-5405998D01*
X25367752Y-5449455D01*
X25235723Y-5520027D01*
X25119998Y-5615000D01*
X25096200Y-5643998D01*
X23408930Y-7331269D01*
X23151184Y-7280000D01*
X22848816Y-7280000D01*
X22552257Y-7338989D01*
X22272905Y-7454701D01*
X22021495Y-7622688D01*
X21807688Y-7836495D01*
X21639701Y-8087905D01*
X21523989Y-8367257D01*
X21465000Y-8663816D01*
X21465000Y-8966184D01*
X21523989Y-9262743D01*
X21531138Y-9280001D01*
X20468862Y-9280001D01*
X20476011Y-9262743D01*
X20535000Y-8966184D01*
X20535000Y-8663816D01*
X20476011Y-8367257D01*
X20360299Y-8087905D01*
X20192312Y-7836495D01*
X19978505Y-7622688D01*
X19727095Y-7454701D01*
X19447743Y-7338989D01*
X19151184Y-7280000D01*
X18848816Y-7280000D01*
X18591070Y-7331269D01*
X17606804Y-6347003D01*
X17583001Y-6317999D01*
X17467276Y-6223026D01*
X17335247Y-6152454D01*
X17191986Y-6108997D01*
X17080333Y-6098000D01*
X17080322Y-6098000D01*
X17043000Y-6094324D01*
X17005678Y-6098000D01*
X10554333Y-6098000D01*
X10517000Y-6094323D01*
X10479667Y-6098000D01*
X10368014Y-6108997D01*
X10224753Y-6152454D01*
X10092724Y-6223026D01*
X9976999Y-6317999D01*
X9953201Y-6346997D01*
X8280515Y-8019684D01*
X8136312Y-7991000D01*
X7863688Y-7991000D01*
X7596302Y-8044186D01*
X7344430Y-8148515D01*
X7117751Y-8299977D01*
X6924977Y-8492751D01*
X6773515Y-8719430D01*
X6669186Y-8971302D01*
X6616000Y-9238688D01*
X6616000Y-9511312D01*
X6669186Y-9778698D01*
X6773515Y-10030570D01*
X6924977Y-10257249D01*
X7117751Y-10450023D01*
X7240000Y-10531707D01*
X7240001Y-14718292D01*
X7117751Y-14799977D01*
X6924977Y-14992751D01*
X6773515Y-15219430D01*
X6669186Y-15471302D01*
X6616000Y-15738688D01*
X6616000Y-16011312D01*
X6669186Y-16278698D01*
X6773515Y-16530570D01*
X6924977Y-16757249D01*
X7117751Y-16950023D01*
X7344430Y-17101485D01*
X7596302Y-17205814D01*
X7863688Y-17259000D01*
X8136312Y-17259000D01*
X8403698Y-17205814D01*
X8655570Y-17101485D01*
X8882249Y-16950023D01*
X9075023Y-16757249D01*
X9226485Y-16530570D01*
X9330814Y-16278698D01*
X9384000Y-16011312D01*
X9384000Y-15738688D01*
X9330814Y-15471302D01*
X9226485Y-15219430D01*
X9075023Y-14992751D01*
X8882249Y-14799977D01*
X8760000Y-14718293D01*
X8760000Y-10531707D01*
X8882249Y-10450023D01*
X9075023Y-10257249D01*
X9226485Y-10030570D01*
X9330814Y-9778698D01*
X9384000Y-9511312D01*
X9384000Y-9238688D01*
X9355316Y-9094485D01*
X10831802Y-7618000D01*
X13135457Y-7618000D01*
X13080498Y-7720820D01*
X13044188Y-7840518D01*
X13031928Y-7965000D01*
X13031928Y-9665000D01*
X13044188Y-9789482D01*
X13080498Y-9909180D01*
X13139463Y-10019494D01*
X13218815Y-10116185D01*
X13315506Y-10195537D01*
X13425820Y-10254502D01*
X13498380Y-10276513D01*
X13366525Y-10408368D01*
X13204010Y-10651589D01*
X13092068Y-10921842D01*
X13035000Y-11208740D01*
X13035000Y-11501260D01*
X13092068Y-11788158D01*
X13204010Y-12058411D01*
X13366525Y-12301632D01*
X13573368Y-12508475D01*
X13747760Y-12625000D01*
X13573368Y-12741525D01*
X13366525Y-12948368D01*
X13204010Y-13191589D01*
X13092068Y-13461842D01*
X13035000Y-13748740D01*
X13035000Y-14041260D01*
X13092068Y-14328158D01*
X13204010Y-14598411D01*
X13366525Y-14841632D01*
X13573368Y-15048475D01*
X13755534Y-15170195D01*
X13638645Y-15239822D01*
X13422412Y-15434731D01*
X13248359Y-15668080D01*
X13123175Y-15930901D01*
X13078524Y-16078110D01*
X13199845Y-16308000D01*
X14393000Y-16308000D01*
X14393000Y-16288000D01*
X14647000Y-16288000D01*
X14647000Y-16308000D01*
X15840155Y-16308000D01*
X15961476Y-16078110D01*
X15916825Y-15930901D01*
X15791641Y-15668080D01*
X15617588Y-15434731D01*
X15401355Y-15239822D01*
X15284466Y-15170195D01*
X15466632Y-15048475D01*
X15673475Y-14841632D01*
X15798178Y-14655000D01*
X19595678Y-14655000D01*
X19633000Y-14658676D01*
X19670322Y-14655000D01*
X19670333Y-14655000D01*
X19781986Y-14644003D01*
X19925247Y-14600546D01*
X20057276Y-14529974D01*
X20173001Y-14435001D01*
X20196804Y-14405997D01*
X21192802Y-13410000D01*
X26161957Y-13410000D01*
X26265363Y-13564759D01*
X26465241Y-13764637D01*
X26697759Y-13920000D01*
X26465241Y-14075363D01*
X26265363Y-14275241D01*
X26108320Y-14510273D01*
X26000147Y-14771426D01*
X25945000Y-15048665D01*
X25945000Y-15331335D01*
X26000147Y-15608574D01*
X26108320Y-15869727D01*
X26265363Y-16104759D01*
X26465241Y-16304637D01*
X26697759Y-16460000D01*
X26465241Y-16615363D01*
X26265363Y-16815241D01*
X26108320Y-17050273D01*
X26000147Y-17311426D01*
X25945000Y-17588665D01*
X25945000Y-17871335D01*
X26000147Y-18148574D01*
X26108320Y-18409727D01*
X26265363Y-18644759D01*
X26465241Y-18844637D01*
X26697759Y-19000000D01*
X26465241Y-19155363D01*
X26265363Y-19355241D01*
X26108320Y-19590273D01*
X26000147Y-19851426D01*
X25945000Y-20128665D01*
X25945000Y-20411335D01*
X26000147Y-20688574D01*
X26108320Y-20949727D01*
X26265363Y-21184759D01*
X26465241Y-21384637D01*
X26697759Y-21540000D01*
X26465241Y-21695363D01*
X26265363Y-21895241D01*
X26108320Y-22130273D01*
X26000147Y-22391426D01*
X25945000Y-22668665D01*
X25945000Y-22840198D01*
X23760000Y-20655199D01*
X23760000Y-17973072D01*
X23900000Y-17973072D01*
X24024482Y-17960812D01*
X24144180Y-17924502D01*
X24254494Y-17865537D01*
X24351185Y-17786185D01*
X24430537Y-17689494D01*
X24489502Y-17579180D01*
X24525812Y-17459482D01*
X24538072Y-17335000D01*
X24538072Y-15535000D01*
X24525812Y-15410518D01*
X24489502Y-15290820D01*
X24430537Y-15180506D01*
X24351185Y-15083815D01*
X24254494Y-15004463D01*
X24144180Y-14945498D01*
X24024482Y-14909188D01*
X23900000Y-14896928D01*
X22100000Y-14896928D01*
X21975518Y-14909188D01*
X21855820Y-14945498D01*
X21745506Y-15004463D01*
X21648815Y-15083815D01*
X21569463Y-15180506D01*
X21510498Y-15290820D01*
X21474188Y-15410518D01*
X21461928Y-15535000D01*
X21461928Y-15675000D01*
X20538072Y-15675000D01*
X20538072Y-15535000D01*
X20525812Y-15410518D01*
X20489502Y-15290820D01*
X20430537Y-15180506D01*
X20351185Y-15083815D01*
X20254494Y-15004463D01*
X20144180Y-14945498D01*
X20024482Y-14909188D01*
X19900000Y-14896928D01*
X18100000Y-14896928D01*
X17975518Y-14909188D01*
X17855820Y-14945498D01*
X17745506Y-15004463D01*
X17648815Y-15083815D01*
X17569463Y-15180506D01*
X17510498Y-15290820D01*
X17474188Y-15410518D01*
X17461928Y-15535000D01*
X17461928Y-17335000D01*
X17474188Y-17459482D01*
X17494973Y-17528000D01*
X15514712Y-17528000D01*
X15617588Y-17435269D01*
X15791641Y-17201920D01*
X15916825Y-16939099D01*
X15961476Y-16791890D01*
X15840155Y-16562000D01*
X14647000Y-16562000D01*
X14647000Y-16582000D01*
X14393000Y-16582000D01*
X14393000Y-16562000D01*
X13199845Y-16562000D01*
X13078524Y-16791890D01*
X13123175Y-16939099D01*
X13248359Y-17201920D01*
X13422412Y-17435269D01*
X13525288Y-17528000D01*
X6227802Y-17528000D01*
X4887072Y-16187271D01*
X4887072Y-15126000D01*
X4874812Y-15001518D01*
X4838502Y-14881820D01*
X4779537Y-14771506D01*
X4700185Y-14674815D01*
X4603494Y-14595463D01*
X4493180Y-14536498D01*
X4373482Y-14500188D01*
X4260000Y-14489011D01*
X4260000Y-10531707D01*
X4382249Y-10450023D01*
X4575023Y-10257249D01*
X4726485Y-10030570D01*
X4830814Y-9778698D01*
X4884000Y-9511312D01*
X4884000Y-9238688D01*
X4830814Y-8971302D01*
X4726485Y-8719430D01*
X4575023Y-8492751D01*
X4382249Y-8299977D01*
X4155570Y-8148515D01*
X3903698Y-8044186D01*
X3636312Y-7991000D01*
X3363688Y-7991000D01*
X3096302Y-8044186D01*
X2844430Y-8148515D01*
X2617751Y-8299977D01*
X2424977Y-8492751D01*
X2273515Y-8719430D01*
X2169186Y-8971302D01*
X2116000Y-9238688D01*
X2116000Y-9511312D01*
X2169186Y-9778698D01*
X2273515Y-10030570D01*
X2424977Y-10257249D01*
X2617751Y-10450023D01*
X2740000Y-10531707D01*
X2740001Y-14489011D01*
X2626518Y-14500188D01*
X2506820Y-14536498D01*
X2396506Y-14595463D01*
X2299815Y-14674815D01*
X2220463Y-14771506D01*
X2161498Y-14881820D01*
X2125188Y-15001518D01*
X2112928Y-15126000D01*
X660000Y-15126000D01*
X660000Y-4032278D01*
X726714Y-3351874D01*
X914943Y-2728428D01*
X1220681Y-2153421D01*
X1632279Y-1648753D01*
X2134067Y-1233638D01*
X2706924Y-923895D01*
X3329039Y-731318D01*
X4007584Y-660000D01*
X65967722Y-660000D01*
X66648126Y-726714D01*
%TA.AperFunction,Conductor*%
D23*
G36*
X66648126Y-726714D02*
G01*
X67271572Y-914943D01*
X67846579Y-1220681D01*
X68351247Y-1632279D01*
X68766362Y-2134067D01*
X69076105Y-2706924D01*
X69268682Y-3329039D01*
X69340000Y-4007584D01*
X69340001Y-65967711D01*
X69273286Y-66648126D01*
X69085057Y-67271570D01*
X68779323Y-67846573D01*
X68367721Y-68351248D01*
X67865933Y-68766362D01*
X67293077Y-69076104D01*
X66670961Y-69268682D01*
X65992417Y-69340000D01*
X4032279Y-69340000D01*
X3351874Y-69273286D01*
X2728430Y-69085057D01*
X2153427Y-68779323D01*
X1648752Y-68367721D01*
X1233638Y-67865933D01*
X923896Y-67293077D01*
X731318Y-66670961D01*
X660000Y-65992417D01*
X660000Y-63350000D01*
X9651928Y-63350000D01*
X9651928Y-65150000D01*
X9664188Y-65274482D01*
X9700498Y-65394180D01*
X9759463Y-65504494D01*
X9838815Y-65601185D01*
X9935506Y-65680537D01*
X10045820Y-65739502D01*
X10165518Y-65775812D01*
X10290000Y-65788072D01*
X11653270Y-65788072D01*
X11851202Y-65986004D01*
X11875000Y-66015002D01*
X11903998Y-66038800D01*
X11990724Y-66109975D01*
X12107664Y-66172481D01*
X12122754Y-66180547D01*
X12266015Y-66224004D01*
X12377668Y-66235001D01*
X12377677Y-66235001D01*
X12415000Y-66238677D01*
X12452323Y-66235001D01*
X29927677Y-66235001D01*
X29964999Y-66238677D01*
X30002321Y-66235001D01*
X30002332Y-66235001D01*
X30113985Y-66224004D01*
X30257246Y-66180547D01*
X30389275Y-66109975D01*
X30505000Y-66015002D01*
X30528803Y-65985998D01*
X30726729Y-65788072D01*
X31653270Y-65788072D01*
X31851202Y-65986004D01*
X31875000Y-66015002D01*
X31903998Y-66038800D01*
X31990724Y-66109975D01*
X32107664Y-66172481D01*
X32122754Y-66180547D01*
X32266015Y-66224004D01*
X32377668Y-66235001D01*
X32377677Y-66235001D01*
X32415000Y-66238677D01*
X32452323Y-66235001D01*
X49427677Y-66235001D01*
X49464999Y-66238677D01*
X49502321Y-66235001D01*
X49502332Y-66235001D01*
X49613985Y-66224004D01*
X49757246Y-66180547D01*
X49889275Y-66109975D01*
X50005000Y-66015002D01*
X50028803Y-65985998D01*
X50226729Y-65788072D01*
X51590000Y-65788072D01*
X51714482Y-65775812D01*
X51834180Y-65739502D01*
X51944494Y-65680537D01*
X52041185Y-65601185D01*
X52120537Y-65504494D01*
X52179502Y-65394180D01*
X52215812Y-65274482D01*
X52228072Y-65150000D01*
X52228072Y-64098816D01*
X56775000Y-64098816D01*
X56775000Y-64401184D01*
X56833989Y-64697743D01*
X56949701Y-64977095D01*
X57117688Y-65228505D01*
X57331495Y-65442312D01*
X57582905Y-65610299D01*
X57862257Y-65726011D01*
X58158816Y-65785000D01*
X58461184Y-65785000D01*
X58757743Y-65726011D01*
X59037095Y-65610299D01*
X59288505Y-65442312D01*
X59502312Y-65228505D01*
X59670299Y-64977095D01*
X59786011Y-64697743D01*
X59845000Y-64401184D01*
X59845000Y-64098816D01*
X59786011Y-63802257D01*
X59670299Y-63522905D01*
X59502312Y-63271495D01*
X59288505Y-63057688D01*
X59037095Y-62889701D01*
X58757743Y-62773989D01*
X58461184Y-62715000D01*
X58158816Y-62715000D01*
X57862257Y-62773989D01*
X57582905Y-62889701D01*
X57331495Y-63057688D01*
X57117688Y-63271495D01*
X56949701Y-63522905D01*
X56833989Y-63802257D01*
X56775000Y-64098816D01*
X52228072Y-64098816D01*
X52228072Y-63350000D01*
X52215812Y-63225518D01*
X52179502Y-63105820D01*
X52120537Y-62995506D01*
X52041185Y-62898815D01*
X51944494Y-62819463D01*
X51834180Y-62760498D01*
X51714482Y-62724188D01*
X51590000Y-62711928D01*
X49790000Y-62711928D01*
X49665518Y-62724188D01*
X49545820Y-62760498D01*
X49435506Y-62819463D01*
X49338815Y-62898815D01*
X49259463Y-62995506D01*
X49200498Y-63105820D01*
X49164188Y-63225518D01*
X49151928Y-63350000D01*
X49151928Y-64713271D01*
X49150198Y-64715001D01*
X40278862Y-64715001D01*
X40286011Y-64697743D01*
X40345000Y-64401184D01*
X40345000Y-64098816D01*
X40286011Y-63802257D01*
X40170299Y-63522905D01*
X40002312Y-63271495D01*
X39788505Y-63057688D01*
X39537095Y-62889701D01*
X39257743Y-62773989D01*
X38961184Y-62715000D01*
X38658816Y-62715000D01*
X38362257Y-62773989D01*
X38082905Y-62889701D01*
X37831495Y-63057688D01*
X37617688Y-63271495D01*
X37449701Y-63522905D01*
X37333989Y-63802257D01*
X37275000Y-64098816D01*
X37275000Y-64401184D01*
X37333989Y-64697743D01*
X37341138Y-64715001D01*
X32729803Y-64715001D01*
X32728072Y-64713270D01*
X32728072Y-63350000D01*
X32715812Y-63225518D01*
X32679502Y-63105820D01*
X32620537Y-62995506D01*
X32541185Y-62898815D01*
X32444494Y-62819463D01*
X32334180Y-62760498D01*
X32214482Y-62724188D01*
X32090000Y-62711928D01*
X30290000Y-62711928D01*
X30165518Y-62724188D01*
X30045820Y-62760498D01*
X29935506Y-62819463D01*
X29838815Y-62898815D01*
X29759463Y-62995506D01*
X29700498Y-63105820D01*
X29664188Y-63225518D01*
X29651928Y-63350000D01*
X29651928Y-64713271D01*
X29650198Y-64715001D01*
X20278862Y-64715001D01*
X20286011Y-64697743D01*
X20345000Y-64401184D01*
X20345000Y-64098816D01*
X20286011Y-63802257D01*
X20170299Y-63522905D01*
X20002312Y-63271495D01*
X19788505Y-63057688D01*
X19537095Y-62889701D01*
X19257743Y-62773989D01*
X18961184Y-62715000D01*
X18658816Y-62715000D01*
X18362257Y-62773989D01*
X18082905Y-62889701D01*
X17831495Y-63057688D01*
X17617688Y-63271495D01*
X17449701Y-63522905D01*
X17333989Y-63802257D01*
X17275000Y-64098816D01*
X17275000Y-64401184D01*
X17333989Y-64697743D01*
X17341138Y-64715001D01*
X12729803Y-64715001D01*
X12728072Y-64713270D01*
X12728072Y-63350000D01*
X12715812Y-63225518D01*
X12679502Y-63105820D01*
X12620537Y-62995506D01*
X12541185Y-62898815D01*
X12444494Y-62819463D01*
X12334180Y-62760498D01*
X12214482Y-62724188D01*
X12090000Y-62711928D01*
X10290000Y-62711928D01*
X10165518Y-62724188D01*
X10045820Y-62760498D01*
X9935506Y-62819463D01*
X9838815Y-62898815D01*
X9759463Y-62995506D01*
X9700498Y-63105820D01*
X9664188Y-63225518D01*
X9651928Y-63350000D01*
X660000Y-63350000D01*
X660000Y-59369721D01*
X10825000Y-59369721D01*
X10825000Y-59790279D01*
X10907047Y-60202756D01*
X11067988Y-60591302D01*
X11301637Y-60940983D01*
X11599017Y-61238363D01*
X11948698Y-61472012D01*
X12337244Y-61632953D01*
X12749721Y-61715000D01*
X13170279Y-61715000D01*
X13582756Y-61632953D01*
X13971302Y-61472012D01*
X14320983Y-61238363D01*
X14618363Y-60940983D01*
X14852012Y-60591302D01*
X15012953Y-60202756D01*
X15095000Y-59790279D01*
X15095000Y-59369721D01*
X30325000Y-59369721D01*
X30325000Y-59790279D01*
X30407047Y-60202756D01*
X30567988Y-60591302D01*
X30801637Y-60940983D01*
X31099017Y-61238363D01*
X31448698Y-61472012D01*
X31837244Y-61632953D01*
X32249721Y-61715000D01*
X32670279Y-61715000D01*
X33082756Y-61632953D01*
X33471302Y-61472012D01*
X33820983Y-61238363D01*
X34118363Y-60940983D01*
X34352012Y-60591302D01*
X34512953Y-60202756D01*
X34595000Y-59790279D01*
X34595000Y-59369721D01*
X49825000Y-59369721D01*
X49825000Y-59790279D01*
X49907047Y-60202756D01*
X50067988Y-60591302D01*
X50301637Y-60940983D01*
X50599017Y-61238363D01*
X50948698Y-61472012D01*
X51337244Y-61632953D01*
X51749721Y-61715000D01*
X52170279Y-61715000D01*
X52582756Y-61632953D01*
X52971302Y-61472012D01*
X53320983Y-61238363D01*
X53618363Y-60940983D01*
X53852012Y-60591302D01*
X54012953Y-60202756D01*
X54095000Y-59790279D01*
X54095000Y-59369721D01*
X54012953Y-58957244D01*
X53852012Y-58568698D01*
X53618363Y-58219017D01*
X53320983Y-57921637D01*
X52971302Y-57687988D01*
X52582756Y-57527047D01*
X52170279Y-57445000D01*
X51749721Y-57445000D01*
X51337244Y-57527047D01*
X50948698Y-57687988D01*
X50599017Y-57921637D01*
X50301637Y-58219017D01*
X50067988Y-58568698D01*
X49907047Y-58957244D01*
X49825000Y-59369721D01*
X34595000Y-59369721D01*
X34512953Y-58957244D01*
X34352012Y-58568698D01*
X34118363Y-58219017D01*
X33820983Y-57921637D01*
X33471302Y-57687988D01*
X33082756Y-57527047D01*
X32670279Y-57445000D01*
X32249721Y-57445000D01*
X31837244Y-57527047D01*
X31448698Y-57687988D01*
X31099017Y-57921637D01*
X30801637Y-58219017D01*
X30567988Y-58568698D01*
X30407047Y-58957244D01*
X30325000Y-59369721D01*
X15095000Y-59369721D01*
X15012953Y-58957244D01*
X14852012Y-58568698D01*
X14618363Y-58219017D01*
X14320983Y-57921637D01*
X13971302Y-57687988D01*
X13582756Y-57527047D01*
X13170279Y-57445000D01*
X12749721Y-57445000D01*
X12337244Y-57527047D01*
X11948698Y-57687988D01*
X11599017Y-57921637D01*
X11301637Y-58219017D01*
X11067988Y-58568698D01*
X10907047Y-58957244D01*
X10825000Y-59369721D01*
X660000Y-59369721D01*
X660000Y-54351278D01*
X8910000Y-54351278D01*
X8910000Y-54648722D01*
X8968029Y-54940451D01*
X9081856Y-55215253D01*
X9247107Y-55462569D01*
X9457431Y-55672893D01*
X9704747Y-55838144D01*
X9979549Y-55951971D01*
X10271278Y-56010000D01*
X10568722Y-56010000D01*
X10860451Y-55951971D01*
X11135253Y-55838144D01*
X11382569Y-55672893D01*
X11592893Y-55462569D01*
X11758144Y-55215253D01*
X11871971Y-54940451D01*
X11930000Y-54648722D01*
X11930000Y-54351278D01*
X11907960Y-54240475D01*
X12865000Y-54240475D01*
X12865000Y-54759525D01*
X12966261Y-55268601D01*
X13164893Y-55748141D01*
X13453262Y-56179715D01*
X13820285Y-56546738D01*
X14251859Y-56835107D01*
X14731399Y-57033739D01*
X15240475Y-57135000D01*
X15759525Y-57135000D01*
X16268601Y-57033739D01*
X16748141Y-56835107D01*
X17179715Y-56546738D01*
X17244095Y-56482358D01*
X17175000Y-56829721D01*
X17175000Y-57250279D01*
X17257047Y-57662756D01*
X17417988Y-58051302D01*
X17651637Y-58400983D01*
X17949017Y-58698363D01*
X18298698Y-58932012D01*
X18687244Y-59092953D01*
X19099721Y-59175000D01*
X19520279Y-59175000D01*
X19932756Y-59092953D01*
X20321302Y-58932012D01*
X20670983Y-58698363D01*
X20968363Y-58400983D01*
X21202012Y-58051302D01*
X21362953Y-57662756D01*
X21445000Y-57250279D01*
X21445000Y-56829721D01*
X21362953Y-56417244D01*
X21202012Y-56028698D01*
X21122501Y-55909701D01*
X21295253Y-55838144D01*
X21542569Y-55672893D01*
X21752893Y-55462569D01*
X21918144Y-55215253D01*
X22031971Y-54940451D01*
X22090000Y-54648722D01*
X22090000Y-54351278D01*
X28410000Y-54351278D01*
X28410000Y-54648722D01*
X28468029Y-54940451D01*
X28581856Y-55215253D01*
X28747107Y-55462569D01*
X28957431Y-55672893D01*
X29204747Y-55838144D01*
X29479549Y-55951971D01*
X29771278Y-56010000D01*
X30068722Y-56010000D01*
X30360451Y-55951971D01*
X30635253Y-55838144D01*
X30882569Y-55672893D01*
X31092893Y-55462569D01*
X31258144Y-55215253D01*
X31371971Y-54940451D01*
X31430000Y-54648722D01*
X31430000Y-54351278D01*
X31407960Y-54240475D01*
X32365000Y-54240475D01*
X32365000Y-54759525D01*
X32466261Y-55268601D01*
X32664893Y-55748141D01*
X32953262Y-56179715D01*
X33320285Y-56546738D01*
X33751859Y-56835107D01*
X34231399Y-57033739D01*
X34740475Y-57135000D01*
X35259525Y-57135000D01*
X35768601Y-57033739D01*
X36248141Y-56835107D01*
X36679715Y-56546738D01*
X36744095Y-56482358D01*
X36675000Y-56829721D01*
X36675000Y-57250279D01*
X36757047Y-57662756D01*
X36917988Y-58051302D01*
X37151637Y-58400983D01*
X37449017Y-58698363D01*
X37798698Y-58932012D01*
X38187244Y-59092953D01*
X38599721Y-59175000D01*
X39020279Y-59175000D01*
X39432756Y-59092953D01*
X39821302Y-58932012D01*
X40170983Y-58698363D01*
X40468363Y-58400983D01*
X40702012Y-58051302D01*
X40862953Y-57662756D01*
X40945000Y-57250279D01*
X40945000Y-56829721D01*
X40862953Y-56417244D01*
X40702012Y-56028698D01*
X40622501Y-55909701D01*
X40795253Y-55838144D01*
X41042569Y-55672893D01*
X41252893Y-55462569D01*
X41418144Y-55215253D01*
X41531971Y-54940451D01*
X41590000Y-54648722D01*
X41590000Y-54351278D01*
X47910000Y-54351278D01*
X47910000Y-54648722D01*
X47968029Y-54940451D01*
X48081856Y-55215253D01*
X48247107Y-55462569D01*
X48457431Y-55672893D01*
X48704747Y-55838144D01*
X48979549Y-55951971D01*
X49271278Y-56010000D01*
X49568722Y-56010000D01*
X49860451Y-55951971D01*
X50135253Y-55838144D01*
X50382569Y-55672893D01*
X50592893Y-55462569D01*
X50758144Y-55215253D01*
X50871971Y-54940451D01*
X50930000Y-54648722D01*
X50930000Y-54351278D01*
X50907960Y-54240475D01*
X51865000Y-54240475D01*
X51865000Y-54759525D01*
X51966261Y-55268601D01*
X52164893Y-55748141D01*
X52453262Y-56179715D01*
X52820285Y-56546738D01*
X53251859Y-56835107D01*
X53731399Y-57033739D01*
X54240475Y-57135000D01*
X54759525Y-57135000D01*
X55268601Y-57033739D01*
X55748141Y-56835107D01*
X56179715Y-56546738D01*
X56244095Y-56482358D01*
X56175000Y-56829721D01*
X56175000Y-57250279D01*
X56257047Y-57662756D01*
X56417988Y-58051302D01*
X56651637Y-58400983D01*
X56949017Y-58698363D01*
X57298698Y-58932012D01*
X57687244Y-59092953D01*
X58099721Y-59175000D01*
X58520279Y-59175000D01*
X58932756Y-59092953D01*
X59321302Y-58932012D01*
X59670983Y-58698363D01*
X59968363Y-58400983D01*
X60202012Y-58051302D01*
X60362953Y-57662756D01*
X60445000Y-57250279D01*
X60445000Y-56829721D01*
X60362953Y-56417244D01*
X60202012Y-56028698D01*
X60122501Y-55909701D01*
X60295253Y-55838144D01*
X60542569Y-55672893D01*
X60752893Y-55462569D01*
X60918144Y-55215253D01*
X61031971Y-54940451D01*
X61090000Y-54648722D01*
X61090000Y-54351278D01*
X61031971Y-54059549D01*
X60918144Y-53784747D01*
X60752893Y-53537431D01*
X60542569Y-53327107D01*
X60295253Y-53161856D01*
X60020451Y-53048029D01*
X59728722Y-52990000D01*
X59431278Y-52990000D01*
X59139549Y-53048029D01*
X58864747Y-53161856D01*
X58617431Y-53327107D01*
X58407107Y-53537431D01*
X58241856Y-53784747D01*
X58128029Y-54059549D01*
X58070000Y-54351278D01*
X58070000Y-54648722D01*
X58120977Y-54905000D01*
X58099721Y-54905000D01*
X57687244Y-54987047D01*
X57298698Y-55147988D01*
X57001422Y-55346621D01*
X57033739Y-55268601D01*
X57135000Y-54759525D01*
X57135000Y-54240475D01*
X57033739Y-53731399D01*
X56835107Y-53251859D01*
X56546738Y-52820285D01*
X56179715Y-52453262D01*
X55748141Y-52164893D01*
X55268601Y-51966261D01*
X54759525Y-51865000D01*
X54240475Y-51865000D01*
X53731399Y-51966261D01*
X53251859Y-52164893D01*
X52820285Y-52453262D01*
X52453262Y-52820285D01*
X52164893Y-53251859D01*
X51966261Y-53731399D01*
X51865000Y-54240475D01*
X50907960Y-54240475D01*
X50871971Y-54059549D01*
X50758144Y-53784747D01*
X50592893Y-53537431D01*
X50382569Y-53327107D01*
X50135253Y-53161856D01*
X49860451Y-53048029D01*
X49568722Y-52990000D01*
X49271278Y-52990000D01*
X48979549Y-53048029D01*
X48704747Y-53161856D01*
X48457431Y-53327107D01*
X48247107Y-53537431D01*
X48081856Y-53784747D01*
X47968029Y-54059549D01*
X47910000Y-54351278D01*
X41590000Y-54351278D01*
X41531971Y-54059549D01*
X41418144Y-53784747D01*
X41252893Y-53537431D01*
X41042569Y-53327107D01*
X40795253Y-53161856D01*
X40520451Y-53048029D01*
X40228722Y-52990000D01*
X39931278Y-52990000D01*
X39639549Y-53048029D01*
X39364747Y-53161856D01*
X39117431Y-53327107D01*
X38907107Y-53537431D01*
X38741856Y-53784747D01*
X38628029Y-54059549D01*
X38570000Y-54351278D01*
X38570000Y-54648722D01*
X38620977Y-54905000D01*
X38599721Y-54905000D01*
X38187244Y-54987047D01*
X37798698Y-55147988D01*
X37501422Y-55346621D01*
X37533739Y-55268601D01*
X37635000Y-54759525D01*
X37635000Y-54240475D01*
X37533739Y-53731399D01*
X37335107Y-53251859D01*
X37046738Y-52820285D01*
X36679715Y-52453262D01*
X36248141Y-52164893D01*
X35768601Y-51966261D01*
X35259525Y-51865000D01*
X34740475Y-51865000D01*
X34231399Y-51966261D01*
X33751859Y-52164893D01*
X33320285Y-52453262D01*
X32953262Y-52820285D01*
X32664893Y-53251859D01*
X32466261Y-53731399D01*
X32365000Y-54240475D01*
X31407960Y-54240475D01*
X31371971Y-54059549D01*
X31258144Y-53784747D01*
X31092893Y-53537431D01*
X30882569Y-53327107D01*
X30635253Y-53161856D01*
X30360451Y-53048029D01*
X30068722Y-52990000D01*
X29771278Y-52990000D01*
X29479549Y-53048029D01*
X29204747Y-53161856D01*
X28957431Y-53327107D01*
X28747107Y-53537431D01*
X28581856Y-53784747D01*
X28468029Y-54059549D01*
X28410000Y-54351278D01*
X22090000Y-54351278D01*
X22031971Y-54059549D01*
X21918144Y-53784747D01*
X21752893Y-53537431D01*
X21542569Y-53327107D01*
X21295253Y-53161856D01*
X21020451Y-53048029D01*
X20728722Y-52990000D01*
X20431278Y-52990000D01*
X20139549Y-53048029D01*
X19864747Y-53161856D01*
X19617431Y-53327107D01*
X19407107Y-53537431D01*
X19241856Y-53784747D01*
X19128029Y-54059549D01*
X19070000Y-54351278D01*
X19070000Y-54648722D01*
X19120977Y-54905000D01*
X19099721Y-54905000D01*
X18687244Y-54987047D01*
X18298698Y-55147988D01*
X18001422Y-55346621D01*
X18033739Y-55268601D01*
X18135000Y-54759525D01*
X18135000Y-54240475D01*
X18033739Y-53731399D01*
X17835107Y-53251859D01*
X17546738Y-52820285D01*
X17179715Y-52453262D01*
X16748141Y-52164893D01*
X16268601Y-51966261D01*
X15759525Y-51865000D01*
X15240475Y-51865000D01*
X14731399Y-51966261D01*
X14251859Y-52164893D01*
X13820285Y-52453262D01*
X13453262Y-52820285D01*
X13164893Y-53251859D01*
X12966261Y-53731399D01*
X12865000Y-54240475D01*
X11907960Y-54240475D01*
X11871971Y-54059549D01*
X11758144Y-53784747D01*
X11592893Y-53537431D01*
X11382569Y-53327107D01*
X11135253Y-53161856D01*
X10860451Y-53048029D01*
X10568722Y-52990000D01*
X10271278Y-52990000D01*
X9979549Y-53048029D01*
X9704747Y-53161856D01*
X9457431Y-53327107D01*
X9247107Y-53537431D01*
X9081856Y-53784747D01*
X8968029Y-54059549D01*
X8910000Y-54351278D01*
X660000Y-54351278D01*
X660000Y-44786428D01*
X1710000Y-44786428D01*
X1710000Y-53213571D01*
X5530000Y-53213571D01*
X5530000Y-44786428D01*
X1710000Y-44786428D01*
X660000Y-44786428D01*
X660000Y-43850000D01*
X9651928Y-43850000D01*
X9651928Y-45650000D01*
X9664188Y-45774482D01*
X9700498Y-45894180D01*
X9759463Y-46004494D01*
X9838815Y-46101185D01*
X9935506Y-46180537D01*
X10045820Y-46239502D01*
X10165518Y-46275812D01*
X10290000Y-46288072D01*
X12090000Y-46288072D01*
X12214482Y-46275812D01*
X12334180Y-46239502D01*
X12444494Y-46180537D01*
X12541185Y-46101185D01*
X12620537Y-46004494D01*
X12679502Y-45894180D01*
X12715812Y-45774482D01*
X12728072Y-45650000D01*
X12728072Y-44286730D01*
X12729803Y-44284999D01*
X17341138Y-44284999D01*
X17333989Y-44302257D01*
X17275000Y-44598816D01*
X17275000Y-44901184D01*
X17333989Y-45197743D01*
X17449701Y-45477095D01*
X17617688Y-45728505D01*
X17831495Y-45942312D01*
X18082905Y-46110299D01*
X18362257Y-46226011D01*
X18658816Y-46285000D01*
X18961184Y-46285000D01*
X19257743Y-46226011D01*
X19537095Y-46110299D01*
X19788505Y-45942312D01*
X20002312Y-45728505D01*
X20170299Y-45477095D01*
X20286011Y-45197743D01*
X20345000Y-44901184D01*
X20345000Y-44598816D01*
X20286011Y-44302257D01*
X20278862Y-44284999D01*
X29650198Y-44284999D01*
X29651928Y-44286729D01*
X29651928Y-45650000D01*
X29664188Y-45774482D01*
X29700498Y-45894180D01*
X29759463Y-46004494D01*
X29838815Y-46101185D01*
X29935506Y-46180537D01*
X30045820Y-46239502D01*
X30165518Y-46275812D01*
X30290000Y-46288072D01*
X31653270Y-46288072D01*
X31851202Y-46486004D01*
X31875000Y-46515002D01*
X31903998Y-46538800D01*
X31990724Y-46609975D01*
X32122754Y-46680547D01*
X32266015Y-46724004D01*
X32377668Y-46735001D01*
X32377677Y-46735001D01*
X32415000Y-46738677D01*
X32452323Y-46735001D01*
X49427677Y-46735001D01*
X49464999Y-46738677D01*
X49502321Y-46735001D01*
X49502332Y-46735001D01*
X49613985Y-46724004D01*
X49757246Y-46680547D01*
X49889275Y-46609975D01*
X50005000Y-46515002D01*
X50028803Y-46485998D01*
X50226729Y-46288072D01*
X51590000Y-46288072D01*
X51714482Y-46275812D01*
X51834180Y-46239502D01*
X51944494Y-46180537D01*
X52041185Y-46101185D01*
X52120537Y-46004494D01*
X52179502Y-45894180D01*
X52215812Y-45774482D01*
X52228072Y-45650000D01*
X52228072Y-44598816D01*
X56775000Y-44598816D01*
X56775000Y-44901184D01*
X56833989Y-45197743D01*
X56949701Y-45477095D01*
X57117688Y-45728505D01*
X57331495Y-45942312D01*
X57582905Y-46110299D01*
X57862257Y-46226011D01*
X58158816Y-46285000D01*
X58461184Y-46285000D01*
X58757743Y-46226011D01*
X59037095Y-46110299D01*
X59288505Y-45942312D01*
X59502312Y-45728505D01*
X59670299Y-45477095D01*
X59786011Y-45197743D01*
X59845000Y-44901184D01*
X59845000Y-44598816D01*
X59786011Y-44302257D01*
X59670299Y-44022905D01*
X59502312Y-43771495D01*
X59288505Y-43557688D01*
X59037095Y-43389701D01*
X58757743Y-43273989D01*
X58461184Y-43215000D01*
X58158816Y-43215000D01*
X57862257Y-43273989D01*
X57582905Y-43389701D01*
X57331495Y-43557688D01*
X57117688Y-43771495D01*
X56949701Y-44022905D01*
X56833989Y-44302257D01*
X56775000Y-44598816D01*
X52228072Y-44598816D01*
X52228072Y-43850000D01*
X52215812Y-43725518D01*
X52179502Y-43605820D01*
X52120537Y-43495506D01*
X52041185Y-43398815D01*
X51944494Y-43319463D01*
X51834180Y-43260498D01*
X51714482Y-43224188D01*
X51590000Y-43211928D01*
X49790000Y-43211928D01*
X49665518Y-43224188D01*
X49545820Y-43260498D01*
X49435506Y-43319463D01*
X49338815Y-43398815D01*
X49259463Y-43495506D01*
X49200498Y-43605820D01*
X49164188Y-43725518D01*
X49151928Y-43850000D01*
X49151928Y-45213271D01*
X49150198Y-45215001D01*
X40278862Y-45215001D01*
X40286011Y-45197743D01*
X40345000Y-44901184D01*
X40345000Y-44598816D01*
X40286011Y-44302257D01*
X40170299Y-44022905D01*
X40002312Y-43771495D01*
X39788505Y-43557688D01*
X39537095Y-43389701D01*
X39257743Y-43273989D01*
X38961184Y-43215000D01*
X38658816Y-43215000D01*
X38362257Y-43273989D01*
X38082905Y-43389701D01*
X37831495Y-43557688D01*
X37617688Y-43771495D01*
X37449701Y-44022905D01*
X37333989Y-44302257D01*
X37275000Y-44598816D01*
X37275000Y-44901184D01*
X37333989Y-45197743D01*
X37341138Y-45215001D01*
X32729803Y-45215001D01*
X32728072Y-45213270D01*
X32728072Y-43850000D01*
X32715812Y-43725518D01*
X32679502Y-43605820D01*
X32620537Y-43495506D01*
X32541185Y-43398815D01*
X32444494Y-43319463D01*
X32334180Y-43260498D01*
X32214482Y-43224188D01*
X32090000Y-43211928D01*
X30726729Y-43211928D01*
X30528803Y-43014002D01*
X30505000Y-42984998D01*
X30389275Y-42890025D01*
X30257246Y-42819453D01*
X30113985Y-42775996D01*
X30002332Y-42764999D01*
X30002321Y-42764999D01*
X29964999Y-42761323D01*
X29927677Y-42764999D01*
X12452323Y-42764999D01*
X12415000Y-42761323D01*
X12377677Y-42764999D01*
X12377668Y-42764999D01*
X12266015Y-42775996D01*
X12122754Y-42819453D01*
X11990724Y-42890025D01*
X11907084Y-42958667D01*
X11875000Y-42984998D01*
X11851202Y-43013996D01*
X11653270Y-43211928D01*
X10290000Y-43211928D01*
X10165518Y-43224188D01*
X10045820Y-43260498D01*
X9935506Y-43319463D01*
X9838815Y-43398815D01*
X9759463Y-43495506D01*
X9700498Y-43605820D01*
X9664188Y-43725518D01*
X9651928Y-43850000D01*
X660000Y-43850000D01*
X660000Y-39869721D01*
X10825000Y-39869721D01*
X10825000Y-40290279D01*
X10907047Y-40702756D01*
X11067988Y-41091302D01*
X11301637Y-41440983D01*
X11599017Y-41738363D01*
X11948698Y-41972012D01*
X12337244Y-42132953D01*
X12749721Y-42215000D01*
X13170279Y-42215000D01*
X13582756Y-42132953D01*
X13971302Y-41972012D01*
X14320983Y-41738363D01*
X14618363Y-41440983D01*
X14852012Y-41091302D01*
X15012953Y-40702756D01*
X15095000Y-40290279D01*
X15095000Y-39869721D01*
X30325000Y-39869721D01*
X30325000Y-40290279D01*
X30407047Y-40702756D01*
X30567988Y-41091302D01*
X30801637Y-41440983D01*
X31099017Y-41738363D01*
X31448698Y-41972012D01*
X31837244Y-42132953D01*
X32249721Y-42215000D01*
X32670279Y-42215000D01*
X33082756Y-42132953D01*
X33471302Y-41972012D01*
X33820983Y-41738363D01*
X34118363Y-41440983D01*
X34352012Y-41091302D01*
X34512953Y-40702756D01*
X34595000Y-40290279D01*
X34595000Y-39869721D01*
X49825000Y-39869721D01*
X49825000Y-40290279D01*
X49907047Y-40702756D01*
X50067988Y-41091302D01*
X50301637Y-41440983D01*
X50599017Y-41738363D01*
X50948698Y-41972012D01*
X51337244Y-42132953D01*
X51749721Y-42215000D01*
X52170279Y-42215000D01*
X52582756Y-42132953D01*
X52971302Y-41972012D01*
X53320983Y-41738363D01*
X53618363Y-41440983D01*
X53852012Y-41091302D01*
X54012953Y-40702756D01*
X54095000Y-40290279D01*
X54095000Y-39869721D01*
X54012953Y-39457244D01*
X53852012Y-39068698D01*
X53618363Y-38719017D01*
X53320983Y-38421637D01*
X52971302Y-38187988D01*
X52582756Y-38027047D01*
X52170279Y-37945000D01*
X51749721Y-37945000D01*
X51337244Y-38027047D01*
X50948698Y-38187988D01*
X50599017Y-38421637D01*
X50301637Y-38719017D01*
X50067988Y-39068698D01*
X49907047Y-39457244D01*
X49825000Y-39869721D01*
X34595000Y-39869721D01*
X34512953Y-39457244D01*
X34352012Y-39068698D01*
X34118363Y-38719017D01*
X33820983Y-38421637D01*
X33471302Y-38187988D01*
X33082756Y-38027047D01*
X32670279Y-37945000D01*
X32249721Y-37945000D01*
X31837244Y-38027047D01*
X31448698Y-38187988D01*
X31099017Y-38421637D01*
X30801637Y-38719017D01*
X30567988Y-39068698D01*
X30407047Y-39457244D01*
X30325000Y-39869721D01*
X15095000Y-39869721D01*
X15012953Y-39457244D01*
X14852012Y-39068698D01*
X14618363Y-38719017D01*
X14320983Y-38421637D01*
X13971302Y-38187988D01*
X13582756Y-38027047D01*
X13170279Y-37945000D01*
X12749721Y-37945000D01*
X12337244Y-38027047D01*
X11948698Y-38187988D01*
X11599017Y-38421637D01*
X11301637Y-38719017D01*
X11067988Y-39068698D01*
X10907047Y-39457244D01*
X10825000Y-39869721D01*
X660000Y-39869721D01*
X660000Y-34851278D01*
X8910000Y-34851278D01*
X8910000Y-35148722D01*
X8968029Y-35440451D01*
X9081856Y-35715253D01*
X9247107Y-35962569D01*
X9457431Y-36172893D01*
X9704747Y-36338144D01*
X9979549Y-36451971D01*
X10271278Y-36510000D01*
X10568722Y-36510000D01*
X10860451Y-36451971D01*
X11135253Y-36338144D01*
X11382569Y-36172893D01*
X11592893Y-35962569D01*
X11758144Y-35715253D01*
X11871971Y-35440451D01*
X11930000Y-35148722D01*
X11930000Y-34851278D01*
X11907960Y-34740475D01*
X12865000Y-34740475D01*
X12865000Y-35259525D01*
X12966261Y-35768601D01*
X13164893Y-36248141D01*
X13453262Y-36679715D01*
X13820285Y-37046738D01*
X14251859Y-37335107D01*
X14731399Y-37533739D01*
X15240475Y-37635000D01*
X15759525Y-37635000D01*
X16268601Y-37533739D01*
X16748141Y-37335107D01*
X17179715Y-37046738D01*
X17244095Y-36982358D01*
X17175000Y-37329721D01*
X17175000Y-37750279D01*
X17257047Y-38162756D01*
X17417988Y-38551302D01*
X17651637Y-38900983D01*
X17949017Y-39198363D01*
X18298698Y-39432012D01*
X18687244Y-39592953D01*
X19099721Y-39675000D01*
X19520279Y-39675000D01*
X19932756Y-39592953D01*
X20321302Y-39432012D01*
X20670983Y-39198363D01*
X20968363Y-38900983D01*
X21202012Y-38551302D01*
X21362953Y-38162756D01*
X21445000Y-37750279D01*
X21445000Y-37329721D01*
X21362953Y-36917244D01*
X21202012Y-36528698D01*
X21122501Y-36409701D01*
X21295253Y-36338144D01*
X21542569Y-36172893D01*
X21752893Y-35962569D01*
X21918144Y-35715253D01*
X22031971Y-35440451D01*
X22090000Y-35148722D01*
X22090000Y-34851278D01*
X28410000Y-34851278D01*
X28410000Y-35148722D01*
X28468029Y-35440451D01*
X28581856Y-35715253D01*
X28747107Y-35962569D01*
X28957431Y-36172893D01*
X29204747Y-36338144D01*
X29479549Y-36451971D01*
X29771278Y-36510000D01*
X30068722Y-36510000D01*
X30360451Y-36451971D01*
X30635253Y-36338144D01*
X30882569Y-36172893D01*
X31092893Y-35962569D01*
X31258144Y-35715253D01*
X31371971Y-35440451D01*
X31430000Y-35148722D01*
X31430000Y-34851278D01*
X31407960Y-34740475D01*
X32365000Y-34740475D01*
X32365000Y-35259525D01*
X32466261Y-35768601D01*
X32664893Y-36248141D01*
X32953262Y-36679715D01*
X33320285Y-37046738D01*
X33751859Y-37335107D01*
X34231399Y-37533739D01*
X34740475Y-37635000D01*
X35259525Y-37635000D01*
X35768601Y-37533739D01*
X36248141Y-37335107D01*
X36679715Y-37046738D01*
X36744095Y-36982358D01*
X36675000Y-37329721D01*
X36675000Y-37750279D01*
X36757047Y-38162756D01*
X36917988Y-38551302D01*
X37151637Y-38900983D01*
X37449017Y-39198363D01*
X37798698Y-39432012D01*
X38187244Y-39592953D01*
X38599721Y-39675000D01*
X39020279Y-39675000D01*
X39432756Y-39592953D01*
X39821302Y-39432012D01*
X40170983Y-39198363D01*
X40468363Y-38900983D01*
X40702012Y-38551302D01*
X40862953Y-38162756D01*
X40945000Y-37750279D01*
X40945000Y-37329721D01*
X40862953Y-36917244D01*
X40702012Y-36528698D01*
X40622501Y-36409701D01*
X40795253Y-36338144D01*
X41042569Y-36172893D01*
X41252893Y-35962569D01*
X41418144Y-35715253D01*
X41531971Y-35440451D01*
X41590000Y-35148722D01*
X41590000Y-34851278D01*
X47910000Y-34851278D01*
X47910000Y-35148722D01*
X47968029Y-35440451D01*
X48081856Y-35715253D01*
X48247107Y-35962569D01*
X48457431Y-36172893D01*
X48704747Y-36338144D01*
X48979549Y-36451971D01*
X49271278Y-36510000D01*
X49568722Y-36510000D01*
X49860451Y-36451971D01*
X50135253Y-36338144D01*
X50382569Y-36172893D01*
X50592893Y-35962569D01*
X50758144Y-35715253D01*
X50871971Y-35440451D01*
X50930000Y-35148722D01*
X50930000Y-34851278D01*
X50907960Y-34740475D01*
X51865000Y-34740475D01*
X51865000Y-35259525D01*
X51966261Y-35768601D01*
X52164893Y-36248141D01*
X52453262Y-36679715D01*
X52820285Y-37046738D01*
X53251859Y-37335107D01*
X53731399Y-37533739D01*
X54240475Y-37635000D01*
X54759525Y-37635000D01*
X55268601Y-37533739D01*
X55748141Y-37335107D01*
X56179715Y-37046738D01*
X56244095Y-36982358D01*
X56175000Y-37329721D01*
X56175000Y-37750279D01*
X56257047Y-38162756D01*
X56417988Y-38551302D01*
X56651637Y-38900983D01*
X56949017Y-39198363D01*
X57298698Y-39432012D01*
X57687244Y-39592953D01*
X58099721Y-39675000D01*
X58520279Y-39675000D01*
X58932756Y-39592953D01*
X59321302Y-39432012D01*
X59670983Y-39198363D01*
X59968363Y-38900983D01*
X60202012Y-38551302D01*
X60362953Y-38162756D01*
X60445000Y-37750279D01*
X60445000Y-37329721D01*
X60362953Y-36917244D01*
X60202012Y-36528698D01*
X60122501Y-36409701D01*
X60295253Y-36338144D01*
X60542569Y-36172893D01*
X60752893Y-35962569D01*
X60918144Y-35715253D01*
X61031971Y-35440451D01*
X61090000Y-35148722D01*
X61090000Y-34851278D01*
X61031971Y-34559549D01*
X60918144Y-34284747D01*
X60752893Y-34037431D01*
X60542569Y-33827107D01*
X60295253Y-33661856D01*
X60020451Y-33548029D01*
X59728722Y-33490000D01*
X59431278Y-33490000D01*
X59139549Y-33548029D01*
X58864747Y-33661856D01*
X58617431Y-33827107D01*
X58407107Y-34037431D01*
X58241856Y-34284747D01*
X58128029Y-34559549D01*
X58070000Y-34851278D01*
X58070000Y-35148722D01*
X58120977Y-35405000D01*
X58099721Y-35405000D01*
X57687244Y-35487047D01*
X57298698Y-35647988D01*
X57001422Y-35846621D01*
X57033739Y-35768601D01*
X57135000Y-35259525D01*
X57135000Y-34740475D01*
X57033739Y-34231399D01*
X56835107Y-33751859D01*
X56546738Y-33320285D01*
X56179715Y-32953262D01*
X55748141Y-32664893D01*
X55268601Y-32466261D01*
X54759525Y-32365000D01*
X54240475Y-32365000D01*
X53731399Y-32466261D01*
X53251859Y-32664893D01*
X52820285Y-32953262D01*
X52453262Y-33320285D01*
X52164893Y-33751859D01*
X51966261Y-34231399D01*
X51865000Y-34740475D01*
X50907960Y-34740475D01*
X50871971Y-34559549D01*
X50758144Y-34284747D01*
X50592893Y-34037431D01*
X50382569Y-33827107D01*
X50135253Y-33661856D01*
X49860451Y-33548029D01*
X49568722Y-33490000D01*
X49271278Y-33490000D01*
X48979549Y-33548029D01*
X48704747Y-33661856D01*
X48457431Y-33827107D01*
X48247107Y-34037431D01*
X48081856Y-34284747D01*
X47968029Y-34559549D01*
X47910000Y-34851278D01*
X41590000Y-34851278D01*
X41531971Y-34559549D01*
X41418144Y-34284747D01*
X41252893Y-34037431D01*
X41042569Y-33827107D01*
X40795253Y-33661856D01*
X40520451Y-33548029D01*
X40228722Y-33490000D01*
X39931278Y-33490000D01*
X39639549Y-33548029D01*
X39364747Y-33661856D01*
X39117431Y-33827107D01*
X38907107Y-34037431D01*
X38741856Y-34284747D01*
X38628029Y-34559549D01*
X38570000Y-34851278D01*
X38570000Y-35148722D01*
X38620977Y-35405000D01*
X38599721Y-35405000D01*
X38187244Y-35487047D01*
X37798698Y-35647988D01*
X37501422Y-35846621D01*
X37533739Y-35768601D01*
X37635000Y-35259525D01*
X37635000Y-34740475D01*
X37533739Y-34231399D01*
X37335107Y-33751859D01*
X37046738Y-33320285D01*
X36679715Y-32953262D01*
X36248141Y-32664893D01*
X35768601Y-32466261D01*
X35259525Y-32365000D01*
X34740475Y-32365000D01*
X34231399Y-32466261D01*
X33751859Y-32664893D01*
X33320285Y-32953262D01*
X32953262Y-33320285D01*
X32664893Y-33751859D01*
X32466261Y-34231399D01*
X32365000Y-34740475D01*
X31407960Y-34740475D01*
X31371971Y-34559549D01*
X31258144Y-34284747D01*
X31092893Y-34037431D01*
X30882569Y-33827107D01*
X30635253Y-33661856D01*
X30360451Y-33548029D01*
X30068722Y-33490000D01*
X29771278Y-33490000D01*
X29479549Y-33548029D01*
X29204747Y-33661856D01*
X28957431Y-33827107D01*
X28747107Y-34037431D01*
X28581856Y-34284747D01*
X28468029Y-34559549D01*
X28410000Y-34851278D01*
X22090000Y-34851278D01*
X22031971Y-34559549D01*
X21918144Y-34284747D01*
X21752893Y-34037431D01*
X21542569Y-33827107D01*
X21295253Y-33661856D01*
X21020451Y-33548029D01*
X20728722Y-33490000D01*
X20431278Y-33490000D01*
X20139549Y-33548029D01*
X19864747Y-33661856D01*
X19617431Y-33827107D01*
X19407107Y-34037431D01*
X19241856Y-34284747D01*
X19128029Y-34559549D01*
X19070000Y-34851278D01*
X19070000Y-35148722D01*
X19120977Y-35405000D01*
X19099721Y-35405000D01*
X18687244Y-35487047D01*
X18298698Y-35647988D01*
X18001422Y-35846621D01*
X18033739Y-35768601D01*
X18135000Y-35259525D01*
X18135000Y-34740475D01*
X18033739Y-34231399D01*
X17835107Y-33751859D01*
X17546738Y-33320285D01*
X17179715Y-32953262D01*
X16748141Y-32664893D01*
X16268601Y-32466261D01*
X15759525Y-32365000D01*
X15240475Y-32365000D01*
X14731399Y-32466261D01*
X14251859Y-32664893D01*
X13820285Y-32953262D01*
X13453262Y-33320285D01*
X13164893Y-33751859D01*
X12966261Y-34231399D01*
X12865000Y-34740475D01*
X11907960Y-34740475D01*
X11871971Y-34559549D01*
X11758144Y-34284747D01*
X11592893Y-34037431D01*
X11382569Y-33827107D01*
X11135253Y-33661856D01*
X10860451Y-33548029D01*
X10568722Y-33490000D01*
X10271278Y-33490000D01*
X9979549Y-33548029D01*
X9704747Y-33661856D01*
X9457431Y-33827107D01*
X9247107Y-34037431D01*
X9081856Y-34284747D01*
X8968029Y-34559549D01*
X8910000Y-34851278D01*
X660000Y-34851278D01*
X660000Y-15126000D01*
X2112928Y-15126000D01*
X2112928Y-16624000D01*
X2125188Y-16748482D01*
X2161498Y-16868180D01*
X2220463Y-16978494D01*
X2299815Y-17075185D01*
X2396506Y-17154537D01*
X2506820Y-17213502D01*
X2626518Y-17249812D01*
X2751000Y-17262072D01*
X3812271Y-17262072D01*
X5349200Y-18799002D01*
X5372999Y-18828001D01*
X5488724Y-18922974D01*
X5620753Y-18993546D01*
X5764014Y-19037003D01*
X5875667Y-19048000D01*
X5875676Y-19048000D01*
X5912999Y-19051676D01*
X5950322Y-19048000D01*
X17463199Y-19048000D01*
X25981312Y-27566114D01*
X25945000Y-27748665D01*
X25945000Y-28031335D01*
X26000147Y-28308574D01*
X26108320Y-28569727D01*
X26265363Y-28804759D01*
X26465241Y-29004637D01*
X26697759Y-29160000D01*
X26465241Y-29315363D01*
X26265363Y-29515241D01*
X26108320Y-29750273D01*
X26000147Y-30011426D01*
X25945000Y-30288665D01*
X25945000Y-30571335D01*
X26000147Y-30848574D01*
X26108320Y-31109727D01*
X26265363Y-31344759D01*
X26465241Y-31544637D01*
X26697759Y-31700000D01*
X26465241Y-31855363D01*
X26265363Y-32055241D01*
X26108320Y-32290273D01*
X26000147Y-32551426D01*
X25945000Y-32828665D01*
X25945000Y-33111335D01*
X26000147Y-33388574D01*
X26108320Y-33649727D01*
X26265363Y-33884759D01*
X26465241Y-34084637D01*
X26700273Y-34241680D01*
X26961426Y-34349853D01*
X27238665Y-34405000D01*
X27521335Y-34405000D01*
X27798574Y-34349853D01*
X28059727Y-34241680D01*
X28294759Y-34084637D01*
X28494637Y-33884759D01*
X28651680Y-33649727D01*
X28759853Y-33388574D01*
X28815000Y-33111335D01*
X28815000Y-32828665D01*
X28778688Y-32646113D01*
X41185000Y-20239802D01*
X41185000Y-20411335D01*
X41240147Y-20688574D01*
X41348320Y-20949727D01*
X41505363Y-21184759D01*
X41705241Y-21384637D01*
X41937759Y-21540000D01*
X41705241Y-21695363D01*
X41505363Y-21895241D01*
X41348320Y-22130273D01*
X41240147Y-22391426D01*
X41185000Y-22668665D01*
X41185000Y-22951335D01*
X41240147Y-23228574D01*
X41348320Y-23489727D01*
X41505363Y-23724759D01*
X41705241Y-23924637D01*
X41937759Y-24080000D01*
X41705241Y-24235363D01*
X41505363Y-24435241D01*
X41348320Y-24670273D01*
X41240147Y-24931426D01*
X41185000Y-25208665D01*
X41185000Y-25491335D01*
X41240147Y-25768574D01*
X41348320Y-26029727D01*
X41505363Y-26264759D01*
X41705241Y-26464637D01*
X41937759Y-26620000D01*
X41705241Y-26775363D01*
X41505363Y-26975241D01*
X41348320Y-27210273D01*
X41240147Y-27471426D01*
X41185000Y-27748665D01*
X41185000Y-28031335D01*
X41240147Y-28308574D01*
X41348320Y-28569727D01*
X41505363Y-28804759D01*
X41705241Y-29004637D01*
X41937759Y-29160000D01*
X41705241Y-29315363D01*
X41505363Y-29515241D01*
X41348320Y-29750273D01*
X41240147Y-30011426D01*
X41185000Y-30288665D01*
X41185000Y-30571335D01*
X41240147Y-30848574D01*
X41348320Y-31109727D01*
X41505363Y-31344759D01*
X41705241Y-31544637D01*
X41937759Y-31700000D01*
X41705241Y-31855363D01*
X41505363Y-32055241D01*
X41348320Y-32290273D01*
X41240147Y-32551426D01*
X41185000Y-32828665D01*
X41185000Y-33111335D01*
X41240147Y-33388574D01*
X41348320Y-33649727D01*
X41505363Y-33884759D01*
X41705241Y-34084637D01*
X41940273Y-34241680D01*
X42201426Y-34349853D01*
X42478665Y-34405000D01*
X42761335Y-34405000D01*
X43038574Y-34349853D01*
X43299727Y-34241680D01*
X43534759Y-34084637D01*
X43734637Y-33884759D01*
X43891680Y-33649727D01*
X43999853Y-33388574D01*
X44055000Y-33111335D01*
X44055000Y-32828665D01*
X43999853Y-32551426D01*
X43891680Y-32290273D01*
X43734637Y-32055241D01*
X43534759Y-31855363D01*
X43302241Y-31700000D01*
X43534759Y-31544637D01*
X43734637Y-31344759D01*
X43891680Y-31109727D01*
X43999853Y-30848574D01*
X44055000Y-30571335D01*
X44055000Y-30288665D01*
X43999853Y-30011426D01*
X43891680Y-29750273D01*
X43734637Y-29515241D01*
X43534759Y-29315363D01*
X43302241Y-29160000D01*
X43534759Y-29004637D01*
X43734637Y-28804759D01*
X43891680Y-28569727D01*
X43999853Y-28308574D01*
X44055000Y-28031335D01*
X44055000Y-27748665D01*
X43999853Y-27471426D01*
X43891680Y-27210273D01*
X43734637Y-26975241D01*
X43534759Y-26775363D01*
X43302241Y-26620000D01*
X43534759Y-26464637D01*
X43734637Y-26264759D01*
X43891680Y-26029727D01*
X43999853Y-25768574D01*
X44055000Y-25491335D01*
X44055000Y-25208665D01*
X44018688Y-25026113D01*
X46440802Y-22604000D01*
X62243678Y-22604000D01*
X62281000Y-22607676D01*
X62318322Y-22604000D01*
X62318333Y-22604000D01*
X62429986Y-22593003D01*
X62573247Y-22549546D01*
X62705276Y-22478974D01*
X62821001Y-22384001D01*
X62844804Y-22354997D01*
X63508624Y-21691177D01*
X63523088Y-21697168D01*
X63838967Y-21760000D01*
X64161033Y-21760000D01*
X64476912Y-21697168D01*
X64774463Y-21573918D01*
X65042252Y-21394987D01*
X65269987Y-21167252D01*
X65448918Y-20899463D01*
X65572168Y-20601912D01*
X65635000Y-20286033D01*
X65635000Y-19963967D01*
X65572168Y-19648088D01*
X65448918Y-19350537D01*
X65269987Y-19082748D01*
X65042252Y-18855013D01*
X64774463Y-18676082D01*
X64476912Y-18552832D01*
X64161033Y-18490000D01*
X63838967Y-18490000D01*
X63523088Y-18552832D01*
X63225537Y-18676082D01*
X62957748Y-18855013D01*
X62730013Y-19082748D01*
X62665075Y-19179935D01*
X62635413Y-19169192D01*
X61679605Y-20125000D01*
X61693748Y-20139143D01*
X61514143Y-20318748D01*
X61500000Y-20304605D01*
X61485858Y-20318748D01*
X61306253Y-20139143D01*
X61320395Y-20125000D01*
X60364587Y-19169192D01*
X60334925Y-19179935D01*
X60269987Y-19082748D01*
X60176826Y-18989587D01*
X60544192Y-18989587D01*
X61500000Y-19945395D01*
X62455808Y-18989587D01*
X62360044Y-18725186D01*
X62070429Y-18584296D01*
X61758892Y-18502616D01*
X61437405Y-18483282D01*
X61118325Y-18527039D01*
X60813912Y-18632205D01*
X60639956Y-18725186D01*
X60544192Y-18989587D01*
X60176826Y-18989587D01*
X60042252Y-18855013D01*
X59774463Y-18676082D01*
X59476912Y-18552832D01*
X59161033Y-18490000D01*
X58838967Y-18490000D01*
X58523088Y-18552832D01*
X58225537Y-18676082D01*
X57957748Y-18855013D01*
X57730013Y-19082748D01*
X57551082Y-19350537D01*
X57545091Y-19365000D01*
X49781801Y-19365000D01*
X54105009Y-15041794D01*
X54134001Y-15018001D01*
X54157795Y-14989008D01*
X54157799Y-14989004D01*
X54228973Y-14902277D01*
X54228974Y-14902276D01*
X54299546Y-14770247D01*
X54343003Y-14626986D01*
X54354000Y-14515333D01*
X54354000Y-14515324D01*
X54357676Y-14478001D01*
X54354000Y-14440678D01*
X54354000Y-11275000D01*
X55011928Y-11275000D01*
X55011928Y-13975000D01*
X55024188Y-14099482D01*
X55060498Y-14219180D01*
X55119463Y-14329494D01*
X55198815Y-14426185D01*
X55295506Y-14505537D01*
X55405820Y-14564502D01*
X55525518Y-14600812D01*
X55650000Y-14613072D01*
X57950000Y-14613072D01*
X58074482Y-14600812D01*
X58194180Y-14564502D01*
X58304494Y-14505537D01*
X58401185Y-14426185D01*
X58480537Y-14329494D01*
X58539502Y-14219180D01*
X58575812Y-14099482D01*
X58588072Y-13975000D01*
X58588072Y-11275000D01*
X64411928Y-11275000D01*
X64411928Y-13975000D01*
X64424188Y-14099482D01*
X64460498Y-14219180D01*
X64519463Y-14329494D01*
X64598815Y-14426185D01*
X64695506Y-14505537D01*
X64805820Y-14564502D01*
X64925518Y-14600812D01*
X65050000Y-14613072D01*
X67350000Y-14613072D01*
X67474482Y-14600812D01*
X67594180Y-14564502D01*
X67704494Y-14505537D01*
X67801185Y-14426185D01*
X67880537Y-14329494D01*
X67939502Y-14219180D01*
X67975812Y-14099482D01*
X67988072Y-13975000D01*
X67988072Y-11275000D01*
X67975812Y-11150518D01*
X67939502Y-11030820D01*
X67880537Y-10920506D01*
X67801185Y-10823815D01*
X67704494Y-10744463D01*
X67594180Y-10685498D01*
X67474482Y-10649188D01*
X67350000Y-10636928D01*
X65050000Y-10636928D01*
X64925518Y-10649188D01*
X64805820Y-10685498D01*
X64695506Y-10744463D01*
X64598815Y-10823815D01*
X64519463Y-10920506D01*
X64460498Y-11030820D01*
X64424188Y-11150518D01*
X64411928Y-11275000D01*
X58588072Y-11275000D01*
X58575812Y-11150518D01*
X58539502Y-11030820D01*
X58480537Y-10920506D01*
X58401185Y-10823815D01*
X58304494Y-10744463D01*
X58194180Y-10685498D01*
X58074482Y-10649188D01*
X57950000Y-10636928D01*
X55650000Y-10636928D01*
X55525518Y-10649188D01*
X55405820Y-10685498D01*
X55295506Y-10744463D01*
X55198815Y-10823815D01*
X55119463Y-10920506D01*
X55060498Y-11030820D01*
X55024188Y-11150518D01*
X55011928Y-11275000D01*
X54354000Y-11275000D01*
X54354000Y-11236801D01*
X56702802Y-8888000D01*
X61459678Y-8888000D01*
X61497000Y-8891676D01*
X61534322Y-8888000D01*
X61534333Y-8888000D01*
X61645986Y-8877003D01*
X61789247Y-8833546D01*
X61921276Y-8762974D01*
X62037001Y-8668001D01*
X62060804Y-8638997D01*
X63508625Y-7191177D01*
X63523088Y-7197168D01*
X63838967Y-7260000D01*
X64161033Y-7260000D01*
X64476912Y-7197168D01*
X64774463Y-7073918D01*
X65042252Y-6894987D01*
X65269987Y-6667252D01*
X65448918Y-6399463D01*
X65572168Y-6101912D01*
X65635000Y-5786033D01*
X65635000Y-5463967D01*
X65572168Y-5148088D01*
X65448918Y-4850537D01*
X65269987Y-4582748D01*
X65042252Y-4355013D01*
X64774463Y-4176082D01*
X64476912Y-4052832D01*
X64161033Y-3990000D01*
X63838967Y-3990000D01*
X63523088Y-4052832D01*
X63225537Y-4176082D01*
X62957748Y-4355013D01*
X62730013Y-4582748D01*
X62551082Y-4850537D01*
X62427832Y-5148088D01*
X62365000Y-5463967D01*
X62365000Y-5786033D01*
X62427832Y-6101912D01*
X62433823Y-6116375D01*
X61182199Y-7368000D01*
X56425325Y-7368000D01*
X56388000Y-7364324D01*
X56350675Y-7368000D01*
X56350667Y-7368000D01*
X56239014Y-7378997D01*
X56095753Y-7422454D01*
X55963724Y-7493026D01*
X55847999Y-7587999D01*
X55824201Y-7616997D01*
X53082998Y-10358201D01*
X53054000Y-10381999D01*
X53030202Y-10410997D01*
X53030201Y-10410998D01*
X52959026Y-10497724D01*
X52888454Y-10629754D01*
X52863050Y-10713502D01*
X52844998Y-10773014D01*
X52837266Y-10851514D01*
X52830324Y-10922000D01*
X52834001Y-10959332D01*
X52834000Y-14163197D01*
X51562487Y-15434710D01*
X51505332Y-15276516D01*
X51445045Y-15163729D01*
X51206279Y-15098326D01*
X50429605Y-15875000D01*
X50443748Y-15889143D01*
X50264143Y-16068748D01*
X50250000Y-16054605D01*
X49473326Y-16831279D01*
X49538729Y-17070045D01*
X49785538Y-17185845D01*
X49806237Y-17190962D01*
X48707199Y-18290000D01*
X43941272Y-18290000D01*
X43999853Y-18148574D01*
X44055000Y-17871335D01*
X44055000Y-17588665D01*
X43999853Y-17311426D01*
X43891680Y-17050273D01*
X43734637Y-16815241D01*
X43534759Y-16615363D01*
X43302241Y-16460000D01*
X43534759Y-16304637D01*
X43734637Y-16104759D01*
X43891680Y-15869727D01*
X43999853Y-15608574D01*
X44055000Y-15331335D01*
X44055000Y-15048665D01*
X43999853Y-14771426D01*
X43891680Y-14510273D01*
X43734637Y-14275241D01*
X43534759Y-14075363D01*
X43300872Y-13919085D01*
X43361514Y-13886671D01*
X43433097Y-13642702D01*
X42620000Y-12829605D01*
X42605858Y-12843748D01*
X42426253Y-12664143D01*
X42440395Y-12650000D01*
X42799605Y-12650000D01*
X43612702Y-13463097D01*
X43856671Y-13391514D01*
X43977571Y-13136004D01*
X44046300Y-12861816D01*
X44060217Y-12579488D01*
X44018787Y-12299870D01*
X43923603Y-12033708D01*
X43856671Y-11908486D01*
X43612702Y-11836903D01*
X42799605Y-12650000D01*
X42440395Y-12650000D01*
X41627298Y-11836903D01*
X41383329Y-11908486D01*
X41262429Y-12163996D01*
X41193700Y-12438184D01*
X41181922Y-12677120D01*
X39607504Y-11102702D01*
X41806903Y-11102702D01*
X41878486Y-11346671D01*
X41944636Y-11377971D01*
X41878486Y-11413329D01*
X41806903Y-11657298D01*
X42620000Y-12470395D01*
X43433097Y-11657298D01*
X43361514Y-11413329D01*
X43295364Y-11382029D01*
X43361514Y-11346671D01*
X43433097Y-11102702D01*
X42620000Y-10289605D01*
X41806903Y-11102702D01*
X39607504Y-11102702D01*
X38685314Y-10180512D01*
X41179783Y-10180512D01*
X41221213Y-10460130D01*
X41316397Y-10726292D01*
X41383329Y-10851514D01*
X41627298Y-10923097D01*
X42440395Y-10110000D01*
X42799605Y-10110000D01*
X43612702Y-10923097D01*
X43856671Y-10851514D01*
X43977571Y-10596004D01*
X44046300Y-10321816D01*
X44060217Y-10039488D01*
X44018787Y-9759870D01*
X43923603Y-9493708D01*
X43856671Y-9368486D01*
X43612702Y-9296903D01*
X42799605Y-10110000D01*
X42440395Y-10110000D01*
X41627298Y-9296903D01*
X41383329Y-9368486D01*
X41262429Y-9623996D01*
X41193700Y-9898184D01*
X41179783Y-10180512D01*
X38685314Y-10180512D01*
X36978803Y-8474002D01*
X36955000Y-8444998D01*
X36839275Y-8350025D01*
X36707246Y-8279453D01*
X36563985Y-8235996D01*
X36452332Y-8224999D01*
X36452321Y-8224999D01*
X36414999Y-8221323D01*
X36377677Y-8224999D01*
X28657607Y-8224999D01*
X28737571Y-8056004D01*
X28806300Y-7781816D01*
X28820217Y-7499488D01*
X28778787Y-7219870D01*
X28683603Y-6953708D01*
X28662914Y-6915001D01*
X41338077Y-6915001D01*
X41240147Y-7151426D01*
X41185000Y-7428665D01*
X41185000Y-7711335D01*
X41240147Y-7988574D01*
X41348320Y-8249727D01*
X41505363Y-8484759D01*
X41705241Y-8684637D01*
X41939128Y-8840915D01*
X41878486Y-8873329D01*
X41806903Y-9117298D01*
X42620000Y-9930395D01*
X43433097Y-9117298D01*
X43361514Y-8873329D01*
X43297008Y-8842806D01*
X43299727Y-8841680D01*
X43534759Y-8684637D01*
X43593396Y-8626000D01*
X44362928Y-8626000D01*
X44362928Y-10124000D01*
X44375188Y-10248482D01*
X44411498Y-10368180D01*
X44470463Y-10478494D01*
X44549815Y-10575185D01*
X44646506Y-10654537D01*
X44756820Y-10713502D01*
X44876518Y-10749812D01*
X44990001Y-10760989D01*
X44990000Y-14718293D01*
X44867751Y-14799977D01*
X44674977Y-14992751D01*
X44523515Y-15219430D01*
X44419186Y-15471302D01*
X44366000Y-15738688D01*
X44366000Y-16011312D01*
X44419186Y-16278698D01*
X44523515Y-16530570D01*
X44674977Y-16757249D01*
X44867751Y-16950023D01*
X45094430Y-17101485D01*
X45346302Y-17205814D01*
X45613688Y-17259000D01*
X45886312Y-17259000D01*
X46153698Y-17205814D01*
X46405570Y-17101485D01*
X46632249Y-16950023D01*
X46825023Y-16757249D01*
X46976485Y-16530570D01*
X47080814Y-16278698D01*
X47134000Y-16011312D01*
X47134000Y-15947531D01*
X48861195Y-15947531D01*
X48902030Y-16217081D01*
X48994668Y-16473484D01*
X49054955Y-16586271D01*
X49293721Y-16651674D01*
X50070395Y-15875000D01*
X49293721Y-15098326D01*
X49054955Y-15163729D01*
X48939155Y-15410538D01*
X48873730Y-15675195D01*
X48861195Y-15947531D01*
X47134000Y-15947531D01*
X47134000Y-15738688D01*
X47080814Y-15471302D01*
X46976485Y-15219430D01*
X46825023Y-14992751D01*
X46750993Y-14918721D01*
X49473326Y-14918721D01*
X50250000Y-15695395D01*
X51026674Y-14918721D01*
X50961271Y-14679955D01*
X50714462Y-14564155D01*
X50449805Y-14498730D01*
X50177469Y-14486195D01*
X49907919Y-14527030D01*
X49651516Y-14619668D01*
X49538729Y-14679955D01*
X49473326Y-14918721D01*
X46750993Y-14918721D01*
X46632249Y-14799977D01*
X46510000Y-14718293D01*
X46510000Y-10760989D01*
X46623482Y-10749812D01*
X46743180Y-10713502D01*
X46853494Y-10654537D01*
X46950185Y-10575185D01*
X47029537Y-10478494D01*
X47088502Y-10368180D01*
X47099695Y-10331279D01*
X49473326Y-10331279D01*
X49538729Y-10570045D01*
X49785538Y-10685845D01*
X50050195Y-10751270D01*
X50322531Y-10763805D01*
X50592081Y-10722970D01*
X50848484Y-10630332D01*
X50961271Y-10570045D01*
X51026674Y-10331279D01*
X50250000Y-9554605D01*
X49473326Y-10331279D01*
X47099695Y-10331279D01*
X47124812Y-10248482D01*
X47137072Y-10124000D01*
X47137072Y-9447531D01*
X48861195Y-9447531D01*
X48902030Y-9717081D01*
X48994668Y-9973484D01*
X49054955Y-10086271D01*
X49293721Y-10151674D01*
X50070395Y-9375000D01*
X50429605Y-9375000D01*
X51206279Y-10151674D01*
X51445045Y-10086271D01*
X51560845Y-9839462D01*
X51626270Y-9574805D01*
X51638805Y-9302469D01*
X51597970Y-9032919D01*
X51505332Y-8776516D01*
X51445045Y-8663729D01*
X51206279Y-8598326D01*
X50429605Y-9375000D01*
X50070395Y-9375000D01*
X49293721Y-8598326D01*
X49054955Y-8663729D01*
X48939155Y-8910538D01*
X48873730Y-9175195D01*
X48861195Y-9447531D01*
X47137072Y-9447531D01*
X47137072Y-8626000D01*
X47124812Y-8501518D01*
X47099696Y-8418721D01*
X49473326Y-8418721D01*
X50250000Y-9195395D01*
X51026674Y-8418721D01*
X50961271Y-8179955D01*
X50714462Y-8064155D01*
X50449805Y-7998730D01*
X50177469Y-7986195D01*
X49907919Y-8027030D01*
X49651516Y-8119668D01*
X49538729Y-8179955D01*
X49473326Y-8418721D01*
X47099696Y-8418721D01*
X47088502Y-8381820D01*
X47029537Y-8271506D01*
X46950185Y-8174815D01*
X46853494Y-8095463D01*
X46743180Y-8036498D01*
X46623482Y-8000188D01*
X46499000Y-7987928D01*
X45001000Y-7987928D01*
X44876518Y-8000188D01*
X44756820Y-8036498D01*
X44646506Y-8095463D01*
X44549815Y-8174815D01*
X44470463Y-8271506D01*
X44411498Y-8381820D01*
X44375188Y-8501518D01*
X44362928Y-8626000D01*
X43593396Y-8626000D01*
X43734637Y-8484759D01*
X43891680Y-8249727D01*
X43999853Y-7988574D01*
X44055000Y-7711335D01*
X44055000Y-7428665D01*
X43999853Y-7151426D01*
X43901923Y-6915001D01*
X57987701Y-6915001D01*
X58225537Y-7073918D01*
X58523088Y-7197168D01*
X58838967Y-7260000D01*
X59161033Y-7260000D01*
X59476912Y-7197168D01*
X59774463Y-7073918D01*
X60042252Y-6894987D01*
X60269987Y-6667252D01*
X60448918Y-6399463D01*
X60572168Y-6101912D01*
X60635000Y-5786033D01*
X60635000Y-5463967D01*
X60572168Y-5148088D01*
X60448918Y-4850537D01*
X60269987Y-4582748D01*
X60042252Y-4355013D01*
X59774463Y-4176082D01*
X59476912Y-4052832D01*
X59161033Y-3990000D01*
X58838967Y-3990000D01*
X58523088Y-4052832D01*
X58225537Y-4176082D01*
X57957748Y-4355013D01*
X57730013Y-4582748D01*
X57551082Y-4850537D01*
X57427832Y-5148088D01*
X57378718Y-5395001D01*
X44058072Y-5395001D01*
X44058072Y-4230000D01*
X44045812Y-4105518D01*
X44009502Y-3985820D01*
X43950537Y-3875506D01*
X43871185Y-3778815D01*
X43774494Y-3699463D01*
X43664180Y-3640498D01*
X43544482Y-3604188D01*
X43420000Y-3591928D01*
X41820000Y-3591928D01*
X41695518Y-3604188D01*
X41575820Y-3640498D01*
X41465506Y-3699463D01*
X41368815Y-3778815D01*
X41289463Y-3875506D01*
X41230498Y-3985820D01*
X41194188Y-4105518D01*
X41181928Y-4230000D01*
X41181928Y-5395001D01*
X28770509Y-5395001D01*
X28815000Y-5171335D01*
X28815000Y-4888665D01*
X28759853Y-4611426D01*
X28651680Y-4350273D01*
X28494637Y-4115241D01*
X28294759Y-3915363D01*
X28059727Y-3758320D01*
X27798574Y-3650147D01*
X27521335Y-3595000D01*
X27238665Y-3595000D01*
X26961426Y-3650147D01*
X26700273Y-3758320D01*
X26465241Y-3915363D01*
X26265363Y-4115241D01*
X26108320Y-4350273D01*
X26000147Y-4611426D01*
X25945000Y-4888665D01*
X25945000Y-5171335D01*
X25989491Y-5395001D01*
X25697324Y-5395001D01*
X25659999Y-5391325D01*
X25622674Y-5395001D01*
X25622666Y-5395001D01*
X25511013Y-5405998D01*
X25367752Y-5449455D01*
X25235723Y-5520027D01*
X25119998Y-5615000D01*
X25096200Y-5643998D01*
X23408930Y-7331269D01*
X23151184Y-7280000D01*
X22848816Y-7280000D01*
X22552257Y-7338989D01*
X22272905Y-7454701D01*
X22021495Y-7622688D01*
X21807688Y-7836495D01*
X21639701Y-8087905D01*
X21523989Y-8367257D01*
X21465000Y-8663816D01*
X21465000Y-8966184D01*
X21523989Y-9262743D01*
X21531138Y-9280001D01*
X20468862Y-9280001D01*
X20476011Y-9262743D01*
X20535000Y-8966184D01*
X20535000Y-8663816D01*
X20476011Y-8367257D01*
X20360299Y-8087905D01*
X20192312Y-7836495D01*
X19978505Y-7622688D01*
X19727095Y-7454701D01*
X19447743Y-7338989D01*
X19151184Y-7280000D01*
X18848816Y-7280000D01*
X18591070Y-7331269D01*
X17606804Y-6347003D01*
X17583001Y-6317999D01*
X17467276Y-6223026D01*
X17335247Y-6152454D01*
X17191986Y-6108997D01*
X17080333Y-6098000D01*
X17080322Y-6098000D01*
X17043000Y-6094324D01*
X17005678Y-6098000D01*
X10554333Y-6098000D01*
X10517000Y-6094323D01*
X10479667Y-6098000D01*
X10368014Y-6108997D01*
X10224753Y-6152454D01*
X10092724Y-6223026D01*
X9976999Y-6317999D01*
X9953201Y-6346997D01*
X8280515Y-8019684D01*
X8136312Y-7991000D01*
X7863688Y-7991000D01*
X7596302Y-8044186D01*
X7344430Y-8148515D01*
X7117751Y-8299977D01*
X6924977Y-8492751D01*
X6773515Y-8719430D01*
X6669186Y-8971302D01*
X6616000Y-9238688D01*
X6616000Y-9511312D01*
X6669186Y-9778698D01*
X6773515Y-10030570D01*
X6924977Y-10257249D01*
X7117751Y-10450023D01*
X7240000Y-10531707D01*
X7240001Y-14718292D01*
X7117751Y-14799977D01*
X6924977Y-14992751D01*
X6773515Y-15219430D01*
X6669186Y-15471302D01*
X6616000Y-15738688D01*
X6616000Y-16011312D01*
X6669186Y-16278698D01*
X6773515Y-16530570D01*
X6924977Y-16757249D01*
X7117751Y-16950023D01*
X7344430Y-17101485D01*
X7596302Y-17205814D01*
X7863688Y-17259000D01*
X8136312Y-17259000D01*
X8403698Y-17205814D01*
X8655570Y-17101485D01*
X8882249Y-16950023D01*
X9075023Y-16757249D01*
X9226485Y-16530570D01*
X9330814Y-16278698D01*
X9384000Y-16011312D01*
X9384000Y-15738688D01*
X9330814Y-15471302D01*
X9226485Y-15219430D01*
X9075023Y-14992751D01*
X8882249Y-14799977D01*
X8760000Y-14718293D01*
X8760000Y-10531707D01*
X8882249Y-10450023D01*
X9075023Y-10257249D01*
X9226485Y-10030570D01*
X9330814Y-9778698D01*
X9384000Y-9511312D01*
X9384000Y-9238688D01*
X9355316Y-9094485D01*
X10831802Y-7618000D01*
X13135457Y-7618000D01*
X13080498Y-7720820D01*
X13044188Y-7840518D01*
X13031928Y-7965000D01*
X13031928Y-9665000D01*
X13044188Y-9789482D01*
X13080498Y-9909180D01*
X13139463Y-10019494D01*
X13218815Y-10116185D01*
X13315506Y-10195537D01*
X13425820Y-10254502D01*
X13498380Y-10276513D01*
X13366525Y-10408368D01*
X13204010Y-10651589D01*
X13092068Y-10921842D01*
X13035000Y-11208740D01*
X13035000Y-11501260D01*
X13092068Y-11788158D01*
X13204010Y-12058411D01*
X13366525Y-12301632D01*
X13573368Y-12508475D01*
X13747760Y-12625000D01*
X13573368Y-12741525D01*
X13366525Y-12948368D01*
X13204010Y-13191589D01*
X13092068Y-13461842D01*
X13035000Y-13748740D01*
X13035000Y-14041260D01*
X13092068Y-14328158D01*
X13204010Y-14598411D01*
X13366525Y-14841632D01*
X13573368Y-15048475D01*
X13755534Y-15170195D01*
X13638645Y-15239822D01*
X13422412Y-15434731D01*
X13248359Y-15668080D01*
X13123175Y-15930901D01*
X13078524Y-16078110D01*
X13199845Y-16308000D01*
X14393000Y-16308000D01*
X14393000Y-16288000D01*
X14647000Y-16288000D01*
X14647000Y-16308000D01*
X15840155Y-16308000D01*
X15961476Y-16078110D01*
X15916825Y-15930901D01*
X15791641Y-15668080D01*
X15617588Y-15434731D01*
X15401355Y-15239822D01*
X15284466Y-15170195D01*
X15466632Y-15048475D01*
X15673475Y-14841632D01*
X15798178Y-14655000D01*
X19595678Y-14655000D01*
X19633000Y-14658676D01*
X19670322Y-14655000D01*
X19670333Y-14655000D01*
X19781986Y-14644003D01*
X19925247Y-14600546D01*
X20057276Y-14529974D01*
X20173001Y-14435001D01*
X20196804Y-14405997D01*
X21192802Y-13410000D01*
X26161957Y-13410000D01*
X26265363Y-13564759D01*
X26465241Y-13764637D01*
X26697759Y-13920000D01*
X26465241Y-14075363D01*
X26265363Y-14275241D01*
X26108320Y-14510273D01*
X26000147Y-14771426D01*
X25945000Y-15048665D01*
X25945000Y-15331335D01*
X26000147Y-15608574D01*
X26108320Y-15869727D01*
X26265363Y-16104759D01*
X26465241Y-16304637D01*
X26697759Y-16460000D01*
X26465241Y-16615363D01*
X26265363Y-16815241D01*
X26108320Y-17050273D01*
X26000147Y-17311426D01*
X25945000Y-17588665D01*
X25945000Y-17871335D01*
X26000147Y-18148574D01*
X26108320Y-18409727D01*
X26265363Y-18644759D01*
X26465241Y-18844637D01*
X26697759Y-19000000D01*
X26465241Y-19155363D01*
X26265363Y-19355241D01*
X26108320Y-19590273D01*
X26000147Y-19851426D01*
X25945000Y-20128665D01*
X25945000Y-20411335D01*
X26000147Y-20688574D01*
X26108320Y-20949727D01*
X26265363Y-21184759D01*
X26465241Y-21384637D01*
X26697759Y-21540000D01*
X26465241Y-21695363D01*
X26265363Y-21895241D01*
X26108320Y-22130273D01*
X26000147Y-22391426D01*
X25945000Y-22668665D01*
X25945000Y-22840198D01*
X23760000Y-20655199D01*
X23760000Y-17973072D01*
X23900000Y-17973072D01*
X24024482Y-17960812D01*
X24144180Y-17924502D01*
X24254494Y-17865537D01*
X24351185Y-17786185D01*
X24430537Y-17689494D01*
X24489502Y-17579180D01*
X24525812Y-17459482D01*
X24538072Y-17335000D01*
X24538072Y-15535000D01*
X24525812Y-15410518D01*
X24489502Y-15290820D01*
X24430537Y-15180506D01*
X24351185Y-15083815D01*
X24254494Y-15004463D01*
X24144180Y-14945498D01*
X24024482Y-14909188D01*
X23900000Y-14896928D01*
X22100000Y-14896928D01*
X21975518Y-14909188D01*
X21855820Y-14945498D01*
X21745506Y-15004463D01*
X21648815Y-15083815D01*
X21569463Y-15180506D01*
X21510498Y-15290820D01*
X21474188Y-15410518D01*
X21461928Y-15535000D01*
X21461928Y-15675000D01*
X20538072Y-15675000D01*
X20538072Y-15535000D01*
X20525812Y-15410518D01*
X20489502Y-15290820D01*
X20430537Y-15180506D01*
X20351185Y-15083815D01*
X20254494Y-15004463D01*
X20144180Y-14945498D01*
X20024482Y-14909188D01*
X19900000Y-14896928D01*
X18100000Y-14896928D01*
X17975518Y-14909188D01*
X17855820Y-14945498D01*
X17745506Y-15004463D01*
X17648815Y-15083815D01*
X17569463Y-15180506D01*
X17510498Y-15290820D01*
X17474188Y-15410518D01*
X17461928Y-15535000D01*
X17461928Y-17335000D01*
X17474188Y-17459482D01*
X17494973Y-17528000D01*
X15514712Y-17528000D01*
X15617588Y-17435269D01*
X15791641Y-17201920D01*
X15916825Y-16939099D01*
X15961476Y-16791890D01*
X15840155Y-16562000D01*
X14647000Y-16562000D01*
X14647000Y-16582000D01*
X14393000Y-16582000D01*
X14393000Y-16562000D01*
X13199845Y-16562000D01*
X13078524Y-16791890D01*
X13123175Y-16939099D01*
X13248359Y-17201920D01*
X13422412Y-17435269D01*
X13525288Y-17528000D01*
X6227802Y-17528000D01*
X4887072Y-16187271D01*
X4887072Y-15126000D01*
X4874812Y-15001518D01*
X4838502Y-14881820D01*
X4779537Y-14771506D01*
X4700185Y-14674815D01*
X4603494Y-14595463D01*
X4493180Y-14536498D01*
X4373482Y-14500188D01*
X4260000Y-14489011D01*
X4260000Y-10531707D01*
X4382249Y-10450023D01*
X4575023Y-10257249D01*
X4726485Y-10030570D01*
X4830814Y-9778698D01*
X4884000Y-9511312D01*
X4884000Y-9238688D01*
X4830814Y-8971302D01*
X4726485Y-8719430D01*
X4575023Y-8492751D01*
X4382249Y-8299977D01*
X4155570Y-8148515D01*
X3903698Y-8044186D01*
X3636312Y-7991000D01*
X3363688Y-7991000D01*
X3096302Y-8044186D01*
X2844430Y-8148515D01*
X2617751Y-8299977D01*
X2424977Y-8492751D01*
X2273515Y-8719430D01*
X2169186Y-8971302D01*
X2116000Y-9238688D01*
X2116000Y-9511312D01*
X2169186Y-9778698D01*
X2273515Y-10030570D01*
X2424977Y-10257249D01*
X2617751Y-10450023D01*
X2740000Y-10531707D01*
X2740001Y-14489011D01*
X2626518Y-14500188D01*
X2506820Y-14536498D01*
X2396506Y-14595463D01*
X2299815Y-14674815D01*
X2220463Y-14771506D01*
X2161498Y-14881820D01*
X2125188Y-15001518D01*
X2112928Y-15126000D01*
X660000Y-15126000D01*
X660000Y-4032278D01*
X726714Y-3351874D01*
X914943Y-2728428D01*
X1220681Y-2153421D01*
X1632279Y-1648753D01*
X2134067Y-1233638D01*
X2706924Y-923895D01*
X3329039Y-731318D01*
X4007584Y-660000D01*
X65967722Y-660000D01*
X66648126Y-726714D01*
G37*
%TD.AperFunction*%
D22*
X27573748Y-7555858D02*
X27559605Y-7570000D01*
X27573748Y-7584143D01*
X27394143Y-7763748D01*
X27380000Y-7749605D01*
X27365858Y-7763748D01*
X27186253Y-7584143D01*
X27200395Y-7570000D01*
X27186253Y-7555858D01*
X27365858Y-7376253D01*
X27380000Y-7390395D01*
X27394143Y-7376253D01*
X27573748Y-7555858D01*
%TA.AperFunction,Conductor*%
D23*
G36*
X27573748Y-7555858D02*
G01*
X27559605Y-7570000D01*
X27573748Y-7584143D01*
X27394143Y-7763748D01*
X27380000Y-7749605D01*
X27365858Y-7763748D01*
X27186253Y-7584143D01*
X27200395Y-7570000D01*
X27186253Y-7555858D01*
X27365858Y-7376253D01*
X27380000Y-7390395D01*
X27394143Y-7376253D01*
X27573748Y-7555858D01*
G37*
%TD.AperFunction*%
%TD*%
M02*
