M48
; DRILL file {KiCad 5.1.9-73d0e3b20d~88~ubuntu20.10.1} date Sat Apr 24 17:05:28 2021
; FORMAT={-:-/ absolute / inch / decimal}
; #@! TF.CreationDate,2021-04-24T17:05:28-07:00
; #@! TF.GenerationSoftware,Kicad,Pcbnew,5.1.9-73d0e3b20d~88~ubuntu20.10.1
FMAT,2
INCH
T1C0.0354
T2C0.0390
T3C0.0394
T4C0.0433
T5C0.0472
T6C0.0709
T7C0.0689
T8C0.1181
T9C0.1575
%
G90
G05
T1
X0.4406Y-1.7618
X0.4406Y-2.5295
X0.7406Y-1.7618
X0.7406Y-2.5295
X0.748Y-0.347
X0.748Y-0.647
X0.9055Y-0.347
X0.9055Y-0.647
X1.228Y-1.7618
X1.228Y-2.5295
X1.528Y-1.7618
X1.528Y-2.5295
X1.9957Y-1.7618
X1.9957Y-2.5295
X2.2957Y-1.7618
X2.2957Y-2.5295
T2
X0.1378Y-0.3691
X0.1378Y-0.625
X0.315Y-0.3691
X0.315Y-0.625
X1.8012Y-0.3691
X1.8012Y-0.625
X1.9783Y-0.3691
X1.9783Y-0.625
T3
X0.5717Y-0.347
X0.5717Y-0.447
X0.5717Y-0.547
X0.5717Y-0.647
T4
X1.078Y-0.198
X1.078Y-0.298
X1.078Y-0.398
X1.078Y-0.498
X1.078Y-0.598
X1.078Y-0.698
X1.078Y-0.798
X1.078Y-0.898
X1.078Y-0.998
X1.078Y-1.098
X1.078Y-1.198
X1.078Y-1.298
X1.678Y-0.198
X1.678Y-0.298
X1.678Y-0.398
X1.678Y-0.498
X1.678Y-0.598
X1.678Y-0.698
X1.678Y-0.798
X1.678Y-0.898
X1.678Y-0.998
X1.678Y-1.098
X1.678Y-1.198
X1.678Y-1.298
T5
X2.3228Y-0.2215
X2.3228Y-0.7923
X2.4213Y-0.7923
X2.5197Y-0.2215
X2.5197Y-0.7923
T7
X0.4102Y-1.378
X0.4102Y-2.1457
X0.8102Y-1.378
X0.8102Y-2.1457
X1.178Y-1.378
X1.178Y-2.1457
X1.578Y-1.378
X1.578Y-2.1457
X1.9457Y-1.378
X1.9457Y-2.1457
X2.3457Y-1.378
X2.3457Y-2.1457
T8
X0.5102Y-1.578
X0.5102Y-2.3457
X0.7602Y-1.478
X0.7602Y-2.2457
X1.278Y-1.578
X1.278Y-2.3457
X1.528Y-1.478
X1.528Y-2.2457
X2.0457Y-1.578
X2.0457Y-2.3457
X2.2957Y-1.478
X2.2957Y-2.2457
T9
X0.6102Y-1.378
X0.6102Y-2.1457
X1.378Y-1.378
X1.378Y-2.1457
X2.1457Y-1.378
X2.1457Y-2.1457
T6
G00X2.2362Y-0.4872
M15
G01X2.2362Y-0.5069
M16
G05
G00X2.6063Y-0.4872
M15
G01X2.6063Y-0.5069
M16
G05
T0
M30
