M48
; DRILL file {KiCad 5.1.9-73d0e3b20d~88~ubuntu20.10.1} date Sun Apr 11 15:21:21 2021
; FORMAT={-:-/ absolute / inch / decimal}
; #@! TF.CreationDate,2021-04-11T15:21:21-07:00
; #@! TF.GenerationSoftware,Kicad,Pcbnew,5.1.9-73d0e3b20d~88~ubuntu20.10.1
FMAT,2
INCH
T1C0.0300
T2C0.0354
T3C0.0390
T4C0.0394
T5C0.0433
T6C0.0709
T7C0.0689
T8C0.1181
T9C0.1575
%
G90
G05
T1
X4.3209Y-4.1929
X4.3209Y-4.7638
X4.4193Y-4.1929
X4.5177Y-4.1929
X4.5177Y-4.7638
T2
X4.28Y-4.96
X4.5085Y-5.8071
X4.5085Y-6.5748
X4.58Y-4.96
X4.8085Y-5.8071
X4.8085Y-6.5748
X5.2762Y-5.8071
X5.2762Y-6.5748
X5.5762Y-5.8071
X5.5762Y-6.5748
X6.0439Y-5.8071
X6.0439Y-6.5748
X6.3439Y-5.8071
X6.3439Y-6.5748
X6.48Y-4.76
X6.48Y-5.06
T3
X6.372Y-4.0714
X6.372Y-4.2486
X6.4075Y-4.3602
X6.4075Y-4.6161
X6.5846Y-4.3602
X6.5846Y-4.6161
X6.628Y-4.0714
X6.628Y-4.2486
T4
X6.2098Y-4.3382
X6.2098Y-4.4382
X6.2098Y-4.5382
X6.2098Y-4.6382
T5
X5.1035Y-4.2138
X5.1035Y-4.3138
X5.1035Y-4.4138
X5.1035Y-4.5138
X5.1035Y-4.6138
X5.1035Y-4.7138
X5.1035Y-4.8138
X5.1035Y-4.9138
X5.1035Y-5.0138
X5.1035Y-5.1138
X5.1035Y-5.2138
X5.1035Y-5.3138
X5.7035Y-4.2138
X5.7035Y-4.3138
X5.7035Y-4.4138
X5.7035Y-4.5138
X5.7035Y-4.6138
X5.7035Y-4.7138
X5.7035Y-4.8138
X5.7035Y-4.9138
X5.7035Y-5.0138
X5.7035Y-5.1138
X5.7035Y-5.2138
X5.7035Y-5.3138
T7
X4.4358Y-5.4232
X4.4358Y-6.1909
X4.8358Y-5.4232
X4.8358Y-6.1909
X5.2035Y-5.4232
X5.2035Y-6.1909
X5.6035Y-5.4232
X5.6035Y-6.1909
X5.9713Y-5.4232
X5.9713Y-6.1909
X6.3713Y-5.4232
X6.3713Y-6.1909
T8
X4.4858Y-5.5232
X4.4858Y-6.2909
X4.7358Y-5.6232
X4.7358Y-6.3909
X5.2535Y-5.5232
X5.2535Y-6.2909
X5.5035Y-5.6232
X5.5035Y-6.3909
X6.0213Y-5.5232
X6.0213Y-6.2909
X6.2713Y-5.6232
X6.2713Y-6.3909
T9
X4.6358Y-5.4232
X4.6358Y-6.1909
X5.4035Y-5.4232
X5.4035Y-6.1909
X6.1713Y-5.4232
X6.1713Y-6.1909
T6
G00X4.2343Y-4.4783
M15
G01X4.2343Y-4.498
M16
G05
G00X4.6043Y-4.4783
M15
G01X4.6043Y-4.498
M16
G05
T0
M30
