%TF.GenerationSoftware,KiCad,Pcbnew,5.1.9-73d0e3b20d~88~ubuntu20.10.1*%
%TF.CreationDate,2021-04-11T15:17:01-07:00*%
%TF.ProjectId,macropad-v2_0_0,6d616372-6f70-4616-942d-76325f305f30,rev?*%
%TF.SameCoordinates,Original*%
%TF.FileFunction,Soldermask,Top*%
%TF.FilePolarity,Negative*%
%FSLAX46Y46*%
G04 Gerber Fmt 4.6, Leading zero omitted, Abs format (unit mm)*
G04 Created by KiCad (PCBNEW 5.1.9-73d0e3b20d~88~ubuntu20.10.1) date 2021-04-11 15:17:01*
%MOMM*%
%LPD*%
G01*
G04 APERTURE LIST*
%ADD10C,0.300000*%
%ADD11C,0.010000*%
%ADD12C,2.150000*%
%ADD13C,4.400000*%
%ADD14C,3.400000*%
%ADD15C,2.000000*%
%ADD16O,2.100000X2.100000*%
%ADD17C,1.924000*%
%ADD18O,2.200000X2.200000*%
%ADD19C,1.898000*%
%ADD20C,0.100000*%
G04 APERTURE END LIST*
D10*
X103818571Y-147486285D02*
X104818571Y-147129142D01*
X103818571Y-146772000D01*
X103461428Y-146272000D02*
X103390000Y-146200571D01*
X103318571Y-146057714D01*
X103318571Y-145700571D01*
X103390000Y-145557714D01*
X103461428Y-145486285D01*
X103604285Y-145414857D01*
X103747142Y-145414857D01*
X103961428Y-145486285D01*
X104818571Y-146343428D01*
X104818571Y-145414857D01*
X104675714Y-144772000D02*
X104747142Y-144700571D01*
X104818571Y-144772000D01*
X104747142Y-144843428D01*
X104675714Y-144772000D01*
X104818571Y-144772000D01*
X103318571Y-143772000D02*
X103318571Y-143629142D01*
X103390000Y-143486285D01*
X103461428Y-143414857D01*
X103604285Y-143343428D01*
X103890000Y-143272000D01*
X104247142Y-143272000D01*
X104532857Y-143343428D01*
X104675714Y-143414857D01*
X104747142Y-143486285D01*
X104818571Y-143629142D01*
X104818571Y-143772000D01*
X104747142Y-143914857D01*
X104675714Y-143986285D01*
X104532857Y-144057714D01*
X104247142Y-144129142D01*
X103890000Y-144129142D01*
X103604285Y-144057714D01*
X103461428Y-143986285D01*
X103390000Y-143914857D01*
X103318571Y-143772000D01*
X104675714Y-142629142D02*
X104747142Y-142557714D01*
X104818571Y-142629142D01*
X104747142Y-142700571D01*
X104675714Y-142629142D01*
X104818571Y-142629142D01*
X103318571Y-141629142D02*
X103318571Y-141486285D01*
X103390000Y-141343428D01*
X103461428Y-141272000D01*
X103604285Y-141200571D01*
X103890000Y-141129142D01*
X104247142Y-141129142D01*
X104532857Y-141200571D01*
X104675714Y-141272000D01*
X104747142Y-141343428D01*
X104818571Y-141486285D01*
X104818571Y-141629142D01*
X104747142Y-141772000D01*
X104675714Y-141843428D01*
X104532857Y-141914857D01*
X104247142Y-141986285D01*
X103890000Y-141986285D01*
X103604285Y-141914857D01*
X103461428Y-141843428D01*
X103390000Y-141772000D01*
X103318571Y-141629142D01*
X103678571Y-147214285D02*
X104678571Y-146857142D01*
X103678571Y-146500000D01*
X103321428Y-146000000D02*
X103250000Y-145928571D01*
X103178571Y-145785714D01*
X103178571Y-145428571D01*
X103250000Y-145285714D01*
X103321428Y-145214285D01*
X103464285Y-145142857D01*
X103607142Y-145142857D01*
X103821428Y-145214285D01*
X104678571Y-146071428D01*
X104678571Y-145142857D01*
X104535714Y-144500000D02*
X104607142Y-144428571D01*
X104678571Y-144500000D01*
X104607142Y-144571428D01*
X104535714Y-144500000D01*
X104678571Y-144500000D01*
X103178571Y-143500000D02*
X103178571Y-143357142D01*
X103250000Y-143214285D01*
X103321428Y-143142857D01*
X103464285Y-143071428D01*
X103750000Y-143000000D01*
X104107142Y-143000000D01*
X104392857Y-143071428D01*
X104535714Y-143142857D01*
X104607142Y-143214285D01*
X104678571Y-143357142D01*
X104678571Y-143500000D01*
X104607142Y-143642857D01*
X104535714Y-143714285D01*
X104392857Y-143785714D01*
X104107142Y-143857142D01*
X103750000Y-143857142D01*
X103464285Y-143785714D01*
X103321428Y-143714285D01*
X103250000Y-143642857D01*
X103178571Y-143500000D01*
X104535714Y-142357142D02*
X104607142Y-142285714D01*
X104678571Y-142357142D01*
X104607142Y-142428571D01*
X104535714Y-142357142D01*
X104678571Y-142357142D01*
X103178571Y-141357142D02*
X103178571Y-141214285D01*
X103250000Y-141071428D01*
X103321428Y-141000000D01*
X103464285Y-140928571D01*
X103750000Y-140857142D01*
X104107142Y-140857142D01*
X104392857Y-140928571D01*
X104535714Y-141000000D01*
X104607142Y-141071428D01*
X104678571Y-141214285D01*
X104678571Y-141357142D01*
X104607142Y-141500000D01*
X104535714Y-141571428D01*
X104392857Y-141642857D01*
X104107142Y-141714285D01*
X103750000Y-141714285D01*
X103464285Y-141642857D01*
X103321428Y-141571428D01*
X103250000Y-141500000D01*
X103178571Y-141357142D01*
D11*
%TO.C,Ref\u002A\u002A*%
G36*
X161745333Y-129995333D02*
G01*
X151754667Y-129995333D01*
X151754667Y-120639667D01*
X152389667Y-120639667D01*
X152389667Y-129360333D01*
X161110333Y-129360333D01*
X161110333Y-120639667D01*
X152389667Y-120639667D01*
X151754667Y-120639667D01*
X151754667Y-120004667D01*
X161745333Y-120004667D01*
X161745333Y-129995333D01*
G37*
X161745333Y-129995333D02*
X151754667Y-129995333D01*
X151754667Y-120639667D01*
X152389667Y-120639667D01*
X152389667Y-129360333D01*
X161110333Y-129360333D01*
X161110333Y-120639667D01*
X152389667Y-120639667D01*
X151754667Y-120639667D01*
X151754667Y-120004667D01*
X161745333Y-120004667D01*
X161745333Y-129995333D01*
D10*
X103818571Y-147486285D02*
X104818571Y-147129142D01*
X103818571Y-146772000D01*
X103461428Y-146272000D02*
X103390000Y-146200571D01*
X103318571Y-146057714D01*
X103318571Y-145700571D01*
X103390000Y-145557714D01*
X103461428Y-145486285D01*
X103604285Y-145414857D01*
X103747142Y-145414857D01*
X103961428Y-145486285D01*
X104818571Y-146343428D01*
X104818571Y-145414857D01*
X104675714Y-144772000D02*
X104747142Y-144700571D01*
X104818571Y-144772000D01*
X104747142Y-144843428D01*
X104675714Y-144772000D01*
X104818571Y-144772000D01*
X103318571Y-143772000D02*
X103318571Y-143629142D01*
X103390000Y-143486285D01*
X103461428Y-143414857D01*
X103604285Y-143343428D01*
X103890000Y-143272000D01*
X104247142Y-143272000D01*
X104532857Y-143343428D01*
X104675714Y-143414857D01*
X104747142Y-143486285D01*
X104818571Y-143629142D01*
X104818571Y-143772000D01*
X104747142Y-143914857D01*
X104675714Y-143986285D01*
X104532857Y-144057714D01*
X104247142Y-144129142D01*
X103890000Y-144129142D01*
X103604285Y-144057714D01*
X103461428Y-143986285D01*
X103390000Y-143914857D01*
X103318571Y-143772000D01*
X104675714Y-142629142D02*
X104747142Y-142557714D01*
X104818571Y-142629142D01*
X104747142Y-142700571D01*
X104675714Y-142629142D01*
X104818571Y-142629142D01*
X103318571Y-141629142D02*
X103318571Y-141486285D01*
X103390000Y-141343428D01*
X103461428Y-141272000D01*
X103604285Y-141200571D01*
X103890000Y-141129142D01*
X104247142Y-141129142D01*
X104532857Y-141200571D01*
X104675714Y-141272000D01*
X104747142Y-141343428D01*
X104818571Y-141486285D01*
X104818571Y-141629142D01*
X104747142Y-141772000D01*
X104675714Y-141843428D01*
X104532857Y-141914857D01*
X104247142Y-141986285D01*
X103890000Y-141986285D01*
X103604285Y-141914857D01*
X103461428Y-141843428D01*
X103390000Y-141772000D01*
X103318571Y-141629142D01*
X103678571Y-147214285D02*
X104678571Y-146857142D01*
X103678571Y-146500000D01*
X103321428Y-146000000D02*
X103250000Y-145928571D01*
X103178571Y-145785714D01*
X103178571Y-145428571D01*
X103250000Y-145285714D01*
X103321428Y-145214285D01*
X103464285Y-145142857D01*
X103607142Y-145142857D01*
X103821428Y-145214285D01*
X104678571Y-146071428D01*
X104678571Y-145142857D01*
X104535714Y-144500000D02*
X104607142Y-144428571D01*
X104678571Y-144500000D01*
X104607142Y-144571428D01*
X104535714Y-144500000D01*
X104678571Y-144500000D01*
X103178571Y-143500000D02*
X103178571Y-143357142D01*
X103250000Y-143214285D01*
X103321428Y-143142857D01*
X103464285Y-143071428D01*
X103750000Y-143000000D01*
X104107142Y-143000000D01*
X104392857Y-143071428D01*
X104535714Y-143142857D01*
X104607142Y-143214285D01*
X104678571Y-143357142D01*
X104678571Y-143500000D01*
X104607142Y-143642857D01*
X104535714Y-143714285D01*
X104392857Y-143785714D01*
X104107142Y-143857142D01*
X103750000Y-143857142D01*
X103464285Y-143785714D01*
X103321428Y-143714285D01*
X103250000Y-143642857D01*
X103178571Y-143500000D01*
X104535714Y-142357142D02*
X104607142Y-142285714D01*
X104678571Y-142357142D01*
X104607142Y-142428571D01*
X104535714Y-142357142D01*
X104678571Y-142357142D01*
X103178571Y-141357142D02*
X103178571Y-141214285D01*
X103250000Y-141071428D01*
X103321428Y-141000000D01*
X103464285Y-140928571D01*
X103750000Y-140857142D01*
X104107142Y-140857142D01*
X104392857Y-140928571D01*
X104535714Y-141000000D01*
X104607142Y-141071428D01*
X104678571Y-141214285D01*
X104678571Y-141357142D01*
X104607142Y-141500000D01*
X104535714Y-141571428D01*
X104392857Y-141642857D01*
X104107142Y-141714285D01*
X103750000Y-141714285D01*
X103464285Y-141642857D01*
X103321428Y-141571428D01*
X103250000Y-141500000D01*
X103178571Y-141357142D01*
D11*
G36*
X161745333Y-129995333D02*
G01*
X151754667Y-129995333D01*
X151754667Y-120639667D01*
X152389667Y-120639667D01*
X152389667Y-129360333D01*
X161110333Y-129360333D01*
X161110333Y-120639667D01*
X152389667Y-120639667D01*
X151754667Y-120639667D01*
X151754667Y-120004667D01*
X161745333Y-120004667D01*
X161745333Y-129995333D01*
G37*
X161745333Y-129995333D02*
X151754667Y-129995333D01*
X151754667Y-120639667D01*
X152389667Y-120639667D01*
X152389667Y-129360333D01*
X161110333Y-129360333D01*
X161110333Y-120639667D01*
X152389667Y-120639667D01*
X151754667Y-120639667D01*
X151754667Y-120004667D01*
X161745333Y-120004667D01*
X161745333Y-129995333D01*
%TD*%
%TO.C,SW3*%
G36*
G01*
X161117000Y-144080000D02*
X161117000Y-141580000D01*
G75*
G02*
X161317000Y-141380000I200000J0D01*
G01*
X163867000Y-141380000D01*
G75*
G02*
X164067000Y-141580000I0J-200000D01*
G01*
X164067000Y-144080000D01*
G75*
G02*
X163867000Y-144280000I-200000J0D01*
G01*
X161317000Y-144280000D01*
G75*
G02*
X161117000Y-144080000I0J200000D01*
G01*
G37*
G36*
G01*
X148190000Y-141540000D02*
X148190000Y-139040000D01*
G75*
G02*
X148390000Y-138840000I200000J0D01*
G01*
X150940000Y-138840000D01*
G75*
G02*
X151140000Y-139040000I0J-200000D01*
G01*
X151140000Y-141540000D01*
G75*
G02*
X150940000Y-141740000I-200000J0D01*
G01*
X148390000Y-141740000D01*
G75*
G02*
X148190000Y-141540000I0J200000D01*
G01*
G37*
D12*
X161830000Y-137750000D03*
X151670000Y-137750000D03*
D13*
X156750000Y-137750000D03*
D14*
X159290000Y-142830000D03*
X152940000Y-140290000D03*
%TD*%
%TO.C,SW6*%
G36*
G01*
X161117000Y-163580000D02*
X161117000Y-161080000D01*
G75*
G02*
X161317000Y-160880000I200000J0D01*
G01*
X163867000Y-160880000D01*
G75*
G02*
X164067000Y-161080000I0J-200000D01*
G01*
X164067000Y-163580000D01*
G75*
G02*
X163867000Y-163780000I-200000J0D01*
G01*
X161317000Y-163780000D01*
G75*
G02*
X161117000Y-163580000I0J200000D01*
G01*
G37*
G36*
G01*
X148190000Y-161040000D02*
X148190000Y-158540000D01*
G75*
G02*
X148390000Y-158340000I200000J0D01*
G01*
X150940000Y-158340000D01*
G75*
G02*
X151140000Y-158540000I0J-200000D01*
G01*
X151140000Y-161040000D01*
G75*
G02*
X150940000Y-161240000I-200000J0D01*
G01*
X148390000Y-161240000D01*
G75*
G02*
X148190000Y-161040000I0J200000D01*
G01*
G37*
D12*
X161830000Y-157250000D03*
X151670000Y-157250000D03*
D13*
X156750000Y-157250000D03*
D14*
X159290000Y-162330000D03*
X152940000Y-159790000D03*
%TD*%
%TO.C,SW5*%
G36*
G01*
X141617000Y-163580000D02*
X141617000Y-161080000D01*
G75*
G02*
X141817000Y-160880000I200000J0D01*
G01*
X144367000Y-160880000D01*
G75*
G02*
X144567000Y-161080000I0J-200000D01*
G01*
X144567000Y-163580000D01*
G75*
G02*
X144367000Y-163780000I-200000J0D01*
G01*
X141817000Y-163780000D01*
G75*
G02*
X141617000Y-163580000I0J200000D01*
G01*
G37*
G36*
G01*
X128690000Y-161040000D02*
X128690000Y-158540000D01*
G75*
G02*
X128890000Y-158340000I200000J0D01*
G01*
X131440000Y-158340000D01*
G75*
G02*
X131640000Y-158540000I0J-200000D01*
G01*
X131640000Y-161040000D01*
G75*
G02*
X131440000Y-161240000I-200000J0D01*
G01*
X128890000Y-161240000D01*
G75*
G02*
X128690000Y-161040000I0J200000D01*
G01*
G37*
D12*
X142330000Y-157250000D03*
X132170000Y-157250000D03*
D13*
X137250000Y-157250000D03*
D14*
X139790000Y-162330000D03*
X133440000Y-159790000D03*
%TD*%
%TO.C,SW1*%
G36*
G01*
X122117000Y-144080000D02*
X122117000Y-141580000D01*
G75*
G02*
X122317000Y-141380000I200000J0D01*
G01*
X124867000Y-141380000D01*
G75*
G02*
X125067000Y-141580000I0J-200000D01*
G01*
X125067000Y-144080000D01*
G75*
G02*
X124867000Y-144280000I-200000J0D01*
G01*
X122317000Y-144280000D01*
G75*
G02*
X122117000Y-144080000I0J200000D01*
G01*
G37*
G36*
G01*
X109190000Y-141540000D02*
X109190000Y-139040000D01*
G75*
G02*
X109390000Y-138840000I200000J0D01*
G01*
X111940000Y-138840000D01*
G75*
G02*
X112140000Y-139040000I0J-200000D01*
G01*
X112140000Y-141540000D01*
G75*
G02*
X111940000Y-141740000I-200000J0D01*
G01*
X109390000Y-141740000D01*
G75*
G02*
X109190000Y-141540000I0J200000D01*
G01*
G37*
D12*
X122830000Y-137750000D03*
X112670000Y-137750000D03*
D13*
X117750000Y-137750000D03*
D14*
X120290000Y-142830000D03*
X113940000Y-140290000D03*
%TD*%
%TO.C,SW4*%
G36*
G01*
X122117000Y-163580000D02*
X122117000Y-161080000D01*
G75*
G02*
X122317000Y-160880000I200000J0D01*
G01*
X124867000Y-160880000D01*
G75*
G02*
X125067000Y-161080000I0J-200000D01*
G01*
X125067000Y-163580000D01*
G75*
G02*
X124867000Y-163780000I-200000J0D01*
G01*
X122317000Y-163780000D01*
G75*
G02*
X122117000Y-163580000I0J200000D01*
G01*
G37*
G36*
G01*
X109190000Y-161040000D02*
X109190000Y-158540000D01*
G75*
G02*
X109390000Y-158340000I200000J0D01*
G01*
X111940000Y-158340000D01*
G75*
G02*
X112140000Y-158540000I0J-200000D01*
G01*
X112140000Y-161040000D01*
G75*
G02*
X111940000Y-161240000I-200000J0D01*
G01*
X109390000Y-161240000D01*
G75*
G02*
X109190000Y-161040000I0J200000D01*
G01*
G37*
D12*
X122830000Y-157250000D03*
X112670000Y-157250000D03*
D13*
X117750000Y-157250000D03*
D14*
X120290000Y-162330000D03*
X113940000Y-159790000D03*
%TD*%
%TO.C,SW2*%
X133440000Y-140290000D03*
X139790000Y-142830000D03*
D13*
X137250000Y-137750000D03*
D12*
X132170000Y-137750000D03*
X142330000Y-137750000D03*
G36*
G01*
X128690000Y-141540000D02*
X128690000Y-139040000D01*
G75*
G02*
X128890000Y-138840000I200000J0D01*
G01*
X131440000Y-138840000D01*
G75*
G02*
X131640000Y-139040000I0J-200000D01*
G01*
X131640000Y-141540000D01*
G75*
G02*
X131440000Y-141740000I-200000J0D01*
G01*
X128890000Y-141740000D01*
G75*
G02*
X128690000Y-141540000I0J200000D01*
G01*
G37*
G36*
G01*
X141617000Y-144080000D02*
X141617000Y-141580000D01*
G75*
G02*
X141817000Y-141380000I200000J0D01*
G01*
X144367000Y-141380000D01*
G75*
G02*
X144567000Y-141580000I0J-200000D01*
G01*
X144567000Y-144080000D01*
G75*
G02*
X144367000Y-144280000I-200000J0D01*
G01*
X141817000Y-144280000D01*
G75*
G02*
X141617000Y-144080000I0J200000D01*
G01*
G37*
%TD*%
%TO.C,U1*%
G36*
G01*
X128830000Y-106030000D02*
X130430000Y-106030000D01*
G75*
G02*
X130630000Y-106230000I0J-200000D01*
G01*
X130630000Y-107830000D01*
G75*
G02*
X130430000Y-108030000I-200000J0D01*
G01*
X128830000Y-108030000D01*
G75*
G02*
X128630000Y-107830000I0J200000D01*
G01*
X128630000Y-106230000D01*
G75*
G02*
X128830000Y-106030000I200000J0D01*
G01*
G37*
D15*
X129630000Y-109570000D03*
X129630000Y-112110000D03*
X129630000Y-114650000D03*
X129630000Y-117190000D03*
X129630000Y-119730000D03*
X129630000Y-122270000D03*
X129630000Y-124810000D03*
X129630000Y-127350000D03*
X129630000Y-129890000D03*
X129630000Y-132430000D03*
X129630000Y-134970000D03*
X144870000Y-134970000D03*
X144870000Y-132430000D03*
X144870000Y-129890000D03*
X144870000Y-127350000D03*
X144870000Y-124810000D03*
X144870000Y-122270000D03*
X144870000Y-119730000D03*
X144870000Y-117190000D03*
X144870000Y-114650000D03*
X144870000Y-112110000D03*
X144870000Y-109570000D03*
X144870000Y-107030000D03*
%TD*%
%TO.C,J1*%
G36*
G01*
X158780000Y-109340000D02*
X158780000Y-111040000D01*
G75*
G02*
X158580000Y-111240000I-200000J0D01*
G01*
X156880000Y-111240000D01*
G75*
G02*
X156680000Y-111040000I0J200000D01*
G01*
X156680000Y-109340000D01*
G75*
G02*
X156880000Y-109140000I200000J0D01*
G01*
X158580000Y-109140000D01*
G75*
G02*
X158780000Y-109340000I0J-200000D01*
G01*
G37*
D16*
X157730000Y-112730000D03*
X157730000Y-115270000D03*
X157730000Y-117810000D03*
%TD*%
D17*
%TO.C,SW7*%
X114750000Y-121000000D03*
X109750000Y-121000000D03*
X114750000Y-106500000D03*
X112250000Y-106500000D03*
X109750000Y-106500000D03*
G36*
G01*
X106200000Y-115350000D02*
X106200000Y-112650000D01*
G75*
G02*
X106400000Y-112450000I200000J0D01*
G01*
X108700000Y-112450000D01*
G75*
G02*
X108900000Y-112650000I0J-200000D01*
G01*
X108900000Y-115350000D01*
G75*
G02*
X108700000Y-115550000I-200000J0D01*
G01*
X106400000Y-115550000D01*
G75*
G02*
X106200000Y-115350000I0J200000D01*
G01*
G37*
G36*
G01*
X115600000Y-115350000D02*
X115600000Y-112650000D01*
G75*
G02*
X115800000Y-112450000I200000J0D01*
G01*
X118100000Y-112450000D01*
G75*
G02*
X118300000Y-112650000I0J-200000D01*
G01*
X118300000Y-115350000D01*
G75*
G02*
X118100000Y-115550000I-200000J0D01*
G01*
X115800000Y-115550000D01*
G75*
G02*
X115600000Y-115350000I0J200000D01*
G01*
G37*
%TD*%
%TO.C,D1*%
G36*
G01*
X123235000Y-146600000D02*
X123235000Y-148400000D01*
G75*
G02*
X123035000Y-148600000I-200000J0D01*
G01*
X121235000Y-148600000D01*
G75*
G02*
X121035000Y-148400000I0J200000D01*
G01*
X121035000Y-146600000D01*
G75*
G02*
X121235000Y-146400000I200000J0D01*
G01*
X123035000Y-146400000D01*
G75*
G02*
X123235000Y-146600000I0J-200000D01*
G01*
G37*
D18*
X114515000Y-147500000D03*
%TD*%
%TO.C,D2*%
X134015000Y-147500000D03*
G36*
G01*
X142735000Y-146600000D02*
X142735000Y-148400000D01*
G75*
G02*
X142535000Y-148600000I-200000J0D01*
G01*
X140735000Y-148600000D01*
G75*
G02*
X140535000Y-148400000I0J200000D01*
G01*
X140535000Y-146600000D01*
G75*
G02*
X140735000Y-146400000I200000J0D01*
G01*
X142535000Y-146400000D01*
G75*
G02*
X142735000Y-146600000I0J-200000D01*
G01*
G37*
%TD*%
%TO.C,D3*%
G36*
G01*
X162235000Y-146600000D02*
X162235000Y-148400000D01*
G75*
G02*
X162035000Y-148600000I-200000J0D01*
G01*
X160235000Y-148600000D01*
G75*
G02*
X160035000Y-148400000I0J200000D01*
G01*
X160035000Y-146600000D01*
G75*
G02*
X160235000Y-146400000I200000J0D01*
G01*
X162035000Y-146400000D01*
G75*
G02*
X162235000Y-146600000I0J-200000D01*
G01*
G37*
X153515000Y-147500000D03*
%TD*%
%TO.C,D4*%
X114515000Y-167000000D03*
G36*
G01*
X123235000Y-166100000D02*
X123235000Y-167900000D01*
G75*
G02*
X123035000Y-168100000I-200000J0D01*
G01*
X121235000Y-168100000D01*
G75*
G02*
X121035000Y-167900000I0J200000D01*
G01*
X121035000Y-166100000D01*
G75*
G02*
X121235000Y-165900000I200000J0D01*
G01*
X123035000Y-165900000D01*
G75*
G02*
X123235000Y-166100000I0J-200000D01*
G01*
G37*
%TD*%
%TO.C,D5*%
G36*
G01*
X142735000Y-166100000D02*
X142735000Y-167900000D01*
G75*
G02*
X142535000Y-168100000I-200000J0D01*
G01*
X140735000Y-168100000D01*
G75*
G02*
X140535000Y-167900000I0J200000D01*
G01*
X140535000Y-166100000D01*
G75*
G02*
X140735000Y-165900000I200000J0D01*
G01*
X142535000Y-165900000D01*
G75*
G02*
X142735000Y-166100000I0J-200000D01*
G01*
G37*
X134015000Y-167000000D03*
%TD*%
%TO.C,D6*%
X153515000Y-167000000D03*
G36*
G01*
X162235000Y-166100000D02*
X162235000Y-167900000D01*
G75*
G02*
X162035000Y-168100000I-200000J0D01*
G01*
X160235000Y-168100000D01*
G75*
G02*
X160035000Y-167900000I0J200000D01*
G01*
X160035000Y-166100000D01*
G75*
G02*
X160235000Y-165900000I200000J0D01*
G01*
X162035000Y-165900000D01*
G75*
G02*
X162235000Y-166100000I0J-200000D01*
G01*
G37*
%TD*%
%TO.C,D7*%
X108712000Y-125984000D03*
G36*
G01*
X117432000Y-125084000D02*
X117432000Y-126884000D01*
G75*
G02*
X117232000Y-127084000I-200000J0D01*
G01*
X115432000Y-127084000D01*
G75*
G02*
X115232000Y-126884000I0J200000D01*
G01*
X115232000Y-125084000D01*
G75*
G02*
X115432000Y-124884000I200000J0D01*
G01*
X117232000Y-124884000D01*
G75*
G02*
X117432000Y-125084000I0J-200000D01*
G01*
G37*
%TD*%
%TO.C,D8*%
G36*
G01*
X165492000Y-129624000D02*
X163692000Y-129624000D01*
G75*
G02*
X163492000Y-129424000I0J200000D01*
G01*
X163492000Y-127624000D01*
G75*
G02*
X163692000Y-127424000I200000J0D01*
G01*
X165492000Y-127424000D01*
G75*
G02*
X165692000Y-127624000I0J-200000D01*
G01*
X165692000Y-129424000D01*
G75*
G02*
X165492000Y-129624000I-200000J0D01*
G01*
G37*
X164592000Y-120904000D03*
%TD*%
D19*
%TO.C,SW8*%
X167250000Y-110750000D03*
X162750000Y-110750000D03*
G36*
G01*
X167999000Y-118199000D02*
X166501000Y-118199000D01*
G75*
G02*
X166301000Y-117999000I0J200000D01*
G01*
X166301000Y-116501000D01*
G75*
G02*
X166501000Y-116301000I200000J0D01*
G01*
X167999000Y-116301000D01*
G75*
G02*
X168199000Y-116501000I0J-200000D01*
G01*
X168199000Y-117999000D01*
G75*
G02*
X167999000Y-118199000I-200000J0D01*
G01*
G37*
X162750000Y-117250000D03*
%TD*%
%TO.C,Reset*%
X161850000Y-107914000D03*
G36*
G01*
X160901000Y-104163000D02*
X160901000Y-102665000D01*
G75*
G02*
X161101000Y-102465000I200000J0D01*
G01*
X162599000Y-102465000D01*
G75*
G02*
X162799000Y-102665000I0J-200000D01*
G01*
X162799000Y-104163000D01*
G75*
G02*
X162599000Y-104363000I-200000J0D01*
G01*
X161101000Y-104363000D01*
G75*
G02*
X160901000Y-104163000I0J200000D01*
G01*
G37*
X168350000Y-107914000D03*
X168350000Y-103414000D03*
%TD*%
D20*
G36*
X161118165Y-161828530D02*
G01*
X161119000Y-161830156D01*
X161119000Y-162829844D01*
X161118000Y-162831576D01*
X161116000Y-162831576D01*
X161115010Y-162830040D01*
X161113109Y-162810730D01*
X161107531Y-162792345D01*
X161098476Y-162775404D01*
X161086290Y-162760555D01*
X161071441Y-162748369D01*
X161054500Y-162739314D01*
X161036115Y-162733736D01*
X161017001Y-162731854D01*
X160997887Y-162733736D01*
X160979502Y-162739314D01*
X160962561Y-162748369D01*
X160947712Y-162760555D01*
X160935526Y-162775404D01*
X160926471Y-162792345D01*
X160922264Y-162806211D01*
X160920804Y-162807578D01*
X160918890Y-162806997D01*
X160918388Y-162805240D01*
X160979814Y-162496430D01*
X160979814Y-162163570D01*
X160918388Y-161854760D01*
X160919031Y-161852866D01*
X160920993Y-161852476D01*
X160922264Y-161853789D01*
X160926471Y-161867655D01*
X160935526Y-161884597D01*
X160947712Y-161899445D01*
X160962561Y-161911631D01*
X160979502Y-161920686D01*
X160997887Y-161926264D01*
X161017001Y-161928146D01*
X161036115Y-161926264D01*
X161054500Y-161920686D01*
X161071442Y-161911631D01*
X161086290Y-161899445D01*
X161098476Y-161884596D01*
X161107531Y-161867655D01*
X161113109Y-161849270D01*
X161115010Y-161829960D01*
X161116175Y-161828334D01*
X161118165Y-161828530D01*
G37*
G36*
X122118165Y-161828530D02*
G01*
X122119000Y-161830156D01*
X122119000Y-162829844D01*
X122118000Y-162831576D01*
X122116000Y-162831576D01*
X122115010Y-162830040D01*
X122113109Y-162810730D01*
X122107531Y-162792345D01*
X122098476Y-162775404D01*
X122086290Y-162760555D01*
X122071441Y-162748369D01*
X122054500Y-162739314D01*
X122036115Y-162733736D01*
X122017001Y-162731854D01*
X121997887Y-162733736D01*
X121979502Y-162739314D01*
X121962561Y-162748369D01*
X121947712Y-162760555D01*
X121935526Y-162775404D01*
X121926471Y-162792345D01*
X121922264Y-162806211D01*
X121920804Y-162807578D01*
X121918890Y-162806997D01*
X121918388Y-162805240D01*
X121979814Y-162496430D01*
X121979814Y-162163570D01*
X121918388Y-161854760D01*
X121919031Y-161852866D01*
X121920993Y-161852476D01*
X121922264Y-161853789D01*
X121926471Y-161867655D01*
X121935526Y-161884597D01*
X121947712Y-161899445D01*
X121962561Y-161911631D01*
X121979502Y-161920686D01*
X121997887Y-161926264D01*
X122017001Y-161928146D01*
X122036115Y-161926264D01*
X122054500Y-161920686D01*
X122071442Y-161911631D01*
X122086290Y-161899445D01*
X122098476Y-161884596D01*
X122107531Y-161867655D01*
X122113109Y-161849270D01*
X122115010Y-161829960D01*
X122116175Y-161828334D01*
X122118165Y-161828530D01*
G37*
G36*
X141618165Y-161828530D02*
G01*
X141619000Y-161830156D01*
X141619000Y-162829844D01*
X141618000Y-162831576D01*
X141616000Y-162831576D01*
X141615010Y-162830040D01*
X141613109Y-162810730D01*
X141607531Y-162792345D01*
X141598476Y-162775404D01*
X141586290Y-162760555D01*
X141571441Y-162748369D01*
X141554500Y-162739314D01*
X141536115Y-162733736D01*
X141517001Y-162731854D01*
X141497887Y-162733736D01*
X141479502Y-162739314D01*
X141462561Y-162748369D01*
X141447712Y-162760555D01*
X141435526Y-162775404D01*
X141426471Y-162792345D01*
X141422264Y-162806211D01*
X141420804Y-162807578D01*
X141418890Y-162806997D01*
X141418388Y-162805240D01*
X141479814Y-162496430D01*
X141479814Y-162163570D01*
X141418388Y-161854760D01*
X141419031Y-161852866D01*
X141420993Y-161852476D01*
X141422264Y-161853789D01*
X141426471Y-161867655D01*
X141435526Y-161884597D01*
X141447712Y-161899445D01*
X141462561Y-161911631D01*
X141479502Y-161920686D01*
X141497887Y-161926264D01*
X141517001Y-161928146D01*
X141536115Y-161926264D01*
X141554500Y-161920686D01*
X141571442Y-161911631D01*
X141586290Y-161899445D01*
X141598476Y-161884596D01*
X141607531Y-161867655D01*
X141613109Y-161849270D01*
X141615010Y-161829960D01*
X141616175Y-161828334D01*
X141618165Y-161828530D01*
G37*
G36*
X151141990Y-159212994D02*
G01*
X151143891Y-159232304D01*
X151149469Y-159250689D01*
X151158524Y-159267630D01*
X151170710Y-159282479D01*
X151185559Y-159294665D01*
X151202500Y-159303720D01*
X151220885Y-159309298D01*
X151239999Y-159311180D01*
X151259113Y-159309298D01*
X151277498Y-159303720D01*
X151294439Y-159294665D01*
X151309288Y-159282479D01*
X151321474Y-159267630D01*
X151328306Y-159254847D01*
X151330005Y-159253791D01*
X151331768Y-159254734D01*
X151331918Y-159256555D01*
X151315125Y-159297098D01*
X151250186Y-159623570D01*
X151250186Y-159956430D01*
X151315125Y-160282902D01*
X151331918Y-160323444D01*
X151331657Y-160325427D01*
X151329809Y-160326192D01*
X151328306Y-160325152D01*
X151321474Y-160312369D01*
X151309288Y-160297521D01*
X151294439Y-160285335D01*
X151277498Y-160276280D01*
X151259113Y-160270702D01*
X151239999Y-160268820D01*
X151220885Y-160270702D01*
X151202500Y-160276280D01*
X151185558Y-160285335D01*
X151170710Y-160297521D01*
X151158524Y-160312370D01*
X151149469Y-160329311D01*
X151143891Y-160347696D01*
X151141990Y-160367006D01*
X151140825Y-160368632D01*
X151138835Y-160368436D01*
X151138000Y-160366810D01*
X151138000Y-159213190D01*
X151139000Y-159211458D01*
X151141000Y-159211458D01*
X151141990Y-159212994D01*
G37*
G36*
X131641990Y-159212994D02*
G01*
X131643891Y-159232304D01*
X131649469Y-159250689D01*
X131658524Y-159267630D01*
X131670710Y-159282479D01*
X131685559Y-159294665D01*
X131702500Y-159303720D01*
X131720885Y-159309298D01*
X131739999Y-159311180D01*
X131759113Y-159309298D01*
X131777498Y-159303720D01*
X131794439Y-159294665D01*
X131809288Y-159282479D01*
X131821474Y-159267630D01*
X131828306Y-159254847D01*
X131830005Y-159253791D01*
X131831768Y-159254734D01*
X131831918Y-159256555D01*
X131815125Y-159297098D01*
X131750186Y-159623570D01*
X131750186Y-159956430D01*
X131815125Y-160282902D01*
X131831918Y-160323444D01*
X131831657Y-160325427D01*
X131829809Y-160326192D01*
X131828306Y-160325152D01*
X131821474Y-160312369D01*
X131809288Y-160297521D01*
X131794439Y-160285335D01*
X131777498Y-160276280D01*
X131759113Y-160270702D01*
X131739999Y-160268820D01*
X131720885Y-160270702D01*
X131702500Y-160276280D01*
X131685558Y-160285335D01*
X131670710Y-160297521D01*
X131658524Y-160312370D01*
X131649469Y-160329311D01*
X131643891Y-160347696D01*
X131641990Y-160367006D01*
X131640825Y-160368632D01*
X131638835Y-160368436D01*
X131638000Y-160366810D01*
X131638000Y-159213190D01*
X131639000Y-159211458D01*
X131641000Y-159211458D01*
X131641990Y-159212994D01*
G37*
G36*
X112141990Y-159212994D02*
G01*
X112143891Y-159232304D01*
X112149469Y-159250689D01*
X112158524Y-159267630D01*
X112170710Y-159282479D01*
X112185559Y-159294665D01*
X112202500Y-159303720D01*
X112220885Y-159309298D01*
X112239999Y-159311180D01*
X112259113Y-159309298D01*
X112277498Y-159303720D01*
X112294439Y-159294665D01*
X112309288Y-159282479D01*
X112321474Y-159267630D01*
X112328306Y-159254847D01*
X112330005Y-159253791D01*
X112331768Y-159254734D01*
X112331918Y-159256555D01*
X112315125Y-159297098D01*
X112250186Y-159623570D01*
X112250186Y-159956430D01*
X112315125Y-160282902D01*
X112331918Y-160323444D01*
X112331657Y-160325427D01*
X112329809Y-160326192D01*
X112328306Y-160325152D01*
X112321474Y-160312369D01*
X112309288Y-160297521D01*
X112294439Y-160285335D01*
X112277498Y-160276280D01*
X112259113Y-160270702D01*
X112239999Y-160268820D01*
X112220885Y-160270702D01*
X112202500Y-160276280D01*
X112185558Y-160285335D01*
X112170710Y-160297521D01*
X112158524Y-160312370D01*
X112149469Y-160329311D01*
X112143891Y-160347696D01*
X112141990Y-160367006D01*
X112140825Y-160368632D01*
X112138835Y-160368436D01*
X112138000Y-160366810D01*
X112138000Y-159213190D01*
X112139000Y-159211458D01*
X112141000Y-159211458D01*
X112141990Y-159212994D01*
G37*
G36*
X152456321Y-157978052D02*
G01*
X152455935Y-157979839D01*
X152446740Y-157991043D01*
X152437685Y-158007984D01*
X152432107Y-158026369D01*
X152430225Y-158045483D01*
X152432107Y-158064597D01*
X152437685Y-158082982D01*
X152446740Y-158099923D01*
X152458926Y-158114772D01*
X152473775Y-158126958D01*
X152490716Y-158136013D01*
X152509101Y-158141591D01*
X152528215Y-158143473D01*
X152542636Y-158142053D01*
X152544458Y-158142878D01*
X152544654Y-158144868D01*
X152543222Y-158146005D01*
X152447098Y-158165125D01*
X152139573Y-158292507D01*
X151862805Y-158477436D01*
X151852578Y-158487663D01*
X151850646Y-158488181D01*
X151849232Y-158486767D01*
X151849618Y-158484980D01*
X151858809Y-158473781D01*
X151867864Y-158456840D01*
X151873442Y-158438455D01*
X151875324Y-158419341D01*
X151873442Y-158400227D01*
X151867864Y-158381842D01*
X151858809Y-158364901D01*
X151846623Y-158350052D01*
X151831774Y-158337866D01*
X151814833Y-158328811D01*
X151796448Y-158323233D01*
X151777444Y-158321362D01*
X151775818Y-158320197D01*
X151776014Y-158318207D01*
X151777250Y-158317410D01*
X151981474Y-158276787D01*
X152175804Y-158196292D01*
X152350699Y-158079432D01*
X152452975Y-157977156D01*
X152454907Y-157976638D01*
X152456321Y-157978052D01*
G37*
G36*
X113456321Y-157978052D02*
G01*
X113455935Y-157979839D01*
X113446740Y-157991043D01*
X113437685Y-158007984D01*
X113432107Y-158026369D01*
X113430225Y-158045483D01*
X113432107Y-158064597D01*
X113437685Y-158082982D01*
X113446740Y-158099923D01*
X113458926Y-158114772D01*
X113473775Y-158126958D01*
X113490716Y-158136013D01*
X113509101Y-158141591D01*
X113528215Y-158143473D01*
X113542636Y-158142053D01*
X113544458Y-158142878D01*
X113544654Y-158144868D01*
X113543222Y-158146005D01*
X113447098Y-158165125D01*
X113139573Y-158292507D01*
X112862805Y-158477436D01*
X112852578Y-158487663D01*
X112850646Y-158488181D01*
X112849232Y-158486767D01*
X112849618Y-158484980D01*
X112858809Y-158473781D01*
X112867864Y-158456840D01*
X112873442Y-158438455D01*
X112875324Y-158419341D01*
X112873442Y-158400227D01*
X112867864Y-158381842D01*
X112858809Y-158364901D01*
X112846623Y-158350052D01*
X112831774Y-158337866D01*
X112814833Y-158328811D01*
X112796448Y-158323233D01*
X112777444Y-158321362D01*
X112775818Y-158320197D01*
X112776014Y-158318207D01*
X112777250Y-158317410D01*
X112981474Y-158276787D01*
X113175804Y-158196292D01*
X113350699Y-158079432D01*
X113452975Y-157977156D01*
X113454907Y-157976638D01*
X113456321Y-157978052D01*
G37*
G36*
X132956321Y-157978052D02*
G01*
X132955935Y-157979839D01*
X132946740Y-157991043D01*
X132937685Y-158007984D01*
X132932107Y-158026369D01*
X132930225Y-158045483D01*
X132932107Y-158064597D01*
X132937685Y-158082982D01*
X132946740Y-158099923D01*
X132958926Y-158114772D01*
X132973775Y-158126958D01*
X132990716Y-158136013D01*
X133009101Y-158141591D01*
X133028215Y-158143473D01*
X133042636Y-158142053D01*
X133044458Y-158142878D01*
X133044654Y-158144868D01*
X133043222Y-158146005D01*
X132947098Y-158165125D01*
X132639573Y-158292507D01*
X132362805Y-158477436D01*
X132352578Y-158487663D01*
X132350646Y-158488181D01*
X132349232Y-158486767D01*
X132349618Y-158484980D01*
X132358809Y-158473781D01*
X132367864Y-158456840D01*
X132373442Y-158438455D01*
X132375324Y-158419341D01*
X132373442Y-158400227D01*
X132367864Y-158381842D01*
X132358809Y-158364901D01*
X132346623Y-158350052D01*
X132331774Y-158337866D01*
X132314833Y-158328811D01*
X132296448Y-158323233D01*
X132277444Y-158321362D01*
X132275818Y-158320197D01*
X132276014Y-158318207D01*
X132277250Y-158317410D01*
X132481474Y-158276787D01*
X132675804Y-158196292D01*
X132850699Y-158079432D01*
X132952975Y-157977156D01*
X132954907Y-157976638D01*
X132956321Y-157978052D01*
G37*
G36*
X141618165Y-142328530D02*
G01*
X141619000Y-142330156D01*
X141619000Y-143329844D01*
X141618000Y-143331576D01*
X141616000Y-143331576D01*
X141615010Y-143330040D01*
X141613109Y-143310730D01*
X141607531Y-143292345D01*
X141598476Y-143275404D01*
X141586290Y-143260555D01*
X141571441Y-143248369D01*
X141554500Y-143239314D01*
X141536115Y-143233736D01*
X141517001Y-143231854D01*
X141497887Y-143233736D01*
X141479502Y-143239314D01*
X141462561Y-143248369D01*
X141447712Y-143260555D01*
X141435526Y-143275404D01*
X141426471Y-143292345D01*
X141422264Y-143306211D01*
X141420804Y-143307578D01*
X141418890Y-143306997D01*
X141418388Y-143305240D01*
X141479814Y-142996430D01*
X141479814Y-142663570D01*
X141418388Y-142354760D01*
X141419031Y-142352866D01*
X141420993Y-142352476D01*
X141422264Y-142353789D01*
X141426471Y-142367655D01*
X141435526Y-142384597D01*
X141447712Y-142399445D01*
X141462561Y-142411631D01*
X141479502Y-142420686D01*
X141497887Y-142426264D01*
X141517001Y-142428146D01*
X141536115Y-142426264D01*
X141554500Y-142420686D01*
X141571442Y-142411631D01*
X141586290Y-142399445D01*
X141598476Y-142384596D01*
X141607531Y-142367655D01*
X141613109Y-142349270D01*
X141615010Y-142329960D01*
X141616175Y-142328334D01*
X141618165Y-142328530D01*
G37*
G36*
X161118165Y-142328530D02*
G01*
X161119000Y-142330156D01*
X161119000Y-143329844D01*
X161118000Y-143331576D01*
X161116000Y-143331576D01*
X161115010Y-143330040D01*
X161113109Y-143310730D01*
X161107531Y-143292345D01*
X161098476Y-143275404D01*
X161086290Y-143260555D01*
X161071441Y-143248369D01*
X161054500Y-143239314D01*
X161036115Y-143233736D01*
X161017001Y-143231854D01*
X160997887Y-143233736D01*
X160979502Y-143239314D01*
X160962561Y-143248369D01*
X160947712Y-143260555D01*
X160935526Y-143275404D01*
X160926471Y-143292345D01*
X160922264Y-143306211D01*
X160920804Y-143307578D01*
X160918890Y-143306997D01*
X160918388Y-143305240D01*
X160979814Y-142996430D01*
X160979814Y-142663570D01*
X160918388Y-142354760D01*
X160919031Y-142352866D01*
X160920993Y-142352476D01*
X160922264Y-142353789D01*
X160926471Y-142367655D01*
X160935526Y-142384597D01*
X160947712Y-142399445D01*
X160962561Y-142411631D01*
X160979502Y-142420686D01*
X160997887Y-142426264D01*
X161017001Y-142428146D01*
X161036115Y-142426264D01*
X161054500Y-142420686D01*
X161071442Y-142411631D01*
X161086290Y-142399445D01*
X161098476Y-142384596D01*
X161107531Y-142367655D01*
X161113109Y-142349270D01*
X161115010Y-142329960D01*
X161116175Y-142328334D01*
X161118165Y-142328530D01*
G37*
G36*
X122118165Y-142328530D02*
G01*
X122119000Y-142330156D01*
X122119000Y-143329844D01*
X122118000Y-143331576D01*
X122116000Y-143331576D01*
X122115010Y-143330040D01*
X122113109Y-143310730D01*
X122107531Y-143292345D01*
X122098476Y-143275404D01*
X122086290Y-143260555D01*
X122071441Y-143248369D01*
X122054500Y-143239314D01*
X122036115Y-143233736D01*
X122017001Y-143231854D01*
X121997887Y-143233736D01*
X121979502Y-143239314D01*
X121962561Y-143248369D01*
X121947712Y-143260555D01*
X121935526Y-143275404D01*
X121926471Y-143292345D01*
X121922264Y-143306211D01*
X121920804Y-143307578D01*
X121918890Y-143306997D01*
X121918388Y-143305240D01*
X121979814Y-142996430D01*
X121979814Y-142663570D01*
X121918388Y-142354760D01*
X121919031Y-142352866D01*
X121920993Y-142352476D01*
X121922264Y-142353789D01*
X121926471Y-142367655D01*
X121935526Y-142384597D01*
X121947712Y-142399445D01*
X121962561Y-142411631D01*
X121979502Y-142420686D01*
X121997887Y-142426264D01*
X122017001Y-142428146D01*
X122036115Y-142426264D01*
X122054500Y-142420686D01*
X122071442Y-142411631D01*
X122086290Y-142399445D01*
X122098476Y-142384596D01*
X122107531Y-142367655D01*
X122113109Y-142349270D01*
X122115010Y-142329960D01*
X122116175Y-142328334D01*
X122118165Y-142328530D01*
G37*
G36*
X131641990Y-139712994D02*
G01*
X131643891Y-139732304D01*
X131649469Y-139750689D01*
X131658524Y-139767630D01*
X131670710Y-139782479D01*
X131685559Y-139794665D01*
X131702500Y-139803720D01*
X131720885Y-139809298D01*
X131739999Y-139811180D01*
X131759113Y-139809298D01*
X131777498Y-139803720D01*
X131794439Y-139794665D01*
X131809288Y-139782479D01*
X131821474Y-139767630D01*
X131828306Y-139754847D01*
X131830005Y-139753791D01*
X131831768Y-139754734D01*
X131831918Y-139756555D01*
X131815125Y-139797098D01*
X131750186Y-140123570D01*
X131750186Y-140456430D01*
X131815125Y-140782902D01*
X131831918Y-140823444D01*
X131831657Y-140825427D01*
X131829809Y-140826192D01*
X131828306Y-140825152D01*
X131821474Y-140812369D01*
X131809288Y-140797521D01*
X131794439Y-140785335D01*
X131777498Y-140776280D01*
X131759113Y-140770702D01*
X131739999Y-140768820D01*
X131720885Y-140770702D01*
X131702500Y-140776280D01*
X131685558Y-140785335D01*
X131670710Y-140797521D01*
X131658524Y-140812370D01*
X131649469Y-140829311D01*
X131643891Y-140847696D01*
X131641990Y-140867006D01*
X131640825Y-140868632D01*
X131638835Y-140868436D01*
X131638000Y-140866810D01*
X131638000Y-139713190D01*
X131639000Y-139711458D01*
X131641000Y-139711458D01*
X131641990Y-139712994D01*
G37*
G36*
X112141990Y-139712994D02*
G01*
X112143891Y-139732304D01*
X112149469Y-139750689D01*
X112158524Y-139767630D01*
X112170710Y-139782479D01*
X112185559Y-139794665D01*
X112202500Y-139803720D01*
X112220885Y-139809298D01*
X112239999Y-139811180D01*
X112259113Y-139809298D01*
X112277498Y-139803720D01*
X112294439Y-139794665D01*
X112309288Y-139782479D01*
X112321474Y-139767630D01*
X112328306Y-139754847D01*
X112330005Y-139753791D01*
X112331768Y-139754734D01*
X112331918Y-139756555D01*
X112315125Y-139797098D01*
X112250186Y-140123570D01*
X112250186Y-140456430D01*
X112315125Y-140782902D01*
X112331918Y-140823444D01*
X112331657Y-140825427D01*
X112329809Y-140826192D01*
X112328306Y-140825152D01*
X112321474Y-140812369D01*
X112309288Y-140797521D01*
X112294439Y-140785335D01*
X112277498Y-140776280D01*
X112259113Y-140770702D01*
X112239999Y-140768820D01*
X112220885Y-140770702D01*
X112202500Y-140776280D01*
X112185558Y-140785335D01*
X112170710Y-140797521D01*
X112158524Y-140812370D01*
X112149469Y-140829311D01*
X112143891Y-140847696D01*
X112141990Y-140867006D01*
X112140825Y-140868632D01*
X112138835Y-140868436D01*
X112138000Y-140866810D01*
X112138000Y-139713190D01*
X112139000Y-139711458D01*
X112141000Y-139711458D01*
X112141990Y-139712994D01*
G37*
G36*
X151141990Y-139712994D02*
G01*
X151143891Y-139732304D01*
X151149469Y-139750689D01*
X151158524Y-139767630D01*
X151170710Y-139782479D01*
X151185559Y-139794665D01*
X151202500Y-139803720D01*
X151220885Y-139809298D01*
X151239999Y-139811180D01*
X151259113Y-139809298D01*
X151277498Y-139803720D01*
X151294439Y-139794665D01*
X151309288Y-139782479D01*
X151321474Y-139767630D01*
X151328306Y-139754847D01*
X151330005Y-139753791D01*
X151331768Y-139754734D01*
X151331918Y-139756555D01*
X151315125Y-139797098D01*
X151250186Y-140123570D01*
X151250186Y-140456430D01*
X151315125Y-140782902D01*
X151331918Y-140823444D01*
X151331657Y-140825427D01*
X151329809Y-140826192D01*
X151328306Y-140825152D01*
X151321474Y-140812369D01*
X151309288Y-140797521D01*
X151294439Y-140785335D01*
X151277498Y-140776280D01*
X151259113Y-140770702D01*
X151239999Y-140768820D01*
X151220885Y-140770702D01*
X151202500Y-140776280D01*
X151185558Y-140785335D01*
X151170710Y-140797521D01*
X151158524Y-140812370D01*
X151149469Y-140829311D01*
X151143891Y-140847696D01*
X151141990Y-140867006D01*
X151140825Y-140868632D01*
X151138835Y-140868436D01*
X151138000Y-140866810D01*
X151138000Y-139713190D01*
X151139000Y-139711458D01*
X151141000Y-139711458D01*
X151141990Y-139712994D01*
G37*
G36*
X132956321Y-138478052D02*
G01*
X132955935Y-138479839D01*
X132946740Y-138491043D01*
X132937685Y-138507984D01*
X132932107Y-138526369D01*
X132930225Y-138545483D01*
X132932107Y-138564597D01*
X132937685Y-138582982D01*
X132946740Y-138599923D01*
X132958926Y-138614772D01*
X132973775Y-138626958D01*
X132990716Y-138636013D01*
X133009101Y-138641591D01*
X133028215Y-138643473D01*
X133042636Y-138642053D01*
X133044458Y-138642878D01*
X133044654Y-138644868D01*
X133043222Y-138646005D01*
X132947098Y-138665125D01*
X132639573Y-138792507D01*
X132362805Y-138977436D01*
X132352578Y-138987663D01*
X132350646Y-138988181D01*
X132349232Y-138986767D01*
X132349618Y-138984980D01*
X132358809Y-138973781D01*
X132367864Y-138956840D01*
X132373442Y-138938455D01*
X132375324Y-138919341D01*
X132373442Y-138900227D01*
X132367864Y-138881842D01*
X132358809Y-138864901D01*
X132346623Y-138850052D01*
X132331774Y-138837866D01*
X132314833Y-138828811D01*
X132296448Y-138823233D01*
X132277444Y-138821362D01*
X132275818Y-138820197D01*
X132276014Y-138818207D01*
X132277250Y-138817410D01*
X132481474Y-138776787D01*
X132675804Y-138696292D01*
X132850699Y-138579432D01*
X132952975Y-138477156D01*
X132954907Y-138476638D01*
X132956321Y-138478052D01*
G37*
G36*
X152456321Y-138478052D02*
G01*
X152455935Y-138479839D01*
X152446740Y-138491043D01*
X152437685Y-138507984D01*
X152432107Y-138526369D01*
X152430225Y-138545483D01*
X152432107Y-138564597D01*
X152437685Y-138582982D01*
X152446740Y-138599923D01*
X152458926Y-138614772D01*
X152473775Y-138626958D01*
X152490716Y-138636013D01*
X152509101Y-138641591D01*
X152528215Y-138643473D01*
X152542636Y-138642053D01*
X152544458Y-138642878D01*
X152544654Y-138644868D01*
X152543222Y-138646005D01*
X152447098Y-138665125D01*
X152139573Y-138792507D01*
X151862805Y-138977436D01*
X151852578Y-138987663D01*
X151850646Y-138988181D01*
X151849232Y-138986767D01*
X151849618Y-138984980D01*
X151858809Y-138973781D01*
X151867864Y-138956840D01*
X151873442Y-138938455D01*
X151875324Y-138919341D01*
X151873442Y-138900227D01*
X151867864Y-138881842D01*
X151858809Y-138864901D01*
X151846623Y-138850052D01*
X151831774Y-138837866D01*
X151814833Y-138828811D01*
X151796448Y-138823233D01*
X151777444Y-138821362D01*
X151775818Y-138820197D01*
X151776014Y-138818207D01*
X151777250Y-138817410D01*
X151981474Y-138776787D01*
X152175804Y-138696292D01*
X152350699Y-138579432D01*
X152452975Y-138477156D01*
X152454907Y-138476638D01*
X152456321Y-138478052D01*
G37*
G36*
X113456321Y-138478052D02*
G01*
X113455935Y-138479839D01*
X113446740Y-138491043D01*
X113437685Y-138507984D01*
X113432107Y-138526369D01*
X113430225Y-138545483D01*
X113432107Y-138564597D01*
X113437685Y-138582982D01*
X113446740Y-138599923D01*
X113458926Y-138614772D01*
X113473775Y-138626958D01*
X113490716Y-138636013D01*
X113509101Y-138641591D01*
X113528215Y-138643473D01*
X113542636Y-138642053D01*
X113544458Y-138642878D01*
X113544654Y-138644868D01*
X113543222Y-138646005D01*
X113447098Y-138665125D01*
X113139573Y-138792507D01*
X112862805Y-138977436D01*
X112852578Y-138987663D01*
X112850646Y-138988181D01*
X112849232Y-138986767D01*
X112849618Y-138984980D01*
X112858809Y-138973781D01*
X112867864Y-138956840D01*
X112873442Y-138938455D01*
X112875324Y-138919341D01*
X112873442Y-138900227D01*
X112867864Y-138881842D01*
X112858809Y-138864901D01*
X112846623Y-138850052D01*
X112831774Y-138837866D01*
X112814833Y-138828811D01*
X112796448Y-138823233D01*
X112777444Y-138821362D01*
X112775818Y-138820197D01*
X112776014Y-138818207D01*
X112777250Y-138817410D01*
X112981474Y-138776787D01*
X113175804Y-138696292D01*
X113350699Y-138579432D01*
X113452975Y-138477156D01*
X113454907Y-138476638D01*
X113456321Y-138478052D01*
G37*
M02*
