%TF.GenerationSoftware,KiCad,Pcbnew,5.1.9-73d0e3b20d~88~ubuntu20.10.1*%
%TF.CreationDate,2021-04-11T15:17:01-07:00*%
%TF.ProjectId,macropad-v2_0_0,6d616372-6f70-4616-942d-76325f305f30,rev?*%
%TF.SameCoordinates,Original*%
%TF.FileFunction,Copper,L1,Top*%
%TF.FilePolarity,Positive*%
%FSLAX46Y46*%
G04 Gerber Fmt 4.6, Leading zero omitted, Abs format (unit mm)*
G04 Created by KiCad (PCBNEW 5.1.9-73d0e3b20d~88~ubuntu20.10.1) date 2021-04-11 15:17:01*
%MOMM*%
%LPD*%
G01*
G04 APERTURE LIST*
%TA.AperFunction,NonConductor*%
%ADD10C,0.300000*%
%TD*%
%TA.AperFunction,EtchedComponent*%
%ADD11C,0.010000*%
%TD*%
%TA.AperFunction,SMDPad,CuDef*%
%ADD12R,2.550000X2.500000*%
%TD*%
%TA.AperFunction,ComponentPad*%
%ADD13R,1.600000X1.600000*%
%TD*%
%TA.AperFunction,ComponentPad*%
%ADD14C,1.600000*%
%TD*%
%TA.AperFunction,ComponentPad*%
%ADD15R,1.700000X1.700000*%
%TD*%
%TA.AperFunction,ComponentPad*%
%ADD16O,1.700000X1.700000*%
%TD*%
%TA.AperFunction,ComponentPad*%
%ADD17C,1.524000*%
%TD*%
%TA.AperFunction,ComponentPad*%
%ADD18R,2.300000X2.700000*%
%TD*%
%TA.AperFunction,ComponentPad*%
%ADD19R,1.800000X1.800000*%
%TD*%
%TA.AperFunction,ComponentPad*%
%ADD20O,1.800000X1.800000*%
%TD*%
%TA.AperFunction,ComponentPad*%
%ADD21C,1.498000*%
%TD*%
%TA.AperFunction,ComponentPad*%
%ADD22R,1.498000X1.498000*%
%TD*%
%TA.AperFunction,Conductor*%
%ADD23C,0.250000*%
%TD*%
%TA.AperFunction,Conductor*%
%ADD24C,0.254000*%
%TD*%
%TA.AperFunction,Conductor*%
%ADD25C,0.100000*%
%TD*%
G04 APERTURE END LIST*
D10*
X103818571Y-147486285D02*
X104818571Y-147129142D01*
X103818571Y-146772000D01*
X103461428Y-146272000D02*
X103390000Y-146200571D01*
X103318571Y-146057714D01*
X103318571Y-145700571D01*
X103390000Y-145557714D01*
X103461428Y-145486285D01*
X103604285Y-145414857D01*
X103747142Y-145414857D01*
X103961428Y-145486285D01*
X104818571Y-146343428D01*
X104818571Y-145414857D01*
X104675714Y-144772000D02*
X104747142Y-144700571D01*
X104818571Y-144772000D01*
X104747142Y-144843428D01*
X104675714Y-144772000D01*
X104818571Y-144772000D01*
X103318571Y-143772000D02*
X103318571Y-143629142D01*
X103390000Y-143486285D01*
X103461428Y-143414857D01*
X103604285Y-143343428D01*
X103890000Y-143272000D01*
X104247142Y-143272000D01*
X104532857Y-143343428D01*
X104675714Y-143414857D01*
X104747142Y-143486285D01*
X104818571Y-143629142D01*
X104818571Y-143772000D01*
X104747142Y-143914857D01*
X104675714Y-143986285D01*
X104532857Y-144057714D01*
X104247142Y-144129142D01*
X103890000Y-144129142D01*
X103604285Y-144057714D01*
X103461428Y-143986285D01*
X103390000Y-143914857D01*
X103318571Y-143772000D01*
X104675714Y-142629142D02*
X104747142Y-142557714D01*
X104818571Y-142629142D01*
X104747142Y-142700571D01*
X104675714Y-142629142D01*
X104818571Y-142629142D01*
X103318571Y-141629142D02*
X103318571Y-141486285D01*
X103390000Y-141343428D01*
X103461428Y-141272000D01*
X103604285Y-141200571D01*
X103890000Y-141129142D01*
X104247142Y-141129142D01*
X104532857Y-141200571D01*
X104675714Y-141272000D01*
X104747142Y-141343428D01*
X104818571Y-141486285D01*
X104818571Y-141629142D01*
X104747142Y-141772000D01*
X104675714Y-141843428D01*
X104532857Y-141914857D01*
X104247142Y-141986285D01*
X103890000Y-141986285D01*
X103604285Y-141914857D01*
X103461428Y-141843428D01*
X103390000Y-141772000D01*
X103318571Y-141629142D01*
D11*
%TO.C,Ref\u002A\u002A*%
G36*
X161745333Y-129995333D02*
G01*
X151754667Y-129995333D01*
X151754667Y-120639667D01*
X152389667Y-120639667D01*
X152389667Y-129360333D01*
X161110333Y-129360333D01*
X161110333Y-120639667D01*
X152389667Y-120639667D01*
X151754667Y-120639667D01*
X151754667Y-120004667D01*
X161745333Y-120004667D01*
X161745333Y-129995333D01*
G37*
X161745333Y-129995333D02*
X151754667Y-129995333D01*
X151754667Y-120639667D01*
X152389667Y-120639667D01*
X152389667Y-129360333D01*
X161110333Y-129360333D01*
X161110333Y-120639667D01*
X152389667Y-120639667D01*
X151754667Y-120639667D01*
X151754667Y-120004667D01*
X161745333Y-120004667D01*
X161745333Y-129995333D01*
%TD*%
D12*
%TO.P,SW3,2*%
%TO.N,Col_2*%
X162592000Y-142830000D03*
%TO.P,SW3,1*%
%TO.N,Net-(D3-Pad2)*%
X149665000Y-140290000D03*
%TD*%
%TO.P,SW6,2*%
%TO.N,Col_2*%
X162592000Y-162330000D03*
%TO.P,SW6,1*%
%TO.N,Net-(D6-Pad2)*%
X149665000Y-159790000D03*
%TD*%
%TO.P,SW5,2*%
%TO.N,Col_1*%
X143092000Y-162330000D03*
%TO.P,SW5,1*%
%TO.N,Net-(D5-Pad2)*%
X130165000Y-159790000D03*
%TD*%
%TO.P,SW1,2*%
%TO.N,Col_0*%
X123592000Y-142830000D03*
%TO.P,SW1,1*%
%TO.N,Net-(D1-Pad2)*%
X110665000Y-140290000D03*
%TD*%
%TO.P,SW4,2*%
%TO.N,Col_0*%
X123592000Y-162330000D03*
%TO.P,SW4,1*%
%TO.N,Net-(D4-Pad2)*%
X110665000Y-159790000D03*
%TD*%
%TO.P,SW2,1*%
%TO.N,Net-(D2-Pad2)*%
X130165000Y-140290000D03*
%TO.P,SW2,2*%
%TO.N,Col_1*%
X143092000Y-142830000D03*
%TD*%
D13*
%TO.P,U1,1*%
%TO.N,Net-(U1-Pad1)*%
X129630000Y-107030000D03*
D14*
%TO.P,U1,2*%
%TO.N,Net-(U1-Pad2)*%
X129630000Y-109570000D03*
%TO.P,U1,3*%
%TO.N,GND*%
X129630000Y-112110000D03*
%TO.P,U1,4*%
X129630000Y-114650000D03*
%TO.P,U1,5*%
%TO.N,Net-(J1-Pad1)*%
X129630000Y-117190000D03*
%TO.P,U1,6*%
%TO.N,Net-(J1-Pad2)*%
X129630000Y-119730000D03*
%TO.P,U1,7*%
%TO.N,Col_2*%
X129630000Y-122270000D03*
%TO.P,U1,8*%
%TO.N,Col_1*%
X129630000Y-124810000D03*
%TO.P,U1,9*%
%TO.N,Row_Extra*%
X129630000Y-127350000D03*
%TO.P,U1,10*%
%TO.N,Col_0*%
X129630000Y-129890000D03*
%TO.P,U1,11*%
%TO.N,Row_0*%
X129630000Y-132430000D03*
%TO.P,U1,12*%
%TO.N,Row_1*%
X129630000Y-134970000D03*
%TO.P,U1,13*%
%TO.N,Net-(U1-Pad13)*%
X144870000Y-134970000D03*
%TO.P,U1,14*%
%TO.N,Net-(U1-Pad14)*%
X144870000Y-132430000D03*
%TO.P,U1,15*%
%TO.N,Net-(SW7-PadA)*%
X144870000Y-129890000D03*
%TO.P,U1,16*%
%TO.N,Net-(SW7-PadB)*%
X144870000Y-127350000D03*
%TO.P,U1,17*%
%TO.N,Net-(U1-Pad17)*%
X144870000Y-124810000D03*
%TO.P,U1,18*%
%TO.N,Net-(U1-Pad18)*%
X144870000Y-122270000D03*
%TO.P,U1,19*%
%TO.N,Net-(U1-Pad19)*%
X144870000Y-119730000D03*
%TO.P,U1,20*%
%TO.N,Net-(U1-Pad20)*%
X144870000Y-117190000D03*
%TO.P,U1,21*%
%TO.N,VCC*%
X144870000Y-114650000D03*
%TO.P,U1,22*%
%TO.N,Net-(SW9-Pad1)*%
X144870000Y-112110000D03*
%TO.P,U1,23*%
%TO.N,GND*%
X144870000Y-109570000D03*
%TO.P,U1,24*%
%TO.N,Net-(U1-Pad24)*%
X144870000Y-107030000D03*
%TD*%
D15*
%TO.P,J1,1*%
%TO.N,Net-(J1-Pad1)*%
X157730000Y-110190000D03*
D16*
%TO.P,J1,2*%
%TO.N,Net-(J1-Pad2)*%
X157730000Y-112730000D03*
%TO.P,J1,3*%
%TO.N,VCC*%
X157730000Y-115270000D03*
%TO.P,J1,4*%
%TO.N,GND*%
X157730000Y-117810000D03*
%TD*%
D17*
%TO.P,SW7,S2*%
%TO.N,Col_1*%
X114750000Y-121000000D03*
%TO.P,SW7,S1*%
%TO.N,Encoder_S1*%
X109750000Y-121000000D03*
%TO.P,SW7,B*%
%TO.N,Net-(SW7-PadB)*%
X114750000Y-106500000D03*
%TO.P,SW7,C*%
%TO.N,GND*%
X112250000Y-106500000D03*
%TO.P,SW7,A*%
%TO.N,Net-(SW7-PadA)*%
X109750000Y-106500000D03*
D18*
%TO.P,SW7,MP*%
%TO.N,N/C*%
X107550000Y-114000000D03*
X116950000Y-114000000D03*
%TD*%
D19*
%TO.P,D1,1*%
%TO.N,Row_0*%
X122135000Y-147500000D03*
D20*
%TO.P,D1,2*%
%TO.N,Net-(D1-Pad2)*%
X114515000Y-147500000D03*
%TD*%
%TO.P,D2,2*%
%TO.N,Net-(D2-Pad2)*%
X134015000Y-147500000D03*
D19*
%TO.P,D2,1*%
%TO.N,Row_0*%
X141635000Y-147500000D03*
%TD*%
%TO.P,D3,1*%
%TO.N,Row_0*%
X161135000Y-147500000D03*
D20*
%TO.P,D3,2*%
%TO.N,Net-(D3-Pad2)*%
X153515000Y-147500000D03*
%TD*%
%TO.P,D4,2*%
%TO.N,Net-(D4-Pad2)*%
X114515000Y-167000000D03*
D19*
%TO.P,D4,1*%
%TO.N,Row_1*%
X122135000Y-167000000D03*
%TD*%
%TO.P,D5,1*%
%TO.N,Row_1*%
X141635000Y-167000000D03*
D20*
%TO.P,D5,2*%
%TO.N,Net-(D5-Pad2)*%
X134015000Y-167000000D03*
%TD*%
%TO.P,D6,2*%
%TO.N,Net-(D6-Pad2)*%
X153515000Y-167000000D03*
D19*
%TO.P,D6,1*%
%TO.N,Row_1*%
X161135000Y-167000000D03*
%TD*%
D20*
%TO.P,D7,2*%
%TO.N,Encoder_S1*%
X108712000Y-125984000D03*
D19*
%TO.P,D7,1*%
%TO.N,Row_Extra*%
X116332000Y-125984000D03*
%TD*%
%TO.P,D8,1*%
%TO.N,Row_Extra*%
X164592000Y-128524000D03*
D20*
%TO.P,D8,2*%
%TO.N,Net-(D8-Pad2)*%
X164592000Y-120904000D03*
%TD*%
D21*
%TO.P,SW8,2*%
%TO.N,Col_2*%
X167250000Y-110750000D03*
%TO.P,SW8,4*%
%TO.N,Net-(D8-Pad2)*%
X162750000Y-110750000D03*
D22*
%TO.P,SW8,1*%
%TO.N,Col_2*%
X167250000Y-117250000D03*
D21*
%TO.P,SW8,3*%
%TO.N,Net-(D8-Pad2)*%
X162750000Y-117250000D03*
%TD*%
%TO.P,Reset,3*%
%TO.N,GND*%
X161850000Y-107914000D03*
D22*
%TO.P,Reset,1*%
%TO.N,Net-(SW9-Pad1)*%
X161850000Y-103414000D03*
D21*
%TO.P,Reset,4*%
%TO.N,GND*%
X168350000Y-107914000D03*
%TO.P,Reset,2*%
%TO.N,Net-(SW9-Pad1)*%
X168350000Y-103414000D03*
%TD*%
D23*
%TO.N,Net-(D1-Pad2)*%
X110665000Y-143650000D02*
X114515000Y-147500000D01*
X110665000Y-140290000D02*
X110665000Y-143650000D01*
%TO.N,Net-(D2-Pad2)*%
X130165000Y-143650000D02*
X134015000Y-147500000D01*
X130165000Y-140290000D02*
X130165000Y-143650000D01*
%TO.N,Net-(D3-Pad2)*%
X149665000Y-143650000D02*
X153515000Y-147500000D01*
X149665000Y-140290000D02*
X149665000Y-143650000D01*
%TO.N,Net-(D4-Pad2)*%
X110665000Y-163150000D02*
X114515000Y-167000000D01*
X110665000Y-159790000D02*
X110665000Y-163150000D01*
%TO.N,Net-(D5-Pad2)*%
X130165000Y-163150000D02*
X134015000Y-167000000D01*
X130165000Y-159790000D02*
X130165000Y-163150000D01*
%TO.N,Net-(D6-Pad2)*%
X149665000Y-163150000D02*
X153515000Y-167000000D01*
X149665000Y-159790000D02*
X149665000Y-163150000D01*
%TO.N,Net-(SW7-PadB)*%
X138664999Y-121144999D02*
X144870000Y-127350000D01*
X129394999Y-121144999D02*
X138664999Y-121144999D01*
X114750000Y-106500000D02*
X129394999Y-121144999D01*
%TO.N,Net-(SW7-PadA)*%
X138664999Y-123684999D02*
X144870000Y-129890000D01*
X129379997Y-123684999D02*
X138664999Y-123684999D01*
X128504999Y-122810001D02*
X129379997Y-123684999D01*
X128504999Y-122469997D02*
X128504999Y-122810001D01*
X113622003Y-107587001D02*
X128504999Y-122469997D01*
X110837001Y-107587001D02*
X113622003Y-107587001D01*
X109750000Y-106500000D02*
X110837001Y-107587001D01*
%TO.N,Net-(J1-Pad1)*%
X154684999Y-113235001D02*
X157730000Y-110190000D01*
X133584999Y-113235001D02*
X154684999Y-113235001D01*
X129630000Y-117190000D02*
X133584999Y-113235001D01*
%TO.N,Net-(J1-Pad2)*%
X130166002Y-119810000D02*
X129630000Y-119810000D01*
X133584999Y-115775001D02*
X129630000Y-119730000D01*
X154684999Y-115775001D02*
X133584999Y-115775001D01*
X157730000Y-112730000D02*
X154684999Y-115775001D01*
%TO.N,Row_1*%
X140409999Y-168225001D02*
X141635000Y-167000000D01*
X123360001Y-168225001D02*
X140409999Y-168225001D01*
X122135000Y-167000000D02*
X123360001Y-168225001D01*
X159909999Y-168225001D02*
X161135000Y-167000000D01*
X142860001Y-168225001D02*
X159909999Y-168225001D01*
X141635000Y-167000000D02*
X142860001Y-168225001D01*
X128564999Y-136035001D02*
X129630000Y-134970000D01*
X128564999Y-160570001D02*
X128564999Y-136035001D01*
X122135000Y-167000000D02*
X128564999Y-160570001D01*
%TO.N,Encoder_S1*%
X109750000Y-124946000D02*
X108712000Y-125984000D01*
X109750000Y-121000000D02*
X109750000Y-124946000D01*
%TO.N,Net-(D8-Pad2)*%
X164592000Y-119092000D02*
X162750000Y-117250000D01*
X164592000Y-120904000D02*
X164592000Y-119092000D01*
X162750000Y-117250000D02*
X162750000Y-110750000D01*
%TO.N,Col_0*%
X124030001Y-143268001D02*
X123592000Y-142830000D01*
X124030001Y-161891999D02*
X124030001Y-143268001D01*
X123592000Y-162330000D02*
X124030001Y-161891999D01*
X124030001Y-135489999D02*
X129630000Y-129890000D01*
X124030001Y-142391999D02*
X124030001Y-135489999D01*
X123592000Y-142830000D02*
X124030001Y-142391999D01*
%TO.N,Col_1*%
X143530001Y-143268001D02*
X143092000Y-142830000D01*
X143530001Y-161891999D02*
X143530001Y-143268001D01*
X143092000Y-162330000D02*
X143530001Y-161891999D01*
X125820000Y-121000000D02*
X129630000Y-124810000D01*
X114750000Y-121000000D02*
X125820000Y-121000000D01*
X139575001Y-139313001D02*
X143092000Y-142830000D01*
X139575001Y-134755001D02*
X139575001Y-139313001D01*
X129630000Y-124810000D02*
X139575001Y-134755001D01*
%TO.N,Col_2*%
X163030001Y-143268001D02*
X162592000Y-142830000D01*
X163030001Y-161891999D02*
X163030001Y-143268001D01*
X162592000Y-162330000D02*
X163030001Y-161891999D01*
X167250000Y-138172000D02*
X167250000Y-117250000D01*
X162592000Y-142830000D02*
X167250000Y-138172000D01*
X167250000Y-110750000D02*
X167250000Y-117250000D01*
%TO.N,Net-(SW9-Pad1)*%
X153566000Y-103414000D02*
X144870000Y-112110000D01*
X161850000Y-103414000D02*
X153566000Y-103414000D01*
X161850000Y-103414000D02*
X168350000Y-103414000D01*
%TO.N,Row_Extra*%
X128264000Y-125984000D02*
X129630000Y-127350000D01*
X116332000Y-125984000D02*
X128264000Y-125984000D01*
%TD*%
D24*
%TO.N,GND*%
X171143248Y-100751356D02*
X171761998Y-100938168D01*
X172332675Y-101241602D01*
X172833548Y-101650104D01*
X173245536Y-102148112D01*
X173552948Y-102716658D01*
X173744075Y-103334090D01*
X173815000Y-104008894D01*
X173815001Y-167966486D01*
X173748644Y-168643248D01*
X173561833Y-169261996D01*
X173258398Y-169832675D01*
X172849896Y-170333548D01*
X172351888Y-170745536D01*
X171783342Y-171052948D01*
X171165909Y-171244075D01*
X170491107Y-171315000D01*
X104033504Y-171315000D01*
X103356752Y-171248644D01*
X102738004Y-171061833D01*
X102167325Y-170758398D01*
X101666452Y-170349896D01*
X101254464Y-169851888D01*
X100947052Y-169283342D01*
X100755925Y-168665909D01*
X100685000Y-167991107D01*
X100685000Y-158540000D01*
X108751928Y-158540000D01*
X108751928Y-161040000D01*
X108764188Y-161164482D01*
X108800498Y-161284180D01*
X108859463Y-161394494D01*
X108938815Y-161491185D01*
X109035506Y-161570537D01*
X109145820Y-161629502D01*
X109265518Y-161665812D01*
X109390000Y-161678072D01*
X109905001Y-161678072D01*
X109905001Y-163112668D01*
X109901324Y-163150000D01*
X109915998Y-163298985D01*
X109959454Y-163442246D01*
X110030026Y-163574276D01*
X110101201Y-163661002D01*
X110125000Y-163690001D01*
X110153998Y-163713799D01*
X113031269Y-166591070D01*
X112980000Y-166848816D01*
X112980000Y-167151184D01*
X113038989Y-167447743D01*
X113154701Y-167727095D01*
X113322688Y-167978505D01*
X113536495Y-168192312D01*
X113787905Y-168360299D01*
X114067257Y-168476011D01*
X114363816Y-168535000D01*
X114666184Y-168535000D01*
X114962743Y-168476011D01*
X115242095Y-168360299D01*
X115493505Y-168192312D01*
X115707312Y-167978505D01*
X115875299Y-167727095D01*
X115991011Y-167447743D01*
X116050000Y-167151184D01*
X116050000Y-166848816D01*
X115991011Y-166552257D01*
X115875299Y-166272905D01*
X115707312Y-166021495D01*
X115493505Y-165807688D01*
X115242095Y-165639701D01*
X114962743Y-165523989D01*
X114666184Y-165465000D01*
X114363816Y-165465000D01*
X114106070Y-165516269D01*
X111425000Y-162835199D01*
X111425000Y-161678072D01*
X111940000Y-161678072D01*
X112064482Y-161665812D01*
X112184180Y-161629502D01*
X112294494Y-161570537D01*
X112391185Y-161491185D01*
X112470537Y-161394494D01*
X112489560Y-161358906D01*
X112579017Y-161448363D01*
X112928698Y-161682012D01*
X113317244Y-161842953D01*
X113729721Y-161925000D01*
X114150279Y-161925000D01*
X114562756Y-161842953D01*
X114951302Y-161682012D01*
X115300983Y-161448363D01*
X115598363Y-161150983D01*
X115832012Y-160801302D01*
X115992953Y-160412756D01*
X116075000Y-160000279D01*
X116075000Y-159579721D01*
X116005905Y-159232358D01*
X116070285Y-159296738D01*
X116501859Y-159585107D01*
X116981399Y-159783739D01*
X117490475Y-159885000D01*
X118009525Y-159885000D01*
X118518601Y-159783739D01*
X118998141Y-159585107D01*
X119429715Y-159296738D01*
X119796738Y-158929715D01*
X120085107Y-158498141D01*
X120283739Y-158018601D01*
X120385000Y-157509525D01*
X120385000Y-156990475D01*
X120283739Y-156481399D01*
X120085107Y-156001859D01*
X119796738Y-155570285D01*
X119429715Y-155203262D01*
X118998141Y-154914893D01*
X118518601Y-154716261D01*
X118009525Y-154615000D01*
X117490475Y-154615000D01*
X116981399Y-154716261D01*
X116501859Y-154914893D01*
X116070285Y-155203262D01*
X115703262Y-155570285D01*
X115414893Y-156001859D01*
X115216261Y-156481399D01*
X115115000Y-156990475D01*
X115115000Y-157509525D01*
X115216261Y-158018601D01*
X115248578Y-158096621D01*
X114951302Y-157897988D01*
X114562756Y-157737047D01*
X114150279Y-157655000D01*
X114129023Y-157655000D01*
X114180000Y-157398722D01*
X114180000Y-157101278D01*
X114121971Y-156809549D01*
X114008144Y-156534747D01*
X113842893Y-156287431D01*
X113632569Y-156077107D01*
X113385253Y-155911856D01*
X113110451Y-155798029D01*
X112818722Y-155740000D01*
X112521278Y-155740000D01*
X112229549Y-155798029D01*
X111954747Y-155911856D01*
X111707431Y-156077107D01*
X111497107Y-156287431D01*
X111331856Y-156534747D01*
X111218029Y-156809549D01*
X111160000Y-157101278D01*
X111160000Y-157398722D01*
X111218029Y-157690451D01*
X111305626Y-157901928D01*
X109390000Y-157901928D01*
X109265518Y-157914188D01*
X109145820Y-157950498D01*
X109035506Y-158009463D01*
X108938815Y-158088815D01*
X108859463Y-158185506D01*
X108800498Y-158295820D01*
X108764188Y-158415518D01*
X108751928Y-158540000D01*
X100685000Y-158540000D01*
X100685000Y-140058428D01*
X102350000Y-140058428D01*
X102350000Y-148485571D01*
X106170000Y-148485571D01*
X106170000Y-140058428D01*
X102350000Y-140058428D01*
X100685000Y-140058428D01*
X100685000Y-139040000D01*
X108751928Y-139040000D01*
X108751928Y-141540000D01*
X108764188Y-141664482D01*
X108800498Y-141784180D01*
X108859463Y-141894494D01*
X108938815Y-141991185D01*
X109035506Y-142070537D01*
X109145820Y-142129502D01*
X109265518Y-142165812D01*
X109390000Y-142178072D01*
X109905001Y-142178072D01*
X109905001Y-143612668D01*
X109901324Y-143650000D01*
X109915998Y-143798985D01*
X109959454Y-143942246D01*
X110030026Y-144074276D01*
X110101201Y-144161002D01*
X110125000Y-144190001D01*
X110153998Y-144213799D01*
X113031269Y-147091070D01*
X112980000Y-147348816D01*
X112980000Y-147651184D01*
X113038989Y-147947743D01*
X113154701Y-148227095D01*
X113322688Y-148478505D01*
X113536495Y-148692312D01*
X113787905Y-148860299D01*
X114067257Y-148976011D01*
X114363816Y-149035000D01*
X114666184Y-149035000D01*
X114962743Y-148976011D01*
X115242095Y-148860299D01*
X115493505Y-148692312D01*
X115707312Y-148478505D01*
X115875299Y-148227095D01*
X115991011Y-147947743D01*
X116050000Y-147651184D01*
X116050000Y-147348816D01*
X115991011Y-147052257D01*
X115875299Y-146772905D01*
X115707312Y-146521495D01*
X115493505Y-146307688D01*
X115242095Y-146139701D01*
X114962743Y-146023989D01*
X114666184Y-145965000D01*
X114363816Y-145965000D01*
X114106070Y-146016269D01*
X111425000Y-143335199D01*
X111425000Y-142178072D01*
X111940000Y-142178072D01*
X112064482Y-142165812D01*
X112184180Y-142129502D01*
X112294494Y-142070537D01*
X112391185Y-141991185D01*
X112470537Y-141894494D01*
X112489560Y-141858906D01*
X112579017Y-141948363D01*
X112928698Y-142182012D01*
X113317244Y-142342953D01*
X113729721Y-142425000D01*
X114150279Y-142425000D01*
X114562756Y-142342953D01*
X114951302Y-142182012D01*
X115300983Y-141948363D01*
X115598363Y-141650983D01*
X115832012Y-141301302D01*
X115992953Y-140912756D01*
X116075000Y-140500279D01*
X116075000Y-140079721D01*
X116005905Y-139732358D01*
X116070285Y-139796738D01*
X116501859Y-140085107D01*
X116981399Y-140283739D01*
X117490475Y-140385000D01*
X118009525Y-140385000D01*
X118518601Y-140283739D01*
X118998141Y-140085107D01*
X119429715Y-139796738D01*
X119796738Y-139429715D01*
X120085107Y-138998141D01*
X120283739Y-138518601D01*
X120385000Y-138009525D01*
X120385000Y-137490475D01*
X120283739Y-136981399D01*
X120085107Y-136501859D01*
X119796738Y-136070285D01*
X119429715Y-135703262D01*
X118998141Y-135414893D01*
X118518601Y-135216261D01*
X118009525Y-135115000D01*
X117490475Y-135115000D01*
X116981399Y-135216261D01*
X116501859Y-135414893D01*
X116070285Y-135703262D01*
X115703262Y-136070285D01*
X115414893Y-136501859D01*
X115216261Y-136981399D01*
X115115000Y-137490475D01*
X115115000Y-138009525D01*
X115216261Y-138518601D01*
X115248578Y-138596621D01*
X114951302Y-138397988D01*
X114562756Y-138237047D01*
X114150279Y-138155000D01*
X114129023Y-138155000D01*
X114180000Y-137898722D01*
X114180000Y-137601278D01*
X114121971Y-137309549D01*
X114008144Y-137034747D01*
X113842893Y-136787431D01*
X113632569Y-136577107D01*
X113385253Y-136411856D01*
X113110451Y-136298029D01*
X112818722Y-136240000D01*
X112521278Y-136240000D01*
X112229549Y-136298029D01*
X111954747Y-136411856D01*
X111707431Y-136577107D01*
X111497107Y-136787431D01*
X111331856Y-137034747D01*
X111218029Y-137309549D01*
X111160000Y-137601278D01*
X111160000Y-137898722D01*
X111218029Y-138190451D01*
X111305626Y-138401928D01*
X109390000Y-138401928D01*
X109265518Y-138414188D01*
X109145820Y-138450498D01*
X109035506Y-138509463D01*
X108938815Y-138588815D01*
X108859463Y-138685506D01*
X108800498Y-138795820D01*
X108764188Y-138915518D01*
X108751928Y-139040000D01*
X100685000Y-139040000D01*
X100685000Y-125832816D01*
X107177000Y-125832816D01*
X107177000Y-126135184D01*
X107235989Y-126431743D01*
X107351701Y-126711095D01*
X107519688Y-126962505D01*
X107733495Y-127176312D01*
X107984905Y-127344299D01*
X108264257Y-127460011D01*
X108560816Y-127519000D01*
X108863184Y-127519000D01*
X109159743Y-127460011D01*
X109439095Y-127344299D01*
X109690505Y-127176312D01*
X109904312Y-126962505D01*
X110072299Y-126711095D01*
X110188011Y-126431743D01*
X110247000Y-126135184D01*
X110247000Y-125832816D01*
X110195731Y-125575070D01*
X110261003Y-125509799D01*
X110290001Y-125486001D01*
X110384974Y-125370276D01*
X110455546Y-125238247D01*
X110499003Y-125094986D01*
X110510000Y-124983333D01*
X110510000Y-124983325D01*
X110513676Y-124946000D01*
X110510000Y-124908675D01*
X110510000Y-122172341D01*
X110640535Y-122085120D01*
X110835120Y-121890535D01*
X110988005Y-121661727D01*
X111093314Y-121407490D01*
X111147000Y-121137592D01*
X111147000Y-120862408D01*
X111093314Y-120592510D01*
X110988005Y-120338273D01*
X110835120Y-120109465D01*
X110640535Y-119914880D01*
X110411727Y-119761995D01*
X110157490Y-119656686D01*
X109887592Y-119603000D01*
X109612408Y-119603000D01*
X109342510Y-119656686D01*
X109088273Y-119761995D01*
X108859465Y-119914880D01*
X108664880Y-120109465D01*
X108511995Y-120338273D01*
X108406686Y-120592510D01*
X108353000Y-120862408D01*
X108353000Y-121137592D01*
X108406686Y-121407490D01*
X108511995Y-121661727D01*
X108664880Y-121890535D01*
X108859465Y-122085120D01*
X108990000Y-122172341D01*
X108990001Y-124474225D01*
X108863184Y-124449000D01*
X108560816Y-124449000D01*
X108264257Y-124507989D01*
X107984905Y-124623701D01*
X107733495Y-124791688D01*
X107519688Y-125005495D01*
X107351701Y-125256905D01*
X107235989Y-125536257D01*
X107177000Y-125832816D01*
X100685000Y-125832816D01*
X100685000Y-112650000D01*
X105761928Y-112650000D01*
X105761928Y-115350000D01*
X105774188Y-115474482D01*
X105810498Y-115594180D01*
X105869463Y-115704494D01*
X105948815Y-115801185D01*
X106045506Y-115880537D01*
X106155820Y-115939502D01*
X106275518Y-115975812D01*
X106400000Y-115988072D01*
X108700000Y-115988072D01*
X108824482Y-115975812D01*
X108944180Y-115939502D01*
X109054494Y-115880537D01*
X109151185Y-115801185D01*
X109230537Y-115704494D01*
X109289502Y-115594180D01*
X109325812Y-115474482D01*
X109338072Y-115350000D01*
X109338072Y-112650000D01*
X109325812Y-112525518D01*
X109289502Y-112405820D01*
X109230537Y-112295506D01*
X109151185Y-112198815D01*
X109054494Y-112119463D01*
X108944180Y-112060498D01*
X108824482Y-112024188D01*
X108700000Y-112011928D01*
X106400000Y-112011928D01*
X106275518Y-112024188D01*
X106155820Y-112060498D01*
X106045506Y-112119463D01*
X105948815Y-112198815D01*
X105869463Y-112295506D01*
X105810498Y-112405820D01*
X105774188Y-112525518D01*
X105761928Y-112650000D01*
X100685000Y-112650000D01*
X100685000Y-106362408D01*
X108353000Y-106362408D01*
X108353000Y-106637592D01*
X108406686Y-106907490D01*
X108511995Y-107161727D01*
X108664880Y-107390535D01*
X108859465Y-107585120D01*
X109088273Y-107738005D01*
X109342510Y-107843314D01*
X109612408Y-107897000D01*
X109887592Y-107897000D01*
X110041570Y-107866372D01*
X110273201Y-108098003D01*
X110297000Y-108127002D01*
X110325998Y-108150800D01*
X110412725Y-108221975D01*
X110544754Y-108292547D01*
X110688015Y-108336004D01*
X110837001Y-108350678D01*
X110874334Y-108347001D01*
X113307202Y-108347001D01*
X116972129Y-112011928D01*
X115800000Y-112011928D01*
X115675518Y-112024188D01*
X115555820Y-112060498D01*
X115445506Y-112119463D01*
X115348815Y-112198815D01*
X115269463Y-112295506D01*
X115210498Y-112405820D01*
X115174188Y-112525518D01*
X115161928Y-112650000D01*
X115161928Y-115350000D01*
X115174188Y-115474482D01*
X115210498Y-115594180D01*
X115269463Y-115704494D01*
X115348815Y-115801185D01*
X115445506Y-115880537D01*
X115555820Y-115939502D01*
X115675518Y-115975812D01*
X115800000Y-115988072D01*
X118100000Y-115988072D01*
X118224482Y-115975812D01*
X118344180Y-115939502D01*
X118454494Y-115880537D01*
X118551185Y-115801185D01*
X118630537Y-115704494D01*
X118689502Y-115594180D01*
X118725812Y-115474482D01*
X118738072Y-115350000D01*
X118738072Y-113777871D01*
X125200200Y-120240000D01*
X115922341Y-120240000D01*
X115835120Y-120109465D01*
X115640535Y-119914880D01*
X115411727Y-119761995D01*
X115157490Y-119656686D01*
X114887592Y-119603000D01*
X114612408Y-119603000D01*
X114342510Y-119656686D01*
X114088273Y-119761995D01*
X113859465Y-119914880D01*
X113664880Y-120109465D01*
X113511995Y-120338273D01*
X113406686Y-120592510D01*
X113353000Y-120862408D01*
X113353000Y-121137592D01*
X113406686Y-121407490D01*
X113511995Y-121661727D01*
X113664880Y-121890535D01*
X113859465Y-122085120D01*
X114088273Y-122238005D01*
X114342510Y-122343314D01*
X114612408Y-122397000D01*
X114887592Y-122397000D01*
X115157490Y-122343314D01*
X115411727Y-122238005D01*
X115640535Y-122085120D01*
X115835120Y-121890535D01*
X115922341Y-121760000D01*
X125505199Y-121760000D01*
X128231312Y-124486114D01*
X128195000Y-124668665D01*
X128195000Y-124951335D01*
X128248804Y-125221821D01*
X128226678Y-125224000D01*
X117870072Y-125224000D01*
X117870072Y-125084000D01*
X117857812Y-124959518D01*
X117821502Y-124839820D01*
X117762537Y-124729506D01*
X117683185Y-124632815D01*
X117586494Y-124553463D01*
X117476180Y-124494498D01*
X117356482Y-124458188D01*
X117232000Y-124445928D01*
X115432000Y-124445928D01*
X115307518Y-124458188D01*
X115187820Y-124494498D01*
X115077506Y-124553463D01*
X114980815Y-124632815D01*
X114901463Y-124729506D01*
X114842498Y-124839820D01*
X114806188Y-124959518D01*
X114793928Y-125084000D01*
X114793928Y-126884000D01*
X114806188Y-127008482D01*
X114842498Y-127128180D01*
X114901463Y-127238494D01*
X114980815Y-127335185D01*
X115077506Y-127414537D01*
X115187820Y-127473502D01*
X115307518Y-127509812D01*
X115432000Y-127522072D01*
X117232000Y-127522072D01*
X117356482Y-127509812D01*
X117476180Y-127473502D01*
X117586494Y-127414537D01*
X117683185Y-127335185D01*
X117762537Y-127238494D01*
X117821502Y-127128180D01*
X117857812Y-127008482D01*
X117870072Y-126884000D01*
X117870072Y-126744000D01*
X127949199Y-126744000D01*
X128231312Y-127026114D01*
X128195000Y-127208665D01*
X128195000Y-127491335D01*
X128250147Y-127768574D01*
X128358320Y-128029727D01*
X128515363Y-128264759D01*
X128715241Y-128464637D01*
X128947759Y-128620000D01*
X128715241Y-128775363D01*
X128515363Y-128975241D01*
X128358320Y-129210273D01*
X128250147Y-129471426D01*
X128195000Y-129748665D01*
X128195000Y-130031335D01*
X128231312Y-130213886D01*
X123518999Y-134926200D01*
X123490001Y-134949998D01*
X123466203Y-134978996D01*
X123466202Y-134978997D01*
X123395027Y-135065723D01*
X123324455Y-135197753D01*
X123280999Y-135341014D01*
X123266325Y-135489999D01*
X123270002Y-135527331D01*
X123270002Y-136297940D01*
X122978722Y-136240000D01*
X122681278Y-136240000D01*
X122389549Y-136298029D01*
X122114747Y-136411856D01*
X121867431Y-136577107D01*
X121657107Y-136787431D01*
X121491856Y-137034747D01*
X121378029Y-137309549D01*
X121320000Y-137601278D01*
X121320000Y-137898722D01*
X121378029Y-138190451D01*
X121491856Y-138465253D01*
X121657107Y-138712569D01*
X121867431Y-138922893D01*
X122114747Y-139088144D01*
X122389549Y-139201971D01*
X122681278Y-139260000D01*
X122978722Y-139260000D01*
X123270001Y-139202060D01*
X123270001Y-140941928D01*
X122317000Y-140941928D01*
X122192518Y-140954188D01*
X122072820Y-140990498D01*
X121962506Y-141049463D01*
X121865815Y-141128815D01*
X121786463Y-141225506D01*
X121758035Y-141278689D01*
X121650983Y-141171637D01*
X121301302Y-140937988D01*
X120912756Y-140777047D01*
X120500279Y-140695000D01*
X120079721Y-140695000D01*
X119667244Y-140777047D01*
X119278698Y-140937988D01*
X118929017Y-141171637D01*
X118631637Y-141469017D01*
X118397988Y-141818698D01*
X118237047Y-142207244D01*
X118155000Y-142619721D01*
X118155000Y-143040279D01*
X118237047Y-143452756D01*
X118397988Y-143841302D01*
X118631637Y-144190983D01*
X118929017Y-144488363D01*
X119278698Y-144722012D01*
X119667244Y-144882953D01*
X120079721Y-144965000D01*
X120500279Y-144965000D01*
X120912756Y-144882953D01*
X121301302Y-144722012D01*
X121650983Y-144488363D01*
X121758035Y-144381311D01*
X121786463Y-144434494D01*
X121865815Y-144531185D01*
X121962506Y-144610537D01*
X122072820Y-144669502D01*
X122192518Y-144705812D01*
X122317000Y-144718072D01*
X123270002Y-144718072D01*
X123270002Y-146007714D01*
X123159482Y-145974188D01*
X123035000Y-145961928D01*
X121235000Y-145961928D01*
X121110518Y-145974188D01*
X120990820Y-146010498D01*
X120880506Y-146069463D01*
X120783815Y-146148815D01*
X120704463Y-146245506D01*
X120645498Y-146355820D01*
X120609188Y-146475518D01*
X120596928Y-146600000D01*
X120596928Y-148400000D01*
X120609188Y-148524482D01*
X120645498Y-148644180D01*
X120704463Y-148754494D01*
X120783815Y-148851185D01*
X120880506Y-148930537D01*
X120990820Y-148989502D01*
X121110518Y-149025812D01*
X121235000Y-149038072D01*
X123035000Y-149038072D01*
X123159482Y-149025812D01*
X123270002Y-148992286D01*
X123270001Y-155797940D01*
X122978722Y-155740000D01*
X122681278Y-155740000D01*
X122389549Y-155798029D01*
X122114747Y-155911856D01*
X121867431Y-156077107D01*
X121657107Y-156287431D01*
X121491856Y-156534747D01*
X121378029Y-156809549D01*
X121320000Y-157101278D01*
X121320000Y-157398722D01*
X121378029Y-157690451D01*
X121491856Y-157965253D01*
X121657107Y-158212569D01*
X121867431Y-158422893D01*
X122114747Y-158588144D01*
X122389549Y-158701971D01*
X122681278Y-158760000D01*
X122978722Y-158760000D01*
X123270001Y-158702060D01*
X123270001Y-160441928D01*
X122317000Y-160441928D01*
X122192518Y-160454188D01*
X122072820Y-160490498D01*
X121962506Y-160549463D01*
X121865815Y-160628815D01*
X121786463Y-160725506D01*
X121758035Y-160778689D01*
X121650983Y-160671637D01*
X121301302Y-160437988D01*
X120912756Y-160277047D01*
X120500279Y-160195000D01*
X120079721Y-160195000D01*
X119667244Y-160277047D01*
X119278698Y-160437988D01*
X118929017Y-160671637D01*
X118631637Y-160969017D01*
X118397988Y-161318698D01*
X118237047Y-161707244D01*
X118155000Y-162119721D01*
X118155000Y-162540279D01*
X118237047Y-162952756D01*
X118397988Y-163341302D01*
X118631637Y-163690983D01*
X118929017Y-163988363D01*
X119278698Y-164222012D01*
X119667244Y-164382953D01*
X120079721Y-164465000D01*
X120500279Y-164465000D01*
X120912756Y-164382953D01*
X121301302Y-164222012D01*
X121650983Y-163988363D01*
X121758035Y-163881311D01*
X121786463Y-163934494D01*
X121865815Y-164031185D01*
X121962506Y-164110537D01*
X122072820Y-164169502D01*
X122192518Y-164205812D01*
X122317000Y-164218072D01*
X123842127Y-164218072D01*
X122598271Y-165461928D01*
X121235000Y-165461928D01*
X121110518Y-165474188D01*
X120990820Y-165510498D01*
X120880506Y-165569463D01*
X120783815Y-165648815D01*
X120704463Y-165745506D01*
X120645498Y-165855820D01*
X120609188Y-165975518D01*
X120596928Y-166100000D01*
X120596928Y-167900000D01*
X120609188Y-168024482D01*
X120645498Y-168144180D01*
X120704463Y-168254494D01*
X120783815Y-168351185D01*
X120880506Y-168430537D01*
X120990820Y-168489502D01*
X121110518Y-168525812D01*
X121235000Y-168538072D01*
X122598270Y-168538072D01*
X122796202Y-168736004D01*
X122820000Y-168765002D01*
X122848998Y-168788800D01*
X122935724Y-168859975D01*
X123042844Y-168917232D01*
X123067754Y-168930547D01*
X123211015Y-168974004D01*
X123322668Y-168985001D01*
X123322677Y-168985001D01*
X123360000Y-168988677D01*
X123397323Y-168985001D01*
X140372677Y-168985001D01*
X140409999Y-168988677D01*
X140447321Y-168985001D01*
X140447332Y-168985001D01*
X140558985Y-168974004D01*
X140702246Y-168930547D01*
X140834275Y-168859975D01*
X140950000Y-168765002D01*
X140973803Y-168735998D01*
X141171729Y-168538072D01*
X142098270Y-168538072D01*
X142296202Y-168736004D01*
X142320000Y-168765002D01*
X142348998Y-168788800D01*
X142435724Y-168859975D01*
X142542844Y-168917232D01*
X142567754Y-168930547D01*
X142711015Y-168974004D01*
X142822668Y-168985001D01*
X142822677Y-168985001D01*
X142860000Y-168988677D01*
X142897323Y-168985001D01*
X159872677Y-168985001D01*
X159909999Y-168988677D01*
X159947321Y-168985001D01*
X159947332Y-168985001D01*
X160058985Y-168974004D01*
X160202246Y-168930547D01*
X160334275Y-168859975D01*
X160450000Y-168765002D01*
X160473803Y-168735998D01*
X160671729Y-168538072D01*
X162035000Y-168538072D01*
X162159482Y-168525812D01*
X162279180Y-168489502D01*
X162389494Y-168430537D01*
X162486185Y-168351185D01*
X162565537Y-168254494D01*
X162624502Y-168144180D01*
X162660812Y-168024482D01*
X162673072Y-167900000D01*
X162673072Y-166100000D01*
X162660812Y-165975518D01*
X162624502Y-165855820D01*
X162565537Y-165745506D01*
X162486185Y-165648815D01*
X162389494Y-165569463D01*
X162279180Y-165510498D01*
X162159482Y-165474188D01*
X162035000Y-165461928D01*
X160235000Y-165461928D01*
X160110518Y-165474188D01*
X159990820Y-165510498D01*
X159880506Y-165569463D01*
X159783815Y-165648815D01*
X159704463Y-165745506D01*
X159645498Y-165855820D01*
X159609188Y-165975518D01*
X159596928Y-166100000D01*
X159596928Y-167463271D01*
X159595198Y-167465001D01*
X154983862Y-167465001D01*
X154991011Y-167447743D01*
X155050000Y-167151184D01*
X155050000Y-166848816D01*
X154991011Y-166552257D01*
X154875299Y-166272905D01*
X154707312Y-166021495D01*
X154493505Y-165807688D01*
X154242095Y-165639701D01*
X153962743Y-165523989D01*
X153666184Y-165465000D01*
X153363816Y-165465000D01*
X153106070Y-165516269D01*
X150425000Y-162835199D01*
X150425000Y-161678072D01*
X150940000Y-161678072D01*
X151064482Y-161665812D01*
X151184180Y-161629502D01*
X151294494Y-161570537D01*
X151391185Y-161491185D01*
X151470537Y-161394494D01*
X151489560Y-161358906D01*
X151579017Y-161448363D01*
X151928698Y-161682012D01*
X152317244Y-161842953D01*
X152729721Y-161925000D01*
X153150279Y-161925000D01*
X153562756Y-161842953D01*
X153951302Y-161682012D01*
X154300983Y-161448363D01*
X154598363Y-161150983D01*
X154832012Y-160801302D01*
X154992953Y-160412756D01*
X155075000Y-160000279D01*
X155075000Y-159579721D01*
X155005905Y-159232358D01*
X155070285Y-159296738D01*
X155501859Y-159585107D01*
X155981399Y-159783739D01*
X156490475Y-159885000D01*
X157009525Y-159885000D01*
X157518601Y-159783739D01*
X157998141Y-159585107D01*
X158429715Y-159296738D01*
X158796738Y-158929715D01*
X159085107Y-158498141D01*
X159283739Y-158018601D01*
X159385000Y-157509525D01*
X159385000Y-156990475D01*
X159283739Y-156481399D01*
X159085107Y-156001859D01*
X158796738Y-155570285D01*
X158429715Y-155203262D01*
X157998141Y-154914893D01*
X157518601Y-154716261D01*
X157009525Y-154615000D01*
X156490475Y-154615000D01*
X155981399Y-154716261D01*
X155501859Y-154914893D01*
X155070285Y-155203262D01*
X154703262Y-155570285D01*
X154414893Y-156001859D01*
X154216261Y-156481399D01*
X154115000Y-156990475D01*
X154115000Y-157509525D01*
X154216261Y-158018601D01*
X154248578Y-158096621D01*
X153951302Y-157897988D01*
X153562756Y-157737047D01*
X153150279Y-157655000D01*
X153129023Y-157655000D01*
X153180000Y-157398722D01*
X153180000Y-157101278D01*
X153121971Y-156809549D01*
X153008144Y-156534747D01*
X152842893Y-156287431D01*
X152632569Y-156077107D01*
X152385253Y-155911856D01*
X152110451Y-155798029D01*
X151818722Y-155740000D01*
X151521278Y-155740000D01*
X151229549Y-155798029D01*
X150954747Y-155911856D01*
X150707431Y-156077107D01*
X150497107Y-156287431D01*
X150331856Y-156534747D01*
X150218029Y-156809549D01*
X150160000Y-157101278D01*
X150160000Y-157398722D01*
X150218029Y-157690451D01*
X150305626Y-157901928D01*
X148390000Y-157901928D01*
X148265518Y-157914188D01*
X148145820Y-157950498D01*
X148035506Y-158009463D01*
X147938815Y-158088815D01*
X147859463Y-158185506D01*
X147800498Y-158295820D01*
X147764188Y-158415518D01*
X147751928Y-158540000D01*
X147751928Y-161040000D01*
X147764188Y-161164482D01*
X147800498Y-161284180D01*
X147859463Y-161394494D01*
X147938815Y-161491185D01*
X148035506Y-161570537D01*
X148145820Y-161629502D01*
X148265518Y-161665812D01*
X148390000Y-161678072D01*
X148905001Y-161678072D01*
X148905001Y-163112668D01*
X148901324Y-163150000D01*
X148915998Y-163298985D01*
X148959454Y-163442246D01*
X149030026Y-163574276D01*
X149101201Y-163661002D01*
X149125000Y-163690001D01*
X149153998Y-163713799D01*
X152031269Y-166591070D01*
X151980000Y-166848816D01*
X151980000Y-167151184D01*
X152038989Y-167447743D01*
X152046138Y-167465001D01*
X143174803Y-167465001D01*
X143173072Y-167463270D01*
X143173072Y-166100000D01*
X143160812Y-165975518D01*
X143124502Y-165855820D01*
X143065537Y-165745506D01*
X142986185Y-165648815D01*
X142889494Y-165569463D01*
X142779180Y-165510498D01*
X142659482Y-165474188D01*
X142535000Y-165461928D01*
X140735000Y-165461928D01*
X140610518Y-165474188D01*
X140490820Y-165510498D01*
X140380506Y-165569463D01*
X140283815Y-165648815D01*
X140204463Y-165745506D01*
X140145498Y-165855820D01*
X140109188Y-165975518D01*
X140096928Y-166100000D01*
X140096928Y-167463271D01*
X140095198Y-167465001D01*
X135483862Y-167465001D01*
X135491011Y-167447743D01*
X135550000Y-167151184D01*
X135550000Y-166848816D01*
X135491011Y-166552257D01*
X135375299Y-166272905D01*
X135207312Y-166021495D01*
X134993505Y-165807688D01*
X134742095Y-165639701D01*
X134462743Y-165523989D01*
X134166184Y-165465000D01*
X133863816Y-165465000D01*
X133606070Y-165516269D01*
X130925000Y-162835199D01*
X130925000Y-161678072D01*
X131440000Y-161678072D01*
X131564482Y-161665812D01*
X131684180Y-161629502D01*
X131794494Y-161570537D01*
X131891185Y-161491185D01*
X131970537Y-161394494D01*
X131989560Y-161358906D01*
X132079017Y-161448363D01*
X132428698Y-161682012D01*
X132817244Y-161842953D01*
X133229721Y-161925000D01*
X133650279Y-161925000D01*
X134062756Y-161842953D01*
X134451302Y-161682012D01*
X134800983Y-161448363D01*
X135098363Y-161150983D01*
X135332012Y-160801302D01*
X135492953Y-160412756D01*
X135575000Y-160000279D01*
X135575000Y-159579721D01*
X135505905Y-159232358D01*
X135570285Y-159296738D01*
X136001859Y-159585107D01*
X136481399Y-159783739D01*
X136990475Y-159885000D01*
X137509525Y-159885000D01*
X138018601Y-159783739D01*
X138498141Y-159585107D01*
X138929715Y-159296738D01*
X139296738Y-158929715D01*
X139585107Y-158498141D01*
X139783739Y-158018601D01*
X139885000Y-157509525D01*
X139885000Y-156990475D01*
X139783739Y-156481399D01*
X139585107Y-156001859D01*
X139296738Y-155570285D01*
X138929715Y-155203262D01*
X138498141Y-154914893D01*
X138018601Y-154716261D01*
X137509525Y-154615000D01*
X136990475Y-154615000D01*
X136481399Y-154716261D01*
X136001859Y-154914893D01*
X135570285Y-155203262D01*
X135203262Y-155570285D01*
X134914893Y-156001859D01*
X134716261Y-156481399D01*
X134615000Y-156990475D01*
X134615000Y-157509525D01*
X134716261Y-158018601D01*
X134748578Y-158096621D01*
X134451302Y-157897988D01*
X134062756Y-157737047D01*
X133650279Y-157655000D01*
X133629023Y-157655000D01*
X133680000Y-157398722D01*
X133680000Y-157101278D01*
X133621971Y-156809549D01*
X133508144Y-156534747D01*
X133342893Y-156287431D01*
X133132569Y-156077107D01*
X132885253Y-155911856D01*
X132610451Y-155798029D01*
X132318722Y-155740000D01*
X132021278Y-155740000D01*
X131729549Y-155798029D01*
X131454747Y-155911856D01*
X131207431Y-156077107D01*
X130997107Y-156287431D01*
X130831856Y-156534747D01*
X130718029Y-156809549D01*
X130660000Y-157101278D01*
X130660000Y-157398722D01*
X130718029Y-157690451D01*
X130805626Y-157901928D01*
X129324999Y-157901928D01*
X129324999Y-142178072D01*
X129405001Y-142178072D01*
X129405001Y-143612668D01*
X129401324Y-143650000D01*
X129415998Y-143798985D01*
X129459454Y-143942246D01*
X129530026Y-144074276D01*
X129601201Y-144161002D01*
X129625000Y-144190001D01*
X129653998Y-144213799D01*
X132531269Y-147091070D01*
X132480000Y-147348816D01*
X132480000Y-147651184D01*
X132538989Y-147947743D01*
X132654701Y-148227095D01*
X132822688Y-148478505D01*
X133036495Y-148692312D01*
X133287905Y-148860299D01*
X133567257Y-148976011D01*
X133863816Y-149035000D01*
X134166184Y-149035000D01*
X134462743Y-148976011D01*
X134742095Y-148860299D01*
X134993505Y-148692312D01*
X135207312Y-148478505D01*
X135375299Y-148227095D01*
X135491011Y-147947743D01*
X135550000Y-147651184D01*
X135550000Y-147348816D01*
X135491011Y-147052257D01*
X135375299Y-146772905D01*
X135207312Y-146521495D01*
X134993505Y-146307688D01*
X134742095Y-146139701D01*
X134462743Y-146023989D01*
X134166184Y-145965000D01*
X133863816Y-145965000D01*
X133606070Y-146016269D01*
X130925000Y-143335199D01*
X130925000Y-142178072D01*
X131440000Y-142178072D01*
X131564482Y-142165812D01*
X131684180Y-142129502D01*
X131794494Y-142070537D01*
X131891185Y-141991185D01*
X131970537Y-141894494D01*
X131989560Y-141858906D01*
X132079017Y-141948363D01*
X132428698Y-142182012D01*
X132817244Y-142342953D01*
X133229721Y-142425000D01*
X133650279Y-142425000D01*
X134062756Y-142342953D01*
X134451302Y-142182012D01*
X134800983Y-141948363D01*
X135098363Y-141650983D01*
X135332012Y-141301302D01*
X135492953Y-140912756D01*
X135575000Y-140500279D01*
X135575000Y-140079721D01*
X135505905Y-139732358D01*
X135570285Y-139796738D01*
X136001859Y-140085107D01*
X136481399Y-140283739D01*
X136990475Y-140385000D01*
X137509525Y-140385000D01*
X138018601Y-140283739D01*
X138498141Y-140085107D01*
X138929715Y-139796738D01*
X138962181Y-139764272D01*
X138988826Y-139796738D01*
X139035001Y-139853002D01*
X139063999Y-139876800D01*
X139882199Y-140695000D01*
X139579721Y-140695000D01*
X139167244Y-140777047D01*
X138778698Y-140937988D01*
X138429017Y-141171637D01*
X138131637Y-141469017D01*
X137897988Y-141818698D01*
X137737047Y-142207244D01*
X137655000Y-142619721D01*
X137655000Y-143040279D01*
X137737047Y-143452756D01*
X137897988Y-143841302D01*
X138131637Y-144190983D01*
X138429017Y-144488363D01*
X138778698Y-144722012D01*
X139167244Y-144882953D01*
X139579721Y-144965000D01*
X140000279Y-144965000D01*
X140412756Y-144882953D01*
X140801302Y-144722012D01*
X141150983Y-144488363D01*
X141258035Y-144381311D01*
X141286463Y-144434494D01*
X141365815Y-144531185D01*
X141462506Y-144610537D01*
X141572820Y-144669502D01*
X141692518Y-144705812D01*
X141817000Y-144718072D01*
X142770002Y-144718072D01*
X142770002Y-146007714D01*
X142659482Y-145974188D01*
X142535000Y-145961928D01*
X140735000Y-145961928D01*
X140610518Y-145974188D01*
X140490820Y-146010498D01*
X140380506Y-146069463D01*
X140283815Y-146148815D01*
X140204463Y-146245506D01*
X140145498Y-146355820D01*
X140109188Y-146475518D01*
X140096928Y-146600000D01*
X140096928Y-148400000D01*
X140109188Y-148524482D01*
X140145498Y-148644180D01*
X140204463Y-148754494D01*
X140283815Y-148851185D01*
X140380506Y-148930537D01*
X140490820Y-148989502D01*
X140610518Y-149025812D01*
X140735000Y-149038072D01*
X142535000Y-149038072D01*
X142659482Y-149025812D01*
X142770002Y-148992286D01*
X142770001Y-155797940D01*
X142478722Y-155740000D01*
X142181278Y-155740000D01*
X141889549Y-155798029D01*
X141614747Y-155911856D01*
X141367431Y-156077107D01*
X141157107Y-156287431D01*
X140991856Y-156534747D01*
X140878029Y-156809549D01*
X140820000Y-157101278D01*
X140820000Y-157398722D01*
X140878029Y-157690451D01*
X140991856Y-157965253D01*
X141157107Y-158212569D01*
X141367431Y-158422893D01*
X141614747Y-158588144D01*
X141889549Y-158701971D01*
X142181278Y-158760000D01*
X142478722Y-158760000D01*
X142770001Y-158702060D01*
X142770001Y-160441928D01*
X141817000Y-160441928D01*
X141692518Y-160454188D01*
X141572820Y-160490498D01*
X141462506Y-160549463D01*
X141365815Y-160628815D01*
X141286463Y-160725506D01*
X141258035Y-160778689D01*
X141150983Y-160671637D01*
X140801302Y-160437988D01*
X140412756Y-160277047D01*
X140000279Y-160195000D01*
X139579721Y-160195000D01*
X139167244Y-160277047D01*
X138778698Y-160437988D01*
X138429017Y-160671637D01*
X138131637Y-160969017D01*
X137897988Y-161318698D01*
X137737047Y-161707244D01*
X137655000Y-162119721D01*
X137655000Y-162540279D01*
X137737047Y-162952756D01*
X137897988Y-163341302D01*
X138131637Y-163690983D01*
X138429017Y-163988363D01*
X138778698Y-164222012D01*
X139167244Y-164382953D01*
X139579721Y-164465000D01*
X140000279Y-164465000D01*
X140412756Y-164382953D01*
X140801302Y-164222012D01*
X141150983Y-163988363D01*
X141258035Y-163881311D01*
X141286463Y-163934494D01*
X141365815Y-164031185D01*
X141462506Y-164110537D01*
X141572820Y-164169502D01*
X141692518Y-164205812D01*
X141817000Y-164218072D01*
X144367000Y-164218072D01*
X144491482Y-164205812D01*
X144611180Y-164169502D01*
X144721494Y-164110537D01*
X144818185Y-164031185D01*
X144897537Y-163934494D01*
X144956502Y-163824180D01*
X144992812Y-163704482D01*
X145005072Y-163580000D01*
X145005072Y-161080000D01*
X144992812Y-160955518D01*
X144956502Y-160835820D01*
X144897537Y-160725506D01*
X144818185Y-160628815D01*
X144721494Y-160549463D01*
X144611180Y-160490498D01*
X144491482Y-160454188D01*
X144367000Y-160441928D01*
X144290001Y-160441928D01*
X144290001Y-144718072D01*
X144367000Y-144718072D01*
X144491482Y-144705812D01*
X144611180Y-144669502D01*
X144721494Y-144610537D01*
X144818185Y-144531185D01*
X144897537Y-144434494D01*
X144956502Y-144324180D01*
X144992812Y-144204482D01*
X145005072Y-144080000D01*
X145005072Y-141580000D01*
X144992812Y-141455518D01*
X144956502Y-141335820D01*
X144897537Y-141225506D01*
X144818185Y-141128815D01*
X144721494Y-141049463D01*
X144611180Y-140990498D01*
X144491482Y-140954188D01*
X144367000Y-140941928D01*
X142278730Y-140941928D01*
X140335001Y-138998200D01*
X140335001Y-137601278D01*
X140820000Y-137601278D01*
X140820000Y-137898722D01*
X140878029Y-138190451D01*
X140991856Y-138465253D01*
X141157107Y-138712569D01*
X141367431Y-138922893D01*
X141614747Y-139088144D01*
X141889549Y-139201971D01*
X142181278Y-139260000D01*
X142478722Y-139260000D01*
X142770451Y-139201971D01*
X143045253Y-139088144D01*
X143117305Y-139040000D01*
X147751928Y-139040000D01*
X147751928Y-141540000D01*
X147764188Y-141664482D01*
X147800498Y-141784180D01*
X147859463Y-141894494D01*
X147938815Y-141991185D01*
X148035506Y-142070537D01*
X148145820Y-142129502D01*
X148265518Y-142165812D01*
X148390000Y-142178072D01*
X148905001Y-142178072D01*
X148905001Y-143612668D01*
X148901324Y-143650000D01*
X148915998Y-143798985D01*
X148959454Y-143942246D01*
X149030026Y-144074276D01*
X149101201Y-144161002D01*
X149125000Y-144190001D01*
X149153998Y-144213799D01*
X152031269Y-147091070D01*
X151980000Y-147348816D01*
X151980000Y-147651184D01*
X152038989Y-147947743D01*
X152154701Y-148227095D01*
X152322688Y-148478505D01*
X152536495Y-148692312D01*
X152787905Y-148860299D01*
X153067257Y-148976011D01*
X153363816Y-149035000D01*
X153666184Y-149035000D01*
X153962743Y-148976011D01*
X154242095Y-148860299D01*
X154493505Y-148692312D01*
X154707312Y-148478505D01*
X154875299Y-148227095D01*
X154991011Y-147947743D01*
X155050000Y-147651184D01*
X155050000Y-147348816D01*
X154991011Y-147052257D01*
X154875299Y-146772905D01*
X154707312Y-146521495D01*
X154493505Y-146307688D01*
X154242095Y-146139701D01*
X153962743Y-146023989D01*
X153666184Y-145965000D01*
X153363816Y-145965000D01*
X153106070Y-146016269D01*
X150425000Y-143335199D01*
X150425000Y-142619721D01*
X157155000Y-142619721D01*
X157155000Y-143040279D01*
X157237047Y-143452756D01*
X157397988Y-143841302D01*
X157631637Y-144190983D01*
X157929017Y-144488363D01*
X158278698Y-144722012D01*
X158667244Y-144882953D01*
X159079721Y-144965000D01*
X159500279Y-144965000D01*
X159912756Y-144882953D01*
X160301302Y-144722012D01*
X160650983Y-144488363D01*
X160758035Y-144381311D01*
X160786463Y-144434494D01*
X160865815Y-144531185D01*
X160962506Y-144610537D01*
X161072820Y-144669502D01*
X161192518Y-144705812D01*
X161317000Y-144718072D01*
X162270002Y-144718072D01*
X162270002Y-146007714D01*
X162159482Y-145974188D01*
X162035000Y-145961928D01*
X160235000Y-145961928D01*
X160110518Y-145974188D01*
X159990820Y-146010498D01*
X159880506Y-146069463D01*
X159783815Y-146148815D01*
X159704463Y-146245506D01*
X159645498Y-146355820D01*
X159609188Y-146475518D01*
X159596928Y-146600000D01*
X159596928Y-148400000D01*
X159609188Y-148524482D01*
X159645498Y-148644180D01*
X159704463Y-148754494D01*
X159783815Y-148851185D01*
X159880506Y-148930537D01*
X159990820Y-148989502D01*
X160110518Y-149025812D01*
X160235000Y-149038072D01*
X162035000Y-149038072D01*
X162159482Y-149025812D01*
X162270002Y-148992286D01*
X162270001Y-155797940D01*
X161978722Y-155740000D01*
X161681278Y-155740000D01*
X161389549Y-155798029D01*
X161114747Y-155911856D01*
X160867431Y-156077107D01*
X160657107Y-156287431D01*
X160491856Y-156534747D01*
X160378029Y-156809549D01*
X160320000Y-157101278D01*
X160320000Y-157398722D01*
X160378029Y-157690451D01*
X160491856Y-157965253D01*
X160657107Y-158212569D01*
X160867431Y-158422893D01*
X161114747Y-158588144D01*
X161389549Y-158701971D01*
X161681278Y-158760000D01*
X161978722Y-158760000D01*
X162270001Y-158702060D01*
X162270001Y-160441928D01*
X161317000Y-160441928D01*
X161192518Y-160454188D01*
X161072820Y-160490498D01*
X160962506Y-160549463D01*
X160865815Y-160628815D01*
X160786463Y-160725506D01*
X160758035Y-160778689D01*
X160650983Y-160671637D01*
X160301302Y-160437988D01*
X159912756Y-160277047D01*
X159500279Y-160195000D01*
X159079721Y-160195000D01*
X158667244Y-160277047D01*
X158278698Y-160437988D01*
X157929017Y-160671637D01*
X157631637Y-160969017D01*
X157397988Y-161318698D01*
X157237047Y-161707244D01*
X157155000Y-162119721D01*
X157155000Y-162540279D01*
X157237047Y-162952756D01*
X157397988Y-163341302D01*
X157631637Y-163690983D01*
X157929017Y-163988363D01*
X158278698Y-164222012D01*
X158667244Y-164382953D01*
X159079721Y-164465000D01*
X159500279Y-164465000D01*
X159912756Y-164382953D01*
X160301302Y-164222012D01*
X160650983Y-163988363D01*
X160758035Y-163881311D01*
X160786463Y-163934494D01*
X160865815Y-164031185D01*
X160962506Y-164110537D01*
X161072820Y-164169502D01*
X161192518Y-164205812D01*
X161317000Y-164218072D01*
X163867000Y-164218072D01*
X163991482Y-164205812D01*
X164111180Y-164169502D01*
X164221494Y-164110537D01*
X164318185Y-164031185D01*
X164397537Y-163934494D01*
X164456502Y-163824180D01*
X164492812Y-163704482D01*
X164505072Y-163580000D01*
X164505072Y-161080000D01*
X164492812Y-160955518D01*
X164456502Y-160835820D01*
X164397537Y-160725506D01*
X164318185Y-160628815D01*
X164221494Y-160549463D01*
X164111180Y-160490498D01*
X163991482Y-160454188D01*
X163867000Y-160441928D01*
X163790001Y-160441928D01*
X163790001Y-144718072D01*
X163867000Y-144718072D01*
X163991482Y-144705812D01*
X164111180Y-144669502D01*
X164221494Y-144610537D01*
X164318185Y-144531185D01*
X164397537Y-144434494D01*
X164456502Y-144324180D01*
X164492812Y-144204482D01*
X164505072Y-144080000D01*
X164505072Y-141991729D01*
X167761004Y-138735798D01*
X167790001Y-138712001D01*
X167884974Y-138596276D01*
X167955546Y-138464247D01*
X167999003Y-138320986D01*
X168010000Y-138209333D01*
X168010000Y-138209325D01*
X168013676Y-138172000D01*
X168010000Y-138134675D01*
X168010000Y-118635989D01*
X168123482Y-118624812D01*
X168243180Y-118588502D01*
X168353494Y-118529537D01*
X168450185Y-118450185D01*
X168529537Y-118353494D01*
X168588502Y-118243180D01*
X168624812Y-118123482D01*
X168637072Y-117999000D01*
X168637072Y-116501000D01*
X168624812Y-116376518D01*
X168588502Y-116256820D01*
X168529537Y-116146506D01*
X168450185Y-116049815D01*
X168353494Y-115970463D01*
X168243180Y-115911498D01*
X168123482Y-115875188D01*
X168010000Y-115864011D01*
X168010000Y-111906707D01*
X168132249Y-111825023D01*
X168325023Y-111632249D01*
X168476485Y-111405570D01*
X168580814Y-111153698D01*
X168634000Y-110886312D01*
X168634000Y-110613688D01*
X168580814Y-110346302D01*
X168476485Y-110094430D01*
X168325023Y-109867751D01*
X168132249Y-109674977D01*
X167905570Y-109523515D01*
X167653698Y-109419186D01*
X167386312Y-109366000D01*
X167113688Y-109366000D01*
X166846302Y-109419186D01*
X166594430Y-109523515D01*
X166367751Y-109674977D01*
X166174977Y-109867751D01*
X166023515Y-110094430D01*
X165919186Y-110346302D01*
X165866000Y-110613688D01*
X165866000Y-110886312D01*
X165919186Y-111153698D01*
X166023515Y-111405570D01*
X166174977Y-111632249D01*
X166367751Y-111825023D01*
X166490000Y-111906707D01*
X166490001Y-115864011D01*
X166376518Y-115875188D01*
X166256820Y-115911498D01*
X166146506Y-115970463D01*
X166049815Y-116049815D01*
X165970463Y-116146506D01*
X165911498Y-116256820D01*
X165875188Y-116376518D01*
X165862928Y-116501000D01*
X165862928Y-117999000D01*
X165875188Y-118123482D01*
X165911498Y-118243180D01*
X165970463Y-118353494D01*
X166049815Y-118450185D01*
X166146506Y-118529537D01*
X166256820Y-118588502D01*
X166376518Y-118624812D01*
X166490001Y-118635989D01*
X166490000Y-137857198D01*
X163405271Y-140941928D01*
X161317000Y-140941928D01*
X161192518Y-140954188D01*
X161072820Y-140990498D01*
X160962506Y-141049463D01*
X160865815Y-141128815D01*
X160786463Y-141225506D01*
X160758035Y-141278689D01*
X160650983Y-141171637D01*
X160301302Y-140937988D01*
X159912756Y-140777047D01*
X159500279Y-140695000D01*
X159079721Y-140695000D01*
X158667244Y-140777047D01*
X158278698Y-140937988D01*
X157929017Y-141171637D01*
X157631637Y-141469017D01*
X157397988Y-141818698D01*
X157237047Y-142207244D01*
X157155000Y-142619721D01*
X150425000Y-142619721D01*
X150425000Y-142178072D01*
X150940000Y-142178072D01*
X151064482Y-142165812D01*
X151184180Y-142129502D01*
X151294494Y-142070537D01*
X151391185Y-141991185D01*
X151470537Y-141894494D01*
X151489560Y-141858906D01*
X151579017Y-141948363D01*
X151928698Y-142182012D01*
X152317244Y-142342953D01*
X152729721Y-142425000D01*
X153150279Y-142425000D01*
X153562756Y-142342953D01*
X153951302Y-142182012D01*
X154300983Y-141948363D01*
X154598363Y-141650983D01*
X154832012Y-141301302D01*
X154992953Y-140912756D01*
X155075000Y-140500279D01*
X155075000Y-140079721D01*
X155005905Y-139732358D01*
X155070285Y-139796738D01*
X155501859Y-140085107D01*
X155981399Y-140283739D01*
X156490475Y-140385000D01*
X157009525Y-140385000D01*
X157518601Y-140283739D01*
X157998141Y-140085107D01*
X158429715Y-139796738D01*
X158796738Y-139429715D01*
X159085107Y-138998141D01*
X159283739Y-138518601D01*
X159385000Y-138009525D01*
X159385000Y-137601278D01*
X160320000Y-137601278D01*
X160320000Y-137898722D01*
X160378029Y-138190451D01*
X160491856Y-138465253D01*
X160657107Y-138712569D01*
X160867431Y-138922893D01*
X161114747Y-139088144D01*
X161389549Y-139201971D01*
X161681278Y-139260000D01*
X161978722Y-139260000D01*
X162270451Y-139201971D01*
X162545253Y-139088144D01*
X162792569Y-138922893D01*
X163002893Y-138712569D01*
X163168144Y-138465253D01*
X163281971Y-138190451D01*
X163340000Y-137898722D01*
X163340000Y-137601278D01*
X163281971Y-137309549D01*
X163168144Y-137034747D01*
X163002893Y-136787431D01*
X162792569Y-136577107D01*
X162545253Y-136411856D01*
X162270451Y-136298029D01*
X161978722Y-136240000D01*
X161681278Y-136240000D01*
X161389549Y-136298029D01*
X161114747Y-136411856D01*
X160867431Y-136577107D01*
X160657107Y-136787431D01*
X160491856Y-137034747D01*
X160378029Y-137309549D01*
X160320000Y-137601278D01*
X159385000Y-137601278D01*
X159385000Y-137490475D01*
X159283739Y-136981399D01*
X159085107Y-136501859D01*
X158796738Y-136070285D01*
X158429715Y-135703262D01*
X157998141Y-135414893D01*
X157518601Y-135216261D01*
X157009525Y-135115000D01*
X156490475Y-135115000D01*
X155981399Y-135216261D01*
X155501859Y-135414893D01*
X155070285Y-135703262D01*
X154703262Y-136070285D01*
X154414893Y-136501859D01*
X154216261Y-136981399D01*
X154115000Y-137490475D01*
X154115000Y-138009525D01*
X154216261Y-138518601D01*
X154248578Y-138596621D01*
X153951302Y-138397988D01*
X153562756Y-138237047D01*
X153150279Y-138155000D01*
X153129023Y-138155000D01*
X153180000Y-137898722D01*
X153180000Y-137601278D01*
X153121971Y-137309549D01*
X153008144Y-137034747D01*
X152842893Y-136787431D01*
X152632569Y-136577107D01*
X152385253Y-136411856D01*
X152110451Y-136298029D01*
X151818722Y-136240000D01*
X151521278Y-136240000D01*
X151229549Y-136298029D01*
X150954747Y-136411856D01*
X150707431Y-136577107D01*
X150497107Y-136787431D01*
X150331856Y-137034747D01*
X150218029Y-137309549D01*
X150160000Y-137601278D01*
X150160000Y-137898722D01*
X150218029Y-138190451D01*
X150305626Y-138401928D01*
X148390000Y-138401928D01*
X148265518Y-138414188D01*
X148145820Y-138450498D01*
X148035506Y-138509463D01*
X147938815Y-138588815D01*
X147859463Y-138685506D01*
X147800498Y-138795820D01*
X147764188Y-138915518D01*
X147751928Y-139040000D01*
X143117305Y-139040000D01*
X143292569Y-138922893D01*
X143502893Y-138712569D01*
X143668144Y-138465253D01*
X143781971Y-138190451D01*
X143840000Y-137898722D01*
X143840000Y-137601278D01*
X143781971Y-137309549D01*
X143668144Y-137034747D01*
X143502893Y-136787431D01*
X143292569Y-136577107D01*
X143045253Y-136411856D01*
X142770451Y-136298029D01*
X142478722Y-136240000D01*
X142181278Y-136240000D01*
X141889549Y-136298029D01*
X141614747Y-136411856D01*
X141367431Y-136577107D01*
X141157107Y-136787431D01*
X140991856Y-137034747D01*
X140878029Y-137309549D01*
X140820000Y-137601278D01*
X140335001Y-137601278D01*
X140335001Y-134792323D01*
X140338677Y-134755000D01*
X140335001Y-134717677D01*
X140335001Y-134717668D01*
X140324004Y-134606015D01*
X140280547Y-134462754D01*
X140209975Y-134330725D01*
X140115002Y-134215000D01*
X140086005Y-134191203D01*
X131028688Y-125133887D01*
X131065000Y-124951335D01*
X131065000Y-124668665D01*
X131020509Y-124444999D01*
X138350198Y-124444999D01*
X143471312Y-129566114D01*
X143435000Y-129748665D01*
X143435000Y-130031335D01*
X143490147Y-130308574D01*
X143598320Y-130569727D01*
X143755363Y-130804759D01*
X143955241Y-131004637D01*
X144187759Y-131160000D01*
X143955241Y-131315363D01*
X143755363Y-131515241D01*
X143598320Y-131750273D01*
X143490147Y-132011426D01*
X143435000Y-132288665D01*
X143435000Y-132571335D01*
X143490147Y-132848574D01*
X143598320Y-133109727D01*
X143755363Y-133344759D01*
X143955241Y-133544637D01*
X144187759Y-133700000D01*
X143955241Y-133855363D01*
X143755363Y-134055241D01*
X143598320Y-134290273D01*
X143490147Y-134551426D01*
X143435000Y-134828665D01*
X143435000Y-135111335D01*
X143490147Y-135388574D01*
X143598320Y-135649727D01*
X143755363Y-135884759D01*
X143955241Y-136084637D01*
X144190273Y-136241680D01*
X144451426Y-136349853D01*
X144728665Y-136405000D01*
X145011335Y-136405000D01*
X145288574Y-136349853D01*
X145549727Y-136241680D01*
X145784759Y-136084637D01*
X145984637Y-135884759D01*
X146141680Y-135649727D01*
X146249853Y-135388574D01*
X146305000Y-135111335D01*
X146305000Y-134828665D01*
X146249853Y-134551426D01*
X146141680Y-134290273D01*
X145984637Y-134055241D01*
X145784759Y-133855363D01*
X145552241Y-133700000D01*
X145784759Y-133544637D01*
X145984637Y-133344759D01*
X146141680Y-133109727D01*
X146249853Y-132848574D01*
X146305000Y-132571335D01*
X146305000Y-132288665D01*
X146249853Y-132011426D01*
X146141680Y-131750273D01*
X145984637Y-131515241D01*
X145784759Y-131315363D01*
X145552241Y-131160000D01*
X145784759Y-131004637D01*
X145984637Y-130804759D01*
X146141680Y-130569727D01*
X146249853Y-130308574D01*
X146305000Y-130031335D01*
X146305000Y-129748665D01*
X146249853Y-129471426D01*
X146141680Y-129210273D01*
X145984637Y-128975241D01*
X145784759Y-128775363D01*
X145552241Y-128620000D01*
X145784759Y-128464637D01*
X145984637Y-128264759D01*
X146141680Y-128029727D01*
X146249853Y-127768574D01*
X146305000Y-127491335D01*
X146305000Y-127208665D01*
X146249853Y-126931426D01*
X146141680Y-126670273D01*
X145984637Y-126435241D01*
X145784759Y-126235363D01*
X145552241Y-126080000D01*
X145784759Y-125924637D01*
X145984637Y-125724759D01*
X146141680Y-125489727D01*
X146249853Y-125228574D01*
X146305000Y-124951335D01*
X146305000Y-124668665D01*
X146249853Y-124391426D01*
X146141680Y-124130273D01*
X145984637Y-123895241D01*
X145784759Y-123695363D01*
X145552241Y-123540000D01*
X145784759Y-123384637D01*
X145984637Y-123184759D01*
X146141680Y-122949727D01*
X146249853Y-122688574D01*
X146305000Y-122411335D01*
X146305000Y-122128665D01*
X146249853Y-121851426D01*
X146141680Y-121590273D01*
X145984637Y-121355241D01*
X145784759Y-121155363D01*
X145552241Y-121000000D01*
X145784759Y-120844637D01*
X145984637Y-120644759D01*
X146141680Y-120409727D01*
X146249853Y-120148574D01*
X146278478Y-120004667D01*
X151114667Y-120004667D01*
X151114667Y-129995333D01*
X151120544Y-130055271D01*
X151126003Y-130115257D01*
X151126637Y-130117412D01*
X151126856Y-130119643D01*
X151144241Y-130177224D01*
X151161269Y-130235081D01*
X151162310Y-130237073D01*
X151162958Y-130239218D01*
X151191243Y-130292415D01*
X151219138Y-130345773D01*
X151220541Y-130347518D01*
X151221597Y-130349504D01*
X151259672Y-130396187D01*
X151297404Y-130443118D01*
X151299126Y-130444563D01*
X151300542Y-130446299D01*
X151346871Y-130484626D01*
X151393088Y-130523406D01*
X151395058Y-130524489D01*
X151396784Y-130525917D01*
X151449676Y-130554516D01*
X151502544Y-130583580D01*
X151504687Y-130584260D01*
X151506657Y-130585325D01*
X151564172Y-130603129D01*
X151621604Y-130621347D01*
X151623832Y-130621597D01*
X151625977Y-130622261D01*
X151685844Y-130628553D01*
X151745731Y-130635271D01*
X151750046Y-130635301D01*
X151750199Y-130635317D01*
X151750352Y-130635303D01*
X151754667Y-130635333D01*
X161745333Y-130635333D01*
X161805271Y-130629456D01*
X161865257Y-130623997D01*
X161867412Y-130623363D01*
X161869643Y-130623144D01*
X161927224Y-130605759D01*
X161985081Y-130588731D01*
X161987073Y-130587690D01*
X161989218Y-130587042D01*
X162042415Y-130558757D01*
X162095773Y-130530862D01*
X162097518Y-130529459D01*
X162099504Y-130528403D01*
X162146187Y-130490328D01*
X162193118Y-130452596D01*
X162194563Y-130450874D01*
X162196299Y-130449458D01*
X162234626Y-130403129D01*
X162273406Y-130356912D01*
X162274489Y-130354942D01*
X162275917Y-130353216D01*
X162304516Y-130300324D01*
X162333580Y-130247456D01*
X162334260Y-130245313D01*
X162335325Y-130243343D01*
X162353129Y-130185828D01*
X162371347Y-130128396D01*
X162371597Y-130126168D01*
X162372261Y-130124023D01*
X162378553Y-130064156D01*
X162385271Y-130004269D01*
X162385301Y-129999954D01*
X162385317Y-129999801D01*
X162385303Y-129999648D01*
X162385333Y-129995333D01*
X162385333Y-127624000D01*
X163053928Y-127624000D01*
X163053928Y-129424000D01*
X163066188Y-129548482D01*
X163102498Y-129668180D01*
X163161463Y-129778494D01*
X163240815Y-129875185D01*
X163337506Y-129954537D01*
X163447820Y-130013502D01*
X163567518Y-130049812D01*
X163692000Y-130062072D01*
X165492000Y-130062072D01*
X165616482Y-130049812D01*
X165736180Y-130013502D01*
X165846494Y-129954537D01*
X165943185Y-129875185D01*
X166022537Y-129778494D01*
X166081502Y-129668180D01*
X166117812Y-129548482D01*
X166130072Y-129424000D01*
X166130072Y-127624000D01*
X166117812Y-127499518D01*
X166081502Y-127379820D01*
X166022537Y-127269506D01*
X165943185Y-127172815D01*
X165846494Y-127093463D01*
X165736180Y-127034498D01*
X165616482Y-126998188D01*
X165492000Y-126985928D01*
X163692000Y-126985928D01*
X163567518Y-126998188D01*
X163447820Y-127034498D01*
X163337506Y-127093463D01*
X163240815Y-127172815D01*
X163161463Y-127269506D01*
X163102498Y-127379820D01*
X163066188Y-127499518D01*
X163053928Y-127624000D01*
X162385333Y-127624000D01*
X162385333Y-120004667D01*
X162379456Y-119944729D01*
X162373997Y-119884743D01*
X162373363Y-119882588D01*
X162373144Y-119880357D01*
X162355759Y-119822776D01*
X162338731Y-119764919D01*
X162337690Y-119762927D01*
X162337042Y-119760782D01*
X162308757Y-119707585D01*
X162280862Y-119654227D01*
X162279459Y-119652482D01*
X162278403Y-119650496D01*
X162240328Y-119603813D01*
X162202596Y-119556882D01*
X162200874Y-119555437D01*
X162199458Y-119553701D01*
X162153129Y-119515374D01*
X162106912Y-119476594D01*
X162104942Y-119475511D01*
X162103216Y-119474083D01*
X162050324Y-119445484D01*
X161997456Y-119416420D01*
X161995313Y-119415740D01*
X161993343Y-119414675D01*
X161935828Y-119396871D01*
X161878396Y-119378653D01*
X161876168Y-119378403D01*
X161874023Y-119377739D01*
X161814156Y-119371447D01*
X161754269Y-119364729D01*
X161749954Y-119364699D01*
X161749801Y-119364683D01*
X161749648Y-119364697D01*
X161745333Y-119364667D01*
X151754667Y-119364667D01*
X151694729Y-119370544D01*
X151634743Y-119376003D01*
X151632588Y-119376637D01*
X151630357Y-119376856D01*
X151572776Y-119394241D01*
X151514919Y-119411269D01*
X151512927Y-119412310D01*
X151510782Y-119412958D01*
X151457585Y-119441243D01*
X151404227Y-119469138D01*
X151402482Y-119470541D01*
X151400496Y-119471597D01*
X151353813Y-119509672D01*
X151306882Y-119547404D01*
X151305437Y-119549126D01*
X151303701Y-119550542D01*
X151265374Y-119596871D01*
X151226594Y-119643088D01*
X151225511Y-119645058D01*
X151224083Y-119646784D01*
X151195484Y-119699676D01*
X151166420Y-119752544D01*
X151165740Y-119754687D01*
X151164675Y-119756657D01*
X151146871Y-119814172D01*
X151128653Y-119871604D01*
X151128403Y-119873832D01*
X151127739Y-119875977D01*
X151121447Y-119935844D01*
X151114729Y-119995731D01*
X151114699Y-120000046D01*
X151114683Y-120000199D01*
X151114697Y-120000352D01*
X151114667Y-120004667D01*
X146278478Y-120004667D01*
X146305000Y-119871335D01*
X146305000Y-119588665D01*
X146249853Y-119311426D01*
X146141680Y-119050273D01*
X145984637Y-118815241D01*
X145784759Y-118615363D01*
X145552241Y-118460000D01*
X145784759Y-118304637D01*
X145922506Y-118166890D01*
X156288524Y-118166890D01*
X156333175Y-118314099D01*
X156458359Y-118576920D01*
X156632412Y-118810269D01*
X156848645Y-119005178D01*
X157098748Y-119154157D01*
X157373109Y-119251481D01*
X157603000Y-119130814D01*
X157603000Y-117937000D01*
X157857000Y-117937000D01*
X157857000Y-119130814D01*
X158086891Y-119251481D01*
X158361252Y-119154157D01*
X158611355Y-119005178D01*
X158827588Y-118810269D01*
X159001641Y-118576920D01*
X159126825Y-118314099D01*
X159171476Y-118166890D01*
X159050155Y-117937000D01*
X157857000Y-117937000D01*
X157603000Y-117937000D01*
X156409845Y-117937000D01*
X156288524Y-118166890D01*
X145922506Y-118166890D01*
X145984637Y-118104759D01*
X146141680Y-117869727D01*
X146249853Y-117608574D01*
X146305000Y-117331335D01*
X146305000Y-117048665D01*
X146249853Y-116771426D01*
X146151923Y-116535001D01*
X154647677Y-116535001D01*
X154684999Y-116538677D01*
X154722321Y-116535001D01*
X154722332Y-116535001D01*
X154833985Y-116524004D01*
X154977246Y-116480547D01*
X155109275Y-116409975D01*
X155225000Y-116315002D01*
X155248803Y-116285998D01*
X156245000Y-115289801D01*
X156245000Y-115416260D01*
X156302068Y-115703158D01*
X156414010Y-115973411D01*
X156576525Y-116216632D01*
X156783368Y-116423475D01*
X156965534Y-116545195D01*
X156848645Y-116614822D01*
X156632412Y-116809731D01*
X156458359Y-117043080D01*
X156333175Y-117305901D01*
X156288524Y-117453110D01*
X156409845Y-117683000D01*
X157603000Y-117683000D01*
X157603000Y-117663000D01*
X157857000Y-117663000D01*
X157857000Y-117683000D01*
X159050155Y-117683000D01*
X159171476Y-117453110D01*
X159126825Y-117305901D01*
X159001641Y-117043080D01*
X158827588Y-116809731D01*
X158611355Y-116614822D01*
X158494466Y-116545195D01*
X158676632Y-116423475D01*
X158883475Y-116216632D01*
X159045990Y-115973411D01*
X159157932Y-115703158D01*
X159215000Y-115416260D01*
X159215000Y-115123740D01*
X159157932Y-114836842D01*
X159045990Y-114566589D01*
X158883475Y-114323368D01*
X158676632Y-114116525D01*
X158502240Y-114000000D01*
X158676632Y-113883475D01*
X158883475Y-113676632D01*
X159045990Y-113433411D01*
X159157932Y-113163158D01*
X159215000Y-112876260D01*
X159215000Y-112583740D01*
X159157932Y-112296842D01*
X159045990Y-112026589D01*
X158883475Y-111783368D01*
X158751620Y-111651513D01*
X158824180Y-111629502D01*
X158934494Y-111570537D01*
X159031185Y-111491185D01*
X159110537Y-111394494D01*
X159169502Y-111284180D01*
X159205812Y-111164482D01*
X159218072Y-111040000D01*
X159218072Y-110613688D01*
X161366000Y-110613688D01*
X161366000Y-110886312D01*
X161419186Y-111153698D01*
X161523515Y-111405570D01*
X161674977Y-111632249D01*
X161867751Y-111825023D01*
X161990001Y-111906708D01*
X161990000Y-116093293D01*
X161867751Y-116174977D01*
X161674977Y-116367751D01*
X161523515Y-116594430D01*
X161419186Y-116846302D01*
X161366000Y-117113688D01*
X161366000Y-117386312D01*
X161419186Y-117653698D01*
X161523515Y-117905570D01*
X161674977Y-118132249D01*
X161867751Y-118325023D01*
X162094430Y-118476485D01*
X162346302Y-118580814D01*
X162613688Y-118634000D01*
X162886312Y-118634000D01*
X163030515Y-118605317D01*
X163832001Y-119406804D01*
X163832001Y-119565687D01*
X163613495Y-119711688D01*
X163399688Y-119925495D01*
X163231701Y-120176905D01*
X163115989Y-120456257D01*
X163057000Y-120752816D01*
X163057000Y-121055184D01*
X163115989Y-121351743D01*
X163231701Y-121631095D01*
X163399688Y-121882505D01*
X163613495Y-122096312D01*
X163864905Y-122264299D01*
X164144257Y-122380011D01*
X164440816Y-122439000D01*
X164743184Y-122439000D01*
X165039743Y-122380011D01*
X165319095Y-122264299D01*
X165570505Y-122096312D01*
X165784312Y-121882505D01*
X165952299Y-121631095D01*
X166068011Y-121351743D01*
X166127000Y-121055184D01*
X166127000Y-120752816D01*
X166068011Y-120456257D01*
X165952299Y-120176905D01*
X165784312Y-119925495D01*
X165570505Y-119711688D01*
X165352000Y-119565687D01*
X165352000Y-119129322D01*
X165355676Y-119091999D01*
X165352000Y-119054676D01*
X165352000Y-119054667D01*
X165341003Y-118943014D01*
X165297546Y-118799753D01*
X165226974Y-118667724D01*
X165201819Y-118637072D01*
X165155799Y-118580996D01*
X165155795Y-118580992D01*
X165132001Y-118551999D01*
X165103008Y-118528205D01*
X164105317Y-117530515D01*
X164134000Y-117386312D01*
X164134000Y-117113688D01*
X164080814Y-116846302D01*
X163976485Y-116594430D01*
X163825023Y-116367751D01*
X163632249Y-116174977D01*
X163510000Y-116093293D01*
X163510000Y-111906707D01*
X163632249Y-111825023D01*
X163825023Y-111632249D01*
X163976485Y-111405570D01*
X164080814Y-111153698D01*
X164134000Y-110886312D01*
X164134000Y-110613688D01*
X164080814Y-110346302D01*
X163976485Y-110094430D01*
X163825023Y-109867751D01*
X163632249Y-109674977D01*
X163405570Y-109523515D01*
X163153698Y-109419186D01*
X162886312Y-109366000D01*
X162613688Y-109366000D01*
X162346302Y-109419186D01*
X162094430Y-109523515D01*
X161867751Y-109674977D01*
X161674977Y-109867751D01*
X161523515Y-110094430D01*
X161419186Y-110346302D01*
X161366000Y-110613688D01*
X159218072Y-110613688D01*
X159218072Y-109340000D01*
X159205812Y-109215518D01*
X159169502Y-109095820D01*
X159110537Y-108985506D01*
X159031185Y-108888815D01*
X159008599Y-108870279D01*
X161073326Y-108870279D01*
X161138729Y-109109045D01*
X161385538Y-109224845D01*
X161650195Y-109290270D01*
X161922531Y-109302805D01*
X162192081Y-109261970D01*
X162448484Y-109169332D01*
X162561271Y-109109045D01*
X162626674Y-108870279D01*
X167573326Y-108870279D01*
X167638729Y-109109045D01*
X167885538Y-109224845D01*
X168150195Y-109290270D01*
X168422531Y-109302805D01*
X168692081Y-109261970D01*
X168948484Y-109169332D01*
X169061271Y-109109045D01*
X169126674Y-108870279D01*
X168350000Y-108093605D01*
X167573326Y-108870279D01*
X162626674Y-108870279D01*
X161850000Y-108093605D01*
X161073326Y-108870279D01*
X159008599Y-108870279D01*
X158934494Y-108809463D01*
X158824180Y-108750498D01*
X158704482Y-108714188D01*
X158580000Y-108701928D01*
X156880000Y-108701928D01*
X156755518Y-108714188D01*
X156635820Y-108750498D01*
X156525506Y-108809463D01*
X156428815Y-108888815D01*
X156349463Y-108985506D01*
X156290498Y-109095820D01*
X156254188Y-109215518D01*
X156241928Y-109340000D01*
X156241928Y-110603270D01*
X154370198Y-112475001D01*
X146260509Y-112475001D01*
X146305000Y-112251335D01*
X146305000Y-111968665D01*
X146268688Y-111786113D01*
X150068270Y-107986531D01*
X160461195Y-107986531D01*
X160502030Y-108256081D01*
X160594668Y-108512484D01*
X160654955Y-108625271D01*
X160893721Y-108690674D01*
X161670395Y-107914000D01*
X162029605Y-107914000D01*
X162806279Y-108690674D01*
X163045045Y-108625271D01*
X163160845Y-108378462D01*
X163226270Y-108113805D01*
X163232128Y-107986531D01*
X166961195Y-107986531D01*
X167002030Y-108256081D01*
X167094668Y-108512484D01*
X167154955Y-108625271D01*
X167393721Y-108690674D01*
X168170395Y-107914000D01*
X168529605Y-107914000D01*
X169306279Y-108690674D01*
X169545045Y-108625271D01*
X169660845Y-108378462D01*
X169726270Y-108113805D01*
X169738805Y-107841469D01*
X169697970Y-107571919D01*
X169605332Y-107315516D01*
X169545045Y-107202729D01*
X169306279Y-107137326D01*
X168529605Y-107914000D01*
X168170395Y-107914000D01*
X167393721Y-107137326D01*
X167154955Y-107202729D01*
X167039155Y-107449538D01*
X166973730Y-107714195D01*
X166961195Y-107986531D01*
X163232128Y-107986531D01*
X163238805Y-107841469D01*
X163197970Y-107571919D01*
X163105332Y-107315516D01*
X163045045Y-107202729D01*
X162806279Y-107137326D01*
X162029605Y-107914000D01*
X161670395Y-107914000D01*
X160893721Y-107137326D01*
X160654955Y-107202729D01*
X160539155Y-107449538D01*
X160473730Y-107714195D01*
X160461195Y-107986531D01*
X150068270Y-107986531D01*
X151097080Y-106957721D01*
X161073326Y-106957721D01*
X161850000Y-107734395D01*
X162626674Y-106957721D01*
X167573326Y-106957721D01*
X168350000Y-107734395D01*
X169126674Y-106957721D01*
X169061271Y-106718955D01*
X168814462Y-106603155D01*
X168549805Y-106537730D01*
X168277469Y-106525195D01*
X168007919Y-106566030D01*
X167751516Y-106658668D01*
X167638729Y-106718955D01*
X167573326Y-106957721D01*
X162626674Y-106957721D01*
X162561271Y-106718955D01*
X162314462Y-106603155D01*
X162049805Y-106537730D01*
X161777469Y-106525195D01*
X161507919Y-106566030D01*
X161251516Y-106658668D01*
X161138729Y-106718955D01*
X161073326Y-106957721D01*
X151097080Y-106957721D01*
X153880802Y-104174000D01*
X160464011Y-104174000D01*
X160475188Y-104287482D01*
X160511498Y-104407180D01*
X160570463Y-104517494D01*
X160649815Y-104614185D01*
X160746506Y-104693537D01*
X160856820Y-104752502D01*
X160976518Y-104788812D01*
X161101000Y-104801072D01*
X162599000Y-104801072D01*
X162723482Y-104788812D01*
X162843180Y-104752502D01*
X162953494Y-104693537D01*
X163050185Y-104614185D01*
X163129537Y-104517494D01*
X163188502Y-104407180D01*
X163224812Y-104287482D01*
X163235989Y-104174000D01*
X167193293Y-104174000D01*
X167274977Y-104296249D01*
X167467751Y-104489023D01*
X167694430Y-104640485D01*
X167946302Y-104744814D01*
X168213688Y-104798000D01*
X168486312Y-104798000D01*
X168753698Y-104744814D01*
X169005570Y-104640485D01*
X169232249Y-104489023D01*
X169425023Y-104296249D01*
X169576485Y-104069570D01*
X169680814Y-103817698D01*
X169734000Y-103550312D01*
X169734000Y-103277688D01*
X169680814Y-103010302D01*
X169576485Y-102758430D01*
X169425023Y-102531751D01*
X169232249Y-102338977D01*
X169005570Y-102187515D01*
X168753698Y-102083186D01*
X168486312Y-102030000D01*
X168213688Y-102030000D01*
X167946302Y-102083186D01*
X167694430Y-102187515D01*
X167467751Y-102338977D01*
X167274977Y-102531751D01*
X167193293Y-102654000D01*
X163235989Y-102654000D01*
X163224812Y-102540518D01*
X163188502Y-102420820D01*
X163129537Y-102310506D01*
X163050185Y-102213815D01*
X162953494Y-102134463D01*
X162843180Y-102075498D01*
X162723482Y-102039188D01*
X162599000Y-102026928D01*
X161101000Y-102026928D01*
X160976518Y-102039188D01*
X160856820Y-102075498D01*
X160746506Y-102134463D01*
X160649815Y-102213815D01*
X160570463Y-102310506D01*
X160511498Y-102420820D01*
X160475188Y-102540518D01*
X160464011Y-102654000D01*
X153603322Y-102654000D01*
X153565999Y-102650324D01*
X153528676Y-102654000D01*
X153528667Y-102654000D01*
X153417014Y-102664997D01*
X153273753Y-102708454D01*
X153141723Y-102779026D01*
X153109198Y-102805719D01*
X153025999Y-102873999D01*
X153002201Y-102902997D01*
X146305266Y-109599933D01*
X146310217Y-109499488D01*
X146268787Y-109219870D01*
X146173603Y-108953708D01*
X146106671Y-108828486D01*
X145862702Y-108756903D01*
X145049605Y-109570000D01*
X145063748Y-109584143D01*
X144884143Y-109763748D01*
X144870000Y-109749605D01*
X144056903Y-110562702D01*
X144128486Y-110806671D01*
X144192992Y-110837194D01*
X144190273Y-110838320D01*
X143955241Y-110995363D01*
X143755363Y-111195241D01*
X143598320Y-111430273D01*
X143490147Y-111691426D01*
X143435000Y-111968665D01*
X143435000Y-112251335D01*
X143479491Y-112475001D01*
X133622321Y-112475001D01*
X133584998Y-112471325D01*
X133547675Y-112475001D01*
X133547666Y-112475001D01*
X133436013Y-112485998D01*
X133292752Y-112529455D01*
X133160723Y-112600027D01*
X133044998Y-112695000D01*
X133021200Y-112723998D01*
X131065266Y-114679933D01*
X131070217Y-114579488D01*
X131028787Y-114299870D01*
X130933603Y-114033708D01*
X130866671Y-113908486D01*
X130622702Y-113836903D01*
X129809605Y-114650000D01*
X129823748Y-114664143D01*
X129644143Y-114843748D01*
X129630000Y-114829605D01*
X128816903Y-115642702D01*
X128888486Y-115886671D01*
X128952992Y-115917194D01*
X128950273Y-115918320D01*
X128715241Y-116075363D01*
X128515363Y-116275241D01*
X128358320Y-116510273D01*
X128250147Y-116771426D01*
X128195000Y-117048665D01*
X128195000Y-117331335D01*
X128250147Y-117608574D01*
X128358320Y-117869727D01*
X128515363Y-118104759D01*
X128715241Y-118304637D01*
X128947759Y-118460000D01*
X128715241Y-118615363D01*
X128515363Y-118815241D01*
X128365031Y-119040229D01*
X124045314Y-114720512D01*
X128189783Y-114720512D01*
X128231213Y-115000130D01*
X128326397Y-115266292D01*
X128393329Y-115391514D01*
X128637298Y-115463097D01*
X129450395Y-114650000D01*
X128637298Y-113836903D01*
X128393329Y-113908486D01*
X128272429Y-114163996D01*
X128203700Y-114438184D01*
X128189783Y-114720512D01*
X124045314Y-114720512D01*
X122427504Y-113102702D01*
X128816903Y-113102702D01*
X128888486Y-113346671D01*
X128954636Y-113377971D01*
X128888486Y-113413329D01*
X128816903Y-113657298D01*
X129630000Y-114470395D01*
X130443097Y-113657298D01*
X130371514Y-113413329D01*
X130305364Y-113382029D01*
X130371514Y-113346671D01*
X130443097Y-113102702D01*
X129630000Y-112289605D01*
X128816903Y-113102702D01*
X122427504Y-113102702D01*
X121505314Y-112180512D01*
X128189783Y-112180512D01*
X128231213Y-112460130D01*
X128326397Y-112726292D01*
X128393329Y-112851514D01*
X128637298Y-112923097D01*
X129450395Y-112110000D01*
X129809605Y-112110000D01*
X130622702Y-112923097D01*
X130866671Y-112851514D01*
X130987571Y-112596004D01*
X131056300Y-112321816D01*
X131070217Y-112039488D01*
X131028787Y-111759870D01*
X130933603Y-111493708D01*
X130866671Y-111368486D01*
X130622702Y-111296903D01*
X129809605Y-112110000D01*
X129450395Y-112110000D01*
X128637298Y-111296903D01*
X128393329Y-111368486D01*
X128272429Y-111623996D01*
X128203700Y-111898184D01*
X128189783Y-112180512D01*
X121505314Y-112180512D01*
X116116372Y-106791571D01*
X116147000Y-106637592D01*
X116147000Y-106362408D01*
X116120663Y-106230000D01*
X128191928Y-106230000D01*
X128191928Y-107830000D01*
X128204188Y-107954482D01*
X128240498Y-108074180D01*
X128299463Y-108184494D01*
X128378815Y-108281185D01*
X128475506Y-108360537D01*
X128585820Y-108419502D01*
X128705518Y-108455812D01*
X128713961Y-108456643D01*
X128515363Y-108655241D01*
X128358320Y-108890273D01*
X128250147Y-109151426D01*
X128195000Y-109428665D01*
X128195000Y-109711335D01*
X128250147Y-109988574D01*
X128358320Y-110249727D01*
X128515363Y-110484759D01*
X128715241Y-110684637D01*
X128949128Y-110840915D01*
X128888486Y-110873329D01*
X128816903Y-111117298D01*
X129630000Y-111930395D01*
X130443097Y-111117298D01*
X130371514Y-110873329D01*
X130307008Y-110842806D01*
X130309727Y-110841680D01*
X130544759Y-110684637D01*
X130744637Y-110484759D01*
X130901680Y-110249727D01*
X131009853Y-109988574D01*
X131065000Y-109711335D01*
X131065000Y-109640512D01*
X143429783Y-109640512D01*
X143471213Y-109920130D01*
X143566397Y-110186292D01*
X143633329Y-110311514D01*
X143877298Y-110383097D01*
X144690395Y-109570000D01*
X143877298Y-108756903D01*
X143633329Y-108828486D01*
X143512429Y-109083996D01*
X143443700Y-109358184D01*
X143429783Y-109640512D01*
X131065000Y-109640512D01*
X131065000Y-109428665D01*
X131009853Y-109151426D01*
X130901680Y-108890273D01*
X130744637Y-108655241D01*
X130546039Y-108456643D01*
X130554482Y-108455812D01*
X130674180Y-108419502D01*
X130784494Y-108360537D01*
X130881185Y-108281185D01*
X130960537Y-108184494D01*
X131019502Y-108074180D01*
X131055812Y-107954482D01*
X131068072Y-107830000D01*
X131068072Y-106888665D01*
X143435000Y-106888665D01*
X143435000Y-107171335D01*
X143490147Y-107448574D01*
X143598320Y-107709727D01*
X143755363Y-107944759D01*
X143955241Y-108144637D01*
X144189128Y-108300915D01*
X144128486Y-108333329D01*
X144056903Y-108577298D01*
X144870000Y-109390395D01*
X145683097Y-108577298D01*
X145611514Y-108333329D01*
X145547008Y-108302806D01*
X145549727Y-108301680D01*
X145784759Y-108144637D01*
X145984637Y-107944759D01*
X146141680Y-107709727D01*
X146249853Y-107448574D01*
X146305000Y-107171335D01*
X146305000Y-106888665D01*
X146249853Y-106611426D01*
X146141680Y-106350273D01*
X145984637Y-106115241D01*
X145784759Y-105915363D01*
X145549727Y-105758320D01*
X145288574Y-105650147D01*
X145011335Y-105595000D01*
X144728665Y-105595000D01*
X144451426Y-105650147D01*
X144190273Y-105758320D01*
X143955241Y-105915363D01*
X143755363Y-106115241D01*
X143598320Y-106350273D01*
X143490147Y-106611426D01*
X143435000Y-106888665D01*
X131068072Y-106888665D01*
X131068072Y-106230000D01*
X131055812Y-106105518D01*
X131019502Y-105985820D01*
X130960537Y-105875506D01*
X130881185Y-105778815D01*
X130784494Y-105699463D01*
X130674180Y-105640498D01*
X130554482Y-105604188D01*
X130430000Y-105591928D01*
X128830000Y-105591928D01*
X128705518Y-105604188D01*
X128585820Y-105640498D01*
X128475506Y-105699463D01*
X128378815Y-105778815D01*
X128299463Y-105875506D01*
X128240498Y-105985820D01*
X128204188Y-106105518D01*
X128191928Y-106230000D01*
X116120663Y-106230000D01*
X116093314Y-106092510D01*
X115988005Y-105838273D01*
X115835120Y-105609465D01*
X115640535Y-105414880D01*
X115411727Y-105261995D01*
X115157490Y-105156686D01*
X114887592Y-105103000D01*
X114612408Y-105103000D01*
X114342510Y-105156686D01*
X114088273Y-105261995D01*
X113859465Y-105414880D01*
X113664880Y-105609465D01*
X113511995Y-105838273D01*
X113500758Y-105865401D01*
X113455656Y-105781020D01*
X113215565Y-105714040D01*
X112429605Y-106500000D01*
X112443748Y-106514143D01*
X112264143Y-106693748D01*
X112250000Y-106679605D01*
X112235858Y-106693748D01*
X112056253Y-106514143D01*
X112070395Y-106500000D01*
X111284435Y-105714040D01*
X111044344Y-105781020D01*
X111001782Y-105871533D01*
X110988005Y-105838273D01*
X110835120Y-105609465D01*
X110760090Y-105534435D01*
X111464040Y-105534435D01*
X112250000Y-106320395D01*
X113035960Y-105534435D01*
X112968980Y-105294344D01*
X112719952Y-105177244D01*
X112452865Y-105110977D01*
X112177983Y-105098090D01*
X111905867Y-105139078D01*
X111646977Y-105232364D01*
X111531020Y-105294344D01*
X111464040Y-105534435D01*
X110760090Y-105534435D01*
X110640535Y-105414880D01*
X110411727Y-105261995D01*
X110157490Y-105156686D01*
X109887592Y-105103000D01*
X109612408Y-105103000D01*
X109342510Y-105156686D01*
X109088273Y-105261995D01*
X108859465Y-105414880D01*
X108664880Y-105609465D01*
X108511995Y-105838273D01*
X108406686Y-106092510D01*
X108353000Y-106362408D01*
X100685000Y-106362408D01*
X100685000Y-104033504D01*
X100751356Y-103356752D01*
X100938168Y-102738002D01*
X101241602Y-102167325D01*
X101650104Y-101666452D01*
X102148112Y-101254464D01*
X102716658Y-100947052D01*
X103334090Y-100755925D01*
X104008894Y-100685000D01*
X170466496Y-100685000D01*
X171143248Y-100751356D01*
%TA.AperFunction,Conductor*%
D25*
G36*
X171143248Y-100751356D02*
G01*
X171761998Y-100938168D01*
X172332675Y-101241602D01*
X172833548Y-101650104D01*
X173245536Y-102148112D01*
X173552948Y-102716658D01*
X173744075Y-103334090D01*
X173815000Y-104008894D01*
X173815001Y-167966486D01*
X173748644Y-168643248D01*
X173561833Y-169261996D01*
X173258398Y-169832675D01*
X172849896Y-170333548D01*
X172351888Y-170745536D01*
X171783342Y-171052948D01*
X171165909Y-171244075D01*
X170491107Y-171315000D01*
X104033504Y-171315000D01*
X103356752Y-171248644D01*
X102738004Y-171061833D01*
X102167325Y-170758398D01*
X101666452Y-170349896D01*
X101254464Y-169851888D01*
X100947052Y-169283342D01*
X100755925Y-168665909D01*
X100685000Y-167991107D01*
X100685000Y-158540000D01*
X108751928Y-158540000D01*
X108751928Y-161040000D01*
X108764188Y-161164482D01*
X108800498Y-161284180D01*
X108859463Y-161394494D01*
X108938815Y-161491185D01*
X109035506Y-161570537D01*
X109145820Y-161629502D01*
X109265518Y-161665812D01*
X109390000Y-161678072D01*
X109905001Y-161678072D01*
X109905001Y-163112668D01*
X109901324Y-163150000D01*
X109915998Y-163298985D01*
X109959454Y-163442246D01*
X110030026Y-163574276D01*
X110101201Y-163661002D01*
X110125000Y-163690001D01*
X110153998Y-163713799D01*
X113031269Y-166591070D01*
X112980000Y-166848816D01*
X112980000Y-167151184D01*
X113038989Y-167447743D01*
X113154701Y-167727095D01*
X113322688Y-167978505D01*
X113536495Y-168192312D01*
X113787905Y-168360299D01*
X114067257Y-168476011D01*
X114363816Y-168535000D01*
X114666184Y-168535000D01*
X114962743Y-168476011D01*
X115242095Y-168360299D01*
X115493505Y-168192312D01*
X115707312Y-167978505D01*
X115875299Y-167727095D01*
X115991011Y-167447743D01*
X116050000Y-167151184D01*
X116050000Y-166848816D01*
X115991011Y-166552257D01*
X115875299Y-166272905D01*
X115707312Y-166021495D01*
X115493505Y-165807688D01*
X115242095Y-165639701D01*
X114962743Y-165523989D01*
X114666184Y-165465000D01*
X114363816Y-165465000D01*
X114106070Y-165516269D01*
X111425000Y-162835199D01*
X111425000Y-161678072D01*
X111940000Y-161678072D01*
X112064482Y-161665812D01*
X112184180Y-161629502D01*
X112294494Y-161570537D01*
X112391185Y-161491185D01*
X112470537Y-161394494D01*
X112489560Y-161358906D01*
X112579017Y-161448363D01*
X112928698Y-161682012D01*
X113317244Y-161842953D01*
X113729721Y-161925000D01*
X114150279Y-161925000D01*
X114562756Y-161842953D01*
X114951302Y-161682012D01*
X115300983Y-161448363D01*
X115598363Y-161150983D01*
X115832012Y-160801302D01*
X115992953Y-160412756D01*
X116075000Y-160000279D01*
X116075000Y-159579721D01*
X116005905Y-159232358D01*
X116070285Y-159296738D01*
X116501859Y-159585107D01*
X116981399Y-159783739D01*
X117490475Y-159885000D01*
X118009525Y-159885000D01*
X118518601Y-159783739D01*
X118998141Y-159585107D01*
X119429715Y-159296738D01*
X119796738Y-158929715D01*
X120085107Y-158498141D01*
X120283739Y-158018601D01*
X120385000Y-157509525D01*
X120385000Y-156990475D01*
X120283739Y-156481399D01*
X120085107Y-156001859D01*
X119796738Y-155570285D01*
X119429715Y-155203262D01*
X118998141Y-154914893D01*
X118518601Y-154716261D01*
X118009525Y-154615000D01*
X117490475Y-154615000D01*
X116981399Y-154716261D01*
X116501859Y-154914893D01*
X116070285Y-155203262D01*
X115703262Y-155570285D01*
X115414893Y-156001859D01*
X115216261Y-156481399D01*
X115115000Y-156990475D01*
X115115000Y-157509525D01*
X115216261Y-158018601D01*
X115248578Y-158096621D01*
X114951302Y-157897988D01*
X114562756Y-157737047D01*
X114150279Y-157655000D01*
X114129023Y-157655000D01*
X114180000Y-157398722D01*
X114180000Y-157101278D01*
X114121971Y-156809549D01*
X114008144Y-156534747D01*
X113842893Y-156287431D01*
X113632569Y-156077107D01*
X113385253Y-155911856D01*
X113110451Y-155798029D01*
X112818722Y-155740000D01*
X112521278Y-155740000D01*
X112229549Y-155798029D01*
X111954747Y-155911856D01*
X111707431Y-156077107D01*
X111497107Y-156287431D01*
X111331856Y-156534747D01*
X111218029Y-156809549D01*
X111160000Y-157101278D01*
X111160000Y-157398722D01*
X111218029Y-157690451D01*
X111305626Y-157901928D01*
X109390000Y-157901928D01*
X109265518Y-157914188D01*
X109145820Y-157950498D01*
X109035506Y-158009463D01*
X108938815Y-158088815D01*
X108859463Y-158185506D01*
X108800498Y-158295820D01*
X108764188Y-158415518D01*
X108751928Y-158540000D01*
X100685000Y-158540000D01*
X100685000Y-140058428D01*
X102350000Y-140058428D01*
X102350000Y-148485571D01*
X106170000Y-148485571D01*
X106170000Y-140058428D01*
X102350000Y-140058428D01*
X100685000Y-140058428D01*
X100685000Y-139040000D01*
X108751928Y-139040000D01*
X108751928Y-141540000D01*
X108764188Y-141664482D01*
X108800498Y-141784180D01*
X108859463Y-141894494D01*
X108938815Y-141991185D01*
X109035506Y-142070537D01*
X109145820Y-142129502D01*
X109265518Y-142165812D01*
X109390000Y-142178072D01*
X109905001Y-142178072D01*
X109905001Y-143612668D01*
X109901324Y-143650000D01*
X109915998Y-143798985D01*
X109959454Y-143942246D01*
X110030026Y-144074276D01*
X110101201Y-144161002D01*
X110125000Y-144190001D01*
X110153998Y-144213799D01*
X113031269Y-147091070D01*
X112980000Y-147348816D01*
X112980000Y-147651184D01*
X113038989Y-147947743D01*
X113154701Y-148227095D01*
X113322688Y-148478505D01*
X113536495Y-148692312D01*
X113787905Y-148860299D01*
X114067257Y-148976011D01*
X114363816Y-149035000D01*
X114666184Y-149035000D01*
X114962743Y-148976011D01*
X115242095Y-148860299D01*
X115493505Y-148692312D01*
X115707312Y-148478505D01*
X115875299Y-148227095D01*
X115991011Y-147947743D01*
X116050000Y-147651184D01*
X116050000Y-147348816D01*
X115991011Y-147052257D01*
X115875299Y-146772905D01*
X115707312Y-146521495D01*
X115493505Y-146307688D01*
X115242095Y-146139701D01*
X114962743Y-146023989D01*
X114666184Y-145965000D01*
X114363816Y-145965000D01*
X114106070Y-146016269D01*
X111425000Y-143335199D01*
X111425000Y-142178072D01*
X111940000Y-142178072D01*
X112064482Y-142165812D01*
X112184180Y-142129502D01*
X112294494Y-142070537D01*
X112391185Y-141991185D01*
X112470537Y-141894494D01*
X112489560Y-141858906D01*
X112579017Y-141948363D01*
X112928698Y-142182012D01*
X113317244Y-142342953D01*
X113729721Y-142425000D01*
X114150279Y-142425000D01*
X114562756Y-142342953D01*
X114951302Y-142182012D01*
X115300983Y-141948363D01*
X115598363Y-141650983D01*
X115832012Y-141301302D01*
X115992953Y-140912756D01*
X116075000Y-140500279D01*
X116075000Y-140079721D01*
X116005905Y-139732358D01*
X116070285Y-139796738D01*
X116501859Y-140085107D01*
X116981399Y-140283739D01*
X117490475Y-140385000D01*
X118009525Y-140385000D01*
X118518601Y-140283739D01*
X118998141Y-140085107D01*
X119429715Y-139796738D01*
X119796738Y-139429715D01*
X120085107Y-138998141D01*
X120283739Y-138518601D01*
X120385000Y-138009525D01*
X120385000Y-137490475D01*
X120283739Y-136981399D01*
X120085107Y-136501859D01*
X119796738Y-136070285D01*
X119429715Y-135703262D01*
X118998141Y-135414893D01*
X118518601Y-135216261D01*
X118009525Y-135115000D01*
X117490475Y-135115000D01*
X116981399Y-135216261D01*
X116501859Y-135414893D01*
X116070285Y-135703262D01*
X115703262Y-136070285D01*
X115414893Y-136501859D01*
X115216261Y-136981399D01*
X115115000Y-137490475D01*
X115115000Y-138009525D01*
X115216261Y-138518601D01*
X115248578Y-138596621D01*
X114951302Y-138397988D01*
X114562756Y-138237047D01*
X114150279Y-138155000D01*
X114129023Y-138155000D01*
X114180000Y-137898722D01*
X114180000Y-137601278D01*
X114121971Y-137309549D01*
X114008144Y-137034747D01*
X113842893Y-136787431D01*
X113632569Y-136577107D01*
X113385253Y-136411856D01*
X113110451Y-136298029D01*
X112818722Y-136240000D01*
X112521278Y-136240000D01*
X112229549Y-136298029D01*
X111954747Y-136411856D01*
X111707431Y-136577107D01*
X111497107Y-136787431D01*
X111331856Y-137034747D01*
X111218029Y-137309549D01*
X111160000Y-137601278D01*
X111160000Y-137898722D01*
X111218029Y-138190451D01*
X111305626Y-138401928D01*
X109390000Y-138401928D01*
X109265518Y-138414188D01*
X109145820Y-138450498D01*
X109035506Y-138509463D01*
X108938815Y-138588815D01*
X108859463Y-138685506D01*
X108800498Y-138795820D01*
X108764188Y-138915518D01*
X108751928Y-139040000D01*
X100685000Y-139040000D01*
X100685000Y-125832816D01*
X107177000Y-125832816D01*
X107177000Y-126135184D01*
X107235989Y-126431743D01*
X107351701Y-126711095D01*
X107519688Y-126962505D01*
X107733495Y-127176312D01*
X107984905Y-127344299D01*
X108264257Y-127460011D01*
X108560816Y-127519000D01*
X108863184Y-127519000D01*
X109159743Y-127460011D01*
X109439095Y-127344299D01*
X109690505Y-127176312D01*
X109904312Y-126962505D01*
X110072299Y-126711095D01*
X110188011Y-126431743D01*
X110247000Y-126135184D01*
X110247000Y-125832816D01*
X110195731Y-125575070D01*
X110261003Y-125509799D01*
X110290001Y-125486001D01*
X110384974Y-125370276D01*
X110455546Y-125238247D01*
X110499003Y-125094986D01*
X110510000Y-124983333D01*
X110510000Y-124983325D01*
X110513676Y-124946000D01*
X110510000Y-124908675D01*
X110510000Y-122172341D01*
X110640535Y-122085120D01*
X110835120Y-121890535D01*
X110988005Y-121661727D01*
X111093314Y-121407490D01*
X111147000Y-121137592D01*
X111147000Y-120862408D01*
X111093314Y-120592510D01*
X110988005Y-120338273D01*
X110835120Y-120109465D01*
X110640535Y-119914880D01*
X110411727Y-119761995D01*
X110157490Y-119656686D01*
X109887592Y-119603000D01*
X109612408Y-119603000D01*
X109342510Y-119656686D01*
X109088273Y-119761995D01*
X108859465Y-119914880D01*
X108664880Y-120109465D01*
X108511995Y-120338273D01*
X108406686Y-120592510D01*
X108353000Y-120862408D01*
X108353000Y-121137592D01*
X108406686Y-121407490D01*
X108511995Y-121661727D01*
X108664880Y-121890535D01*
X108859465Y-122085120D01*
X108990000Y-122172341D01*
X108990001Y-124474225D01*
X108863184Y-124449000D01*
X108560816Y-124449000D01*
X108264257Y-124507989D01*
X107984905Y-124623701D01*
X107733495Y-124791688D01*
X107519688Y-125005495D01*
X107351701Y-125256905D01*
X107235989Y-125536257D01*
X107177000Y-125832816D01*
X100685000Y-125832816D01*
X100685000Y-112650000D01*
X105761928Y-112650000D01*
X105761928Y-115350000D01*
X105774188Y-115474482D01*
X105810498Y-115594180D01*
X105869463Y-115704494D01*
X105948815Y-115801185D01*
X106045506Y-115880537D01*
X106155820Y-115939502D01*
X106275518Y-115975812D01*
X106400000Y-115988072D01*
X108700000Y-115988072D01*
X108824482Y-115975812D01*
X108944180Y-115939502D01*
X109054494Y-115880537D01*
X109151185Y-115801185D01*
X109230537Y-115704494D01*
X109289502Y-115594180D01*
X109325812Y-115474482D01*
X109338072Y-115350000D01*
X109338072Y-112650000D01*
X109325812Y-112525518D01*
X109289502Y-112405820D01*
X109230537Y-112295506D01*
X109151185Y-112198815D01*
X109054494Y-112119463D01*
X108944180Y-112060498D01*
X108824482Y-112024188D01*
X108700000Y-112011928D01*
X106400000Y-112011928D01*
X106275518Y-112024188D01*
X106155820Y-112060498D01*
X106045506Y-112119463D01*
X105948815Y-112198815D01*
X105869463Y-112295506D01*
X105810498Y-112405820D01*
X105774188Y-112525518D01*
X105761928Y-112650000D01*
X100685000Y-112650000D01*
X100685000Y-106362408D01*
X108353000Y-106362408D01*
X108353000Y-106637592D01*
X108406686Y-106907490D01*
X108511995Y-107161727D01*
X108664880Y-107390535D01*
X108859465Y-107585120D01*
X109088273Y-107738005D01*
X109342510Y-107843314D01*
X109612408Y-107897000D01*
X109887592Y-107897000D01*
X110041570Y-107866372D01*
X110273201Y-108098003D01*
X110297000Y-108127002D01*
X110325998Y-108150800D01*
X110412725Y-108221975D01*
X110544754Y-108292547D01*
X110688015Y-108336004D01*
X110837001Y-108350678D01*
X110874334Y-108347001D01*
X113307202Y-108347001D01*
X116972129Y-112011928D01*
X115800000Y-112011928D01*
X115675518Y-112024188D01*
X115555820Y-112060498D01*
X115445506Y-112119463D01*
X115348815Y-112198815D01*
X115269463Y-112295506D01*
X115210498Y-112405820D01*
X115174188Y-112525518D01*
X115161928Y-112650000D01*
X115161928Y-115350000D01*
X115174188Y-115474482D01*
X115210498Y-115594180D01*
X115269463Y-115704494D01*
X115348815Y-115801185D01*
X115445506Y-115880537D01*
X115555820Y-115939502D01*
X115675518Y-115975812D01*
X115800000Y-115988072D01*
X118100000Y-115988072D01*
X118224482Y-115975812D01*
X118344180Y-115939502D01*
X118454494Y-115880537D01*
X118551185Y-115801185D01*
X118630537Y-115704494D01*
X118689502Y-115594180D01*
X118725812Y-115474482D01*
X118738072Y-115350000D01*
X118738072Y-113777871D01*
X125200200Y-120240000D01*
X115922341Y-120240000D01*
X115835120Y-120109465D01*
X115640535Y-119914880D01*
X115411727Y-119761995D01*
X115157490Y-119656686D01*
X114887592Y-119603000D01*
X114612408Y-119603000D01*
X114342510Y-119656686D01*
X114088273Y-119761995D01*
X113859465Y-119914880D01*
X113664880Y-120109465D01*
X113511995Y-120338273D01*
X113406686Y-120592510D01*
X113353000Y-120862408D01*
X113353000Y-121137592D01*
X113406686Y-121407490D01*
X113511995Y-121661727D01*
X113664880Y-121890535D01*
X113859465Y-122085120D01*
X114088273Y-122238005D01*
X114342510Y-122343314D01*
X114612408Y-122397000D01*
X114887592Y-122397000D01*
X115157490Y-122343314D01*
X115411727Y-122238005D01*
X115640535Y-122085120D01*
X115835120Y-121890535D01*
X115922341Y-121760000D01*
X125505199Y-121760000D01*
X128231312Y-124486114D01*
X128195000Y-124668665D01*
X128195000Y-124951335D01*
X128248804Y-125221821D01*
X128226678Y-125224000D01*
X117870072Y-125224000D01*
X117870072Y-125084000D01*
X117857812Y-124959518D01*
X117821502Y-124839820D01*
X117762537Y-124729506D01*
X117683185Y-124632815D01*
X117586494Y-124553463D01*
X117476180Y-124494498D01*
X117356482Y-124458188D01*
X117232000Y-124445928D01*
X115432000Y-124445928D01*
X115307518Y-124458188D01*
X115187820Y-124494498D01*
X115077506Y-124553463D01*
X114980815Y-124632815D01*
X114901463Y-124729506D01*
X114842498Y-124839820D01*
X114806188Y-124959518D01*
X114793928Y-125084000D01*
X114793928Y-126884000D01*
X114806188Y-127008482D01*
X114842498Y-127128180D01*
X114901463Y-127238494D01*
X114980815Y-127335185D01*
X115077506Y-127414537D01*
X115187820Y-127473502D01*
X115307518Y-127509812D01*
X115432000Y-127522072D01*
X117232000Y-127522072D01*
X117356482Y-127509812D01*
X117476180Y-127473502D01*
X117586494Y-127414537D01*
X117683185Y-127335185D01*
X117762537Y-127238494D01*
X117821502Y-127128180D01*
X117857812Y-127008482D01*
X117870072Y-126884000D01*
X117870072Y-126744000D01*
X127949199Y-126744000D01*
X128231312Y-127026114D01*
X128195000Y-127208665D01*
X128195000Y-127491335D01*
X128250147Y-127768574D01*
X128358320Y-128029727D01*
X128515363Y-128264759D01*
X128715241Y-128464637D01*
X128947759Y-128620000D01*
X128715241Y-128775363D01*
X128515363Y-128975241D01*
X128358320Y-129210273D01*
X128250147Y-129471426D01*
X128195000Y-129748665D01*
X128195000Y-130031335D01*
X128231312Y-130213886D01*
X123518999Y-134926200D01*
X123490001Y-134949998D01*
X123466203Y-134978996D01*
X123466202Y-134978997D01*
X123395027Y-135065723D01*
X123324455Y-135197753D01*
X123280999Y-135341014D01*
X123266325Y-135489999D01*
X123270002Y-135527331D01*
X123270002Y-136297940D01*
X122978722Y-136240000D01*
X122681278Y-136240000D01*
X122389549Y-136298029D01*
X122114747Y-136411856D01*
X121867431Y-136577107D01*
X121657107Y-136787431D01*
X121491856Y-137034747D01*
X121378029Y-137309549D01*
X121320000Y-137601278D01*
X121320000Y-137898722D01*
X121378029Y-138190451D01*
X121491856Y-138465253D01*
X121657107Y-138712569D01*
X121867431Y-138922893D01*
X122114747Y-139088144D01*
X122389549Y-139201971D01*
X122681278Y-139260000D01*
X122978722Y-139260000D01*
X123270001Y-139202060D01*
X123270001Y-140941928D01*
X122317000Y-140941928D01*
X122192518Y-140954188D01*
X122072820Y-140990498D01*
X121962506Y-141049463D01*
X121865815Y-141128815D01*
X121786463Y-141225506D01*
X121758035Y-141278689D01*
X121650983Y-141171637D01*
X121301302Y-140937988D01*
X120912756Y-140777047D01*
X120500279Y-140695000D01*
X120079721Y-140695000D01*
X119667244Y-140777047D01*
X119278698Y-140937988D01*
X118929017Y-141171637D01*
X118631637Y-141469017D01*
X118397988Y-141818698D01*
X118237047Y-142207244D01*
X118155000Y-142619721D01*
X118155000Y-143040279D01*
X118237047Y-143452756D01*
X118397988Y-143841302D01*
X118631637Y-144190983D01*
X118929017Y-144488363D01*
X119278698Y-144722012D01*
X119667244Y-144882953D01*
X120079721Y-144965000D01*
X120500279Y-144965000D01*
X120912756Y-144882953D01*
X121301302Y-144722012D01*
X121650983Y-144488363D01*
X121758035Y-144381311D01*
X121786463Y-144434494D01*
X121865815Y-144531185D01*
X121962506Y-144610537D01*
X122072820Y-144669502D01*
X122192518Y-144705812D01*
X122317000Y-144718072D01*
X123270002Y-144718072D01*
X123270002Y-146007714D01*
X123159482Y-145974188D01*
X123035000Y-145961928D01*
X121235000Y-145961928D01*
X121110518Y-145974188D01*
X120990820Y-146010498D01*
X120880506Y-146069463D01*
X120783815Y-146148815D01*
X120704463Y-146245506D01*
X120645498Y-146355820D01*
X120609188Y-146475518D01*
X120596928Y-146600000D01*
X120596928Y-148400000D01*
X120609188Y-148524482D01*
X120645498Y-148644180D01*
X120704463Y-148754494D01*
X120783815Y-148851185D01*
X120880506Y-148930537D01*
X120990820Y-148989502D01*
X121110518Y-149025812D01*
X121235000Y-149038072D01*
X123035000Y-149038072D01*
X123159482Y-149025812D01*
X123270002Y-148992286D01*
X123270001Y-155797940D01*
X122978722Y-155740000D01*
X122681278Y-155740000D01*
X122389549Y-155798029D01*
X122114747Y-155911856D01*
X121867431Y-156077107D01*
X121657107Y-156287431D01*
X121491856Y-156534747D01*
X121378029Y-156809549D01*
X121320000Y-157101278D01*
X121320000Y-157398722D01*
X121378029Y-157690451D01*
X121491856Y-157965253D01*
X121657107Y-158212569D01*
X121867431Y-158422893D01*
X122114747Y-158588144D01*
X122389549Y-158701971D01*
X122681278Y-158760000D01*
X122978722Y-158760000D01*
X123270001Y-158702060D01*
X123270001Y-160441928D01*
X122317000Y-160441928D01*
X122192518Y-160454188D01*
X122072820Y-160490498D01*
X121962506Y-160549463D01*
X121865815Y-160628815D01*
X121786463Y-160725506D01*
X121758035Y-160778689D01*
X121650983Y-160671637D01*
X121301302Y-160437988D01*
X120912756Y-160277047D01*
X120500279Y-160195000D01*
X120079721Y-160195000D01*
X119667244Y-160277047D01*
X119278698Y-160437988D01*
X118929017Y-160671637D01*
X118631637Y-160969017D01*
X118397988Y-161318698D01*
X118237047Y-161707244D01*
X118155000Y-162119721D01*
X118155000Y-162540279D01*
X118237047Y-162952756D01*
X118397988Y-163341302D01*
X118631637Y-163690983D01*
X118929017Y-163988363D01*
X119278698Y-164222012D01*
X119667244Y-164382953D01*
X120079721Y-164465000D01*
X120500279Y-164465000D01*
X120912756Y-164382953D01*
X121301302Y-164222012D01*
X121650983Y-163988363D01*
X121758035Y-163881311D01*
X121786463Y-163934494D01*
X121865815Y-164031185D01*
X121962506Y-164110537D01*
X122072820Y-164169502D01*
X122192518Y-164205812D01*
X122317000Y-164218072D01*
X123842127Y-164218072D01*
X122598271Y-165461928D01*
X121235000Y-165461928D01*
X121110518Y-165474188D01*
X120990820Y-165510498D01*
X120880506Y-165569463D01*
X120783815Y-165648815D01*
X120704463Y-165745506D01*
X120645498Y-165855820D01*
X120609188Y-165975518D01*
X120596928Y-166100000D01*
X120596928Y-167900000D01*
X120609188Y-168024482D01*
X120645498Y-168144180D01*
X120704463Y-168254494D01*
X120783815Y-168351185D01*
X120880506Y-168430537D01*
X120990820Y-168489502D01*
X121110518Y-168525812D01*
X121235000Y-168538072D01*
X122598270Y-168538072D01*
X122796202Y-168736004D01*
X122820000Y-168765002D01*
X122848998Y-168788800D01*
X122935724Y-168859975D01*
X123042844Y-168917232D01*
X123067754Y-168930547D01*
X123211015Y-168974004D01*
X123322668Y-168985001D01*
X123322677Y-168985001D01*
X123360000Y-168988677D01*
X123397323Y-168985001D01*
X140372677Y-168985001D01*
X140409999Y-168988677D01*
X140447321Y-168985001D01*
X140447332Y-168985001D01*
X140558985Y-168974004D01*
X140702246Y-168930547D01*
X140834275Y-168859975D01*
X140950000Y-168765002D01*
X140973803Y-168735998D01*
X141171729Y-168538072D01*
X142098270Y-168538072D01*
X142296202Y-168736004D01*
X142320000Y-168765002D01*
X142348998Y-168788800D01*
X142435724Y-168859975D01*
X142542844Y-168917232D01*
X142567754Y-168930547D01*
X142711015Y-168974004D01*
X142822668Y-168985001D01*
X142822677Y-168985001D01*
X142860000Y-168988677D01*
X142897323Y-168985001D01*
X159872677Y-168985001D01*
X159909999Y-168988677D01*
X159947321Y-168985001D01*
X159947332Y-168985001D01*
X160058985Y-168974004D01*
X160202246Y-168930547D01*
X160334275Y-168859975D01*
X160450000Y-168765002D01*
X160473803Y-168735998D01*
X160671729Y-168538072D01*
X162035000Y-168538072D01*
X162159482Y-168525812D01*
X162279180Y-168489502D01*
X162389494Y-168430537D01*
X162486185Y-168351185D01*
X162565537Y-168254494D01*
X162624502Y-168144180D01*
X162660812Y-168024482D01*
X162673072Y-167900000D01*
X162673072Y-166100000D01*
X162660812Y-165975518D01*
X162624502Y-165855820D01*
X162565537Y-165745506D01*
X162486185Y-165648815D01*
X162389494Y-165569463D01*
X162279180Y-165510498D01*
X162159482Y-165474188D01*
X162035000Y-165461928D01*
X160235000Y-165461928D01*
X160110518Y-165474188D01*
X159990820Y-165510498D01*
X159880506Y-165569463D01*
X159783815Y-165648815D01*
X159704463Y-165745506D01*
X159645498Y-165855820D01*
X159609188Y-165975518D01*
X159596928Y-166100000D01*
X159596928Y-167463271D01*
X159595198Y-167465001D01*
X154983862Y-167465001D01*
X154991011Y-167447743D01*
X155050000Y-167151184D01*
X155050000Y-166848816D01*
X154991011Y-166552257D01*
X154875299Y-166272905D01*
X154707312Y-166021495D01*
X154493505Y-165807688D01*
X154242095Y-165639701D01*
X153962743Y-165523989D01*
X153666184Y-165465000D01*
X153363816Y-165465000D01*
X153106070Y-165516269D01*
X150425000Y-162835199D01*
X150425000Y-161678072D01*
X150940000Y-161678072D01*
X151064482Y-161665812D01*
X151184180Y-161629502D01*
X151294494Y-161570537D01*
X151391185Y-161491185D01*
X151470537Y-161394494D01*
X151489560Y-161358906D01*
X151579017Y-161448363D01*
X151928698Y-161682012D01*
X152317244Y-161842953D01*
X152729721Y-161925000D01*
X153150279Y-161925000D01*
X153562756Y-161842953D01*
X153951302Y-161682012D01*
X154300983Y-161448363D01*
X154598363Y-161150983D01*
X154832012Y-160801302D01*
X154992953Y-160412756D01*
X155075000Y-160000279D01*
X155075000Y-159579721D01*
X155005905Y-159232358D01*
X155070285Y-159296738D01*
X155501859Y-159585107D01*
X155981399Y-159783739D01*
X156490475Y-159885000D01*
X157009525Y-159885000D01*
X157518601Y-159783739D01*
X157998141Y-159585107D01*
X158429715Y-159296738D01*
X158796738Y-158929715D01*
X159085107Y-158498141D01*
X159283739Y-158018601D01*
X159385000Y-157509525D01*
X159385000Y-156990475D01*
X159283739Y-156481399D01*
X159085107Y-156001859D01*
X158796738Y-155570285D01*
X158429715Y-155203262D01*
X157998141Y-154914893D01*
X157518601Y-154716261D01*
X157009525Y-154615000D01*
X156490475Y-154615000D01*
X155981399Y-154716261D01*
X155501859Y-154914893D01*
X155070285Y-155203262D01*
X154703262Y-155570285D01*
X154414893Y-156001859D01*
X154216261Y-156481399D01*
X154115000Y-156990475D01*
X154115000Y-157509525D01*
X154216261Y-158018601D01*
X154248578Y-158096621D01*
X153951302Y-157897988D01*
X153562756Y-157737047D01*
X153150279Y-157655000D01*
X153129023Y-157655000D01*
X153180000Y-157398722D01*
X153180000Y-157101278D01*
X153121971Y-156809549D01*
X153008144Y-156534747D01*
X152842893Y-156287431D01*
X152632569Y-156077107D01*
X152385253Y-155911856D01*
X152110451Y-155798029D01*
X151818722Y-155740000D01*
X151521278Y-155740000D01*
X151229549Y-155798029D01*
X150954747Y-155911856D01*
X150707431Y-156077107D01*
X150497107Y-156287431D01*
X150331856Y-156534747D01*
X150218029Y-156809549D01*
X150160000Y-157101278D01*
X150160000Y-157398722D01*
X150218029Y-157690451D01*
X150305626Y-157901928D01*
X148390000Y-157901928D01*
X148265518Y-157914188D01*
X148145820Y-157950498D01*
X148035506Y-158009463D01*
X147938815Y-158088815D01*
X147859463Y-158185506D01*
X147800498Y-158295820D01*
X147764188Y-158415518D01*
X147751928Y-158540000D01*
X147751928Y-161040000D01*
X147764188Y-161164482D01*
X147800498Y-161284180D01*
X147859463Y-161394494D01*
X147938815Y-161491185D01*
X148035506Y-161570537D01*
X148145820Y-161629502D01*
X148265518Y-161665812D01*
X148390000Y-161678072D01*
X148905001Y-161678072D01*
X148905001Y-163112668D01*
X148901324Y-163150000D01*
X148915998Y-163298985D01*
X148959454Y-163442246D01*
X149030026Y-163574276D01*
X149101201Y-163661002D01*
X149125000Y-163690001D01*
X149153998Y-163713799D01*
X152031269Y-166591070D01*
X151980000Y-166848816D01*
X151980000Y-167151184D01*
X152038989Y-167447743D01*
X152046138Y-167465001D01*
X143174803Y-167465001D01*
X143173072Y-167463270D01*
X143173072Y-166100000D01*
X143160812Y-165975518D01*
X143124502Y-165855820D01*
X143065537Y-165745506D01*
X142986185Y-165648815D01*
X142889494Y-165569463D01*
X142779180Y-165510498D01*
X142659482Y-165474188D01*
X142535000Y-165461928D01*
X140735000Y-165461928D01*
X140610518Y-165474188D01*
X140490820Y-165510498D01*
X140380506Y-165569463D01*
X140283815Y-165648815D01*
X140204463Y-165745506D01*
X140145498Y-165855820D01*
X140109188Y-165975518D01*
X140096928Y-166100000D01*
X140096928Y-167463271D01*
X140095198Y-167465001D01*
X135483862Y-167465001D01*
X135491011Y-167447743D01*
X135550000Y-167151184D01*
X135550000Y-166848816D01*
X135491011Y-166552257D01*
X135375299Y-166272905D01*
X135207312Y-166021495D01*
X134993505Y-165807688D01*
X134742095Y-165639701D01*
X134462743Y-165523989D01*
X134166184Y-165465000D01*
X133863816Y-165465000D01*
X133606070Y-165516269D01*
X130925000Y-162835199D01*
X130925000Y-161678072D01*
X131440000Y-161678072D01*
X131564482Y-161665812D01*
X131684180Y-161629502D01*
X131794494Y-161570537D01*
X131891185Y-161491185D01*
X131970537Y-161394494D01*
X131989560Y-161358906D01*
X132079017Y-161448363D01*
X132428698Y-161682012D01*
X132817244Y-161842953D01*
X133229721Y-161925000D01*
X133650279Y-161925000D01*
X134062756Y-161842953D01*
X134451302Y-161682012D01*
X134800983Y-161448363D01*
X135098363Y-161150983D01*
X135332012Y-160801302D01*
X135492953Y-160412756D01*
X135575000Y-160000279D01*
X135575000Y-159579721D01*
X135505905Y-159232358D01*
X135570285Y-159296738D01*
X136001859Y-159585107D01*
X136481399Y-159783739D01*
X136990475Y-159885000D01*
X137509525Y-159885000D01*
X138018601Y-159783739D01*
X138498141Y-159585107D01*
X138929715Y-159296738D01*
X139296738Y-158929715D01*
X139585107Y-158498141D01*
X139783739Y-158018601D01*
X139885000Y-157509525D01*
X139885000Y-156990475D01*
X139783739Y-156481399D01*
X139585107Y-156001859D01*
X139296738Y-155570285D01*
X138929715Y-155203262D01*
X138498141Y-154914893D01*
X138018601Y-154716261D01*
X137509525Y-154615000D01*
X136990475Y-154615000D01*
X136481399Y-154716261D01*
X136001859Y-154914893D01*
X135570285Y-155203262D01*
X135203262Y-155570285D01*
X134914893Y-156001859D01*
X134716261Y-156481399D01*
X134615000Y-156990475D01*
X134615000Y-157509525D01*
X134716261Y-158018601D01*
X134748578Y-158096621D01*
X134451302Y-157897988D01*
X134062756Y-157737047D01*
X133650279Y-157655000D01*
X133629023Y-157655000D01*
X133680000Y-157398722D01*
X133680000Y-157101278D01*
X133621971Y-156809549D01*
X133508144Y-156534747D01*
X133342893Y-156287431D01*
X133132569Y-156077107D01*
X132885253Y-155911856D01*
X132610451Y-155798029D01*
X132318722Y-155740000D01*
X132021278Y-155740000D01*
X131729549Y-155798029D01*
X131454747Y-155911856D01*
X131207431Y-156077107D01*
X130997107Y-156287431D01*
X130831856Y-156534747D01*
X130718029Y-156809549D01*
X130660000Y-157101278D01*
X130660000Y-157398722D01*
X130718029Y-157690451D01*
X130805626Y-157901928D01*
X129324999Y-157901928D01*
X129324999Y-142178072D01*
X129405001Y-142178072D01*
X129405001Y-143612668D01*
X129401324Y-143650000D01*
X129415998Y-143798985D01*
X129459454Y-143942246D01*
X129530026Y-144074276D01*
X129601201Y-144161002D01*
X129625000Y-144190001D01*
X129653998Y-144213799D01*
X132531269Y-147091070D01*
X132480000Y-147348816D01*
X132480000Y-147651184D01*
X132538989Y-147947743D01*
X132654701Y-148227095D01*
X132822688Y-148478505D01*
X133036495Y-148692312D01*
X133287905Y-148860299D01*
X133567257Y-148976011D01*
X133863816Y-149035000D01*
X134166184Y-149035000D01*
X134462743Y-148976011D01*
X134742095Y-148860299D01*
X134993505Y-148692312D01*
X135207312Y-148478505D01*
X135375299Y-148227095D01*
X135491011Y-147947743D01*
X135550000Y-147651184D01*
X135550000Y-147348816D01*
X135491011Y-147052257D01*
X135375299Y-146772905D01*
X135207312Y-146521495D01*
X134993505Y-146307688D01*
X134742095Y-146139701D01*
X134462743Y-146023989D01*
X134166184Y-145965000D01*
X133863816Y-145965000D01*
X133606070Y-146016269D01*
X130925000Y-143335199D01*
X130925000Y-142178072D01*
X131440000Y-142178072D01*
X131564482Y-142165812D01*
X131684180Y-142129502D01*
X131794494Y-142070537D01*
X131891185Y-141991185D01*
X131970537Y-141894494D01*
X131989560Y-141858906D01*
X132079017Y-141948363D01*
X132428698Y-142182012D01*
X132817244Y-142342953D01*
X133229721Y-142425000D01*
X133650279Y-142425000D01*
X134062756Y-142342953D01*
X134451302Y-142182012D01*
X134800983Y-141948363D01*
X135098363Y-141650983D01*
X135332012Y-141301302D01*
X135492953Y-140912756D01*
X135575000Y-140500279D01*
X135575000Y-140079721D01*
X135505905Y-139732358D01*
X135570285Y-139796738D01*
X136001859Y-140085107D01*
X136481399Y-140283739D01*
X136990475Y-140385000D01*
X137509525Y-140385000D01*
X138018601Y-140283739D01*
X138498141Y-140085107D01*
X138929715Y-139796738D01*
X138962181Y-139764272D01*
X138988826Y-139796738D01*
X139035001Y-139853002D01*
X139063999Y-139876800D01*
X139882199Y-140695000D01*
X139579721Y-140695000D01*
X139167244Y-140777047D01*
X138778698Y-140937988D01*
X138429017Y-141171637D01*
X138131637Y-141469017D01*
X137897988Y-141818698D01*
X137737047Y-142207244D01*
X137655000Y-142619721D01*
X137655000Y-143040279D01*
X137737047Y-143452756D01*
X137897988Y-143841302D01*
X138131637Y-144190983D01*
X138429017Y-144488363D01*
X138778698Y-144722012D01*
X139167244Y-144882953D01*
X139579721Y-144965000D01*
X140000279Y-144965000D01*
X140412756Y-144882953D01*
X140801302Y-144722012D01*
X141150983Y-144488363D01*
X141258035Y-144381311D01*
X141286463Y-144434494D01*
X141365815Y-144531185D01*
X141462506Y-144610537D01*
X141572820Y-144669502D01*
X141692518Y-144705812D01*
X141817000Y-144718072D01*
X142770002Y-144718072D01*
X142770002Y-146007714D01*
X142659482Y-145974188D01*
X142535000Y-145961928D01*
X140735000Y-145961928D01*
X140610518Y-145974188D01*
X140490820Y-146010498D01*
X140380506Y-146069463D01*
X140283815Y-146148815D01*
X140204463Y-146245506D01*
X140145498Y-146355820D01*
X140109188Y-146475518D01*
X140096928Y-146600000D01*
X140096928Y-148400000D01*
X140109188Y-148524482D01*
X140145498Y-148644180D01*
X140204463Y-148754494D01*
X140283815Y-148851185D01*
X140380506Y-148930537D01*
X140490820Y-148989502D01*
X140610518Y-149025812D01*
X140735000Y-149038072D01*
X142535000Y-149038072D01*
X142659482Y-149025812D01*
X142770002Y-148992286D01*
X142770001Y-155797940D01*
X142478722Y-155740000D01*
X142181278Y-155740000D01*
X141889549Y-155798029D01*
X141614747Y-155911856D01*
X141367431Y-156077107D01*
X141157107Y-156287431D01*
X140991856Y-156534747D01*
X140878029Y-156809549D01*
X140820000Y-157101278D01*
X140820000Y-157398722D01*
X140878029Y-157690451D01*
X140991856Y-157965253D01*
X141157107Y-158212569D01*
X141367431Y-158422893D01*
X141614747Y-158588144D01*
X141889549Y-158701971D01*
X142181278Y-158760000D01*
X142478722Y-158760000D01*
X142770001Y-158702060D01*
X142770001Y-160441928D01*
X141817000Y-160441928D01*
X141692518Y-160454188D01*
X141572820Y-160490498D01*
X141462506Y-160549463D01*
X141365815Y-160628815D01*
X141286463Y-160725506D01*
X141258035Y-160778689D01*
X141150983Y-160671637D01*
X140801302Y-160437988D01*
X140412756Y-160277047D01*
X140000279Y-160195000D01*
X139579721Y-160195000D01*
X139167244Y-160277047D01*
X138778698Y-160437988D01*
X138429017Y-160671637D01*
X138131637Y-160969017D01*
X137897988Y-161318698D01*
X137737047Y-161707244D01*
X137655000Y-162119721D01*
X137655000Y-162540279D01*
X137737047Y-162952756D01*
X137897988Y-163341302D01*
X138131637Y-163690983D01*
X138429017Y-163988363D01*
X138778698Y-164222012D01*
X139167244Y-164382953D01*
X139579721Y-164465000D01*
X140000279Y-164465000D01*
X140412756Y-164382953D01*
X140801302Y-164222012D01*
X141150983Y-163988363D01*
X141258035Y-163881311D01*
X141286463Y-163934494D01*
X141365815Y-164031185D01*
X141462506Y-164110537D01*
X141572820Y-164169502D01*
X141692518Y-164205812D01*
X141817000Y-164218072D01*
X144367000Y-164218072D01*
X144491482Y-164205812D01*
X144611180Y-164169502D01*
X144721494Y-164110537D01*
X144818185Y-164031185D01*
X144897537Y-163934494D01*
X144956502Y-163824180D01*
X144992812Y-163704482D01*
X145005072Y-163580000D01*
X145005072Y-161080000D01*
X144992812Y-160955518D01*
X144956502Y-160835820D01*
X144897537Y-160725506D01*
X144818185Y-160628815D01*
X144721494Y-160549463D01*
X144611180Y-160490498D01*
X144491482Y-160454188D01*
X144367000Y-160441928D01*
X144290001Y-160441928D01*
X144290001Y-144718072D01*
X144367000Y-144718072D01*
X144491482Y-144705812D01*
X144611180Y-144669502D01*
X144721494Y-144610537D01*
X144818185Y-144531185D01*
X144897537Y-144434494D01*
X144956502Y-144324180D01*
X144992812Y-144204482D01*
X145005072Y-144080000D01*
X145005072Y-141580000D01*
X144992812Y-141455518D01*
X144956502Y-141335820D01*
X144897537Y-141225506D01*
X144818185Y-141128815D01*
X144721494Y-141049463D01*
X144611180Y-140990498D01*
X144491482Y-140954188D01*
X144367000Y-140941928D01*
X142278730Y-140941928D01*
X140335001Y-138998200D01*
X140335001Y-137601278D01*
X140820000Y-137601278D01*
X140820000Y-137898722D01*
X140878029Y-138190451D01*
X140991856Y-138465253D01*
X141157107Y-138712569D01*
X141367431Y-138922893D01*
X141614747Y-139088144D01*
X141889549Y-139201971D01*
X142181278Y-139260000D01*
X142478722Y-139260000D01*
X142770451Y-139201971D01*
X143045253Y-139088144D01*
X143117305Y-139040000D01*
X147751928Y-139040000D01*
X147751928Y-141540000D01*
X147764188Y-141664482D01*
X147800498Y-141784180D01*
X147859463Y-141894494D01*
X147938815Y-141991185D01*
X148035506Y-142070537D01*
X148145820Y-142129502D01*
X148265518Y-142165812D01*
X148390000Y-142178072D01*
X148905001Y-142178072D01*
X148905001Y-143612668D01*
X148901324Y-143650000D01*
X148915998Y-143798985D01*
X148959454Y-143942246D01*
X149030026Y-144074276D01*
X149101201Y-144161002D01*
X149125000Y-144190001D01*
X149153998Y-144213799D01*
X152031269Y-147091070D01*
X151980000Y-147348816D01*
X151980000Y-147651184D01*
X152038989Y-147947743D01*
X152154701Y-148227095D01*
X152322688Y-148478505D01*
X152536495Y-148692312D01*
X152787905Y-148860299D01*
X153067257Y-148976011D01*
X153363816Y-149035000D01*
X153666184Y-149035000D01*
X153962743Y-148976011D01*
X154242095Y-148860299D01*
X154493505Y-148692312D01*
X154707312Y-148478505D01*
X154875299Y-148227095D01*
X154991011Y-147947743D01*
X155050000Y-147651184D01*
X155050000Y-147348816D01*
X154991011Y-147052257D01*
X154875299Y-146772905D01*
X154707312Y-146521495D01*
X154493505Y-146307688D01*
X154242095Y-146139701D01*
X153962743Y-146023989D01*
X153666184Y-145965000D01*
X153363816Y-145965000D01*
X153106070Y-146016269D01*
X150425000Y-143335199D01*
X150425000Y-142619721D01*
X157155000Y-142619721D01*
X157155000Y-143040279D01*
X157237047Y-143452756D01*
X157397988Y-143841302D01*
X157631637Y-144190983D01*
X157929017Y-144488363D01*
X158278698Y-144722012D01*
X158667244Y-144882953D01*
X159079721Y-144965000D01*
X159500279Y-144965000D01*
X159912756Y-144882953D01*
X160301302Y-144722012D01*
X160650983Y-144488363D01*
X160758035Y-144381311D01*
X160786463Y-144434494D01*
X160865815Y-144531185D01*
X160962506Y-144610537D01*
X161072820Y-144669502D01*
X161192518Y-144705812D01*
X161317000Y-144718072D01*
X162270002Y-144718072D01*
X162270002Y-146007714D01*
X162159482Y-145974188D01*
X162035000Y-145961928D01*
X160235000Y-145961928D01*
X160110518Y-145974188D01*
X159990820Y-146010498D01*
X159880506Y-146069463D01*
X159783815Y-146148815D01*
X159704463Y-146245506D01*
X159645498Y-146355820D01*
X159609188Y-146475518D01*
X159596928Y-146600000D01*
X159596928Y-148400000D01*
X159609188Y-148524482D01*
X159645498Y-148644180D01*
X159704463Y-148754494D01*
X159783815Y-148851185D01*
X159880506Y-148930537D01*
X159990820Y-148989502D01*
X160110518Y-149025812D01*
X160235000Y-149038072D01*
X162035000Y-149038072D01*
X162159482Y-149025812D01*
X162270002Y-148992286D01*
X162270001Y-155797940D01*
X161978722Y-155740000D01*
X161681278Y-155740000D01*
X161389549Y-155798029D01*
X161114747Y-155911856D01*
X160867431Y-156077107D01*
X160657107Y-156287431D01*
X160491856Y-156534747D01*
X160378029Y-156809549D01*
X160320000Y-157101278D01*
X160320000Y-157398722D01*
X160378029Y-157690451D01*
X160491856Y-157965253D01*
X160657107Y-158212569D01*
X160867431Y-158422893D01*
X161114747Y-158588144D01*
X161389549Y-158701971D01*
X161681278Y-158760000D01*
X161978722Y-158760000D01*
X162270001Y-158702060D01*
X162270001Y-160441928D01*
X161317000Y-160441928D01*
X161192518Y-160454188D01*
X161072820Y-160490498D01*
X160962506Y-160549463D01*
X160865815Y-160628815D01*
X160786463Y-160725506D01*
X160758035Y-160778689D01*
X160650983Y-160671637D01*
X160301302Y-160437988D01*
X159912756Y-160277047D01*
X159500279Y-160195000D01*
X159079721Y-160195000D01*
X158667244Y-160277047D01*
X158278698Y-160437988D01*
X157929017Y-160671637D01*
X157631637Y-160969017D01*
X157397988Y-161318698D01*
X157237047Y-161707244D01*
X157155000Y-162119721D01*
X157155000Y-162540279D01*
X157237047Y-162952756D01*
X157397988Y-163341302D01*
X157631637Y-163690983D01*
X157929017Y-163988363D01*
X158278698Y-164222012D01*
X158667244Y-164382953D01*
X159079721Y-164465000D01*
X159500279Y-164465000D01*
X159912756Y-164382953D01*
X160301302Y-164222012D01*
X160650983Y-163988363D01*
X160758035Y-163881311D01*
X160786463Y-163934494D01*
X160865815Y-164031185D01*
X160962506Y-164110537D01*
X161072820Y-164169502D01*
X161192518Y-164205812D01*
X161317000Y-164218072D01*
X163867000Y-164218072D01*
X163991482Y-164205812D01*
X164111180Y-164169502D01*
X164221494Y-164110537D01*
X164318185Y-164031185D01*
X164397537Y-163934494D01*
X164456502Y-163824180D01*
X164492812Y-163704482D01*
X164505072Y-163580000D01*
X164505072Y-161080000D01*
X164492812Y-160955518D01*
X164456502Y-160835820D01*
X164397537Y-160725506D01*
X164318185Y-160628815D01*
X164221494Y-160549463D01*
X164111180Y-160490498D01*
X163991482Y-160454188D01*
X163867000Y-160441928D01*
X163790001Y-160441928D01*
X163790001Y-144718072D01*
X163867000Y-144718072D01*
X163991482Y-144705812D01*
X164111180Y-144669502D01*
X164221494Y-144610537D01*
X164318185Y-144531185D01*
X164397537Y-144434494D01*
X164456502Y-144324180D01*
X164492812Y-144204482D01*
X164505072Y-144080000D01*
X164505072Y-141991729D01*
X167761004Y-138735798D01*
X167790001Y-138712001D01*
X167884974Y-138596276D01*
X167955546Y-138464247D01*
X167999003Y-138320986D01*
X168010000Y-138209333D01*
X168010000Y-138209325D01*
X168013676Y-138172000D01*
X168010000Y-138134675D01*
X168010000Y-118635989D01*
X168123482Y-118624812D01*
X168243180Y-118588502D01*
X168353494Y-118529537D01*
X168450185Y-118450185D01*
X168529537Y-118353494D01*
X168588502Y-118243180D01*
X168624812Y-118123482D01*
X168637072Y-117999000D01*
X168637072Y-116501000D01*
X168624812Y-116376518D01*
X168588502Y-116256820D01*
X168529537Y-116146506D01*
X168450185Y-116049815D01*
X168353494Y-115970463D01*
X168243180Y-115911498D01*
X168123482Y-115875188D01*
X168010000Y-115864011D01*
X168010000Y-111906707D01*
X168132249Y-111825023D01*
X168325023Y-111632249D01*
X168476485Y-111405570D01*
X168580814Y-111153698D01*
X168634000Y-110886312D01*
X168634000Y-110613688D01*
X168580814Y-110346302D01*
X168476485Y-110094430D01*
X168325023Y-109867751D01*
X168132249Y-109674977D01*
X167905570Y-109523515D01*
X167653698Y-109419186D01*
X167386312Y-109366000D01*
X167113688Y-109366000D01*
X166846302Y-109419186D01*
X166594430Y-109523515D01*
X166367751Y-109674977D01*
X166174977Y-109867751D01*
X166023515Y-110094430D01*
X165919186Y-110346302D01*
X165866000Y-110613688D01*
X165866000Y-110886312D01*
X165919186Y-111153698D01*
X166023515Y-111405570D01*
X166174977Y-111632249D01*
X166367751Y-111825023D01*
X166490000Y-111906707D01*
X166490001Y-115864011D01*
X166376518Y-115875188D01*
X166256820Y-115911498D01*
X166146506Y-115970463D01*
X166049815Y-116049815D01*
X165970463Y-116146506D01*
X165911498Y-116256820D01*
X165875188Y-116376518D01*
X165862928Y-116501000D01*
X165862928Y-117999000D01*
X165875188Y-118123482D01*
X165911498Y-118243180D01*
X165970463Y-118353494D01*
X166049815Y-118450185D01*
X166146506Y-118529537D01*
X166256820Y-118588502D01*
X166376518Y-118624812D01*
X166490001Y-118635989D01*
X166490000Y-137857198D01*
X163405271Y-140941928D01*
X161317000Y-140941928D01*
X161192518Y-140954188D01*
X161072820Y-140990498D01*
X160962506Y-141049463D01*
X160865815Y-141128815D01*
X160786463Y-141225506D01*
X160758035Y-141278689D01*
X160650983Y-141171637D01*
X160301302Y-140937988D01*
X159912756Y-140777047D01*
X159500279Y-140695000D01*
X159079721Y-140695000D01*
X158667244Y-140777047D01*
X158278698Y-140937988D01*
X157929017Y-141171637D01*
X157631637Y-141469017D01*
X157397988Y-141818698D01*
X157237047Y-142207244D01*
X157155000Y-142619721D01*
X150425000Y-142619721D01*
X150425000Y-142178072D01*
X150940000Y-142178072D01*
X151064482Y-142165812D01*
X151184180Y-142129502D01*
X151294494Y-142070537D01*
X151391185Y-141991185D01*
X151470537Y-141894494D01*
X151489560Y-141858906D01*
X151579017Y-141948363D01*
X151928698Y-142182012D01*
X152317244Y-142342953D01*
X152729721Y-142425000D01*
X153150279Y-142425000D01*
X153562756Y-142342953D01*
X153951302Y-142182012D01*
X154300983Y-141948363D01*
X154598363Y-141650983D01*
X154832012Y-141301302D01*
X154992953Y-140912756D01*
X155075000Y-140500279D01*
X155075000Y-140079721D01*
X155005905Y-139732358D01*
X155070285Y-139796738D01*
X155501859Y-140085107D01*
X155981399Y-140283739D01*
X156490475Y-140385000D01*
X157009525Y-140385000D01*
X157518601Y-140283739D01*
X157998141Y-140085107D01*
X158429715Y-139796738D01*
X158796738Y-139429715D01*
X159085107Y-138998141D01*
X159283739Y-138518601D01*
X159385000Y-138009525D01*
X159385000Y-137601278D01*
X160320000Y-137601278D01*
X160320000Y-137898722D01*
X160378029Y-138190451D01*
X160491856Y-138465253D01*
X160657107Y-138712569D01*
X160867431Y-138922893D01*
X161114747Y-139088144D01*
X161389549Y-139201971D01*
X161681278Y-139260000D01*
X161978722Y-139260000D01*
X162270451Y-139201971D01*
X162545253Y-139088144D01*
X162792569Y-138922893D01*
X163002893Y-138712569D01*
X163168144Y-138465253D01*
X163281971Y-138190451D01*
X163340000Y-137898722D01*
X163340000Y-137601278D01*
X163281971Y-137309549D01*
X163168144Y-137034747D01*
X163002893Y-136787431D01*
X162792569Y-136577107D01*
X162545253Y-136411856D01*
X162270451Y-136298029D01*
X161978722Y-136240000D01*
X161681278Y-136240000D01*
X161389549Y-136298029D01*
X161114747Y-136411856D01*
X160867431Y-136577107D01*
X160657107Y-136787431D01*
X160491856Y-137034747D01*
X160378029Y-137309549D01*
X160320000Y-137601278D01*
X159385000Y-137601278D01*
X159385000Y-137490475D01*
X159283739Y-136981399D01*
X159085107Y-136501859D01*
X158796738Y-136070285D01*
X158429715Y-135703262D01*
X157998141Y-135414893D01*
X157518601Y-135216261D01*
X157009525Y-135115000D01*
X156490475Y-135115000D01*
X155981399Y-135216261D01*
X155501859Y-135414893D01*
X155070285Y-135703262D01*
X154703262Y-136070285D01*
X154414893Y-136501859D01*
X154216261Y-136981399D01*
X154115000Y-137490475D01*
X154115000Y-138009525D01*
X154216261Y-138518601D01*
X154248578Y-138596621D01*
X153951302Y-138397988D01*
X153562756Y-138237047D01*
X153150279Y-138155000D01*
X153129023Y-138155000D01*
X153180000Y-137898722D01*
X153180000Y-137601278D01*
X153121971Y-137309549D01*
X153008144Y-137034747D01*
X152842893Y-136787431D01*
X152632569Y-136577107D01*
X152385253Y-136411856D01*
X152110451Y-136298029D01*
X151818722Y-136240000D01*
X151521278Y-136240000D01*
X151229549Y-136298029D01*
X150954747Y-136411856D01*
X150707431Y-136577107D01*
X150497107Y-136787431D01*
X150331856Y-137034747D01*
X150218029Y-137309549D01*
X150160000Y-137601278D01*
X150160000Y-137898722D01*
X150218029Y-138190451D01*
X150305626Y-138401928D01*
X148390000Y-138401928D01*
X148265518Y-138414188D01*
X148145820Y-138450498D01*
X148035506Y-138509463D01*
X147938815Y-138588815D01*
X147859463Y-138685506D01*
X147800498Y-138795820D01*
X147764188Y-138915518D01*
X147751928Y-139040000D01*
X143117305Y-139040000D01*
X143292569Y-138922893D01*
X143502893Y-138712569D01*
X143668144Y-138465253D01*
X143781971Y-138190451D01*
X143840000Y-137898722D01*
X143840000Y-137601278D01*
X143781971Y-137309549D01*
X143668144Y-137034747D01*
X143502893Y-136787431D01*
X143292569Y-136577107D01*
X143045253Y-136411856D01*
X142770451Y-136298029D01*
X142478722Y-136240000D01*
X142181278Y-136240000D01*
X141889549Y-136298029D01*
X141614747Y-136411856D01*
X141367431Y-136577107D01*
X141157107Y-136787431D01*
X140991856Y-137034747D01*
X140878029Y-137309549D01*
X140820000Y-137601278D01*
X140335001Y-137601278D01*
X140335001Y-134792323D01*
X140338677Y-134755000D01*
X140335001Y-134717677D01*
X140335001Y-134717668D01*
X140324004Y-134606015D01*
X140280547Y-134462754D01*
X140209975Y-134330725D01*
X140115002Y-134215000D01*
X140086005Y-134191203D01*
X131028688Y-125133887D01*
X131065000Y-124951335D01*
X131065000Y-124668665D01*
X131020509Y-124444999D01*
X138350198Y-124444999D01*
X143471312Y-129566114D01*
X143435000Y-129748665D01*
X143435000Y-130031335D01*
X143490147Y-130308574D01*
X143598320Y-130569727D01*
X143755363Y-130804759D01*
X143955241Y-131004637D01*
X144187759Y-131160000D01*
X143955241Y-131315363D01*
X143755363Y-131515241D01*
X143598320Y-131750273D01*
X143490147Y-132011426D01*
X143435000Y-132288665D01*
X143435000Y-132571335D01*
X143490147Y-132848574D01*
X143598320Y-133109727D01*
X143755363Y-133344759D01*
X143955241Y-133544637D01*
X144187759Y-133700000D01*
X143955241Y-133855363D01*
X143755363Y-134055241D01*
X143598320Y-134290273D01*
X143490147Y-134551426D01*
X143435000Y-134828665D01*
X143435000Y-135111335D01*
X143490147Y-135388574D01*
X143598320Y-135649727D01*
X143755363Y-135884759D01*
X143955241Y-136084637D01*
X144190273Y-136241680D01*
X144451426Y-136349853D01*
X144728665Y-136405000D01*
X145011335Y-136405000D01*
X145288574Y-136349853D01*
X145549727Y-136241680D01*
X145784759Y-136084637D01*
X145984637Y-135884759D01*
X146141680Y-135649727D01*
X146249853Y-135388574D01*
X146305000Y-135111335D01*
X146305000Y-134828665D01*
X146249853Y-134551426D01*
X146141680Y-134290273D01*
X145984637Y-134055241D01*
X145784759Y-133855363D01*
X145552241Y-133700000D01*
X145784759Y-133544637D01*
X145984637Y-133344759D01*
X146141680Y-133109727D01*
X146249853Y-132848574D01*
X146305000Y-132571335D01*
X146305000Y-132288665D01*
X146249853Y-132011426D01*
X146141680Y-131750273D01*
X145984637Y-131515241D01*
X145784759Y-131315363D01*
X145552241Y-131160000D01*
X145784759Y-131004637D01*
X145984637Y-130804759D01*
X146141680Y-130569727D01*
X146249853Y-130308574D01*
X146305000Y-130031335D01*
X146305000Y-129748665D01*
X146249853Y-129471426D01*
X146141680Y-129210273D01*
X145984637Y-128975241D01*
X145784759Y-128775363D01*
X145552241Y-128620000D01*
X145784759Y-128464637D01*
X145984637Y-128264759D01*
X146141680Y-128029727D01*
X146249853Y-127768574D01*
X146305000Y-127491335D01*
X146305000Y-127208665D01*
X146249853Y-126931426D01*
X146141680Y-126670273D01*
X145984637Y-126435241D01*
X145784759Y-126235363D01*
X145552241Y-126080000D01*
X145784759Y-125924637D01*
X145984637Y-125724759D01*
X146141680Y-125489727D01*
X146249853Y-125228574D01*
X146305000Y-124951335D01*
X146305000Y-124668665D01*
X146249853Y-124391426D01*
X146141680Y-124130273D01*
X145984637Y-123895241D01*
X145784759Y-123695363D01*
X145552241Y-123540000D01*
X145784759Y-123384637D01*
X145984637Y-123184759D01*
X146141680Y-122949727D01*
X146249853Y-122688574D01*
X146305000Y-122411335D01*
X146305000Y-122128665D01*
X146249853Y-121851426D01*
X146141680Y-121590273D01*
X145984637Y-121355241D01*
X145784759Y-121155363D01*
X145552241Y-121000000D01*
X145784759Y-120844637D01*
X145984637Y-120644759D01*
X146141680Y-120409727D01*
X146249853Y-120148574D01*
X146278478Y-120004667D01*
X151114667Y-120004667D01*
X151114667Y-129995333D01*
X151120544Y-130055271D01*
X151126003Y-130115257D01*
X151126637Y-130117412D01*
X151126856Y-130119643D01*
X151144241Y-130177224D01*
X151161269Y-130235081D01*
X151162310Y-130237073D01*
X151162958Y-130239218D01*
X151191243Y-130292415D01*
X151219138Y-130345773D01*
X151220541Y-130347518D01*
X151221597Y-130349504D01*
X151259672Y-130396187D01*
X151297404Y-130443118D01*
X151299126Y-130444563D01*
X151300542Y-130446299D01*
X151346871Y-130484626D01*
X151393088Y-130523406D01*
X151395058Y-130524489D01*
X151396784Y-130525917D01*
X151449676Y-130554516D01*
X151502544Y-130583580D01*
X151504687Y-130584260D01*
X151506657Y-130585325D01*
X151564172Y-130603129D01*
X151621604Y-130621347D01*
X151623832Y-130621597D01*
X151625977Y-130622261D01*
X151685844Y-130628553D01*
X151745731Y-130635271D01*
X151750046Y-130635301D01*
X151750199Y-130635317D01*
X151750352Y-130635303D01*
X151754667Y-130635333D01*
X161745333Y-130635333D01*
X161805271Y-130629456D01*
X161865257Y-130623997D01*
X161867412Y-130623363D01*
X161869643Y-130623144D01*
X161927224Y-130605759D01*
X161985081Y-130588731D01*
X161987073Y-130587690D01*
X161989218Y-130587042D01*
X162042415Y-130558757D01*
X162095773Y-130530862D01*
X162097518Y-130529459D01*
X162099504Y-130528403D01*
X162146187Y-130490328D01*
X162193118Y-130452596D01*
X162194563Y-130450874D01*
X162196299Y-130449458D01*
X162234626Y-130403129D01*
X162273406Y-130356912D01*
X162274489Y-130354942D01*
X162275917Y-130353216D01*
X162304516Y-130300324D01*
X162333580Y-130247456D01*
X162334260Y-130245313D01*
X162335325Y-130243343D01*
X162353129Y-130185828D01*
X162371347Y-130128396D01*
X162371597Y-130126168D01*
X162372261Y-130124023D01*
X162378553Y-130064156D01*
X162385271Y-130004269D01*
X162385301Y-129999954D01*
X162385317Y-129999801D01*
X162385303Y-129999648D01*
X162385333Y-129995333D01*
X162385333Y-127624000D01*
X163053928Y-127624000D01*
X163053928Y-129424000D01*
X163066188Y-129548482D01*
X163102498Y-129668180D01*
X163161463Y-129778494D01*
X163240815Y-129875185D01*
X163337506Y-129954537D01*
X163447820Y-130013502D01*
X163567518Y-130049812D01*
X163692000Y-130062072D01*
X165492000Y-130062072D01*
X165616482Y-130049812D01*
X165736180Y-130013502D01*
X165846494Y-129954537D01*
X165943185Y-129875185D01*
X166022537Y-129778494D01*
X166081502Y-129668180D01*
X166117812Y-129548482D01*
X166130072Y-129424000D01*
X166130072Y-127624000D01*
X166117812Y-127499518D01*
X166081502Y-127379820D01*
X166022537Y-127269506D01*
X165943185Y-127172815D01*
X165846494Y-127093463D01*
X165736180Y-127034498D01*
X165616482Y-126998188D01*
X165492000Y-126985928D01*
X163692000Y-126985928D01*
X163567518Y-126998188D01*
X163447820Y-127034498D01*
X163337506Y-127093463D01*
X163240815Y-127172815D01*
X163161463Y-127269506D01*
X163102498Y-127379820D01*
X163066188Y-127499518D01*
X163053928Y-127624000D01*
X162385333Y-127624000D01*
X162385333Y-120004667D01*
X162379456Y-119944729D01*
X162373997Y-119884743D01*
X162373363Y-119882588D01*
X162373144Y-119880357D01*
X162355759Y-119822776D01*
X162338731Y-119764919D01*
X162337690Y-119762927D01*
X162337042Y-119760782D01*
X162308757Y-119707585D01*
X162280862Y-119654227D01*
X162279459Y-119652482D01*
X162278403Y-119650496D01*
X162240328Y-119603813D01*
X162202596Y-119556882D01*
X162200874Y-119555437D01*
X162199458Y-119553701D01*
X162153129Y-119515374D01*
X162106912Y-119476594D01*
X162104942Y-119475511D01*
X162103216Y-119474083D01*
X162050324Y-119445484D01*
X161997456Y-119416420D01*
X161995313Y-119415740D01*
X161993343Y-119414675D01*
X161935828Y-119396871D01*
X161878396Y-119378653D01*
X161876168Y-119378403D01*
X161874023Y-119377739D01*
X161814156Y-119371447D01*
X161754269Y-119364729D01*
X161749954Y-119364699D01*
X161749801Y-119364683D01*
X161749648Y-119364697D01*
X161745333Y-119364667D01*
X151754667Y-119364667D01*
X151694729Y-119370544D01*
X151634743Y-119376003D01*
X151632588Y-119376637D01*
X151630357Y-119376856D01*
X151572776Y-119394241D01*
X151514919Y-119411269D01*
X151512927Y-119412310D01*
X151510782Y-119412958D01*
X151457585Y-119441243D01*
X151404227Y-119469138D01*
X151402482Y-119470541D01*
X151400496Y-119471597D01*
X151353813Y-119509672D01*
X151306882Y-119547404D01*
X151305437Y-119549126D01*
X151303701Y-119550542D01*
X151265374Y-119596871D01*
X151226594Y-119643088D01*
X151225511Y-119645058D01*
X151224083Y-119646784D01*
X151195484Y-119699676D01*
X151166420Y-119752544D01*
X151165740Y-119754687D01*
X151164675Y-119756657D01*
X151146871Y-119814172D01*
X151128653Y-119871604D01*
X151128403Y-119873832D01*
X151127739Y-119875977D01*
X151121447Y-119935844D01*
X151114729Y-119995731D01*
X151114699Y-120000046D01*
X151114683Y-120000199D01*
X151114697Y-120000352D01*
X151114667Y-120004667D01*
X146278478Y-120004667D01*
X146305000Y-119871335D01*
X146305000Y-119588665D01*
X146249853Y-119311426D01*
X146141680Y-119050273D01*
X145984637Y-118815241D01*
X145784759Y-118615363D01*
X145552241Y-118460000D01*
X145784759Y-118304637D01*
X145922506Y-118166890D01*
X156288524Y-118166890D01*
X156333175Y-118314099D01*
X156458359Y-118576920D01*
X156632412Y-118810269D01*
X156848645Y-119005178D01*
X157098748Y-119154157D01*
X157373109Y-119251481D01*
X157603000Y-119130814D01*
X157603000Y-117937000D01*
X157857000Y-117937000D01*
X157857000Y-119130814D01*
X158086891Y-119251481D01*
X158361252Y-119154157D01*
X158611355Y-119005178D01*
X158827588Y-118810269D01*
X159001641Y-118576920D01*
X159126825Y-118314099D01*
X159171476Y-118166890D01*
X159050155Y-117937000D01*
X157857000Y-117937000D01*
X157603000Y-117937000D01*
X156409845Y-117937000D01*
X156288524Y-118166890D01*
X145922506Y-118166890D01*
X145984637Y-118104759D01*
X146141680Y-117869727D01*
X146249853Y-117608574D01*
X146305000Y-117331335D01*
X146305000Y-117048665D01*
X146249853Y-116771426D01*
X146151923Y-116535001D01*
X154647677Y-116535001D01*
X154684999Y-116538677D01*
X154722321Y-116535001D01*
X154722332Y-116535001D01*
X154833985Y-116524004D01*
X154977246Y-116480547D01*
X155109275Y-116409975D01*
X155225000Y-116315002D01*
X155248803Y-116285998D01*
X156245000Y-115289801D01*
X156245000Y-115416260D01*
X156302068Y-115703158D01*
X156414010Y-115973411D01*
X156576525Y-116216632D01*
X156783368Y-116423475D01*
X156965534Y-116545195D01*
X156848645Y-116614822D01*
X156632412Y-116809731D01*
X156458359Y-117043080D01*
X156333175Y-117305901D01*
X156288524Y-117453110D01*
X156409845Y-117683000D01*
X157603000Y-117683000D01*
X157603000Y-117663000D01*
X157857000Y-117663000D01*
X157857000Y-117683000D01*
X159050155Y-117683000D01*
X159171476Y-117453110D01*
X159126825Y-117305901D01*
X159001641Y-117043080D01*
X158827588Y-116809731D01*
X158611355Y-116614822D01*
X158494466Y-116545195D01*
X158676632Y-116423475D01*
X158883475Y-116216632D01*
X159045990Y-115973411D01*
X159157932Y-115703158D01*
X159215000Y-115416260D01*
X159215000Y-115123740D01*
X159157932Y-114836842D01*
X159045990Y-114566589D01*
X158883475Y-114323368D01*
X158676632Y-114116525D01*
X158502240Y-114000000D01*
X158676632Y-113883475D01*
X158883475Y-113676632D01*
X159045990Y-113433411D01*
X159157932Y-113163158D01*
X159215000Y-112876260D01*
X159215000Y-112583740D01*
X159157932Y-112296842D01*
X159045990Y-112026589D01*
X158883475Y-111783368D01*
X158751620Y-111651513D01*
X158824180Y-111629502D01*
X158934494Y-111570537D01*
X159031185Y-111491185D01*
X159110537Y-111394494D01*
X159169502Y-111284180D01*
X159205812Y-111164482D01*
X159218072Y-111040000D01*
X159218072Y-110613688D01*
X161366000Y-110613688D01*
X161366000Y-110886312D01*
X161419186Y-111153698D01*
X161523515Y-111405570D01*
X161674977Y-111632249D01*
X161867751Y-111825023D01*
X161990001Y-111906708D01*
X161990000Y-116093293D01*
X161867751Y-116174977D01*
X161674977Y-116367751D01*
X161523515Y-116594430D01*
X161419186Y-116846302D01*
X161366000Y-117113688D01*
X161366000Y-117386312D01*
X161419186Y-117653698D01*
X161523515Y-117905570D01*
X161674977Y-118132249D01*
X161867751Y-118325023D01*
X162094430Y-118476485D01*
X162346302Y-118580814D01*
X162613688Y-118634000D01*
X162886312Y-118634000D01*
X163030515Y-118605317D01*
X163832001Y-119406804D01*
X163832001Y-119565687D01*
X163613495Y-119711688D01*
X163399688Y-119925495D01*
X163231701Y-120176905D01*
X163115989Y-120456257D01*
X163057000Y-120752816D01*
X163057000Y-121055184D01*
X163115989Y-121351743D01*
X163231701Y-121631095D01*
X163399688Y-121882505D01*
X163613495Y-122096312D01*
X163864905Y-122264299D01*
X164144257Y-122380011D01*
X164440816Y-122439000D01*
X164743184Y-122439000D01*
X165039743Y-122380011D01*
X165319095Y-122264299D01*
X165570505Y-122096312D01*
X165784312Y-121882505D01*
X165952299Y-121631095D01*
X166068011Y-121351743D01*
X166127000Y-121055184D01*
X166127000Y-120752816D01*
X166068011Y-120456257D01*
X165952299Y-120176905D01*
X165784312Y-119925495D01*
X165570505Y-119711688D01*
X165352000Y-119565687D01*
X165352000Y-119129322D01*
X165355676Y-119091999D01*
X165352000Y-119054676D01*
X165352000Y-119054667D01*
X165341003Y-118943014D01*
X165297546Y-118799753D01*
X165226974Y-118667724D01*
X165201819Y-118637072D01*
X165155799Y-118580996D01*
X165155795Y-118580992D01*
X165132001Y-118551999D01*
X165103008Y-118528205D01*
X164105317Y-117530515D01*
X164134000Y-117386312D01*
X164134000Y-117113688D01*
X164080814Y-116846302D01*
X163976485Y-116594430D01*
X163825023Y-116367751D01*
X163632249Y-116174977D01*
X163510000Y-116093293D01*
X163510000Y-111906707D01*
X163632249Y-111825023D01*
X163825023Y-111632249D01*
X163976485Y-111405570D01*
X164080814Y-111153698D01*
X164134000Y-110886312D01*
X164134000Y-110613688D01*
X164080814Y-110346302D01*
X163976485Y-110094430D01*
X163825023Y-109867751D01*
X163632249Y-109674977D01*
X163405570Y-109523515D01*
X163153698Y-109419186D01*
X162886312Y-109366000D01*
X162613688Y-109366000D01*
X162346302Y-109419186D01*
X162094430Y-109523515D01*
X161867751Y-109674977D01*
X161674977Y-109867751D01*
X161523515Y-110094430D01*
X161419186Y-110346302D01*
X161366000Y-110613688D01*
X159218072Y-110613688D01*
X159218072Y-109340000D01*
X159205812Y-109215518D01*
X159169502Y-109095820D01*
X159110537Y-108985506D01*
X159031185Y-108888815D01*
X159008599Y-108870279D01*
X161073326Y-108870279D01*
X161138729Y-109109045D01*
X161385538Y-109224845D01*
X161650195Y-109290270D01*
X161922531Y-109302805D01*
X162192081Y-109261970D01*
X162448484Y-109169332D01*
X162561271Y-109109045D01*
X162626674Y-108870279D01*
X167573326Y-108870279D01*
X167638729Y-109109045D01*
X167885538Y-109224845D01*
X168150195Y-109290270D01*
X168422531Y-109302805D01*
X168692081Y-109261970D01*
X168948484Y-109169332D01*
X169061271Y-109109045D01*
X169126674Y-108870279D01*
X168350000Y-108093605D01*
X167573326Y-108870279D01*
X162626674Y-108870279D01*
X161850000Y-108093605D01*
X161073326Y-108870279D01*
X159008599Y-108870279D01*
X158934494Y-108809463D01*
X158824180Y-108750498D01*
X158704482Y-108714188D01*
X158580000Y-108701928D01*
X156880000Y-108701928D01*
X156755518Y-108714188D01*
X156635820Y-108750498D01*
X156525506Y-108809463D01*
X156428815Y-108888815D01*
X156349463Y-108985506D01*
X156290498Y-109095820D01*
X156254188Y-109215518D01*
X156241928Y-109340000D01*
X156241928Y-110603270D01*
X154370198Y-112475001D01*
X146260509Y-112475001D01*
X146305000Y-112251335D01*
X146305000Y-111968665D01*
X146268688Y-111786113D01*
X150068270Y-107986531D01*
X160461195Y-107986531D01*
X160502030Y-108256081D01*
X160594668Y-108512484D01*
X160654955Y-108625271D01*
X160893721Y-108690674D01*
X161670395Y-107914000D01*
X162029605Y-107914000D01*
X162806279Y-108690674D01*
X163045045Y-108625271D01*
X163160845Y-108378462D01*
X163226270Y-108113805D01*
X163232128Y-107986531D01*
X166961195Y-107986531D01*
X167002030Y-108256081D01*
X167094668Y-108512484D01*
X167154955Y-108625271D01*
X167393721Y-108690674D01*
X168170395Y-107914000D01*
X168529605Y-107914000D01*
X169306279Y-108690674D01*
X169545045Y-108625271D01*
X169660845Y-108378462D01*
X169726270Y-108113805D01*
X169738805Y-107841469D01*
X169697970Y-107571919D01*
X169605332Y-107315516D01*
X169545045Y-107202729D01*
X169306279Y-107137326D01*
X168529605Y-107914000D01*
X168170395Y-107914000D01*
X167393721Y-107137326D01*
X167154955Y-107202729D01*
X167039155Y-107449538D01*
X166973730Y-107714195D01*
X166961195Y-107986531D01*
X163232128Y-107986531D01*
X163238805Y-107841469D01*
X163197970Y-107571919D01*
X163105332Y-107315516D01*
X163045045Y-107202729D01*
X162806279Y-107137326D01*
X162029605Y-107914000D01*
X161670395Y-107914000D01*
X160893721Y-107137326D01*
X160654955Y-107202729D01*
X160539155Y-107449538D01*
X160473730Y-107714195D01*
X160461195Y-107986531D01*
X150068270Y-107986531D01*
X151097080Y-106957721D01*
X161073326Y-106957721D01*
X161850000Y-107734395D01*
X162626674Y-106957721D01*
X167573326Y-106957721D01*
X168350000Y-107734395D01*
X169126674Y-106957721D01*
X169061271Y-106718955D01*
X168814462Y-106603155D01*
X168549805Y-106537730D01*
X168277469Y-106525195D01*
X168007919Y-106566030D01*
X167751516Y-106658668D01*
X167638729Y-106718955D01*
X167573326Y-106957721D01*
X162626674Y-106957721D01*
X162561271Y-106718955D01*
X162314462Y-106603155D01*
X162049805Y-106537730D01*
X161777469Y-106525195D01*
X161507919Y-106566030D01*
X161251516Y-106658668D01*
X161138729Y-106718955D01*
X161073326Y-106957721D01*
X151097080Y-106957721D01*
X153880802Y-104174000D01*
X160464011Y-104174000D01*
X160475188Y-104287482D01*
X160511498Y-104407180D01*
X160570463Y-104517494D01*
X160649815Y-104614185D01*
X160746506Y-104693537D01*
X160856820Y-104752502D01*
X160976518Y-104788812D01*
X161101000Y-104801072D01*
X162599000Y-104801072D01*
X162723482Y-104788812D01*
X162843180Y-104752502D01*
X162953494Y-104693537D01*
X163050185Y-104614185D01*
X163129537Y-104517494D01*
X163188502Y-104407180D01*
X163224812Y-104287482D01*
X163235989Y-104174000D01*
X167193293Y-104174000D01*
X167274977Y-104296249D01*
X167467751Y-104489023D01*
X167694430Y-104640485D01*
X167946302Y-104744814D01*
X168213688Y-104798000D01*
X168486312Y-104798000D01*
X168753698Y-104744814D01*
X169005570Y-104640485D01*
X169232249Y-104489023D01*
X169425023Y-104296249D01*
X169576485Y-104069570D01*
X169680814Y-103817698D01*
X169734000Y-103550312D01*
X169734000Y-103277688D01*
X169680814Y-103010302D01*
X169576485Y-102758430D01*
X169425023Y-102531751D01*
X169232249Y-102338977D01*
X169005570Y-102187515D01*
X168753698Y-102083186D01*
X168486312Y-102030000D01*
X168213688Y-102030000D01*
X167946302Y-102083186D01*
X167694430Y-102187515D01*
X167467751Y-102338977D01*
X167274977Y-102531751D01*
X167193293Y-102654000D01*
X163235989Y-102654000D01*
X163224812Y-102540518D01*
X163188502Y-102420820D01*
X163129537Y-102310506D01*
X163050185Y-102213815D01*
X162953494Y-102134463D01*
X162843180Y-102075498D01*
X162723482Y-102039188D01*
X162599000Y-102026928D01*
X161101000Y-102026928D01*
X160976518Y-102039188D01*
X160856820Y-102075498D01*
X160746506Y-102134463D01*
X160649815Y-102213815D01*
X160570463Y-102310506D01*
X160511498Y-102420820D01*
X160475188Y-102540518D01*
X160464011Y-102654000D01*
X153603322Y-102654000D01*
X153565999Y-102650324D01*
X153528676Y-102654000D01*
X153528667Y-102654000D01*
X153417014Y-102664997D01*
X153273753Y-102708454D01*
X153141723Y-102779026D01*
X153109198Y-102805719D01*
X153025999Y-102873999D01*
X153002201Y-102902997D01*
X146305266Y-109599933D01*
X146310217Y-109499488D01*
X146268787Y-109219870D01*
X146173603Y-108953708D01*
X146106671Y-108828486D01*
X145862702Y-108756903D01*
X145049605Y-109570000D01*
X145063748Y-109584143D01*
X144884143Y-109763748D01*
X144870000Y-109749605D01*
X144056903Y-110562702D01*
X144128486Y-110806671D01*
X144192992Y-110837194D01*
X144190273Y-110838320D01*
X143955241Y-110995363D01*
X143755363Y-111195241D01*
X143598320Y-111430273D01*
X143490147Y-111691426D01*
X143435000Y-111968665D01*
X143435000Y-112251335D01*
X143479491Y-112475001D01*
X133622321Y-112475001D01*
X133584998Y-112471325D01*
X133547675Y-112475001D01*
X133547666Y-112475001D01*
X133436013Y-112485998D01*
X133292752Y-112529455D01*
X133160723Y-112600027D01*
X133044998Y-112695000D01*
X133021200Y-112723998D01*
X131065266Y-114679933D01*
X131070217Y-114579488D01*
X131028787Y-114299870D01*
X130933603Y-114033708D01*
X130866671Y-113908486D01*
X130622702Y-113836903D01*
X129809605Y-114650000D01*
X129823748Y-114664143D01*
X129644143Y-114843748D01*
X129630000Y-114829605D01*
X128816903Y-115642702D01*
X128888486Y-115886671D01*
X128952992Y-115917194D01*
X128950273Y-115918320D01*
X128715241Y-116075363D01*
X128515363Y-116275241D01*
X128358320Y-116510273D01*
X128250147Y-116771426D01*
X128195000Y-117048665D01*
X128195000Y-117331335D01*
X128250147Y-117608574D01*
X128358320Y-117869727D01*
X128515363Y-118104759D01*
X128715241Y-118304637D01*
X128947759Y-118460000D01*
X128715241Y-118615363D01*
X128515363Y-118815241D01*
X128365031Y-119040229D01*
X124045314Y-114720512D01*
X128189783Y-114720512D01*
X128231213Y-115000130D01*
X128326397Y-115266292D01*
X128393329Y-115391514D01*
X128637298Y-115463097D01*
X129450395Y-114650000D01*
X128637298Y-113836903D01*
X128393329Y-113908486D01*
X128272429Y-114163996D01*
X128203700Y-114438184D01*
X128189783Y-114720512D01*
X124045314Y-114720512D01*
X122427504Y-113102702D01*
X128816903Y-113102702D01*
X128888486Y-113346671D01*
X128954636Y-113377971D01*
X128888486Y-113413329D01*
X128816903Y-113657298D01*
X129630000Y-114470395D01*
X130443097Y-113657298D01*
X130371514Y-113413329D01*
X130305364Y-113382029D01*
X130371514Y-113346671D01*
X130443097Y-113102702D01*
X129630000Y-112289605D01*
X128816903Y-113102702D01*
X122427504Y-113102702D01*
X121505314Y-112180512D01*
X128189783Y-112180512D01*
X128231213Y-112460130D01*
X128326397Y-112726292D01*
X128393329Y-112851514D01*
X128637298Y-112923097D01*
X129450395Y-112110000D01*
X129809605Y-112110000D01*
X130622702Y-112923097D01*
X130866671Y-112851514D01*
X130987571Y-112596004D01*
X131056300Y-112321816D01*
X131070217Y-112039488D01*
X131028787Y-111759870D01*
X130933603Y-111493708D01*
X130866671Y-111368486D01*
X130622702Y-111296903D01*
X129809605Y-112110000D01*
X129450395Y-112110000D01*
X128637298Y-111296903D01*
X128393329Y-111368486D01*
X128272429Y-111623996D01*
X128203700Y-111898184D01*
X128189783Y-112180512D01*
X121505314Y-112180512D01*
X116116372Y-106791571D01*
X116147000Y-106637592D01*
X116147000Y-106362408D01*
X116120663Y-106230000D01*
X128191928Y-106230000D01*
X128191928Y-107830000D01*
X128204188Y-107954482D01*
X128240498Y-108074180D01*
X128299463Y-108184494D01*
X128378815Y-108281185D01*
X128475506Y-108360537D01*
X128585820Y-108419502D01*
X128705518Y-108455812D01*
X128713961Y-108456643D01*
X128515363Y-108655241D01*
X128358320Y-108890273D01*
X128250147Y-109151426D01*
X128195000Y-109428665D01*
X128195000Y-109711335D01*
X128250147Y-109988574D01*
X128358320Y-110249727D01*
X128515363Y-110484759D01*
X128715241Y-110684637D01*
X128949128Y-110840915D01*
X128888486Y-110873329D01*
X128816903Y-111117298D01*
X129630000Y-111930395D01*
X130443097Y-111117298D01*
X130371514Y-110873329D01*
X130307008Y-110842806D01*
X130309727Y-110841680D01*
X130544759Y-110684637D01*
X130744637Y-110484759D01*
X130901680Y-110249727D01*
X131009853Y-109988574D01*
X131065000Y-109711335D01*
X131065000Y-109640512D01*
X143429783Y-109640512D01*
X143471213Y-109920130D01*
X143566397Y-110186292D01*
X143633329Y-110311514D01*
X143877298Y-110383097D01*
X144690395Y-109570000D01*
X143877298Y-108756903D01*
X143633329Y-108828486D01*
X143512429Y-109083996D01*
X143443700Y-109358184D01*
X143429783Y-109640512D01*
X131065000Y-109640512D01*
X131065000Y-109428665D01*
X131009853Y-109151426D01*
X130901680Y-108890273D01*
X130744637Y-108655241D01*
X130546039Y-108456643D01*
X130554482Y-108455812D01*
X130674180Y-108419502D01*
X130784494Y-108360537D01*
X130881185Y-108281185D01*
X130960537Y-108184494D01*
X131019502Y-108074180D01*
X131055812Y-107954482D01*
X131068072Y-107830000D01*
X131068072Y-106888665D01*
X143435000Y-106888665D01*
X143435000Y-107171335D01*
X143490147Y-107448574D01*
X143598320Y-107709727D01*
X143755363Y-107944759D01*
X143955241Y-108144637D01*
X144189128Y-108300915D01*
X144128486Y-108333329D01*
X144056903Y-108577298D01*
X144870000Y-109390395D01*
X145683097Y-108577298D01*
X145611514Y-108333329D01*
X145547008Y-108302806D01*
X145549727Y-108301680D01*
X145784759Y-108144637D01*
X145984637Y-107944759D01*
X146141680Y-107709727D01*
X146249853Y-107448574D01*
X146305000Y-107171335D01*
X146305000Y-106888665D01*
X146249853Y-106611426D01*
X146141680Y-106350273D01*
X145984637Y-106115241D01*
X145784759Y-105915363D01*
X145549727Y-105758320D01*
X145288574Y-105650147D01*
X145011335Y-105595000D01*
X144728665Y-105595000D01*
X144451426Y-105650147D01*
X144190273Y-105758320D01*
X143955241Y-105915363D01*
X143755363Y-106115241D01*
X143598320Y-106350273D01*
X143490147Y-106611426D01*
X143435000Y-106888665D01*
X131068072Y-106888665D01*
X131068072Y-106230000D01*
X131055812Y-106105518D01*
X131019502Y-105985820D01*
X130960537Y-105875506D01*
X130881185Y-105778815D01*
X130784494Y-105699463D01*
X130674180Y-105640498D01*
X130554482Y-105604188D01*
X130430000Y-105591928D01*
X128830000Y-105591928D01*
X128705518Y-105604188D01*
X128585820Y-105640498D01*
X128475506Y-105699463D01*
X128378815Y-105778815D01*
X128299463Y-105875506D01*
X128240498Y-105985820D01*
X128204188Y-106105518D01*
X128191928Y-106230000D01*
X116120663Y-106230000D01*
X116093314Y-106092510D01*
X115988005Y-105838273D01*
X115835120Y-105609465D01*
X115640535Y-105414880D01*
X115411727Y-105261995D01*
X115157490Y-105156686D01*
X114887592Y-105103000D01*
X114612408Y-105103000D01*
X114342510Y-105156686D01*
X114088273Y-105261995D01*
X113859465Y-105414880D01*
X113664880Y-105609465D01*
X113511995Y-105838273D01*
X113500758Y-105865401D01*
X113455656Y-105781020D01*
X113215565Y-105714040D01*
X112429605Y-106500000D01*
X112443748Y-106514143D01*
X112264143Y-106693748D01*
X112250000Y-106679605D01*
X112235858Y-106693748D01*
X112056253Y-106514143D01*
X112070395Y-106500000D01*
X111284435Y-105714040D01*
X111044344Y-105781020D01*
X111001782Y-105871533D01*
X110988005Y-105838273D01*
X110835120Y-105609465D01*
X110760090Y-105534435D01*
X111464040Y-105534435D01*
X112250000Y-106320395D01*
X113035960Y-105534435D01*
X112968980Y-105294344D01*
X112719952Y-105177244D01*
X112452865Y-105110977D01*
X112177983Y-105098090D01*
X111905867Y-105139078D01*
X111646977Y-105232364D01*
X111531020Y-105294344D01*
X111464040Y-105534435D01*
X110760090Y-105534435D01*
X110640535Y-105414880D01*
X110411727Y-105261995D01*
X110157490Y-105156686D01*
X109887592Y-105103000D01*
X109612408Y-105103000D01*
X109342510Y-105156686D01*
X109088273Y-105261995D01*
X108859465Y-105414880D01*
X108664880Y-105609465D01*
X108511995Y-105838273D01*
X108406686Y-106092510D01*
X108353000Y-106362408D01*
X100685000Y-106362408D01*
X100685000Y-104033504D01*
X100751356Y-103356752D01*
X100938168Y-102738002D01*
X101241602Y-102167325D01*
X101650104Y-101666452D01*
X102148112Y-101254464D01*
X102716658Y-100947052D01*
X103334090Y-100755925D01*
X104008894Y-100685000D01*
X170466496Y-100685000D01*
X171143248Y-100751356D01*
G37*
%TD.AperFunction*%
%TD*%
M02*
